<?xml version="1.0" encoding="UTF-8"?>
<svg xmlns="http://www.w3.org/2000/svg" version="1.1" viewBox="0 0 100 100">
  <!-- Generator: Adobe Illustrator 29.0.0, SVG Export Plug-In . SVG Version: 2.1.0 Build 186)  -->
  <defs>
    <style>
      .st0 {
        fill: #482933;
      }

      .st1 {
        fill: #fcf4e0;
      }

      .st2 {
        fill: #7e4c5d;
      }

      .st3 {
        fill: #7d6262;
      }

      .st4 {
        fill: #98797a;
      }

      .st5 {
        fill: #4e303a;
      }

      .st6 {
        fill: #70485a;
      }

      .st7 {
        fill: #c2dd76;
      }

      .st8 {
        fill: #a88b8f;
      }

      .st9, .st10, .st11, .st12 {
        mix-blend-mode: multiply;
      }

      .st9, .st13 {
        fill: #897998;
      }

      .st14 {
        isolation: isolate;
      }

      .st15 {
        fill: #bda195;
      }

      .st16 {
        fill: #aa7723;
      }

      .st17 {
        fill: #895b6b;
      }

      .st18 {
        fill: #866061;
      }

      .st19 {
        fill: #6e3d1c;
      }

      .st20 {
        fill: #d6ccc7;
      }

      .st21 {
        fill: #f9f6e1;
      }

      .st22 {
        fill: #987677;
      }

      .st10 {
        fill: #c4bccc;
      }

      .st23 {
        fill: #9c7f84;
      }

      .st24 {
        fill: #d6e371;
      }

      .st25 {
        fill: #612c07;
      }

      .st26 {
        fill: #f3ebd8;
      }

      .st27 {
        fill: #2b0512;
      }

      .st28 {
        fill: #593b45;
      }

      .st29 {
        fill: #a17e7e;
      }

      .st30 {
        fill: #805b5c;
      }

      .st11 {
        fill: #c5bdcd;
      }

      .st31 {
        fill: #e5dad5;
      }

      .st12 {
        fill: #b0a4ba;
      }

      .st32 {
        fill: #694c51;
      }

      .st33 {
        fill: #7c4f1f;
      }

      .st34 {
        fill: #4d6e4a;
      }
    </style>
  </defs>
  <g class="st14">
    <g id="Layer_1">
      <g>
        <g>
          <g>
            <g>
              <polygon class="st10" points="96.7 66.7 84 59.4 70.8 77 78.9 77 96.7 66.7"/>
              <polygon class="st20" points="20 44.8 39.1 55.8 39.1 40.2 20 29.2 20 44.8"/>
              <polygon class="st29" points="19.4 45.2 38.4 56.2 38.4 53.2 19.4 42.2 19.4 45.2"/>
              <polygon class="st15" points="19.4 42.2 20 41.8 39.1 52.8 38.4 53.2 19.4 42.2"/>
              <g>
                <g>
                  <g>
                    <polygon class="st9" points="26 35.2 33.5 38.9 33.6 39.2 33.6 46.4 26 42 26 35.2"/>
                    <polygon class="st4" points="33.2 39 33.5 38.9 33.5 45.9 33.2 46.1 33.2 39"/>
                    <polygon class="st26" points="26.1 34.6 33.5 38.9 33.2 39 25.8 34.8 26.1 34.6"/>
                    <polygon class="st1" points="25.8 34.8 33.2 39 33.2 46.1 25.8 41.8 25.8 34.8"/>
                  </g>
                  <g>
                    <polygon class="st9" points="25.2 33.4 34.4 38.2 34.5 38.5 34.5 39.8 25.2 34.4 25.2 33.4"/>
                    <polygon class="st4" points="34.1 38.4 34.4 38.2 34.4 39.4 34.1 39.6 34.1 38.4"/>
                    <polygon class="st26" points="25.2 32.9 34.4 38.2 34.1 38.4 24.9 33.1 25.2 32.9"/>
                    <polygon class="st1" points="24.9 33.1 34.1 38.4 34.1 39.6 24.9 34.3 24.9 33.1"/>
                  </g>
                </g>
                <polygon class="st26" points="32.7 45.2 32.7 44.5 27 41.2 26.4 41.6 32.7 45.2"/>
                <polygon class="st4" points="26.4 35.6 27 35.9 27 41.2 26.4 41.6 26.4 35.6"/>
                <polygon class="st5" points="27 35.9 27 41.2 32.7 44.5 32.7 39.2 30.3 37.8 30 37.6 27.5 36.2 27 35.9"/>
                <polygon class="st9" points="26.4 41.6 27.7 41.6 27.7 37.2 32.7 40 32.7 39.2 27 35.9 27 41.2 26.4 41.6"/>
                <g>
                  <g>
                    <polygon class="st17" points="27.9 38.9 27.5 38.7 27.5 41 30 42.4 30 40.2 27.9 38.9"/>
                    <polygon class="st17" points="27.5 36.2 27.5 38.4 27.9 38.6 30 39.8 30 37.6 27.9 36.4 27.5 36.2"/>
                    <polygon class="st27" points="27.5 36.2 27.5 38.4 27.9 38.6 27.9 36.4 27.5 36.2"/>
                    <polygon class="st27" points="27.9 38.9 27.5 38.7 27.5 41 27.9 40.8 27.9 38.9"/>
                    <polygon class="st17" points="30.3 37.8 30.3 42.6 32.7 43.9 32.7 39.2 30.3 37.8"/>
                    <polygon class="st27" points="30.3 37.8 30.3 42.6 30.7 42.4 30.7 38 30.3 37.8"/>
                  </g>
                  <polygon class="st5" points="30.3 40 30.3 40.4 32.7 41.7 32.7 41.3 30.3 40"/>
                </g>
                <polygon class="st28" points="30 39.8 27.5 38.4 27.9 38.2 30 39.4 30 39.8"/>
                <polygon class="st28" points="32.7 41.3 30.3 40 30.7 39.8 32.7 41 32.7 41.3"/>
                <polygon class="st28" points="30 42.4 27.5 41 27.9 40.8 30 42 30 42.4"/>
                <polygon class="st28" points="32.7 43.9 30.3 42.6 30.7 42.4 32.7 43.6 32.7 43.9"/>
                <polygon class="st9" points="30.3 42.6 31 42.6 31 41.2 32.7 42.2 32.7 41.7 30.7 40.6 30.7 42.4 30.3 42.6"/>
                <polygon class="st9" points="30.3 40 31 40 31 38.7 32.7 39.7 32.7 39.2 30.7 38 30.7 39.8 30.3 40"/>
                <polygon class="st9" points="27.6 41 28.3 41 28.3 39.7 30 40.7 30 40.2 27.9 38.9 27.9 40.8 27.5 41 27.6 41"/>
                <polygon class="st9" points="27.6 38.4 28.3 38.4 28.3 37.2 30 38.1 30 37.6 27.9 36.4 27.9 38.2 27.5 38.4 27.6 38.4"/>
              </g>
              <polygon class="st9" points="20 30 39.1 41.1 39.1 38.1 20 27 20 30"/>
              <polygon class="st31" points="36.6 57.2 70.8 77 70.8 61.4 53.8 33.8 36.6 41.6 36.6 57.2"/>
              <g>
                <g>
                  <g>
                    <polygon class="st9" points="50.3 40.4 57.8 44.1 57.9 44.4 57.9 51.6 50.3 47.2 50.3 40.4"/>
                    <polygon class="st4" points="57.5 44.2 57.8 44.1 57.8 51.1 57.5 51.2 57.5 44.2"/>
                    <polygon class="st26" points="50.4 39.8 57.8 44.1 57.5 44.2 50.1 39.9 50.4 39.8"/>
                    <polygon class="st1" points="50.1 39.9 57.5 44.2 57.5 51.2 50.1 46.9 50.1 39.9"/>
                  </g>
                  <g>
                    <polygon class="st9" points="49.4 38.5 58.7 43.4 58.8 43.7 58.8 45 49.4 39.6 49.4 38.5"/>
                    <polygon class="st4" points="58.3 43.6 58.7 43.4 58.7 44.6 58.3 44.8 58.3 43.6"/>
                    <polygon class="st26" points="49.5 38.1 58.7 43.4 58.3 43.6 49.1 38.3 49.5 38.1"/>
                    <polygon class="st1" points="49.1 38.3 58.3 43.6 58.3 44.8 49.1 39.5 49.1 38.3"/>
                  </g>
                </g>
                <polygon class="st26" points="57 50.4 57 49.7 51.3 46.4 50.7 46.8 57 50.4"/>
                <polygon class="st4" points="50.7 40.7 51.3 41.1 51.3 46.4 50.7 46.8 50.7 40.7"/>
                <polygon class="st5" points="51.3 41.1 51.3 46.4 57 49.7 57 44.4 54.6 43 54.2 42.8 51.8 41.4 51.3 41.1"/>
                <polygon class="st9" points="50.7 46.8 51.9 46.8 51.9 42.4 57 45.2 57 44.4 51.3 41.1 51.3 46.4 50.7 46.8"/>
                <g>
                  <g>
                    <polygon class="st17" points="52.1 44.1 51.8 43.9 51.8 46.1 54.2 47.5 54.2 45.3 52.1 44.1"/>
                    <polygon class="st17" points="51.8 41.4 51.8 43.5 52.1 43.7 54.2 45 54.2 42.8 52.1 41.6 51.8 41.4"/>
                    <polygon class="st27" points="51.8 41.4 51.8 43.5 52.1 43.7 52.1 41.6 51.8 41.4"/>
                    <polygon class="st27" points="52.1 44.1 51.8 43.9 51.8 46.1 52.1 45.9 52.1 44.1"/>
                    <polygon class="st17" points="54.6 43 54.6 47.8 57 49.1 57 44.4 54.6 43"/>
                    <polygon class="st27" points="54.6 43 54.6 47.8 54.9 47.6 54.9 43.2 54.6 43"/>
                  </g>
                  <polygon class="st5" points="54.6 45.2 54.6 45.5 57 46.9 57 46.5 54.6 45.2"/>
                </g>
                <polygon class="st28" points="54.2 45 51.8 43.5 52.1 43.3 54.2 44.6 54.2 45"/>
                <polygon class="st28" points="57 46.5 54.6 45.2 54.9 45 57 46.1 57 46.5"/>
                <polygon class="st28" points="54.2 47.5 51.8 46.1 52.1 45.9 54.2 47.2 54.2 47.5"/>
                <polygon class="st28" points="57 49.1 54.6 47.8 54.9 47.6 57 48.7 57 49.1"/>
                <polygon class="st9" points="54.6 47.8 55.3 47.8 55.3 46.4 57 47.4 57 46.9 54.9 45.7 54.9 47.6 54.6 47.8"/>
                <polygon class="st9" points="54.6 45.2 55.3 45.2 55.3 43.9 57 44.9 57 44.4 54.9 43.2 54.9 45 54.6 45.2"/>
                <polygon class="st9" points="51.9 46.2 52.6 46.2 52.6 44.8 54.2 45.8 54.2 45.3 52.1 44.1 52.1 45.9 51.8 46.1 51.9 46.2"/>
                <polygon class="st9" points="51.9 43.6 52.6 43.6 52.6 42.3 54.2 43.3 54.2 42.8 52.1 41.6 52.1 43.3 51.8 43.5 51.9 43.6"/>
              </g>
              <g>
                <polygon class="st9" points="53 53.7 66 60.5 66.1 60.9 66.1 71.4 53 63.9 53 53.7"/>
                <polygon class="st4" points="65.7 60.7 66 60.5 66 70.9 65.7 71.1 65.7 60.7"/>
                <polygon class="st26" points="53.1 53.1 66 60.5 65.7 60.7 52.8 53.2 53.1 53.1"/>
                <polygon class="st1" points="52.8 53.2 65.7 60.7 65.7 71.1 52.8 63.6 52.8 53.2"/>
              </g>
              <g>
                <polygon class="st9" points="52.1 51.8 67 59.9 67.1 60.1 67.1 61.4 52.1 52.8 52.1 51.8"/>
                <polygon class="st4" points="66.7 60.1 67 59.9 67 61 66.7 61.2 66.7 60.1"/>
                <polygon class="st26" points="52.2 51.3 67 59.9 66.7 60.1 51.9 51.5 52.2 51.3"/>
                <polygon class="st1" points="51.9 51.5 66.7 60.1 66.7 61.2 51.9 52.7 51.9 51.5"/>
              </g>
              <polygon class="st9" points="53.8 33.8 70.8 61.4 70.8 63.7 53.8 36.1 36.6 43.9 36.6 41.6 53.8 33.8"/>
              <path class="st5" d="M41.7,46.7l3.4,2c.6.3,1.1,1.2,1.1,2v12.1l-5.5-3.2v-12.1c0-.8.5-1.1,1.1-.8Z"/>
              <path class="st9" d="M41.7,46.7l3.4,2c.5.3.9,1,1,1.7-.1-.5-.4-.8-.6-1-.3-.2-2.7-1.6-3.2-1.8-.5-.1-.5.3-.5.3v10.6h-1.1v-11c0-.8.5-1.1,1.1-.8Z"/>
              <path class="st32" d="M41.3,46.6c0,.2-.1.4-.1.6v12.1l5,2.9v.6l-5.5-3.2v-12.1c0-.6.3-.9.7-.9Z"/>
              <polygon class="st17" points="41.9 49.1 45.6 51.2 45.6 59.3 41.9 57.2 41.9 49.1"/>
              <polygon class="st27" points="42.3 49.3 42.3 57 41.9 57.2 41.9 49.1 42.3 49.3"/>
              <polygon class="st28" points="45.6 59.3 41.9 57.2 42.3 57 45.6 58.9 45.6 59.3"/>
              <polygon class="st9" points="41.9 57.2 42.6 57.2 42.6 50 45.6 51.6 45.6 51.2 42.3 49.3 42.3 57 41.9 57.2"/>
              <polygon class="st1" points="36 58.4 46.2 64.4 46.2 65.4 36 59.5 36 58.4"/>
              <polygon class="st18" points="48.5 63.1 46.2 64.4 46.2 65.4 48.5 64.1 48.5 63.1"/>
              <polygon class="st18" points="88.1 67.1 70.8 77 70.8 61.4 88.1 51.4 88.1 67.1"/>
              <polygon class="st5" points="88.8 52.6 71.5 62.5 53.8 33.8 71.1 23.9 88.8 52.6"/>
              <polygon class="st17" points="52.8 32.1 35.6 42.1 53.8 33.8 71.1 23.9 52.8 32.1"/>
              <polygon class="st2" points="55.8 31.1 27.2 14.5 18.5 28.3 39.1 40.2 55.8 31.1"/>
              <polygon class="st9" points="34.3 34.8 39.5 31 38.8 27.3 34.2 19.2 34.3 34.8"/>
              <polygon class="st31" points="25.5 24.1 29.9 21.7 34.3 29.2 34.3 34.8 25.5 29.7 25.5 24.1"/>
              <polygon class="st9" points="29.9 21.7 34.3 29.2 34.3 30.1 29.9 22.6 25.5 25 25.5 24.1 29.9 21.7"/>
              <polygon class="st32" points="37.6 29.7 34.3 34.8 34.3 29.2 37.6 27.3 37.6 29.7"/>
              <g>
                <g>
                  <polygon class="st9" points="26.8 25 32.9 27.8 33 28.2 33 34 26.8 30.5 26.8 25"/>
                  <polygon class="st4" points="32.7 28 32.9 27.8 32.9 33.5 32.7 33.7 32.7 28"/>
                  <polygon class="st26" points="26.9 24.4 32.9 27.8 32.7 28 26.6 24.5 26.9 24.4"/>
                  <polygon class="st1" points="26.6 24.5 32.7 28 32.7 33.7 26.6 30.2 26.6 24.5"/>
                </g>
                <g>
                  <polygon class="st5" points="27.7 25.5 27.7 29.7 28.3 30.1 32.2 32.3 32.2 28.1 30.4 27.1 30.1 26.9 28.1 25.8 27.7 25.5"/>
                  <polygon class="st26" points="32.2 33 32.2 32.3 27.7 29.7 27.1 30.1 32.2 33"/>
                  <polygon class="st9" points="27.1 30.1 28.3 30.1 28.3 26.8 32.2 29 32.2 28.1 30.1 26.9 27.7 25.5 27.7 25.5 27.7 25.5 27.7 29.7 27.1 30.1"/>
                  <g>
                    <polygon class="st17" points="28.1 25.8 28.1 29.5 30.1 30.6 30.1 26.9 28.1 25.8"/>
                    <polygon class="st17" points="30.4 27.1 30.4 30.8 32.2 31.8 32.2 28.1 30.4 27.1"/>
                  </g>
                </g>
                <polygon class="st4" points="27.1 25.2 27.7 25.5 27.7 29.7 27.1 30.1 27.1 25.2"/>
                <polygon class="st27" points="28.1 25.8 28.1 29.5 28.5 29.3 28.5 26 28.1 25.8"/>
                <polygon class="st28" points="30.1 30.6 28.1 29.5 28.5 29.3 30.1 30.2 30.1 30.6"/>
                <polygon class="st27" points="30.4 27.1 30.4 30.8 30.7 30.6 30.7 27.3 30.4 27.1"/>
                <polygon class="st28" points="32.2 31.8 30.4 30.8 30.7 30.6 32.2 31.4 32.2 31.8"/>
              </g>
              <polygon class="st5" points="37.7 27.6 34.4 29.4 29.9 21.7 34.2 19.2 37.7 27.6"/>
              <polygon class="st17" points="28.3 22.4 25.1 24.3 29.9 21.7 34.2 19.2 28.3 22.4"/>
              <polygon class="st0" points="55.8 31.1 27.2 14.5 35.7 18.3 56.6 30.4 55.8 31.1"/>
              <polygon class="st31" points="46.7 36.2 50.5 34.5 50.5 29.7 46.7 27.5 46.7 36.2"/>
              <polygon class="st18" points="52.4 28.7 50.5 29.7 50.5 34.5 52.4 33.4 52.4 28.7"/>
              <polygon class="st15" points="52.4 28.7 50.5 29.7 46.7 27.5 48.6 26.5 52.4 28.7"/>
              <polygon class="st15" points="38.2 57.2 48.5 63.1 46.2 64.4 36 58.4 38.2 57.2"/>
              <polygon class="st9" points="48.5 63.1 49.1 64 49.1 64.5 47.5 65.4 46.2 65.4 48.5 64.1 48.5 63.1"/>
              <polygon class="st6" points="34.4 29.4 29.9 21.7 29.9 22.1 34.3 29.5 34.4 29.4"/>
              <polygon class="st6" points="25.1 24.3 29.9 21.7 29.9 22.1 25.2 24.6 25.1 24.3"/>
              <polygon class="st6" points="71.5 62.5 53.8 33.8 53.8 34.6 71.2 62.7 71.5 62.5"/>
              <polygon class="st6" points="35.6 42.1 53.8 33.8 53.8 34.6 35.9 42.7 35.6 42.1"/>
              <polygon class="st26" points="65.2 70.3 65.2 69.6 54 63.1 53.3 63.4 65.2 70.3"/>
              <polygon class="st4" points="53.3 54 54 54.4 54 63.1 53.3 63.4 53.3 54"/>
              <g>
                <path class="st5" d="M54,54.4v8.7l11.2,6.5v-8.7l-2.3-1.3-.4-.2-2.5-1.4-.4-.2-2.5-1.4-.4-.2-2.1-1.2-.3-.2-.5-.3Z"/>
                <polygon class="st9" points="53.3 63.4 54.6 63.4 54.6 55.7 65.2 61.7 65.2 60.9 54 54.4 54 63.1 53.3 63.4"/>
                <g>
                  <polygon class="st17" points="54.8 58.8 54.4 58.6 54.4 62.8 56.9 64.2 56.9 60.1 54.8 58.8"/>
                  <polygon class="st17" points="54.4 54.7 54.4 58.3 54.8 58.5 56.9 59.7 56.9 56.1 54.8 54.8 54.4 54.7"/>
                  <polygon class="st27" points="54.4 54.7 54.4 58.3 54.8 58.5 54.8 54.8 54.4 54.7"/>
                  <polygon class="st27" points="54.8 58.8 54.4 58.6 54.4 62.8 54.8 62.6 54.8 58.8"/>
                  <polygon class="st17" points="57.6 60.5 57.2 60.3 57.2 64.4 59.7 65.8 59.7 61.7 57.6 60.5"/>
                  <polygon class="st17" points="57.2 56.3 57.2 59.9 57.6 60.1 59.7 61.3 59.7 57.7 57.6 56.5 57.2 56.3"/>
                  <polygon class="st27" points="57.2 56.3 57.2 59.9 57.6 60.1 57.6 56.5 57.2 56.3"/>
                  <polygon class="st27" points="57.6 60.5 57.2 60.3 57.2 64.4 57.6 64.2 57.6 60.5"/>
                  <polygon class="st17" points="60.1 61.9 60.1 61.9 60.1 66 60.1 66 62.5 67.5 62.5 63.3 60.4 62.1 60.1 61.9"/>
                  <polygon class="st17" points="60.1 57.9 60.1 61.5 60.1 61.5 60.4 61.7 62.5 63 62.5 59.3 60.4 58.1 60.4 58.1 60.1 57.9 60.1 57.9 60.1 57.9"/>
                  <polygon class="st27" points="60.4 62.1 60.1 61.9 60.1 66 60.4 65.8 60.4 62.1"/>
                  <polygon class="st27" points="60.1 57.9 60.1 61.5 60.4 61.7 60.4 58.1 60.1 57.9"/>
                  <polygon class="st17" points="62.9 63.5 62.9 63.5 62.9 67.7 62.9 67.7 62.9 67.7 65.2 69 65.2 64.9 63.2 63.7 62.9 63.5"/>
                  <polygon class="st17" points="62.9 59.5 62.9 63.2 62.9 63.2 63.2 63.4 65.2 64.5 65.2 60.9 63.2 59.7 62.9 59.5 62.9 59.5"/>
                  <polygon class="st27" points="62.9 59.5 62.9 63.2 63.2 63.4 63.2 59.7 62.9 59.5"/>
                  <polygon class="st27" points="63.2 63.7 62.9 63.5 62.9 67.7 62.9 67.7 63.2 67.5 63.2 63.7"/>
                </g>
                <polygon class="st28" points="56.9 64.2 54.4 62.8 54.8 62.6 56.9 63.8 56.9 64.2"/>
                <polygon class="st28" points="56.9 59.7 54.4 58.3 54.8 58.1 56.9 59.3 56.9 59.7"/>
                <polygon class="st28" points="59.7 65.8 57.2 64.4 57.6 64.2 59.7 65.4 59.7 65.8"/>
                <polygon class="st28" points="59.7 61.3 57.2 59.9 57.6 59.7 59.7 60.9 59.7 61.3"/>
                <polygon class="st28" points="62.5 67.5 60.1 66 60.4 65.8 62.5 67.1 62.5 67.5"/>
                <polygon class="st28" points="62.5 63 60.1 61.5 60.4 61.3 62.5 62.6 62.5 63"/>
                <polygon class="st28" points="65.2 69 62.9 67.7 63.2 67.5 65.2 68.6 65.2 69"/>
                <polygon class="st28" points="65.2 64.5 62.9 63.2 63.2 63 65.2 64.1 65.2 64.5"/>
              </g>
              <polygon class="st9" points="50.5 34.5 54.2 32.9 55.6 32.1 52.4 33 52.4 33.4 50.5 34.5"/>
              <polygon class="st15" points="46.2 61.7 40.6 58.5 41.2 58.2 46.2 61.1 46.2 61.7"/>
              <polygon class="st13" points="41.7 58.5 40.6 58.5 41.2 58.2 41.7 58.5"/>
              <polygon class="st9" points="54.6 62.9 55.3 62.9 55.3 59.6 56.9 60.6 56.9 60.1 54.8 58.8 54.8 62.6 54.4 62.8 54.6 62.9"/>
              <polygon class="st9" points="54.6 58.4 55.3 58.4 55.3 55.6 56.9 56.6 56.9 56.1 54.8 54.8 54.8 58.1 54.4 58.3 54.6 58.4"/>
              <polygon class="st9" points="57.2 64.4 57.9 64.4 57.9 61.1 59.7 62.2 59.7 61.7 57.6 60.5 57.6 64.2 57.2 64.4"/>
              <polygon class="st9" points="57.2 59.9 57.9 59.9 57.9 57.2 59.7 58.2 59.7 57.7 57.6 56.5 57.6 59.7 57.2 59.9"/>
              <polygon class="st9" points="60.1 66 60.7 66 60.7 62.8 62.5 63.8 62.5 63.3 60.4 62.1 60.4 65.8 60.1 66"/>
              <polygon class="st9" points="60.1 61.5 60.7 61.5 60.7 58.8 62.5 59.8 62.5 59.3 60.4 58.1 60.4 61.3 60.1 61.5"/>
              <polygon class="st9" points="62.9 67.7 63.6 67.7 63.6 64.4 65.2 65.4 65.2 64.9 63.2 63.7 63.2 67.5 62.9 67.7"/>
              <polygon class="st9" points="62.9 63.2 63.6 63.2 63.6 60.4 65.2 61.4 65.2 60.9 63.2 59.7 63.2 63 62.9 63.2"/>
            </g>
            <g>
              <polygon class="st30" points="71.2 65.5 71.2 66.3 72.9 65.3 72.9 64.5 71.2 65.5"/>
              <polygon class="st23" points="71.1 65.4 71.2 65.5 72.9 64.5 72.8 64.4 71.1 65.4"/>
              <polygon class="st8" points="71.1 66.2 71.1 65.4 71.2 65.5 71.2 66.3 71.1 66.2"/>
            </g>
            <g>
              <polygon class="st30" points="85.1 66.8 85.1 67.7 86.8 66.7 86.8 65.9 85.1 66.8"/>
              <polygon class="st23" points="85 66.8 85.1 66.8 86.8 65.9 86.7 65.8 85 66.8"/>
              <polygon class="st8" points="85 67.6 85 66.8 85.1 66.8 85.1 67.7 85 67.6"/>
            </g>
            <g>
              <polygon class="st30" points="85.6 56.3 85.6 57.1 87.3 56.1 87.3 55.3 85.6 56.3"/>
              <polygon class="st23" points="85.5 56.2 85.6 56.3 87.3 55.3 87.2 55.3 85.5 56.2"/>
              <polygon class="st8" points="85.5 57.1 85.5 56.2 85.6 56.3 85.6 57.1 85.5 57.1"/>
            </g>
            <g>
              <polygon class="st30" points="75.5 71 75.5 71.8 77.2 70.8 77.2 70 75.5 71"/>
              <polygon class="st23" points="75.4 70.9 75.5 71 77.2 70 77.1 69.9 75.4 70.9"/>
              <polygon class="st8" points="75.4 71.8 75.4 70.9 75.5 71 75.5 71.8 75.4 71.8"/>
            </g>
            <g>
              <polygon class="st30" points="79.7 62.5 79.7 63.4 81.4 62.4 81.4 61.5 79.7 62.5"/>
              <polygon class="st23" points="79.6 62.5 79.7 62.5 81.4 61.5 81.3 61.5 79.6 62.5"/>
              <polygon class="st8" points="79.6 63.3 79.6 62.5 79.7 62.5 79.7 63.4 79.6 63.3"/>
            </g>
            <g>
              <polygon class="st30" points="84.2 66.2 84.2 67.1 85.9 66.1 85.9 65.2 84.2 66.2"/>
              <polygon class="st23" points="84.2 66.2 84.2 66.2 85.9 65.2 85.9 65.2 84.2 66.2"/>
              <polygon class="st8" points="84.2 67 84.2 66.2 84.2 66.2 84.2 67.1 84.2 67"/>
            </g>
            <g>
              <polygon class="st30" points="71.8 64.1 71.8 64.9 73.5 64 73.5 63.1 71.8 64.1"/>
              <polygon class="st23" points="71.7 64.1 71.8 64.1 73.5 63.1 73.4 63.1 71.7 64.1"/>
              <polygon class="st8" points="71.7 64.9 71.7 64.1 71.8 64.1 71.8 64.9 71.7 64.9"/>
            </g>
            <g>
              <polygon class="st31" points="65.8 57.4 65.8 58.2 64.1 57.2 64.1 56.4 65.8 57.4"/>
              <polygon class="st12" points="65.9 57.4 66 57.5 66 58.4 64.2 57.4 64.2 57.3 65.8 58.2 65.9 58.2 65.9 57.4"/>
              <polygon class="st21" points="65.9 57.4 65.8 57.4 64.1 56.4 64.2 56.4 65.9 57.4"/>
              <polygon class="st22" points="65.9 58.2 65.9 57.4 65.8 57.4 65.8 58.2 65.9 58.2"/>
            </g>
            <g>
              <polygon class="st31" points="51.7 54.2 51.7 55 50 54.1 50 53.2 51.7 54.2"/>
              <polygon class="st12" points="51.8 54.2 51.9 54.3 51.9 55.3 50.2 54.3 50.1 54.1 51.7 55 51.8 55 51.8 54.2"/>
              <polygon class="st21" points="51.8 54.2 51.7 54.2 50 53.2 50.1 53.2 51.8 54.2"/>
              <polygon class="st22" points="51.8 55 51.8 54.2 51.7 54.2 51.7 55 51.8 55"/>
            </g>
            <g>
              <polygon class="st31" points="50.9 52.6 50.9 53.4 49.2 52.4 49.2 51.6 50.9 52.6"/>
              <polygon class="st12" points="50.9 52.5 51 52.7 51 53.6 49.3 52.6 49.2 52.4 50.9 53.4 50.9 53.3 50.9 52.5"/>
              <polygon class="st21" points="50.9 52.5 50.9 52.6 49.2 51.6 49.2 51.5 50.9 52.5"/>
              <polygon class="st22" points="50.9 53.3 50.9 52.5 50.9 52.6 50.9 53.4 50.9 53.3"/>
            </g>
            <g>
              <polygon class="st31" points="45.5 43.6 45.5 44.4 43.8 43.4 43.8 42.6 45.5 43.6"/>
              <polygon class="st12" points="45.5 43.5 45.6 43.7 45.6 44.6 43.9 43.6 43.8 43.5 45.5 44.4 45.5 44.4 45.5 43.5"/>
              <polygon class="st21" points="45.5 43.5 45.5 43.6 43.8 42.6 43.8 42.6 45.5 43.5"/>
              <polygon class="st22" points="45.5 44.4 45.5 43.5 45.5 43.6 45.5 44.4 45.5 44.4"/>
            </g>
            <g>
              <polygon class="st31" points="53.9 38.7 53.9 39.6 52.2 38.6 52.2 37.8 53.9 38.7"/>
              <polygon class="st12" points="54 38.7 54.1 38.8 54.1 39.8 52.4 38.8 52.3 38.6 53.9 39.6 54 39.5 54 38.7"/>
              <polygon class="st21" points="54 38.7 53.9 38.7 52.2 37.8 52.3 37.7 54 38.7"/>
              <polygon class="st22" points="54 39.5 54 38.7 53.9 38.7 53.9 39.6 54 39.5"/>
            </g>
            <g>
              <polygon class="st31" points="38.5 55.4 38.5 56.2 36.8 55.3 36.8 54.4 38.5 55.4"/>
              <polygon class="st12" points="38.6 55.4 38.7 55.5 38.7 56.5 37 55.5 36.9 55.3 38.5 56.2 38.6 56.2 38.6 55.4"/>
              <polygon class="st21" points="38.6 55.4 38.5 55.4 36.8 54.4 36.9 54.4 38.6 55.4"/>
              <polygon class="st22" points="38.6 56.2 38.6 55.4 38.5 55.4 38.5 56.2 38.6 56.2"/>
            </g>
            <g>
              <polygon class="st31" points="39.2 54.6 39.2 55.5 37.5 54.5 37.5 53.7 39.2 54.6"/>
              <polygon class="st12" points="39.3 54.6 39.4 54.7 39.4 55.7 37.7 54.7 37.6 54.5 39.2 55.5 39.3 55.4 39.3 54.6"/>
              <polygon class="st21" points="39.3 54.6 39.2 54.6 37.5 53.7 37.6 53.6 39.3 54.6"/>
              <polygon class="st22" points="39.3 55.4 39.3 54.6 39.2 54.6 39.2 55.5 39.3 55.4"/>
            </g>
            <g>
              <polygon class="st20" points="23.4 41.9 23.4 42.8 21.7 41.8 21.7 41 23.4 41.9"/>
              <polygon class="st12" points="23.4 41.9 23.6 42 23.6 43 21.8 42 21.7 41.8 23.4 42.8 23.4 42.7 23.4 41.9"/>
              <polygon class="st21" points="23.4 41.9 23.4 41.9 21.7 41 21.7 40.9 23.4 41.9"/>
              <polygon class="st22" points="23.4 42.7 23.4 41.9 23.4 41.9 23.4 42.8 23.4 42.7"/>
            </g>
            <g>
              <polygon class="st20" points="24.1 41.2 24.1 42 22.4 41 22.4 40.2 24.1 41.2"/>
              <polygon class="st12" points="24.1 41.1 24.2 41.3 24.2 42.2 22.5 41.2 22.4 41 24.1 42 24.1 42 24.1 41.1"/>
              <polygon class="st21" points="24.1 41.1 24.1 41.2 22.4 40.2 22.4 40.1 24.1 41.1"/>
              <polygon class="st22" points="24.1 42 24.1 41.1 24.1 41.2 24.1 42 24.1 42"/>
            </g>
            <g>
              <polygon class="st20" points="35.1 48.4 35.1 49.2 33.4 48.2 33.4 47.4 35.1 48.4"/>
              <polygon class="st12" points="35.2 48.3 35.3 48.5 35.3 49.4 33.5 48.4 33.5 48.3 35.1 49.2 35.2 49.2 35.2 48.3"/>
              <polygon class="st21" points="35.2 48.3 35.1 48.4 33.4 47.4 33.5 47.4 35.2 48.3"/>
              <polygon class="st22" points="35.2 49.2 35.2 48.3 35.1 48.4 35.1 49.2 35.2 49.2"/>
            </g>
            <g>
              <polygon class="st20" points="22.2 31.8 22.2 32.7 20.5 31.7 20.5 30.8 22.2 31.8"/>
              <polygon class="st12" points="22.3 31.8 22.4 31.9 22.4 32.9 20.7 31.9 20.6 31.7 22.2 32.7 22.3 32.6 22.3 31.8"/>
              <polygon class="st21" points="22.3 31.8 22.2 31.8 20.5 30.8 20.6 30.8 22.3 31.8"/>
              <polygon class="st22" points="22.3 32.6 22.3 31.8 22.2 31.8 22.2 32.7 22.3 32.6"/>
            </g>
            <g>
              <polygon class="st31" points="69.7 73.2 69.7 74 68 73 68 72.2 69.7 73.2"/>
              <polygon class="st12" points="69.7 73.1 69.8 73.3 69.8 74.2 68.1 73.2 68 73.1 69.7 74 69.7 74 69.7 73.1"/>
              <polygon class="st21" points="69.7 73.1 69.7 73.2 68 72.2 68 72.1 69.7 73.1"/>
              <polygon class="st22" points="69.7 74 69.7 73.1 69.7 73.2 69.7 74 69.7 74"/>
            </g>
            <g>
              <polygon class="st29" points="28.3 48.8 28.3 49.7 26.6 48.7 26.6 47.9 28.3 48.8"/>
              <polygon class="st12" points="28.4 48.8 28.5 48.9 28.5 49.9 26.7 48.9 26.6 48.7 28.3 49.7 28.4 49.6 28.4 48.8"/>
              <polygon class="st15" points="28.4 48.8 28.3 48.8 26.6 47.9 26.6 47.8 28.4 48.8"/>
              <polygon class="st3" points="28.4 49.6 28.4 48.8 28.3 48.8 28.3 49.7 28.4 49.6"/>
            </g>
            <g>
              <polygon class="st29" points="35.9 52.2 35.9 53 34.2 52 34.2 51.2 35.9 52.2"/>
              <polygon class="st12" points="35.9 52.1 36 52.3 36 53.2 34.3 52.2 34.2 52.1 35.9 53 35.9 53 35.9 52.1"/>
              <polygon class="st15" points="35.9 52.1 35.9 52.2 34.2 51.2 34.2 51.1 35.9 52.1"/>
              <polygon class="st3" points="35.9 53 35.9 52.1 35.9 52.2 35.9 53 35.9 53"/>
            </g>
            <g>
              <polygon class="st29" points="21.5 45.1 21.5 45.9 19.8 45 19.8 44.1 21.5 45.1"/>
              <polygon class="st12" points="21.6 45.1 21.7 45.2 21.7 46.2 19.9 45.1 19.9 45 21.5 45.9 21.6 45.9 21.6 45.1"/>
              <polygon class="st15" points="21.6 45.1 21.5 45.1 19.8 44.1 19.9 44.1 21.6 45.1"/>
              <polygon class="st3" points="21.6 45.9 21.6 45.1 21.5 45.1 21.5 45.9 21.6 45.9"/>
            </g>
          </g>
          <g>
            <polygon class="st10" points="79.1 80.9 82 80.9 86.1 78.5 89.3 78.5 93.4 80.9 89.2 83.3 86 83.3 82.9 81.5 79.1 81.5 79.1 80.9"/>
            <g>
              <g>
                <path class="st33" d="M76.4,71.8c0,0,.2,0,.3,0,.4,0,0-.8,0-1,0-.2,0-.4-.1-.6,0-.3-.2-.6-.3-.8,0,0,0,0,0,0,0,0,0,0,0,0,0,0,0,0,0,0,0,0,0,.2.1.3,0,.1.1.2.2.4,0,.3.2.5.3.8.2.7.6,1.4,1,2.1,0,.2.2.3.3.5.1.3.3.6.4.9,0,.2,0,.4,0,.6,0,.2,0,.3,0,.5,0,.4,0,5.4-.1,5.2-.1-.5-.1-5.6-.3-6.1-.2-.5-.3-.9-.6-1.3-.2-.2-.3-.5-.5-.6-.3-.2-.6-.3-.9-.5-.3-.2-.5-.5-.8-.7-.4-.6-.8-1.2-1-1.9-.1-.3-.2-.6-.2-.9.3.4.4.9.6,1.3.2.5.4.9.7,1.3.2.2.5.5.8.6Z"/>
                <path class="st33" d="M78.5,80.4s0,0,0,0c0-.2,0-5,0-5.1,0-.2,0-.4,0-.6,0-.3-.2-.6-.4-.9,0-.2-.2-.3-.3-.5-.4-.6-.8-1.4-1-2.1,0-.3-.2-.6-.3-.8,0,0,0-.2-.1-.3,0-.2-.2-.5-.2-.7,0,0,0,0,0,0,0,0,0,0,0,0,0,0,0,0,0,0,0,0,0,.2.1.3,0,.1.1.2.2.4,0,.3.2.5.3.8.2.7.6,1.4,1,2.1,0,.2.2.3.3.5.1.3.3.6.4.9,0,.2,0,.4,0,.6,0,.2,0,.3,0,.5,0,.4,0,5.4-.1,5.2,0,0,0,0,0-.1Z"/>
                <path class="st25" d="M81.4,71.1c-.1,0-.3.1-.4,0-.1,0-.1-.3,0-.4,0-.1,0-.2,0-.3,0-.5.2-.9.3-1.4.1-.6.3-1.2.3-1.9,0,0,0,0,0,0-.1.5-.3,1-.4,1.5,0,.3-.1.6-.2.9,0,.1,0,.3-.1.4,0,.1,0,.2-.1.3,0,.2-.2.5-.3.7-.1.2-.2.5-.3.7-.1.3-.3.6-.5.9-.1.2-.4.6-.4.8,0,.2,0,.4,0,.6,0,.2,0,.3,0,.5,0,.4-.2,5.5-.3,5.9,0-.2.2-5.1.3-5.4.1-.5.3-1,.5-1.4.2-.5.3-.9.7-1.3.2-.2.4-.4.6-.6.2-.2.5-.2.7-.4.2-.1.4-.3.5-.5.4-.5.9-1,.9-1.7,0,.1-.2.3-.3.5-.1.2-.3.4-.4.6-.1.1-.4.6-.7.8Z"/>
                <g>
                  <path class="st25" d="M81.3,68.9c0,.3-.1.6-.2.9,0,.1,0,.3-.1.4,0,.1,0,.2-.1.3,0,.2-.2.5-.3.7-.1.2-.2.5-.3.7-.1.3-.3.6-.5.9-.1.2-.4.6-.4.8,0,.2,0,.4,0,.6,0,0,0,.1,0,.2,0,.2-.1.4-.2.6,0,.2-.2,5.1-.3,5.4.1-.4.3-5.5.3-5.9,0-.2,0-.3,0-.5,0-.2,0-.4,0-.6,0-.3.3-.6.4-.8.2-.3.4-.6.5-.9.1-.2.2-.5.3-.7.1-.2.2-.5.3-.7,0-.1,0-.2.1-.3,0-.1,0-.3.1-.4,0-.3.2-.6.2-.9.1-.5.2-1,.4-1.5,0,0,0,0,0,0,0,.2,0,.3,0,.5-.1.4-.2.8-.3,1.2Z"/>
                  <path class="st16" d="M82.2,70.6c0,0-.1.2-.2.3,0,0,0,0,0,.1,0,0-.1.1-.2.2,0,0-.2.1-.2.2-.1,0-.3.1-.4,0,0,0,0-.1,0-.2h0c.1.1.3,0,.4,0,.3-.2.6-.6.7-.8.1-.2.3-.4.4-.6,0-.1.3-.3.3-.5,0,.3-.1.5-.3.8-.1.2-.2.3-.4.5Z"/>
                </g>
                <path class="st19" d="M78.2,81.1s0,0,0,0c0,0,0,0,0,0,0,0,0,0,0,0,0,.2.4.3.7.2.3,0,.6-.1.6-.3h0s0,0,0,0h0s0,0,0-.1c0,0,0,0,0-.1,0,0,0,0,0,0-.1-.2,0-7.1-.1-8.7,0-.1,0-.2,0-.4,0-.3,0-.7,0-1,0-.4,0-.7,0-1.1,0,0,0-.1,0-.2,0-.1,0-.2,0-.3,0,0,0-.2,0-.2,0,0,0-.2,0-.2,0,0,0-.2,0-.2,0,0,0-.2,0-.2h0c0-.2,0-.3,0-.5,0,0,0-.1,0-.1,0,0,0,0,0,0,0,0,0,0,0,0,0,0,0,0,0,0,0,0,0,0,0,0,0,1.3-.1,2.5-.2,3.8,0,.8,0,1.6,0,2.4,0,.5,0,.9,0,1.4,0,.6,0,4.6,0,4.9,0,0,0,0,0,0,0,0,0,0,0,0h0c0,0,0,0,0,.1,0,0,0,0,0,0,0,0,0,.1,0,.2,0,0,0,0,0,0,0,0,0,0,0,0,0,0,0,0,0,0,0,0,0,0,0,0,0,0,0,0,0,0,0,0,0,0,0,0,0,0,0,0,0,0Z"/>
                <path class="st25" d="M78.8,67.7s0,0,0,0c.1.4.2.8.2,1.3.1,1,0,2.1.1,3.1,0,1.6,0,8.4.1,8.7,0,.2.2.3.3.4,0,0,0,0,0,0h0s0,0,0-.1c0,0,0,0,0-.1,0,0,0,0,0,0-.1-.2,0-7.1-.1-8.7,0-.1,0-.2,0-.4,0-.3,0-.7,0-1,0-.4,0-.7,0-1.1,0,0,0-.1,0-.2,0-.1,0-.2,0-.3,0,0,0-.2,0-.2,0,0,0-.2,0-.2,0,0,0-.2,0-.2,0,0,0-.2,0-.2h0c0-.2,0-.3,0-.5,0,0,0-.1,0-.1,0,0,0,0,0,0,0,0,0,0,0,0h0s0,0,0,0c0,0,0,0,0,0,0,0,0,0,0,0h0s0,0,0,0Z"/>
                <path class="st19" d="M78.2,81.1s0,0,0,0c0,0,0,0,0,0,0,0,0,0,0,0h0s0,0,0,0c0,0,0,0,0,0,0,0,.1,0,.2-.1.2-.2.2-.4.2-.7,0-.3,0-5.8,0-6.3,0-.8,0-1.6,0-2.4,0-.9,0-1.7.1-2.6,0-.3,0-.5,0-.8h0c0-.2,0-.3,0-.5,0,0,0-.1,0-.1,0,0,0,0,0,0,0,0,0,0,0,0,0,0,0,0,0,0,0,0,0,0,0,0,0,1.3-.1,2.5-.2,3.8,0,.8,0,1.6,0,2.4,0,.5,0,6,0,6.3,0,0,0,0,0,0,0,0,0,0,0,0h0c0,0,0,0,0,.1,0,0,0,0,0,0,0,0,0,.1,0,.2,0,0,0,0,0,0,0,0,0,0,0,0,0,0,0,0,0,0,0,0,0,0,0,0,0,0,0,0,0,0,0,0,0,0,0,0,0,0,0,0,0,0Z"/>
              </g>
              <g>
                <polygon class="st34" points="78.6 72.8 83.4 70 83.4 62.9 78.6 65.7 78.6 72.8"/>
                <polygon class="st24" points="78.6 65.7 83.4 62.9 78.2 59.8 73.3 62.6 78.6 65.7"/>
                <polygon class="st7" points="78.6 72.8 73.3 69.8 73.3 62.6 78.6 65.7 78.6 72.8"/>
              </g>
              <g>
                <polygon class="st34" points="77.7 64.8 81.9 62.4 81.9 58.9 77.7 61.4 77.7 64.8"/>
                <polygon class="st24" points="77.7 61.4 81.9 58.9 77.8 56.6 73.6 59 77.7 61.4"/>
                <polygon class="st7" points="77.7 64.8 73.6 62.5 73.6 59 77.7 61.4 77.7 64.8"/>
              </g>
              <g>
                <polygon class="st34" points="77.1 70.8 78.4 70 78.4 66.6 77.1 67.3 77.1 70.8"/>
                <polygon class="st24" points="77.1 67.3 78.4 66.6 74.3 64.2 73 64.9 77.1 67.3"/>
                <polygon class="st7" points="77.1 70.8 73 68.4 73 64.9 77.1 67.3 77.1 70.8"/>
              </g>
            </g>
          </g>
        </g>
        <g>
          <polygon class="st11" points="70.7 82.9 72.9 81.8 70.8 80.4 69.5 80.3 68.4 82.8 70.7 82.9"/>
          <polygon class="st34" points="68.4 82.8 70.6 81.6 70.6 77.6 68.4 78.8 68.4 82.8"/>
          <polygon class="st24" points="68.4 78.8 70.6 77.6 48.9 65.1 46.7 66.2 68.4 78.8"/>
          <polygon class="st7" points="68.4 82.8 46.7 70.3 46.7 66.2 68.4 78.8 68.4 82.8"/>
        </g>
        <g>
          <polygon class="st11" points="32.2 58.4 34.4 57.2 32.3 55.9 31 55.8 30 58.2 32.2 58.4"/>
          <polygon class="st10" points="12.8 53.1 15.7 53.1 19.8 50.7 23 50.7 27.1 53.1 22.9 55.5 19.7 55.5 16.6 53.7 12.8 53.7 12.8 53.1"/>
          <polygon class="st34" points="30 58.2 32.1 57.1 32.1 53.1 30 54.2 30 58.2"/>
          <polygon class="st24" points="30 54.2 32.1 53.1 14.7 43.1 12.5 44.2 30 54.2"/>
          <polygon class="st7" points="30 58.2 12.5 48.3 12.5 44.2 30 54.2 30 58.2"/>
          <polygon class="st10" points="24 54.8 24 50.8 26.4 50.8 26 49.9 22 47.6 18.3 47.6 18.3 51.6 24 54.8"/>
        </g>
        <g>
          <g>
            <path class="st33" d="M10.1,43.9c0,0,.2,0,.3,0,.4,0,0-.8,0-1,0-.2,0-.4-.1-.6,0-.3-.2-.6-.3-.8,0,0,0,0,0,0,0,0,0,0,0,0,0,0,0,0,0,0,0,0,0,.2.1.3,0,.1.1.2.2.4,0,.3.2.5.3.8.2.7.6,1.4,1,2.1,0,.2.2.3.3.5.1.3.3.6.4.9,0,.2,0,.4,0,.6,0,.2,0,.3,0,.5,0,.4,0,5.4-.1,5.2-.1-.5-.1-5.6-.3-6.1-.2-.5-.3-.9-.6-1.3-.2-.2-.3-.5-.5-.6-.3-.2-.6-.3-.9-.5-.3-.2-.5-.5-.8-.7-.4-.6-.8-1.2-1-1.9-.1-.3-.2-.6-.2-.9.3.4.4.9.6,1.3.2.5.4.9.7,1.3.2.2.5.5.8.6Z"/>
            <path class="st33" d="M12.2,52.6s0,0,0,0c0-.2,0-5,0-5.1,0-.2,0-.4,0-.6,0-.3-.2-.6-.4-.9,0-.2-.2-.3-.3-.5-.4-.6-.8-1.3-1-2.1,0-.3-.2-.6-.3-.8,0,0,0-.2-.1-.3,0-.2-.2-.5-.2-.7,0,0,0,0,0,0,0,0,0,0,0,0,0,0,0,0,0,0,0,0,0,.2.1.3,0,.1.1.2.2.4,0,.3.2.5.3.8.2.7.6,1.4,1,2.1,0,.2.2.3.3.5.1.3.3.6.4.9,0,.2,0,.4,0,.6,0,.2,0,.3,0,.5,0,.4,0,5.4-.1,5.2,0,0,0,0,0-.1Z"/>
            <path class="st25" d="M15.1,43.3c-.1,0-.3.1-.4,0-.1,0-.1-.3,0-.4,0-.1,0-.2,0-.3,0-.5.2-.9.3-1.4.1-.6.3-1.2.3-1.9,0,0,0,0,0,0-.1.5-.3,1-.4,1.5,0,.3-.1.6-.2.9,0,.1,0,.3-.1.4,0,.1,0,.2-.1.3,0,.2-.2.5-.3.7-.1.2-.2.5-.3.7-.1.3-.3.6-.5.9-.1.2-.4.6-.4.8,0,.2,0,.4,0,.6,0,.2,0,.3,0,.5,0,.4-.2,5.5-.3,5.9,0-.2.2-5.1.3-5.4.1-.5.3-1,.5-1.4.2-.5.3-.9.7-1.3.2-.2.4-.4.6-.6.2-.2.5-.2.7-.4.2-.1.4-.3.5-.5.4-.5.9-1,.9-1.7,0,.1-.2.3-.3.5-.1.2-.3.4-.4.6-.1.1-.4.6-.7.8Z"/>
            <g>
              <path class="st25" d="M15,41.1c0,.3-.1.6-.2.9,0,.1,0,.3-.1.4,0,.1,0,.2-.1.3,0,.2-.2.5-.3.7-.1.2-.2.5-.3.7-.1.3-.3.6-.5.9-.1.2-.4.6-.4.8,0,.2,0,.4,0,.6,0,0,0,.1,0,.2,0,.2-.1.4-.2.6,0,.2-.2,5.1-.3,5.4.1-.4.3-5.5.3-5.9,0-.2,0-.3,0-.5,0-.2,0-.4,0-.6,0-.3.3-.6.4-.8.2-.3.4-.6.5-.9.1-.2.2-.5.3-.7.1-.2.2-.5.3-.7,0-.1,0-.2.1-.3,0-.1,0-.3.1-.4,0-.3.2-.6.2-.9.1-.5.2-1,.4-1.5,0,0,0,0,0,0,0,.2,0,.3,0,.5-.1.4-.2.8-.3,1.2Z"/>
              <path class="st16" d="M15.9,42.8c0,0-.1.2-.2.3,0,0,0,0,0,.1,0,0-.1.1-.2.2,0,0-.2.1-.2.2-.1,0-.3.1-.4,0,0,0,0-.1,0-.2h0c.1.1.3,0,.4,0,.3-.2.6-.6.7-.8.1-.2.3-.4.4-.6,0-.1.3-.3.3-.5,0,.3-.1.5-.3.8-.1.2-.2.3-.4.5Z"/>
            </g>
            <path class="st19" d="M11.9,53.3s0,0,0,0c0,0,0,0,0,0,0,0,0,0,0,0,0,.2.4.3.7.2.3,0,.6-.1.6-.3h0s0,0,0,0h0s0,0,0-.1c0,0,0,0,0-.1,0,0,0,0,0,0-.1-.2,0-7.1-.1-8.7,0-.1,0-.2,0-.4,0-.3,0-.7,0-1,0-.4,0-.7,0-1.1,0,0,0-.1,0-.2,0-.1,0-.2,0-.3,0,0,0-.2,0-.2,0,0,0-.2,0-.2,0,0,0-.2,0-.2,0,0,0-.2,0-.2h0c0-.2,0-.3,0-.5,0,0,0-.1,0-.1,0,0,0,0,0,0,0,0,0,0,0,0,0,0,0,0,0,0,0,0,0,0,0,0,0,1.3-.1,2.5-.2,3.8,0,.8,0,1.6,0,2.4,0,.5,0,.9,0,1.4,0,.6,0,4.6,0,4.9,0,0,0,0,0,0,0,0,0,0,0,0h0c0,0,0,0,0,.1,0,0,0,0,0,0,0,0,0,.1,0,.2,0,0,0,0,0,0,0,0,0,0,0,0,0,0,0,0,0,0,0,0,0,0,0,0,0,0,0,0,0,0,0,0,0,0,0,0,0,0,0,0,0,0Z"/>
            <path class="st25" d="M12.5,39.9s0,0,0,0c.1.4.2.8.2,1.3.1,1,0,2.1.1,3.1,0,1.6,0,8.4.1,8.7,0,.2.2.3.3.4,0,0,0,0,0,0h0s0,0,0-.1c0,0,0,0,0-.1,0,0,0,0,0,0-.1-.2,0-7.1-.1-8.7,0-.1,0-.2,0-.4,0-.3,0-.7,0-1,0-.4,0-.7,0-1.1,0,0,0-.1,0-.2,0-.1,0-.2,0-.3,0,0,0-.2,0-.2,0,0,0-.2,0-.2,0,0,0-.2,0-.2,0,0,0-.2,0-.2h0c0-.2,0-.3,0-.5,0,0,0-.1,0-.1,0,0,0,0,0,0,0,0,0,0,0,0h0s0,0,0,0c0,0,0,0,0,0,0,0,0,0,0,0h0s0,0,0,0Z"/>
            <path class="st19" d="M11.9,53.3s0,0,0,0c0,0,0,0,0,0,0,0,0,0,0,0h0s0,0,0,0c0,0,0,0,0,0,0,0,.1,0,.2-.1.2-.2.2-.4.2-.7,0-.3,0-5.8,0-6.3,0-.8,0-1.6,0-2.4,0-.9,0-1.7.1-2.6,0-.3,0-.5,0-.8h0c0-.2,0-.3,0-.5,0,0,0-.1,0-.1,0,0,0,0,0,0,0,0,0,0,0,0,0,0,0,0,0,0,0,0,0,0,0,0,0,1.3-.1,2.5-.2,3.8,0,.8,0,1.6,0,2.4,0,.5,0,6,0,6.3,0,0,0,0,0,0,0,0,0,0,0,0h0c0,0,0,0,0,.1,0,0,0,0,0,0,0,0,0,.1,0,.2,0,0,0,0,0,0,0,0,0,0,0,0,0,0,0,0,0,0,0,0,0,0,0,0,0,0,0,0,0,0,0,0,0,0,0,0,0,0,0,0,0,0Z"/>
          </g>
          <g>
            <polygon class="st34" points="12.3 45 17.1 42.2 17.1 35 12.3 37.8 12.3 45"/>
            <polygon class="st24" points="12.3 37.8 17.1 35 11.9 32 7 34.8 12.3 37.8"/>
            <polygon class="st7" points="12.3 45 7 42 7 34.8 12.3 37.8 12.3 45"/>
          </g>
          <g>
            <polygon class="st34" points="11.4 37 15.6 34.6 15.6 31.1 11.4 33.5 11.4 37"/>
            <polygon class="st24" points="11.4 33.5 15.6 31.1 11.5 28.7 7.3 31.2 11.4 33.5"/>
            <polygon class="st7" points="11.4 37 7.3 34.7 7.3 31.2 11.4 33.5 11.4 37"/>
          </g>
          <g>
            <polygon class="st34" points="10.8 43 12.1 42.2 12.1 38.7 10.8 39.5 10.8 43"/>
            <polygon class="st24" points="10.8 39.5 12.1 38.7 8 36.4 6.7 37.1 10.8 39.5"/>
            <polygon class="st7" points="10.8 43 6.7 40.6 6.7 37.1 10.8 39.5 10.8 43"/>
          </g>
        </g>
      </g>
    </g>
  </g>
</svg>