<?xml version="1.0" encoding="UTF-8"?>
<svg xmlns="http://www.w3.org/2000/svg" version="1.1" viewBox="0 0 100 100">
  <!-- Generator: Adobe Illustrator 29.0.0, SVG Export Plug-In . SVG Version: 2.1.0 Build 186)  -->
  <defs>
    <style>
      .st0 {
        fill: #977677;
      }

      .st1 {
        fill: #f8f6e1;
      }

      .st2 {
        fill: #445159;
      }

      .st3 {
        fill: #b57d62;
      }

      .st4 {
        fill: #747a87;
      }

      .st5 {
        fill: #4e303a;
      }

      .st6 {
        fill: #c2dd76;
      }

      .st7 {
        fill: #e8a584;
      }

      .st8 {
        fill: #a88b8f;
      }

      .st9 {
        fill: #ac7d8d;
      }

      .st10 {
        fill: #7b444a;
      }

      .st11 {
        fill: #8a573f;
      }

      .st12 {
        fill: #909299;
      }

      .st13 {
        fill: #897998;
      }

      .st13, .st14, .st15, .st16, .st17 {
        mix-blend-mode: multiply;
      }

      .st18 {
        isolation: isolate;
      }

      .st19 {
        fill: #bda195;
      }

      .st20 {
        fill: #aa7723;
      }

      .st21 {
        fill: #98a3ab;
      }

      .st22 {
        fill: #895b6b;
      }

      .st23 {
        fill: #6e3d1c;
      }

      .st24 {
        fill: #f9f6e1;
      }

      .st14 {
        fill: #c4a3ab;
      }

      .st25 {
        fill: #c7805e;
      }

      .st26 {
        fill: #987677;
      }

      .st27 {
        fill: #6e3e4e;
      }

      .st28 {
        fill: #61302d;
      }

      .st15 {
        fill: #c4bccc;
      }

      .st29 {
        fill: #9c7f84;
      }

      .st30 {
        fill: #754147;
      }

      .st31 {
        fill: #d6e371;
      }

      .st32 {
        fill: #612c07;
      }

      .st33 {
        fill: #1c1b29;
      }

      .st34 {
        fill: #8b6a71;
      }

      .st35 {
        fill: #2b0512;
      }

      .st36 {
        fill: #593b45;
      }

      .st37 {
        fill: #757e84;
      }

      .st38 {
        fill: #947475;
      }

      .st39 {
        fill: #996d7c;
      }

      .st40 {
        fill: #3c4952;
      }

      .st16 {
        fill: #c5bdcd;
      }

      .st41 {
        fill: #e5dad5;
      }

      .st17 {
        fill: #b0a4ba;
      }

      .st42 {
        fill: #48192d;
      }

      .st43 {
        fill: #7c4f1f;
      }

      .st44 {
        fill: #cb8b6c;
      }

      .st45 {
        fill: #20000b;
      }

      .st46 {
        fill: #4d6e4a;
      }

      .st47 {
        fill: #af909b;
      }
    </style>
  </defs>
  <g class="st18">
    <g id="Layer_1">
      <g>
        <g>
          <polygon class="st16" points="10.8 65 12.9 63.8 10.8 62.5 9.5 62.4 8.5 64.8 10.8 65"/>
          <polygon class="st46" points="8.5 64.8 10.7 63.7 10.7 60.8 8.5 61.9 8.5 64.8"/>
          <polygon class="st31" points="8.5 61.9 10.7 60.8 4.8 57.4 2.6 58.5 8.5 61.9"/>
          <polygon class="st6" points="8.5 64.8 2.6 61.4 2.6 58.5 8.5 61.9 8.5 64.8"/>
        </g>
        <g>
          <polygon class="st15" points="63.2 88.5 85.8 75.4 82.8 73.6 61.3 85.1 60 88.2 63.2 88.5"/>
          <polygon class="st46" points="60 88.2 82.7 75.1 82.7 71.9 60 85 60 88.2"/>
          <polygon class="st31" points="60 85 82.7 71.9 80.8 70.9 58.2 83.9 60 85"/>
          <polygon class="st6" points="60 88.2 58.2 87.1 58.2 83.9 60 85 60 88.2"/>
        </g>
        <g>
          <g>
            <g>
              <polygon class="st25" points="10.5 24.8 29.2 35.6 29.2 37.8 10.5 27 10.5 24.8"/>
              <polygon class="st25" points="10.5 34.5 10.5 36.7 11.4 37.3 11.4 37.7 11.7 37.9 11.7 48.1 11.4 48.2 11.4 48.7 29.2 59 29.2 45.3 10.5 34.5"/>
              <polygon class="st25" points="10.5 51.1 29.2 61.9 29.2 59 11.4 48.7 10.5 51.1"/>
              <polygon class="st25" points="10.5 51.1 10.5 65.6 11 65.9 13.7 64.3 28.7 73 28.7 76.1 29.2 76.4 29.2 61.9 10.5 51.1"/>
              <polygon class="st5" points="11 52.3 11 65.9 13.7 64.3 28.7 73 28.7 62.5 28.1 62.2 27.6 61.9 24.6 60.2 24 59.8 21.1 58.1 20.5 57.8 17.6 56.1 17 55.8 14 54.1 13.7 53.9 11 52.3"/>
              <g>
                <polygon class="st5" points="13.7 53.9 13.7 64.3 28.7 73 28.7 62.5 28.4 62.4 28.1 62.2 27.6 61.9 24.9 60.3 24.6 60.2 24 59.8 21.4 58.3 21.1 58.1 20.5 57.8 17.8 56.3 17.6 56.1 17 55.8 14.3 54.2 14 54.1 13.7 53.9"/>
                <polygon class="st22" points="28.1 62.2 28.1 72.2 28.7 72.5 28.7 62.5 28.4 62.4 28.1 62.2"/>
                <polygon class="st22" points="24.6 60.2 24.6 70.2 27.6 71.9 27.6 61.9 24.6 60.2"/>
                <polygon class="st22" points="21.1 58.1 21.1 68.1 24 69.8 24 59.8 21.1 58.1"/>
                <polygon class="st22" points="17.6 56.1 17.6 66.1 20.5 67.8 20.5 57.8 17.6 56.1"/>
                <polygon class="st22" points="14 54.1 14 64.1 17 65.8 17 55.8 14 54.1"/>
                <polygon class="st35" points="24.6 70.2 24.6 60.1 24.9 60.2 24.9 70 24.6 70.2"/>
                <polygon class="st36" points="24.6 70.2 27.6 71.9 27.6 71.6 24.9 70 24.6 70.2"/>
                <polygon class="st35" points="28.1 72.2 28.1 62.1 28.4 62.3 28.4 72.1 28.1 72.2"/>
                <polygon class="st36" points="28.1 72.2 28.7 72.5 28.7 72.2 28.4 72.1 28.1 72.2"/>
                <polygon class="st35" points="21.1 68.1 21.1 58.1 21.4 58.2 21.4 68 21.1 68.1"/>
                <polygon class="st36" points="21.1 68.1 24 69.8 24 69.5 21.4 68 21.1 68.1"/>
                <polygon class="st35" points="17.6 66.1 17.6 56 17.8 56.2 17.8 65.9 17.6 66.1"/>
                <polygon class="st36" points="17.6 66.1 20.5 67.8 20.5 67.5 17.8 65.9 17.6 66.1"/>
                <polygon class="st35" points="14 64.1 14 54 14.3 54.1 14.3 63.9 14 64.1"/>
                <polygon class="st36" points="14 64.1 17 65.8 17 65.5 14.3 63.9 14 64.1"/>
              </g>
              <polygon class="st10" points="13.7 64.3 11 65.9 11 57.4 13.7 55.8 13.7 64.3"/>
              <polygon class="st13" points="11 65.9 13.7 64.3 16.4 65.9 16.4 65.4 17 65.4 17 64.5 17.6 64.9 17.6 66.1 18.1 66.1 18.1 65.3 20.5 66.8 20.5 66.5 21.1 66.9 21.1 68.1 21.6 68.1 21.6 67 24 68.4 24 68.7 24.6 69.1 24.6 70.2 25.1 70.2 25.1 68.9 27.6 70.3 27.6 70.7 28.1 71.1 28.1 72.2 28.6 72.2 28.6 70.8 28.7 70.8 28.7 68.7 29.2 69.1 29.2 61.9 10.5 56.5 10.5 59.9 11 60.2 11 65.9"/>
              <polygon class="st25" points="5.2 54.2 23.9 65 23.9 62.1 5.2 51.3 5.2 54.2"/>
              <polygon class="st41" points="10.5 48.2 29.2 59 23.9 62.1 5.2 51.3 10.5 48.2"/>
            </g>
            <g>
              <polygon class="st10" points="47.9 24.8 29.2 35.6 29.2 59 47.9 48.2 47.9 24.8"/>
              <polygon class="st7" points="47.9 24.8 29.2 35.6 10.5 24.8 29.2 14 47.9 24.8"/>
              <polygon class="st19" points="46.4 24.8 29.2 14.9 12.1 24.8 29.2 34.7 46.4 24.8"/>
              <polygon class="st41" points="12.1 24.8 13.4 25.6 29.2 16.4 45 25.6 46.3 24.8 29.2 14.9 12.1 24.8"/>
              <polygon class="st13" points="29.2 14.9 29.7 16.7 14.4 25.6 29.7 34.4 29.2 34.7 13.4 25.6 29.2 16.4 29.2 14.9"/>
              <polygon class="st10" points="47.9 51.1 23.9 65 23.9 62.1 47.9 48.2 47.9 51.1"/>
              <polygon class="st10" points="47.9 51.1 29.2 61.9 29.2 76.4 47.9 65.6 47.9 51.1"/>
            </g>
            <polygon class="st0" points="12.1 24.8 13.4 25.6 29.2 16.4 29.2 14.9 12.1 24.8"/>
            <g>
              <polygon class="st41" points="38.7 70.9 57.9 82 57.9 52.4 38.7 41.3 38.7 70.9"/>
              <g>
                <polygon class="st41" points="41 43.5 41 44.1 39.6 43.4 39.6 42.7 41 43.5"/>
                <polygon class="st17" points="41 43.5 41.1 43.6 41.1 44.3 39.8 43.5 39.7 43.4 41 44.1 41 44.1 41 43.5"/>
                <polygon class="st24" points="41 43.5 41 43.5 39.6 42.7 39.7 42.7 41 43.5"/>
                <polygon class="st26" points="41 44.1 41 43.5 41 43.5 41 44.1 41 44.1"/>
              </g>
              <g>
                <polygon class="st41" points="41.6 57.4 41.6 58 40.3 57.2 40.3 56.6 41.6 57.4"/>
                <polygon class="st17" points="41.7 57.3 41.8 57.4 41.8 58.2 40.4 57.4 40.4 57.3 41.6 58 41.7 58 41.7 57.3"/>
                <polygon class="st24" points="41.7 57.3 41.6 57.4 40.3 56.6 40.4 56.6 41.7 57.3"/>
                <polygon class="st26" points="41.7 58 41.7 57.3 41.6 57.4 41.6 58 41.7 58"/>
              </g>
              <g>
                <polygon class="st41" points="48.6 62 48.6 62.6 47.3 61.8 47.3 61.2 48.6 62"/>
                <polygon class="st17" points="48.7 61.9 48.8 62 48.8 62.8 47.4 62 47.4 61.9 48.6 62.6 48.7 62.6 48.7 61.9"/>
                <polygon class="st24" points="48.7 61.9 48.6 62 47.3 61.2 47.4 61.2 48.7 61.9"/>
                <polygon class="st26" points="48.7 62.6 48.7 61.9 48.6 62 48.6 62.6 48.7 62.6"/>
              </g>
              <g>
                <polygon class="st41" points="40.6 70.1 40.6 70.8 39.3 70 39.3 69.4 40.6 70.1"/>
                <polygon class="st17" points="40.6 70.1 40.7 70.2 40.7 71 39.4 70.2 39.3 70.1 40.6 70.8 40.6 70.8 40.6 70.1"/>
                <polygon class="st24" points="40.6 70.1 40.6 70.1 39.3 69.4 39.3 69.4 40.6 70.1"/>
                <polygon class="st26" points="40.6 70.8 40.6 70.1 40.6 70.1 40.6 70.8 40.6 70.8"/>
              </g>
              <g>
                <polygon class="st41" points="41.2 69.5 41.2 70.2 39.8 69.4 39.8 68.8 41.2 69.5"/>
                <polygon class="st17" points="41.2 69.5 41.3 69.6 41.3 70.3 40 69.6 39.9 69.4 41.2 70.2 41.2 70.1 41.2 69.5"/>
                <polygon class="st24" points="41.2 69.5 41.2 69.5 39.8 68.8 39.9 68.7 41.2 69.5"/>
                <polygon class="st26" points="41.2 70.1 41.2 69.5 41.2 69.5 41.2 70.2 41.2 70.1"/>
              </g>
              <polygon class="st2" points="38.7 40.5 57.9 51.6 57.9 52.4 38.7 41.3 38.7 40.5"/>
            </g>
            <g>
              <polygon class="st0" points="77.2 70.9 57.9 82 57.9 52.4 77.2 41.3 77.2 70.9"/>
              <polygon class="st33" points="77.2 40.5 57.9 51.6 57.9 52.4 77.2 41.3 77.2 40.5"/>
              <polygon class="st37" points="77.2 40.5 57.9 51.6 38.7 40.5 57.9 29.4 77.2 40.5"/>
              <polygon class="st34" points="75.7 40.5 57.9 30.2 40.1 40.5 57.9 50.8 75.7 40.5"/>
              <polygon class="st2" points="57.9 31.1 40.9 41 40.1 40.5 57.9 30.2 75.7 40.5 75 41 57.9 31.1"/>
            </g>
            <polygon class="st41" points="32.4 56.7 31.9 56.4 28.3 58.5 28.8 58.7 32.4 56.7"/>
            <g>
              <polygon class="st41" points="14.6 46.4 14.1 46.1 10.5 48.2 11 48.5 14.6 46.4"/>
              <polygon class="st41" points="32.3 57.2 31.9 56.9 28.3 59 28.7 59.3 32.3 57.2"/>
              <polygon class="st41" points="10.5 48.7 11.4 48.2 29.2 58.5 28.3 59 10.5 48.7"/>
              <polygon class="st5" points="11.7 37.9 11.7 47.6 11.4 47.7 11.4 48.2 29.2 58.5 29.2 47.5 11.4 37.3 11.4 37.7 11.7 37.9"/>
              <polygon class="st22" points="26 56.2 29.2 58 29.2 48 26 46.2 26 56.2"/>
              <polygon class="st22" points="22.1 53.9 25.3 55.8 25.3 45.8 22.1 43.9 22.1 53.9"/>
              <polygon class="st39" points="25.3 53.9 23.3 53.9 25.3 55.1 25.3 53.9"/>
              <polygon class="st39" points="22.1 47 22.1 49 25.3 49 25.3 48.9 22.1 47"/>
              <rect class="st39" x="22.1" y="49.5" width="3.2" height="1.7"/>
              <polygon class="st39" points="25.3 51.7 22.1 51.7 22.1 53.2 22.5 53.4 25.3 53.4 25.3 51.7"/>
              <polygon class="st22" points="18.2 51.7 21.5 53.6 21.5 43.6 18.2 41.7 18.2 51.7"/>
              <polygon class="st39" points="21.5 51.7 19.5 51.7 21.5 52.8 21.5 51.7"/>
              <polygon class="st39" points="18.2 44.8 18.2 49 21.5 49 21.5 46.7 18.2 44.8"/>
              <polygon class="st39" points="21.5 49.5 18.2 49.5 18.2 51 18.6 51.2 21.5 51.2 21.5 49.5"/>
              <polygon class="st22" points="14.4 49.5 17.6 51.3 17.6 41.3 14.4 39.5 14.4 49.5"/>
              <polygon class="st39" points="17.6 49.5 15.6 49.5 17.6 50.6 17.6 49.5"/>
              <polygon class="st39" points="14.4 46.4 14.4 48.7 14.8 49 17.6 49 17.6 44.5 14.4 46.4"/>
              <polygon class="st22" points="11.4 47.7 13.7 49.1 13.7 39.1 11.7 37.9 11.7 47.6 11.4 47.7"/>
              <polygon class="st39" points="13.7 46.8 13.7 48.4 12.4 47.6 13.7 46.8"/>
              <polygon class="st47" points="13.7 46.4 11.7 47.6 11.7 37.9 13.7 39.1 13.7 46.4"/>
              <polygon class="st36" points="11.4 47.7 13.7 49.1 13.7 48.8 11.7 47.6 11.4 47.7"/>
              <polygon class="st35" points="14.4 49.5 14.4 39.5 14.6 39.6 14.6 49.3 14.4 49.5"/>
              <polygon class="st36" points="14.4 49.5 17.6 51.3 17.6 51 14.6 49.3 14.4 49.5"/>
              <polygon class="st35" points="18.2 51.7 18.2 41.7 18.5 41.8 18.5 51.5 18.2 51.7"/>
              <polygon class="st36" points="18.2 51.7 21.5 53.6 21.5 53.3 18.5 51.5 18.2 51.7"/>
              <polygon class="st35" points="22.1 53.9 22.1 43.9 22.4 44.1 22.4 53.8 22.1 53.9"/>
              <polygon class="st36" points="22.1 53.9 25.3 55.8 25.3 55.5 22.4 53.8 22.1 53.9"/>
              <polygon class="st35" points="26 56.2 26 46.2 26.2 46.3 26.2 56 26 56.2"/>
              <polygon class="st36" points="26 56.2 29.2 58 29.2 57.7 28.3 57.2 26.2 56 26 56.2"/>
              <polygon class="st0" points="32.3 57.2 31.9 56.9 31.9 46 32.3 45.7 32.3 57.2"/>
              <g>
                <polygon class="st45" points="31.9 56.9 29.2 58.5 29.2 47.5 31.9 46 31.9 56.9"/>
                <polygon class="st42" points="31.5 56.7 29.2 58 29.2 48 31.5 46.7 31.5 56.7"/>
                <polygon class="st27" points="29.2 51.7 29.2 53.4 31.5 53.4 31.5 52.5 30.2 51.7 30.2 51.7 29.2 51.7"/>
                <rect class="st27" x="29.2" y="53.9" width="2.3" height="1.7"/>
                <polygon class="st27" points="29.2 56.2 29.2 57.3 29.8 57.7 31.5 56.7 31.5 56.2 29.2 56.2"/>
                <g>
                  <polygon class="st39" points="27.2 56.2 29.2 57.3 29.2 56.2 27.2 56.2"/>
                  <polygon class="st39" points="26.2 49.4 26.2 51.2 29.3 51.2 26.3 49.4 26.2 49.4"/>
                  <rect class="st39" x="26.2" y="51.7" width="3" height="1.7"/>
                  <polygon class="st39" points="26.2 53.9 26.2 55.6 26.4 55.7 29.2 55.7 29.2 53.9 26.2 53.9"/>
                </g>
                <polygon class="st35" points="31.5 56.7 31.5 46.7 31.3 46.8 31.3 56.5 31.5 56.7"/>
                <polygon class="st36" points="29.2 57.7 29.2 58 31.5 56.7 31.3 56.5 29.2 57.7"/>
              </g>
            </g>
            <g>
              <polygon class="st41" points="13.8 33.2 13.3 32.9 10.5 34.5 11 34.8 13.8 33.2"/>
              <polygon class="st41" points="32.3 43.5 31.9 43.2 28.8 45.1 29.2 45.3 32.3 43.5"/>
              <polygon class="st41" points="11 34.8 11.4 34.5 29.2 44.8 28.8 45.1 11 34.8"/>
              <polygon class="st5" points="11.7 28.2 11.7 33.9 11.4 34 11.4 34.5 29.2 44.8 29.2 37.8 11.4 27.6 11.4 28 11.7 28.2"/>
              <polygon class="st22" points="26 42.5 29.2 44.3 29.2 38.3 26 36.5 26 42.5"/>
              <polygon class="st22" points="22.1 40.2 25.3 42.1 25.3 36.1 22.1 34.2 22.1 40.2"/>
              <polygon class="st39" points="25.3 40.2 23.1 40.2 25.3 41.5 25.3 40.2"/>
              <polygon class="st39" points="22.1 36.2 22.1 37.5 24.4 37.5 22.1 36.2"/>
              <polygon class="st39" points="25.2 38 22.1 38 22.1 39.6 22.3 39.7 25.3 39.7 25.3 38.1 25.2 38"/>
              <polygon class="st22" points="18.2 38 21.5 39.9 21.5 33.9 18.2 32 18.2 38"/>
              <polygon class="st39" points="21.5 38 19.3 38 21.5 39.3 21.5 38"/>
              <polygon class="st39" points="18.2 34 18.2 35.3 20.5 35.3 18.2 34"/>
              <polygon class="st39" points="21.3 35.8 18.2 35.8 18.2 37.4 18.4 37.5 21.5 37.5 21.5 35.8 21.3 35.8"/>
              <polygon class="st22" points="14.4 35.8 17.6 37.6 17.6 31.6 14.4 29.8 14.4 35.8"/>
              <polygon class="st39" points="17.6 35.8 15.4 35.8 17.6 37 17.6 35.8"/>
              <polygon class="st39" points="14.4 32.8 14.4 35.2 14.6 35.3 17.6 35.3 17.6 33.6 15.3 32.3 14.4 32.8"/>
              <polygon class="st22" points="11.4 34 13.7 35.4 13.7 29.4 11.7 28.2 11.7 33.9 11.4 34"/>
              <polygon class="st39" points="13.7 33.2 13.7 34.8 12.4 34 13.7 33.2"/>
              <polygon class="st47" points="13.7 32.7 11.7 33.9 11.7 28.2 13.7 29.4 13.7 32.7"/>
              <polygon class="st36" points="11.4 34 13.7 35.4 13.7 35.1 11.7 33.9 11.4 34"/>
              <polygon class="st35" points="14.4 35.8 14.4 29.8 14.6 29.9 14.6 35.6 14.4 35.8"/>
              <polygon class="st36" points="14.4 35.8 17.6 37.6 17.6 37.3 14.6 35.6 14.4 35.8"/>
              <polygon class="st35" points="18.2 38 18.2 32 18.5 32.1 18.5 37.9 18.2 38"/>
              <polygon class="st36" points="18.2 38 21.5 39.9 21.5 39.6 18.5 37.9 18.2 38"/>
              <polygon class="st35" points="22.1 40.2 22.1 34.2 22.4 34.4 22.4 40.1 22.1 40.2"/>
              <polygon class="st36" points="22.1 40.2 25.3 42.1 25.3 41.8 22.4 40.1 22.1 40.2"/>
              <polygon class="st35" points="26 42.5 26 36.5 26.2 36.6 26.2 42.3 26 42.5"/>
              <polygon class="st36" points="26 42.5 29.2 44.3 29.2 44 28.3 43.5 26.2 42.3 26 42.5"/>
              <polygon class="st0" points="32.3 43.5 31.9 43.2 31.9 36.3 32.3 36 32.3 43.5"/>
              <g>
                <polygon class="st45" points="31.9 43.2 29.2 44.8 29.2 37.8 31.9 36.3 31.9 43.2"/>
                <polygon class="st42" points="31.5 43 29.2 44.3 29.2 38.3 31.5 37 31.5 43"/>
                <polygon class="st27" points="29.2 40.3 29.2 42 31.5 42 31.5 41.7 29.2 40.3"/>
                <polygon class="st27" points="29.2 42.5 29.2 43.7 29.7 44 31.5 43 31.5 42.5 29.2 42.5"/>
                <g>
                  <polygon class="st39" points="27 42.5 29.2 43.7 29.2 42.5 27 42.5"/>
                  <polygon class="st39" points="26.2 38.6 26.2 39.7 28.2 39.7 26.2 38.6"/>
                  <polygon class="st39" points="26.2 40.2 26.2 42 29.2 42 29.2 40.3 29.1 40.2 26.2 40.2"/>
                </g>
                <polygon class="st35" points="31.5 43 31.5 37 31.3 37.1 31.3 42.8 31.5 43"/>
                <polygon class="st36" points="29.2 44 29.2 44.3 31.5 43 31.3 42.8 29.2 44"/>
              </g>
            </g>
            <polygon class="st9" points="26.2 49.4 26.2 49.5 26.3 49.5 26.3 49.4 26.2 49.4"/>
            <polygon class="st14" points="16.4 65.9 11 65.9 13.7 64.3 16.4 65.9"/>
            <g>
              <g>
                <g>
                  <polygon class="st5" points="10.6 45.8 10.9 45.9 10.9 48.6 10.6 48.4 10.6 45.8"/>
                  <polygon class="st36" points="10.9 45.6 11.2 45.8 10.9 45.9 10.6 45.8 10.9 45.6"/>
                  <polygon class="st35" points="11.2 45.8 10.9 45.9 10.9 48.6 11.2 48.4 11.2 45.8"/>
                </g>
                <g>
                  <polygon class="st4" points="10.8 48.4 8.8 49.6 8.8 47.3 10.8 46.1 10.8 48.4"/>
                  <polygon class="st40" points="8.8 49.6 8.8 47.3 8.6 47.2 8.6 49.5 8.8 49.6"/>
                  <polygon class="st21" points="10.8 46.1 8.8 47.3 8.6 47.2 10.7 46 10.8 46.1"/>
                </g>
                <g>
                  <polygon class="st5" points="8.2 47.2 8.5 47.3 8.5 50 8.2 49.8 8.2 47.2"/>
                  <polygon class="st36" points="8.5 47 8.8 47.2 8.5 47.3 8.2 47.2 8.5 47"/>
                  <polygon class="st35" points="8.8 47.2 8.5 47.3 8.5 50 8.8 49.8 8.8 47.2"/>
                </g>
                <g>
                  <polygon class="st4" points="8.4 49.8 6.3 50.9 6.3 48.7 8.4 47.5 8.4 49.8"/>
                  <polygon class="st40" points="6.3 50.9 6.3 48.7 6.2 48.6 6.2 50.9 6.3 50.9"/>
                  <polygon class="st21" points="8.4 47.5 6.3 48.7 6.2 48.6 8.2 47.4 8.4 47.5"/>
                </g>
                <g>
                  <polygon class="st5" points="5.8 48.6 6.1 48.7 6.1 51.4 5.8 51.2 5.8 48.6"/>
                  <polygon class="st36" points="6.1 48.4 6.4 48.6 6.1 48.7 5.8 48.6 6.1 48.4"/>
                  <polygon class="st35" points="6.4 48.6 6.1 48.7 6.1 51.4 6.4 51.2 6.4 48.6"/>
                </g>
              </g>
              <g>
                <g>
                  <polygon class="st35" points="6.4 48.6 6.1 48.7 6.1 51.4 6.4 51.2 6.4 48.6"/>
                  <polygon class="st36" points="6.1 48.4 5.8 48.6 6.1 48.7 6.4 48.6 6.1 48.4"/>
                  <polygon class="st5" points="5.8 48.6 6.1 48.7 6.1 51.4 5.8 51.2 5.8 48.6"/>
                </g>
                <g>
                  <polygon class="st12" points="6.2 51.2 9.4 53 9.4 50.8 6.2 48.9 6.2 51.2"/>
                  <polygon class="st40" points="9.4 53 9.4 50.8 9.5 50.7 9.5 52.9 9.4 53"/>
                  <polygon class="st21" points="6.2 48.9 9.4 50.8 9.5 50.7 6.3 48.8 6.2 48.9"/>
                </g>
                <g>
                  <polygon class="st35" points="9.9 50.6 9.7 50.8 9.7 53.4 9.9 53.3 9.9 50.6"/>
                  <polygon class="st36" points="9.7 50.5 9.4 50.6 9.7 50.8 9.9 50.6 9.7 50.5"/>
                  <polygon class="st5" points="9.4 50.6 9.7 50.8 9.7 53.4 9.4 53.3 9.4 50.6"/>
                </g>
                <g>
                  <polygon class="st12" points="9.8 53.2 13 55.1 13 52.8 9.8 51 9.8 53.2"/>
                  <polygon class="st40" points="13 55.1 13 52.8 13.1 52.8 13.1 55 13 55.1"/>
                  <polygon class="st21" points="9.8 51 13 52.8 13.1 52.8 9.9 50.9 9.8 51"/>
                </g>
                <g>
                  <polygon class="st35" points="13.5 52.7 13.2 52.9 13.2 55.5 13.5 55.3 13.5 52.7"/>
                  <polygon class="st36" points="13.2 52.5 13 52.7 13.2 52.9 13.5 52.7 13.2 52.5"/>
                  <polygon class="st5" points="13 52.7 13.2 52.9 13.2 55.5 13 55.3 13 52.7"/>
                </g>
              </g>
              <g>
                <g>
                  <polygon class="st35" points="13.5 52.7 13.2 52.9 13.2 55.5 13.5 55.3 13.5 52.7"/>
                  <polygon class="st36" points="13.2 52.5 13 52.7 13.2 52.9 13.5 52.7 13.2 52.5"/>
                  <polygon class="st5" points="13 52.7 13.2 52.9 13.2 55.5 13 55.3 13 52.7"/>
                </g>
                <g>
                  <polygon class="st12" points="13.3 55.3 16.6 57.2 16.6 54.9 13.3 53.1 13.3 55.3"/>
                  <polygon class="st40" points="16.6 57.2 16.6 54.9 16.7 54.8 16.7 57.1 16.6 57.2"/>
                  <polygon class="st21" points="13.3 53.1 16.6 54.9 16.7 54.8 13.5 53 13.3 53.1"/>
                </g>
                <g>
                  <polygon class="st35" points="17.1 54.8 16.8 55 16.8 57.6 17.1 57.4 17.1 54.8"/>
                  <polygon class="st36" points="16.8 54.6 16.5 54.8 16.8 55 17.1 54.8 16.8 54.6"/>
                  <polygon class="st5" points="16.5 54.8 16.8 55 16.8 57.6 16.5 57.4 16.5 54.8"/>
                </g>
                <g>
                  <polygon class="st12" points="16.9 57.4 20.2 59.2 20.2 57 16.9 55.1 16.9 57.4"/>
                  <polygon class="st40" points="20.2 59.2 20.2 57 20.3 56.9 20.3 59.2 20.2 59.2"/>
                  <polygon class="st21" points="16.9 55.1 20.2 57 20.3 56.9 17.1 55.1 16.9 55.1"/>
                </g>
                <g>
                  <polygon class="st35" points="20.7 56.9 20.4 57 20.4 59.7 20.7 59.5 20.7 56.9"/>
                  <polygon class="st36" points="20.4 56.7 20.1 56.9 20.4 57 20.7 56.9 20.4 56.7"/>
                  <polygon class="st5" points="20.1 56.9 20.4 57 20.4 59.7 20.1 59.5 20.1 56.9"/>
                </g>
                <g>
                  <polygon class="st12" points="20.5 59.5 23.8 61.3 23.8 59.1 20.5 57.2 20.5 59.5"/>
                  <polygon class="st40" points="23.8 61.3 23.8 59.1 23.9 59 23.9 61.2 23.8 61.3"/>
                  <polygon class="st21" points="20.5 57.2 23.8 59.1 23.9 59 20.7 57.1 20.5 57.2"/>
                </g>
                <g>
                  <polygon class="st35" points="24.3 58.9 24 59.1 24 61.7 24.3 61.6 24.3 58.9"/>
                  <polygon class="st36" points="24 58.8 23.7 58.9 24 59.1 24.3 58.9 24 58.8"/>
                  <polygon class="st5" points="23.7 58.9 24 59.1 24 61.7 23.7 61.6 23.7 58.9"/>
                </g>
              </g>
              <g>
                <g>
                  <polygon class="st5" points="28.6 56.1 28.9 56.3 28.9 58.9 28.6 58.8 28.6 56.1"/>
                  <polygon class="st36" points="28.9 56 29.2 56.1 28.9 56.3 28.6 56.1 28.9 56"/>
                  <polygon class="st35" points="29.2 56.1 28.9 56.3 28.9 58.9 29.2 58.8 29.2 56.1"/>
                </g>
                <g>
                  <polygon class="st4" points="28.8 58.7 26.7 59.9 26.7 57.7 28.8 56.5 28.8 58.7"/>
                  <polygon class="st40" points="26.7 59.9 26.7 57.7 26.6 57.6 26.6 59.8 26.7 59.9"/>
                  <polygon class="st21" points="28.8 56.5 26.7 57.7 26.6 57.6 28.6 56.4 28.8 56.5"/>
                </g>
                <g>
                  <polygon class="st5" points="26.1 57.5 26.4 57.7 26.4 60.3 26.1 60.2 26.1 57.5"/>
                  <polygon class="st36" points="26.4 57.4 26.7 57.5 26.4 57.7 26.1 57.5 26.4 57.4"/>
                  <polygon class="st35" points="26.7 57.5 26.4 57.7 26.4 60.3 26.7 60.2 26.7 57.5"/>
                </g>
                <g>
                  <polygon class="st4" points="26.3 60.1 24.3 61.3 24.3 59.1 26.3 57.9 26.3 60.1"/>
                  <polygon class="st40" points="24.3 61.3 24.3 59.1 24.1 59 24.1 61.2 24.3 61.3"/>
                  <polygon class="st21" points="26.3 57.9 24.3 59.1 24.1 59 26.2 57.8 26.3 57.9"/>
                </g>
                <g>
                  <polygon class="st5" points="23.7 58.9 24 59.1 24 61.7 23.7 61.6 23.7 58.9"/>
                  <polygon class="st36" points="24 58.8 24.3 58.9 24 59.1 23.7 58.9 24 58.8"/>
                  <polygon class="st35" points="24.3 58.9 24 59.1 24 61.7 24.3 61.6 24.3 58.9"/>
                </g>
              </g>
            </g>
            <g>
              <g>
                <polygon class="st5" points="43.2 61.7 43.2 73.2 57.9 81.6 57.9 70.2 57.6 70 43.7 62 43.5 61.9 43.2 61.7"/>
                <polygon class="st1" points="42.9 73.4 57.9 82 57.9 81.6 43.2 73.2 42.9 73.4"/>
                <polygon class="st13" points="42.9 73.4 43.6 73.4 43.6 67.4 57.9 75.7 57.9 70.2 43.2 61.7 43.2 73.2 42.9 73.4"/>
                <polygon class="st22" points="43.5 73.1 57.6 81.2 57.6 70 43.5 61.9 43.5 73.1"/>
                <polygon class="st35" points="43.5 73.1 43.5 61.9 43.7 62 43.7 72.9 43.5 73.1"/>
                <polygon class="st36" points="43.5 73.1 57.6 81.2 57.6 81 43.7 72.9 43.5 73.1"/>
                <polygon class="st13" points="43.6 73.1 44 73.1 44 67.4 57.6 75.2 57.6 70 43.7 62 43.7 72.9 43.5 73.1 43.6 73.1"/>
                <polygon class="st0" points="42.9 73.4 42.9 73.4 43.2 73.2 43.2 61.7 42.9 61.5 42.9 73.4 42.9 73.4"/>
              </g>
              <g>
                <polygon class="st45" points="57.9 70.2 57.9 81.6 65.5 77.3 65.5 65.8 65.3 66 58.2 70 57.9 70.2"/>
                <polygon class="st42" points="65.3 77.2 58.2 81.2 58.2 70 65.3 66 65.3 77.2"/>
                <polygon class="st19" points="57.9 81.6 57.9 82 65.8 77.5 65.5 77.3 57.9 81.6"/>
                <polygon class="st28" points="65.5 65.8 65.5 77.3 65.8 77.5 65.8 77.5 65.8 77.5 65.8 65.6 65.5 65.8"/>
                <polygon class="st35" points="65.3 77.2 65.3 66 65 66.1 65 77 65.3 77.2"/>
                <polygon class="st36" points="65.3 77.2 58.2 81.2 58.2 81 65 77 65.3 77.2"/>
              </g>
              <polygon class="st35" points="50.6 77.2 50.6 66 50.8 66.1 50.8 77 50.6 77.2"/>
              <polygon class="st5" points="50.6 77.2 50.6 66 49.7 65.5 49.7 76.7 50.6 77.2"/>
              <polygon class="st13" points="50.6 71.2 50.6 66 49.7 65.5 49.7 70.8 50.6 71.2"/>
              <polygon class="st13" points="50.6 77.2 51 77.2 51 66.8 50.8 66.7 50.8 77 50.6 77.2"/>
            </g>
            <g>
              <g>
                <polygon class="st5" points="39 45.3 39 52.9 57.9 63.8 57.9 56.2 57.6 56 42.5 47.3 42.3 47.1 39 45.3"/>
                <polygon class="st1" points="38.7 53.1 57.9 64.2 57.9 63.8 39 52.9 38.7 53.1"/>
                <polygon class="st13" points="38.7 53.1 39.4 53.1 39.4 46.4 54.9 55.3 54.9 54.4 39 45.3 39 52.9 38.7 53.1"/>
                <polygon class="st22" points="42.3 54.6 57.6 63.4 57.6 56 42.3 47.1 42.3 54.6"/>
                <polygon class="st35" points="42.3 54.6 42.3 47.1 42.5 47.3 42.5 54.5 42.3 54.6"/>
                <polygon class="st36" points="42.3 54.6 57.6 63.4 57.6 63.2 42.5 54.5 42.3 54.6"/>
                <polygon class="st13" points="42.5 54.7 42.9 54.7 42.9 48.1 57.6 56.6 57.6 56 42.5 47.3 42.5 54.5 42.3 54.6 42.5 54.7"/>
                <polygon class="st10" points="38.7 53.1 38.7 53.1 39 52.9 39 45.3 38.7 45.1 38.7 53.1 38.7 53.1"/>
              </g>
              <g>
                <polygon class="st45" points="57.9 56.2 57.9 63.8 65.5 59.5 65.5 51.8 65.3 51.9 58.2 56 57.9 56.2"/>
                <polygon class="st42" points="65.3 59.4 58.2 63.4 58.2 56 65.3 51.9 65.3 59.4"/>
                <polygon class="st19" points="57.9 63.8 57.9 64.2 65.8 59.7 65.5 59.5 57.9 63.8"/>
                <polygon class="st28" points="65.5 51.8 65.5 59.5 65.8 59.7 65.8 59.7 65.8 59.7 65.8 51.6 65.5 51.8"/>
                <polygon class="st35" points="65.3 59.4 65.3 51.9 65 52 65 59.2 65.3 59.4"/>
                <polygon class="st36" points="65.3 59.4 58.2 63.4 58.2 63.2 65 59.2 65.3 59.4"/>
              </g>
              <polygon class="st35" points="50.6 59.4 50.6 51.9 50.8 52 50.8 59.2 50.6 59.4"/>
              <polygon class="st5" points="50.6 59.4 50.6 51.9 49.7 51.4 49.7 58.9 50.6 59.4"/>
              <polygon class="st13" points="50.6 52.6 50.6 51.9 49.7 51.4 49.7 52.1 50.6 52.6"/>
              <polygon class="st13" points="50.6 59.4 51 59.4 51 52.8 50.8 52.7 50.8 59.2 50.6 59.4"/>
            </g>
            <g>
              <polygon class="st5" points="73.4 61.2 73.4 69.8 70.8 71.3 70.8 62.7 72.8 61.6 73.2 61.4 73.4 61.2"/>
              <polygon class="st22" points="73.2 61.4 73.2 69.6 70.8 71 70.8 62.7 72.8 61.6 73.2 61.4"/>
              <polygon class="st19" points="74 70.1 70.8 71.9 70.8 71.3 73.4 69.8 74 70.1"/>
              <polygon class="st28" points="74 70.1 74 70.1 73.4 69.8 73.4 61.2 74 60.9 74 70.1 74 70.1"/>
              <polygon class="st35" points="73.2 61.4 73.2 69.6 72.8 69.4 72.8 61.6 73.2 61.4"/>
              <polygon class="st36" points="73.2 69.6 70.8 71 70.8 70.6 72.8 69.4 73.2 69.6"/>
              <polygon class="st13" points="74 70.1 72.8 70.1 72.8 69.8 72.1 69.8 72.1 62.9 70.8 63.6 70.8 62.7 72.8 61.6 72.8 69.4 73.2 69.6 73.2 61.4 73.4 61.2 73.4 69.8 74 70.1"/>
            </g>
            <g>
              <polygon class="st5" points="73.4 46.5 73.4 55 70.8 56.5 70.8 48 72.8 46.9 73.2 46.6 73.4 46.5"/>
              <polygon class="st22" points="73.2 46.6 73.2 54.9 70.8 56.2 70.8 48 72.8 46.9 73.2 46.6"/>
              <polygon class="st19" points="74 55.4 70.8 57.2 70.8 56.5 73.4 55 74 55.4"/>
              <polygon class="st28" points="74 55.4 74 55.4 73.4 55 73.4 46.5 74 46.2 74 55.4 74 55.4"/>
              <polygon class="st35" points="73.2 46.6 73.2 54.9 72.8 54.7 72.8 46.9 73.2 46.6"/>
              <polygon class="st36" points="73.2 54.9 70.8 56.2 70.8 55.8 72.8 54.7 73.2 54.9"/>
              <polygon class="st13" points="74 55.4 72.8 55.4 72.8 55.1 72.1 55.1 72.1 48.2 70.8 48.9 70.8 48 72.8 46.9 72.8 54.7 73.2 54.9 73.2 46.6 73.4 46.5 73.4 55 74 55.4"/>
            </g>
            <polygon class="st13" points="29.2 76.4 48.9 76.4 48.9 76.2 49.3 76.2 49.3 70.4 49.3 65.2 48.2 62.8 48.2 58.6 48.8 58.6 48.8 58.3 49.2 58.3 49.2 51.7 48.2 51.2 48.2 46 38.7 40.5 38.7 70.9 29.2 76.4"/>
            <g>
              <polygon class="st37" points="42.2 59.3 61.1 70.2 57.9 72.1 39 61.2 42.2 59.3"/>
              <polygon class="st2" points="39 61.2 57.9 72.1 57.9 73 39 62.1 39 61.2"/>
              <polygon class="st33" points="57.9 72.1 69.9 65.2 69.9 66.1 57.9 73 57.9 72.1"/>
              <polygon class="st37" points="57.9 68.4 66.7 63.3 69.9 65.2 61.1 70.2 57.9 68.4"/>
            </g>
            <polygon class="st13" points="42.2 59.3 48.2 62.8 41.9 62.8 41.9 63.7 39 62.1 39 61.2 42.2 59.3"/>
            <polygon class="st33" points="57.9 30.2 57.9 31.1 40.9 41 40.1 40.5 57.9 30.2"/>
            <polygon class="st13" points="57.2 29.9 57.9 30.2 58.5 31.4 56.6 32.5 61.7 35.6 47.5 44.1 58.6 50.4 57.9 50.8 49.6 46 48.2 46 38.7 40.5 57.2 29.9"/>
          </g>
          <g>
            <polygon class="st38" points="59 66.1 59 66.8 60.5 66 60.5 65.2 59 66.1"/>
            <polygon class="st29" points="59 66.1 59 66.1 60.5 65.2 60.5 65.2 59 66.1"/>
            <polygon class="st8" points="59 66.8 59 66.1 59 66.1 59 66.8 59 66.8"/>
          </g>
          <g>
            <polygon class="st38" points="62.4 62.2 62.4 62.9 63.9 62.1 63.9 61.4 62.4 62.2"/>
            <polygon class="st29" points="62.3 62.2 62.4 62.2 63.9 61.4 63.8 61.3 62.3 62.2"/>
            <polygon class="st8" points="62.3 62.9 62.3 62.2 62.4 62.2 62.4 62.9 62.3 62.9"/>
          </g>
          <g>
            <polygon class="st38" points="69.7 61.1 69.7 61.9 71.2 61 71.2 60.3 69.7 61.1"/>
            <polygon class="st29" points="69.6 61.1 69.7 61.1 71.2 60.3 71.1 60.2 69.6 61.1"/>
            <polygon class="st8" points="69.6 61.8 69.6 61.1 69.7 61.1 69.7 61.9 69.6 61.8"/>
          </g>
          <g>
            <polygon class="st38" points="73.7 70.8 73.7 71.6 75.2 70.7 75.2 70 73.7 70.8"/>
            <polygon class="st29" points="73.6 70.8 73.7 70.8 75.2 70 75.1 69.9 73.6 70.8"/>
            <polygon class="st8" points="73.6 71.5 73.6 70.8 73.7 70.8 73.7 71.6 73.6 71.5"/>
          </g>
          <g>
            <polygon class="st38" points="66.5 70.1 66.5 70.8 68 69.9 68 69.2 66.5 70.1"/>
            <polygon class="st29" points="66.5 70 66.5 70.1 68 69.2 68 69.2 66.5 70"/>
            <polygon class="st8" points="66.5 70.7 66.5 70 66.5 70.1 66.5 70.8 66.5 70.7"/>
          </g>
          <g>
            <polygon class="st38" points="67.1 70.7 67.1 71.4 68.6 70.5 68.6 69.8 67.1 70.7"/>
            <polygon class="st29" points="67.1 70.6 67.1 70.7 68.6 69.8 68.6 69.8 67.1 70.6"/>
            <polygon class="st8" points="67.1 71.4 67.1 70.6 67.1 70.7 67.1 71.4 67.1 71.4"/>
          </g>
          <g>
            <polygon class="st38" points="64.6 50.7 64.6 51.4 66 50.6 66 49.8 64.6 50.7"/>
            <polygon class="st29" points="64.5 50.7 64.6 50.7 66 49.8 66 49.8 64.5 50.7"/>
            <polygon class="st8" points="64.5 51.4 64.5 50.7 64.6 50.7 64.6 51.4 64.5 51.4"/>
          </g>
          <g>
            <polygon class="st38" points="74.3 56.1 74.3 56.8 75.7 56 75.7 55.3 74.3 56.1"/>
            <polygon class="st29" points="74.2 56.1 74.3 56.1 75.7 55.3 75.7 55.2 74.2 56.1"/>
            <polygon class="st8" points="74.2 56.8 74.2 56.1 74.3 56.1 74.3 56.8 74.2 56.8"/>
          </g>
          <g>
            <polygon class="st38" points="65.1 49.5 65.1 50.2 66.6 49.4 66.6 48.7 65.1 49.5"/>
            <polygon class="st29" points="65.1 49.5 65.1 49.5 66.6 48.7 66.6 48.6 65.1 49.5"/>
            <polygon class="st8" points="65.1 50.2 65.1 49.5 65.1 49.5 65.1 50.2 65.1 50.2"/>
          </g>
          <g>
            <polygon class="st41" points="56.2 64.2 56.2 64.8 54.9 64.1 54.9 63.4 56.2 64.2"/>
            <polygon class="st17" points="56.3 64.2 56.4 64.3 56.4 65 55 64.2 55 64.1 56.2 64.8 56.3 64.8 56.3 64.2"/>
            <polygon class="st24" points="56.3 64.2 56.2 64.2 54.9 63.4 55 63.4 56.3 64.2"/>
            <polygon class="st26" points="56.3 64.8 56.3 64.2 56.2 64.2 56.2 64.8 56.3 64.8"/>
          </g>
          <g>
            <polygon class="st41" points="56.7 65.3 56.7 65.9 55.4 65.2 55.4 64.5 56.7 65.3"/>
            <polygon class="st17" points="56.7 65.3 56.8 65.4 56.8 66.1 55.5 65.3 55.4 65.2 56.7 65.9 56.7 65.9 56.7 65.3"/>
            <polygon class="st24" points="56.7 65.3 56.7 65.3 55.4 64.5 55.4 64.5 56.7 65.3"/>
            <polygon class="st26" points="56.7 65.9 56.7 65.3 56.7 65.3 56.7 65.9 56.7 65.9"/>
          </g>
          <g>
            <polygon class="st30" points="33.9 41.4 33.9 42.1 35.4 41.2 35.4 40.5 33.9 41.4"/>
            <polygon class="st3" points="33.9 41.3 33.9 41.4 35.4 40.5 35.4 40.5 33.9 41.3"/>
            <polygon class="st11" points="33.9 42.1 33.9 41.3 33.9 41.4 33.9 42.1 33.9 42.1"/>
          </g>
          <g>
            <polygon class="st30" points="31.6 35.1 31.6 35.8 33.1 34.9 33.1 34.2 31.6 35.1"/>
            <polygon class="st3" points="31.6 35 31.6 35.1 33.1 34.2 33 34.2 31.6 35"/>
            <polygon class="st11" points="31.6 35.8 31.6 35 31.6 35.1 31.6 35.8 31.6 35.8"/>
          </g>
          <g>
            <polygon class="st30" points="45.4 28.3 45.4 29 46.9 28.1 46.9 27.4 45.4 28.3"/>
            <polygon class="st3" points="45.4 28.2 45.4 28.3 46.9 27.4 46.9 27.4 45.4 28.2"/>
            <polygon class="st11" points="45.4 29 45.4 28.2 45.4 28.3 45.4 29 45.4 29"/>
          </g>
          <g>
            <polygon class="st30" points="44.9 29.5 44.9 30.2 46.3 29.4 46.3 28.7 44.9 29.5"/>
            <polygon class="st3" points="44.8 29.5 44.9 29.5 46.3 28.7 46.3 28.6 44.8 29.5"/>
            <polygon class="st11" points="44.8 30.2 44.8 29.5 44.9 29.5 44.9 30.2 44.8 30.2"/>
          </g>
          <g>
            <polygon class="st30" points="40.9 36.3 40.9 37 42.4 36.1 42.4 35.4 40.9 36.3"/>
            <polygon class="st3" points="40.9 36.2 40.9 36.3 42.4 35.4 42.4 35.4 40.9 36.2"/>
            <polygon class="st11" points="40.9 37 40.9 36.2 40.9 36.3 40.9 37 40.9 37"/>
          </g>
          <g>
            <polygon class="st30" points="35.9 56.1 35.9 56.8 37.4 56 37.4 55.2 35.9 56.1"/>
            <polygon class="st3" points="35.9 56.1 35.9 56.1 37.4 55.2 37.4 55.2 35.9 56.1"/>
            <polygon class="st11" points="35.9 56.8 35.9 56.1 35.9 56.1 35.9 56.8 35.9 56.8"/>
          </g>
          <g>
            <polygon class="st30" points="30.1 74.1 30.1 74.8 31.6 73.9 31.6 73.2 30.1 74.1"/>
            <polygon class="st3" points="30 74 30.1 74.1 31.6 73.2 31.5 73.2 30 74"/>
            <polygon class="st11" points="30 74.8 30 74 30.1 74.1 30.1 74.8 30 74.8"/>
          </g>
          <g>
            <polygon class="st30" points="32.4 63.8 32.4 64.5 33.9 63.7 33.9 63 32.4 63.8"/>
            <polygon class="st3" points="32.3 63.8 32.4 63.8 33.9 63 33.8 62.9 32.3 63.8"/>
            <polygon class="st11" points="32.3 64.5 32.3 63.8 32.4 63.8 32.4 64.5 32.3 64.5"/>
          </g>
          <g>
            <polygon class="st30" points="24.7 61.9 24.7 62.7 26.2 61.8 26.2 61.1 24.7 61.9"/>
            <polygon class="st3" points="24.7 61.9 24.7 61.9 26.2 61.1 26.2 61 24.7 61.9"/>
            <polygon class="st11" points="24.7 62.6 24.7 61.9 24.7 61.9 24.7 62.7 24.7 62.6"/>
          </g>
          <g>
            <polygon class="st30" points="33.2 64.3 33.2 65 34.7 64.1 34.7 63.4 33.2 64.3"/>
            <polygon class="st3" points="33.1 64.2 33.2 64.3 34.7 63.4 34.6 63.4 33.1 64.2"/>
            <polygon class="st11" points="33.1 64.9 33.1 64.2 33.2 64.3 33.2 65 33.1 64.9"/>
          </g>
          <g>
            <polygon class="st25" points="27.8 45 27.8 45.7 26.4 44.9 26.4 44.3 27.8 45"/>
            <polygon class="st17" points="27.8 45 27.9 45.1 27.9 45.8 26.6 45 26.5 44.9 27.8 45.7 27.8 45.6 27.8 45"/>
            <polygon class="st44" points="27.8 45 27.8 45 26.4 44.3 26.5 44.2 27.8 45"/>
            <polygon class="st10" points="27.8 45.6 27.8 45 27.8 45 27.8 45.7 27.8 45.6"/>
          </g>
          <g>
            <polygon class="st25" points="15.2 37.5 15.2 38.1 13.9 37.4 13.9 36.7 15.2 37.5"/>
            <polygon class="st17" points="15.2 37.5 15.3 37.6 15.3 38.3 14 37.5 13.9 37.4 15.2 38.1 15.2 38.1 15.2 37.5"/>
            <polygon class="st44" points="15.2 37.5 15.2 37.5 13.9 36.7 13.9 36.7 15.2 37.5"/>
            <polygon class="st10" points="15.2 38.1 15.2 37.5 15.2 37.5 15.2 38.1 15.2 38.1"/>
          </g>
          <g>
            <polygon class="st25" points="15.6 38.6 15.6 39.3 14.2 38.5 14.2 37.9 15.6 38.6"/>
            <polygon class="st17" points="15.6 38.6 15.7 38.7 15.7 39.4 14.4 38.7 14.3 38.5 15.6 39.3 15.6 39.2 15.6 38.6"/>
            <polygon class="st44" points="15.6 38.6 15.6 38.6 14.2 37.9 14.3 37.8 15.6 38.6"/>
            <polygon class="st10" points="15.6 39.2 15.6 38.6 15.6 38.6 15.6 39.3 15.6 39.2"/>
          </g>
          <g>
            <polygon class="st25" points="23.4 33.2 23.4 33.8 22.1 33 22.1 32.4 23.4 33.2"/>
            <polygon class="st17" points="23.5 33.1 23.6 33.2 23.6 34 22.2 33.2 22.2 33.1 23.4 33.8 23.5 33.8 23.5 33.1"/>
            <polygon class="st44" points="23.5 33.1 23.4 33.2 22.1 32.4 22.2 32.4 23.5 33.1"/>
            <polygon class="st10" points="23.5 33.8 23.5 33.1 23.4 33.2 23.4 33.8 23.5 33.8"/>
          </g>
          <g>
            <polygon class="st25" points="12 26.1 12 26.7 10.7 26 10.7 25.3 12 26.1"/>
            <polygon class="st17" points="12 26.1 12.1 26.2 12.1 26.9 10.8 26.1 10.7 26 12 26.7 12 26.7 12 26.1"/>
            <polygon class="st44" points="12 26.1 12 26.1 10.7 25.3 10.7 25.3 12 26.1"/>
            <polygon class="st10" points="12 26.7 12 26.1 12 26.1 12 26.7 12 26.7"/>
          </g>
          <g>
            <polygon class="st25" points="10.2 54.5 10.2 55.2 8.9 54.4 8.9 53.8 10.2 54.5"/>
            <polygon class="st17" points="10.3 54.5 10.4 54.6 10.4 55.3 9 54.6 9 54.4 10.2 55.2 10.3 55.1 10.3 54.5"/>
            <polygon class="st44" points="10.3 54.5 10.2 54.5 8.9 53.8 9 53.7 10.3 54.5"/>
            <polygon class="st10" points="10.3 55.1 10.3 54.5 10.2 54.5 10.2 55.2 10.3 55.1"/>
          </g>
          <g>
            <polygon class="st25" points="10.5 55.7 10.5 56.3 9.2 55.5 9.2 54.9 10.5 55.7"/>
            <polygon class="st17" points="10.6 55.6 10.7 55.7 10.7 56.5 9.3 55.7 9.3 55.6 10.5 56.3 10.6 56.3 10.6 55.6"/>
            <polygon class="st44" points="10.6 55.6 10.5 55.7 9.2 54.9 9.3 54.9 10.6 55.6"/>
            <polygon class="st10" points="10.6 56.3 10.6 55.6 10.5 55.7 10.5 56.3 10.6 56.3"/>
          </g>
          <g>
            <polygon class="st25" points="20.8 62.2 20.8 62.8 19.5 62.1 19.5 61.4 20.8 62.2"/>
            <polygon class="st17" points="20.9 62.2 21 62.3 21 63 19.6 62.2 19.6 62.1 20.8 62.8 20.9 62.8 20.9 62.2"/>
            <polygon class="st44" points="20.9 62.2 20.8 62.2 19.5 61.4 19.6 61.4 20.9 62.2"/>
            <polygon class="st10" points="20.9 62.8 20.9 62.2 20.8 62.2 20.8 62.8 20.9 62.8"/>
          </g>
          <g>
            <polygon class="st41" points="50.9 50 50.9 50.6 49.6 49.9 49.6 49.2 50.9 50"/>
            <polygon class="st17" points="51 50 51.1 50.1 51.1 50.8 49.7 50 49.7 49.9 50.9 50.6 51 50.6 51 50"/>
            <polygon class="st24" points="51 50 50.9 50 49.6 49.2 49.7 49.2 51 50"/>
            <polygon class="st26" points="51 50.6 51 50 50.9 50 50.9 50.6 51 50.6"/>
          </g>
          <g>
            <polygon class="st41" points="50.1 50.3 50.1 51 48.8 50.2 48.8 49.6 50.1 50.3"/>
            <polygon class="st17" points="50.2 50.3 50.3 50.4 50.3 51.1 48.9 50.4 48.9 50.2 50.1 51 50.2 50.9 50.2 50.3"/>
            <polygon class="st24" points="50.2 50.3 50.1 50.3 48.8 49.6 48.9 49.5 50.2 50.3"/>
            <polygon class="st26" points="50.2 50.9 50.2 50.3 50.1 50.3 50.1 51 50.2 50.9"/>
          </g>
          <g>
            <polygon class="st41" points="56.7 52.4 56.7 53 55.4 52.3 55.4 51.6 56.7 52.4"/>
            <polygon class="st17" points="56.8 52.3 56.9 52.5 56.9 53.2 55.5 52.4 55.5 52.3 56.7 53 56.8 53 56.8 52.3"/>
            <polygon class="st24" points="56.8 52.3 56.7 52.4 55.4 51.6 55.5 51.6 56.8 52.3"/>
            <polygon class="st26" points="56.8 53 56.8 52.3 56.7 52.4 56.7 53 56.8 53"/>
          </g>
        </g>
        <g>
          <polygon class="st15" points="84.4 71.9 87.3 71.9 91.4 69.5 94.6 69.5 98.7 71.9 94.5 74.3 91.3 74.3 88.2 72.5 84.4 72.5 84.4 71.9"/>
          <g>
            <g>
              <path class="st43" d="M81.8,62.7c0,0,.2,0,.3,0,.4,0,0-.8,0-1,0-.2,0-.4-.1-.6,0-.3-.2-.6-.3-.8,0,0,0,0,0,0,0,0,0,0,0,0,0,0,0,0,0,0,0,0,0,.2.1.3,0,.1.1.2.2.4,0,.3.2.5.3.8.2.7.6,1.4,1,2.1,0,.2.2.3.3.5.1.3.3.6.4.9,0,.2,0,.4,0,.6,0,.2,0,.3,0,.5,0,.4,0,5.4-.1,5.2-.1-.5-.1-5.6-.3-6.1-.2-.5-.3-.9-.6-1.3-.2-.2-.3-.5-.5-.6-.3-.2-.6-.3-.9-.5-.3-.2-.5-.5-.8-.7-.4-.6-.8-1.2-1-1.9-.1-.3-.2-.6-.2-.9.3.4.4.9.6,1.3.2.5.4.9.7,1.3.2.2.5.5.8.6Z"/>
              <path class="st43" d="M83.9,71.4s0,0,0,0c0-.2,0-5,0-5.1,0-.2,0-.4,0-.6,0-.3-.2-.6-.4-.9,0-.2-.2-.3-.3-.5-.4-.6-.8-1.3-1-2.1,0-.3-.2-.6-.3-.8,0,0,0-.2-.1-.3,0-.2-.2-.5-.2-.7,0,0,0,0,0,0,0,0,0,0,0,0,0,0,0,0,0,0,0,0,0,.2.1.3,0,.1.1.2.2.4,0,.3.2.5.3.8.2.7.6,1.4,1,2.1,0,.2.2.3.3.5.1.3.3.6.4.9,0,.2,0,.4,0,.6,0,.2,0,.3,0,.5,0,.4,0,5.4-.1,5.2,0,0,0,0,0-.1Z"/>
              <path class="st32" d="M86.8,62.1c-.1,0-.3.1-.4,0-.1,0-.1-.3,0-.4,0-.1,0-.2,0-.3,0-.5.2-.9.3-1.4.1-.6.3-1.2.3-1.9,0,0,0,0,0,0-.1.5-.3,1-.4,1.5,0,.3-.1.6-.2.9,0,.1,0,.3-.1.4,0,.1,0,.2-.1.3,0,.2-.2.5-.3.7-.1.2-.2.5-.3.7-.1.3-.3.6-.5.9-.1.2-.4.6-.4.8,0,.2,0,.4,0,.6,0,.2,0,.3,0,.5,0,.4-.2,5.5-.3,5.9,0-.2.2-5.1.3-5.4.1-.5.3-1,.5-1.4.2-.5.3-.9.7-1.3.2-.2.4-.4.6-.6.2-.2.5-.2.7-.4.2-.1.4-.3.5-.5.4-.5.9-1,.9-1.7,0,.1-.2.3-.3.5-.1.2-.3.4-.4.6-.1.1-.4.6-.7.8Z"/>
              <g>
                <path class="st32" d="M86.6,59.9c0,.3-.1.6-.2.9,0,.1,0,.3-.1.4,0,.1,0,.2-.1.3,0,.2-.2.5-.3.7-.1.2-.2.5-.3.7-.1.3-.3.6-.5.9-.1.2-.4.6-.4.8,0,.2,0,.4,0,.6,0,0,0,.1,0,.2,0,.2-.1.4-.2.6,0,.2-.2,5.1-.3,5.4.1-.4.3-5.5.3-5.9,0-.2,0-.3,0-.5,0-.2,0-.4,0-.6,0-.3.3-.6.4-.8.2-.3.4-.6.5-.9.1-.2.2-.5.3-.7.1-.2.2-.5.3-.7,0-.1,0-.2.1-.3,0-.1,0-.3.1-.4,0-.3.2-.6.2-.9.1-.5.2-1,.4-1.5,0,0,0,0,0,0,0,.2,0,.3,0,.5-.1.4-.2.8-.3,1.2Z"/>
                <path class="st20" d="M87.6,61.6c0,0-.1.2-.2.3,0,0,0,0,0,.1,0,0-.1.1-.2.2,0,0-.2.1-.2.2-.1,0-.3.1-.4,0,0,0,0-.1,0-.2h0c.1.1.3,0,.4,0,.3-.2.6-.6.7-.8.1-.2.3-.4.4-.6,0-.1.3-.3.3-.5,0,.3-.1.5-.3.8-.1.2-.2.3-.4.5Z"/>
              </g>
              <path class="st23" d="M83.6,72.1s0,0,0,0c0,0,0,0,0,0,0,0,0,0,0,0,0,.2.4.3.7.2.3,0,.6-.1.6-.3h0s0,0,0,0h0s0,0,0-.1c0,0,0,0,0-.1,0,0,0,0,0,0-.1-.2,0-7.1-.1-8.7,0-.1,0-.2,0-.4,0-.3,0-.7,0-1,0-.4,0-.7,0-1.1,0,0,0-.1,0-.2,0-.1,0-.2,0-.3,0,0,0-.2,0-.2,0,0,0-.2,0-.2,0,0,0-.2,0-.2,0,0,0-.2,0-.2h0c0-.2,0-.3,0-.5,0,0,0-.1,0-.1,0,0,0,0,0,0,0,0,0,0,0,0,0,0,0,0,0,0,0,0,0,0,0,0,0,1.3-.1,2.5-.2,3.8,0,.8,0,1.6,0,2.4,0,.5,0,.9,0,1.4,0,.6,0,4.6,0,4.9,0,0,0,0,0,0,0,0,0,0,0,0h0c0,0,0,0,0,.1,0,0,0,0,0,0,0,0,0,.1,0,.2,0,0,0,0,0,0,0,0,0,0,0,0,0,0,0,0,0,0,0,0,0,0,0,0,0,0,0,0,0,0,0,0,0,0,0,0,0,0,0,0,0,0Z"/>
              <path class="st32" d="M84.1,58.7s0,0,0,0c.1.4.2.8.2,1.3.1,1,0,2.1.1,3.1,0,1.6,0,8.4.1,8.7,0,.2.2.3.3.4,0,0,0,0,0,0h0s0,0,0-.1c0,0,0,0,0-.1,0,0,0,0,0,0-.1-.2,0-7.1-.1-8.7,0-.1,0-.2,0-.4,0-.3,0-.7,0-1,0-.4,0-.7,0-1.1,0,0,0-.1,0-.2,0-.1,0-.2,0-.3,0,0,0-.2,0-.2,0,0,0-.2,0-.2,0,0,0-.2,0-.2,0,0,0-.2,0-.2h0c0-.2,0-.3,0-.5,0,0,0-.1,0-.1,0,0,0,0,0,0,0,0,0,0,0,0h0s0,0,0,0c0,0,0,0,0,0,0,0,0,0,0,0h0s0,0,0,0Z"/>
              <path class="st23" d="M83.6,72.1s0,0,0,0c0,0,0,0,0,0,0,0,0,0,0,0h0s0,0,0,0c0,0,0,0,0,0,0,0,.1,0,.2-.1.2-.2.2-.4.2-.7,0-.3,0-5.8,0-6.3,0-.8,0-1.6,0-2.4,0-.9,0-1.7.1-2.6,0-.3,0-.5,0-.8h0c0-.2,0-.3,0-.5,0,0,0-.1,0-.1,0,0,0,0,0,0,0,0,0,0,0,0,0,0,0,0,0,0,0,0,0,0,0,0,0,1.3-.1,2.5-.2,3.8,0,.8,0,1.6,0,2.4,0,.5,0,6,0,6.3,0,0,0,0,0,0,0,0,0,0,0,0h0c0,0,0,0,0,.1,0,0,0,0,0,0,0,0,0,.1,0,.2,0,0,0,0,0,0,0,0,0,0,0,0,0,0,0,0,0,0,0,0,0,0,0,0,0,0,0,0,0,0,0,0,0,0,0,0,0,0,0,0,0,0Z"/>
            </g>
            <g>
              <polygon class="st46" points="83.9 63.8 88.8 61 88.8 53.8 83.9 56.6 83.9 63.8"/>
              <polygon class="st31" points="83.9 56.6 88.8 53.8 83.5 50.8 78.7 53.6 83.9 56.6"/>
              <polygon class="st6" points="83.9 63.8 78.7 60.7 78.7 53.6 83.9 56.6 83.9 63.8"/>
            </g>
            <g>
              <polygon class="st46" points="83.1 55.8 87.3 53.4 87.3 49.9 83.1 52.3 83.1 55.8"/>
              <polygon class="st31" points="83.1 52.3 87.3 49.9 83.2 47.5 79 50 83.1 52.3"/>
              <polygon class="st6" points="83.1 55.8 79 53.4 79 50 83.1 52.3 83.1 55.8"/>
            </g>
            <g>
              <polygon class="st46" points="82.5 61.8 83.8 61 83.8 57.5 82.5 58.3 82.5 61.8"/>
              <polygon class="st31" points="82.5 58.3 83.8 57.5 79.7 55.2 78.4 55.9 82.5 58.3"/>
              <polygon class="st6" points="82.5 61.8 78.4 59.4 78.4 55.9 82.5 58.3 82.5 61.8"/>
            </g>
          </g>
        </g>
        <g>
          <polygon class="st16" points="39 81.5 41.2 80.4 39.1 79 37.8 78.9 36.7 81.4 39 81.5"/>
          <polygon class="st46" points="36.7 81.4 38.9 80.2 38.9 77.3 36.7 78.5 36.7 81.4"/>
          <polygon class="st31" points="36.7 78.5 38.9 77.3 33 73.9 30.8 75.1 36.7 78.5"/>
          <polygon class="st6" points="36.7 81.4 30.8 78 30.8 75.1 36.7 78.5 36.7 81.4"/>
        </g>
      </g>
    </g>
  </g>
</svg>