<?xml version="1.0" encoding="UTF-8"?><svg xmlns="http://www.w3.org/2000/svg" xmlns:xlink="http://www.w3.org/1999/xlink" viewBox="0 0 737.49 528.44"><defs><style>.cls-1{fill:#43596d;}.cls-2{isolation:isolate;}.cls-11,.cls-24,.cls-3,.cls-30{fill:#242b52;}.cls-21,.cls-3,.cls-6{opacity:0.2;}.cls-11,.cls-3,.cls-30,.cls-6{mix-blend-mode:multiply;}.cls-4{clip-path:url(#clip-path);}.cls-5{fill:#ffde96;opacity:0.13;}.cls-6{fill:#2f1d00;}.cls-7{fill:#00c48b;}.cls-8{fill:#f1f3be;opacity:0.3;}.cls-9{opacity:0.5;}.cls-10{fill:#005a56;opacity:0.71;}.cls-11{opacity:0.15;}.cls-12{fill:#b4bdc5;}.cls-13{fill:#566575;}.cls-14{fill:#e6e7e8;}.cls-15{fill:#404079;}.cls-16{fill:#9fa8b6;}.cls-17{fill:#5d6e81;}.cls-18{fill:#e3e3e7;}.cls-19{fill:#ebebeb;}.cls-20{fill:#1c75bc;}.cls-21{fill:#fff;}.cls-22{fill:#001230;}.cls-23{fill:#00123e;}.cls-25{fill:#303a66;}.cls-26{fill:#dcdddf;}.cls-27{fill:#7d8191;}.cls-28{clip-path:url(#clip-path-2);}.cls-29{fill:#007874;}.cls-30{opacity:0.1;}</style><clipPath id="clip-path"><path class="cls-1" d="M67.11,390.81a81.89,81.89,0,0,0-.15-9C75.26,379,80.06,356,80.06,356c-6.24,13.42-11.25,20.3-13.84,21-.29-2.89-.66-9.75-.81-12.62a64.26,64.26,0,0,0-.65-6.94c-.52-3.14,1.06-17.24-.34-18.57,0,0-2.6,20.63-3.7,18.34-3.42-7.17-5.28-8.26-9.35-14.33-.51-.76,9.37,20.13,9.26,21.31-.41,4.71-.94,11.54-1.61,21.42a78.9,78.9,0,0,1-10.39-7.29c1.8-6.1-4-18.08-4-18.08.17,6.46,2.65,15.05,1.48,15.85-2.53-3-15.21-12.49-18.2-16.39,0,0,17.73,23.28,30.61,32.27-.6,7.56-.83,20-1.14,22.42-.65,5-1.66,10.87-2.68,15.28-.78.91,4.1,3.87,8.59,3.08,4.15-.73,7.15-1.17,6.44-3.08-.25-2.18-.8-4.27-.85-6.61-.1-4.65-.23-21-.77-24.28,18.72-9.32,34.44-31.74,34.44-31.74C89.14,380.24,72.71,390.37,67.11,390.81Z"/></clipPath><clipPath id="clip-path-2"><path class="cls-1" d="M574.58,456.15a83.26,83.26,0,0,1,.14-9.07C566.35,444.2,561.5,421,561.5,421c6.3,13.55,11.36,20.49,14,21.22.3-2.92.67-9.84.83-12.74a65.69,65.69,0,0,1,.65-7c.53-3.17-1.08-17.41.34-18.75,0,0,2.63,20.83,3.74,18.52,3.45-7.24,5.33-8.34,9.44-14.47.51-.76-9.46,20.33-9.35,21.52.41,4.75,1,11.65,1.62,21.63a80,80,0,0,0,10.49-7.36c-1.81-6.16,4-18.26,4-18.26-.17,6.52-2.67,15.2-1.49,16,2.55-3,15.36-12.6,18.38-16.55,0,0-17.91,23.51-30.91,32.59.6,7.63.84,20.2,1.15,22.64.66,5.09,1.67,11,2.7,15.43.79.91-4.13,3.9-8.67,3.1-4.18-.73-7.21-1.18-6.5-3.1.25-2.21.81-4.32.86-6.68.1-4.69.23-21.23.78-24.52-18.91-9.4-34.78-32.05-34.78-32.05C552.33,445.48,568.93,455.71,574.58,456.15Z"/></clipPath></defs><g class="cls-2"><g id="Layer_2" data-name="Layer 2"><g id="_ÎÓÈ_1" data-name="—ÎÓÈ_1"><path class="cls-3" d="M97,431c0,5.49-13.54,10-30.24,10s-30.24-4.46-30.24-10,13.54-10,30.24-10S97,425.46,97,431Z"/><path class="cls-3" d="M83.66,431.48c0,3.66-10.16,6.63-22.69,6.63s-22.68-3-22.68-6.63,10.16-6.64,22.68-6.64S83.66,427.81,83.66,431.48Z"/><path class="cls-1" d="M67.11,390.81a81.89,81.89,0,0,0-.15-9C75.26,379,80.06,356,80.06,356c-6.24,13.42-11.25,20.3-13.84,21-.29-2.89-.66-9.75-.81-12.62a64.26,64.26,0,0,0-.65-6.94c-.52-3.14,1.06-17.24-.34-18.57,0,0-2.6,20.63-3.7,18.34-3.42-7.17-5.28-8.26-9.35-14.33-.51-.76,9.37,20.13,9.26,21.31-.41,4.71-.94,11.54-1.61,21.42a78.9,78.9,0,0,1-10.39-7.29c1.8-6.1-4-18.08-4-18.08.17,6.46,2.65,15.05,1.48,15.85-2.53-3-15.21-12.49-18.2-16.39,0,0,17.73,23.28,30.61,32.27-.6,7.56-.83,20-1.14,22.42-.65,5-1.66,10.87-2.68,15.28-.78.91,4.1,3.87,8.59,3.08,4.15-.73,7.15-1.17,6.44-3.08-.25-2.18-.8-4.27-.85-6.61-.1-4.65-.23-21-.77-24.28,18.72-9.32,34.44-31.74,34.44-31.74C89.14,380.24,72.71,390.37,67.11,390.81Z"/><g class="cls-4"><path class="cls-5" d="M58.56,392s2,4.44,2,7,.64,19.82,0,21.42-2,17.26-2,17.26-1-19.09-1.14-23.26C57.31,411.49,58.56,392,58.56,392Z"/><path class="cls-6" d="M65.27,436.73s-1.51-9.91-.87-15.66,1.92-6.72,1-14.71-2.24-15.67-1.92-19.82.32-14.39.32-14.39l3.2,9.68s-.64-2.33,2.24-3.92,4.15,0,4.15,0l-6.24,12.9s-.79,5,.49,4.36,6.71-1.6,9.27-3.2,8.31-1,4.79.32-12.14,19.19-12.14,20.78-1,14.71-.64,19.51S65.27,436.73,65.27,436.73Z"/><path class="cls-6" d="M49.37,392.29s5.44-2.87,6.4-3.19,4.47.32,4.79,1.91,3.2,7.36,4.8,6.72,1.6-6.08,3.84-7.68,9-2.23,11.51-.63,28.45-11.51,28.45-11.51-1.92-42.85-3.2-42.85-57.23,1-57.23,1l-8.31,38.69Z"/></g><path class="cls-7" d="M120,373.74a23.31,23.31,0,0,0-1.59-38.55c-.24-15.9-12.64-28.92-28.33-29.36a28.24,28.24,0,0,0-10.61,1.75c-.93-15.26-13.08-27.53-28.3-27.95-16.12-.46-29.56,12.56-30,29.07a30.29,30.29,0,0,0,5.42,18.16l-.05.1A29.67,29.67,0,0,0,1.36,355.72a30.23,30.23,0,0,0,.54,6.56,12.25,12.25,0,0,0,1.44,14.94A12.42,12.42,0,0,0,11,381.1a23.08,23.08,0,0,0,45.13,3.66A18.55,18.55,0,0,0,71.55,383a28.55,28.55,0,0,0,32.75,4.63,10.4,10.4,0,0,0,8.06,3.81A10.5,10.5,0,0,0,120,373.74Z"/><path class="cls-8" d="M46.74,288.46c13.46-3,18.86-.38,27.56,3.91a28.89,28.89,0,0,0-23.1-12.74c-16.12-.46-29.56,12.56-30,29.07a30.29,30.29,0,0,0,5.42,18.16l-.05.1A29.67,29.67,0,0,0,1.36,355.72a31,31,0,0,0,.2,4.33c2.53-5.62,14.35-26.49,31.31-22.63,10.33,2.36,12.51,2,18.11-1.75,2.05-1.36.08-2.15-8.48-4.81C23.93,325.08,21.3,294.24,46.74,288.46Z"/><path class="cls-8" d="M67.16,313.13c-3.08,4.24.44,4.51,8.68,2.31,4.77-1.27,13.89-3.33,22.06-2.69,3,.24,10.07,1.85,12.1,1.9a28.68,28.68,0,0,0-19.89-8.82,28.24,28.24,0,0,0-10.61,1.75S70.25,308.89,67.16,313.13Z"/><g class="cls-9"><path class="cls-10" d="M129.47,355a23.26,23.26,0,0,0-11-19.82,30.53,30.53,0,0,0-1.19-7.93,12.89,12.89,0,0,1-7.3,5.91c-8.1,2.45-3.09,6.68-3.09,6.68s10.78,18.61-6.94,29.29c-7.47,4.52-18.6,5.43-28,3.21-11.2-2.63-20.55-17-20.55-17s1.79,20.3-18.5,25.83c-9.61,2.61-19.42-7-19.42-7s-1.4.53-6.79.67c-1.92.05-3.57.06-4.93.06a12.66,12.66,0,0,0,1.61,2.22A12.42,12.42,0,0,0,11,381.1a23.08,23.08,0,0,0,45.13,3.66A18.55,18.55,0,0,0,71.55,383a28.55,28.55,0,0,0,32.75,4.63,10.4,10.4,0,0,0,8.06,3.81A10.5,10.5,0,0,0,120,373.74,23.26,23.26,0,0,0,129.47,355Z"/><path class="cls-10" d="M104.23,358.46a6.33,6.33,0,1,1-6.33-6.32A6.32,6.32,0,0,1,104.23,358.46Z"/><path class="cls-10" d="M91.35,364.78a4,4,0,1,1-4-4A4,4,0,0,1,91.35,364.78Z"/><path class="cls-10" d="M28,371.5a4,4,0,1,1-4-4A4,4,0,0,1,28,371.5Z"/><path class="cls-10" d="M101.91,348.27A2.95,2.95,0,1,1,99,345.32,2.94,2.94,0,0,1,101.91,348.27Z"/><path class="cls-10" d="M33.85,364.41a3,3,0,1,1-3-3A3,3,0,0,1,33.85,364.41Z"/></g><path class="cls-8" d="M43.72,301.81a4,4,0,1,1-4-4A4,4,0,0,1,43.72,301.81Z"/><path class="cls-8" d="M33,345.32a6.55,6.55,0,1,1-6.55-6.54A6.55,6.55,0,0,1,33,345.32Z"/><path class="cls-8" d="M45.88,294.52A1.89,1.89,0,1,1,44,292.63,1.88,1.88,0,0,1,45.88,294.52Z"/><path class="cls-8" d="M66.62,319.83a1.89,1.89,0,1,1-1.88-1.89A1.87,1.87,0,0,1,66.62,319.83Z"/><polygon class="cls-11" points="374.74 528.44 513.78 528.44 713.85 474.83 505.35 419.02 374.74 453.98 374.74 528.44"/><polygon class="cls-12" points="561.99 111.35 374.74 161.53 374.74 528.31 561.99 478.14 561.99 111.35"/><polygon class="cls-13" points="561.99 166.78 374.74 216.95 374.74 298.98 561.99 248.81 561.99 166.78"/><polygon class="cls-13" points="561.99 318.57 374.74 368.74 374.74 450.77 561.99 400.6 561.99 318.57"/><polygon class="cls-14" points="68.92 446.37 374.74 528.31 374.74 161.53 68.92 79.58 68.92 446.37"/><polygon class="cls-15" points="561.99 111.87 256.17 29.93 68.92 79.58 374.74 161.53 561.99 111.87"/><polygon class="cls-16" points="374.74 528.44 561.99 478.26 561.99 467.94 374.74 518.12 374.74 528.44"/><polygon class="cls-12" points="374.74 528.44 68.92 446.49 68.92 436.17 374.74 518.12 374.74 528.44"/><polygon class="cls-11" points="461.3 87.75 422.17 98.23 422.17 132.69 452.65 132.69 540.85 109.06 461.3 87.75"/><polygon class="cls-14" points="308.45 68.5 422.17 98.97 422.17 132.42 308.45 101.95 308.45 68.5"/><polygon class="cls-15" points="308.45 68.5 422.17 98.97 491.86 80.29 378.14 49.83 308.45 68.5"/><polygon class="cls-12" points="491.86 80.29 491.86 113.75 422.17 132.42 422.17 98.97 491.86 80.29"/><polygon class="cls-11" points="171.88 56.91 114.77 72.21 322.64 127.92 379.75 112.62 171.88 56.91"/><polygon class="cls-17" points="361.42 59.04 154.6 3.77 114.28 73 321.11 128.26 361.42 59.04"/><polygon class="cls-18" points="359.9 55.27 153.07 0 112.76 69.23 319.58 124.5 359.9 55.27"/><path class="cls-11" d="M153.78,78.22l-37.45-10L154.81,3.26l37.45,10Zm79.36-54-37.45-10L157.21,79.1l37.45,10ZM274,35.13l-37.45-10L198.09,90l37.46,10ZM314.9,46.05,277.45,36,239,100.94l37.46,10ZM355.78,57l-37.45-10-38.48,64.92,37.46,10Z"/><polygon class="cls-19" points="154 1.65 115.53 66.57 152.98 76.61 191.45 11.68 154 1.65"/><path class="cls-20" d="M122.22,58.86l-3.42,5.77.39,1,6.38,1.71,1.31-.54L130.3,61l-.39-1-6.38-1.71Zm4.6-7.76-3.42,5.78.39,1,6.38,1.71,1.3-.54,3.43-5.77-.4-1-6.38-1.71Zm4.6-7.75L128,49.12l.4,1,6.38,1.71,1.3-.55,3.42-5.77-.39-1-6.38-1.71ZM136,35.59l-3.42,5.78.39,1,6.38,1.71,1.31-.54,3.42-5.77-.4-1-6.37-1.71Zm4.6-7.75-3.42,5.77.39,1L144,36.32l1.3-.55L148.68,30l-.39-1-6.38-1.7Zm4.59-7.76-3.42,5.77.4,1,6.37,1.71,1.31-.54,3.42-5.77-.39-1-6.38-1.71Zm4.6-7.75-3.42,5.77.39,1,6.38,1.7,1.31-.54,3.42-5.77-.4-1-6.37-1.71Zm4.6-7.76L151,10.34l.39,1,6.38,1.71,1.3-.54,3.42-5.78-.39-1L155.7,4ZM130.79,61.15l-3.42,5.78.39,1,6.38,1.71,1.31-.54,3.42-5.77-.4-1-6.37-1.71Zm4.6-7.75L132,59.17l.39,1,6.38,1.71,1.3-.54,3.42-5.78-.39-1-6.38-1.71ZM140,45.64l-3.42,5.78.4,1,6.37,1.71,1.31-.54,3.42-5.77-.39-1-6.38-1.71Zm4.6-7.75-3.42,5.77.39,1,6.38,1.71,1.3-.54,3.43-5.78-.4-1-6.38-1.71Zm4.6-7.76-3.43,5.78.4,1,6.38,1.71,1.3-.54,3.42-5.77-.39-1-6.38-1.71Zm4.59-7.75-3.42,5.77.39,1,6.38,1.71,1.31-.55,3.42-5.77-.39-1-6.38-1.7Zm4.6-7.76L155,20.39l.39,1,6.38,1.71,1.3-.54,3.43-5.77-.4-1-6.38-1.71ZM163,6.87l-3.42,5.77.4,1,6.37,1.7,1.31-.54L171,9l-.39-1-6.38-1.71Zm-23.6,56.58-3.42,5.77.39,1,6.38,1.71,1.3-.54,3.43-5.78-.4-1-6.38-1.71ZM144,55.69l-3.42,5.78.4,1,6.37,1.71,1.31-.54L152,57.86l-.39-1-6.38-1.71Zm4.6-7.75-3.42,5.77.39,1,6.38,1.71,1.31-.54,3.42-5.78-.4-1-6.37-1.71Zm4.6-7.76L149.73,46l.39,1,6.38,1.71,1.3-.54,3.42-5.77-.39-1-6.38-1.71Zm4.59-7.75-3.42,5.77.4,1,6.37,1.71,1.31-.54,3.42-5.78-.39-1-6.38-1.71Zm4.6-7.76-3.42,5.78.39,1,6.38,1.71,1.31-.54,3.42-5.77-.4-1-6.37-1.71Zm4.6-7.75-3.43,5.77.4,1,6.38,1.71,1.3-.55L175,19.08l-.39-1-6.38-1.71Zm4.59-7.76-3.42,5.78.4,1,6.37,1.71,1.31-.54,3.42-5.77-.39-1-6.38-1.71Zm-23.6,56.59-3.43,5.77.4,1,6.38,1.7,1.3-.54L156,67.91l-.39-1-6.38-1.71ZM152.52,58l-3.42,5.77.4,1,6.37,1.71,1.31-.54,3.42-5.78-.39-1-6.38-1.71Zm4.6-7.76L153.7,56l.39,1,6.38,1.71,1.3-.54,3.43-5.77-.4-1-6.38-1.71Zm4.6-7.75-3.43,5.77.4,1L165.07,51l1.3-.54,3.42-5.78-.39-1L163,41.94Zm4.59-7.76-3.42,5.78.39,1,6.38,1.71,1.31-.54,3.42-5.77-.39-1-6.38-1.71Zm4.6-7.75-3.42,5.77.39,1,6.38,1.71,1.3-.54L179,29.13l-.4-1-6.38-1.71Zm4.59-7.76L172.08,25l.4,1,6.37,1.71,1.31-.54,3.42-5.77-.39-1-6.38-1.71Zm4.6-7.75-3.42,5.77.39,1,6.38,1.71,1.31-.54,3.42-5.78-.4-1-6.37-1.71Z"/><polygon class="cls-19" points="194.88 12.56 156.41 77.49 193.86 87.52 232.34 22.6 194.88 12.56"/><path class="cls-20" d="M163.1,69.78l-3.42,5.77.4,1,6.37,1.7,1.31-.54,3.42-5.77-.39-1-6.38-1.71ZM167.7,62l-3.42,5.77.39,1,6.38,1.71,1.3-.54,3.43-5.78-.4-1L169,61.48Zm4.6-7.76L168.87,60l.4,1,6.38,1.71,1.3-.54,3.42-5.77-.39-1-6.38-1.71Zm4.59-7.75-3.42,5.77.39,1L180.24,55l1.31-.54L185,48.67l-.4-1L178.2,46Zm4.6-7.76-3.42,5.78.39,1,6.38,1.71,1.3-.54,3.43-5.77-.4-1-6.38-1.71ZM186.08,31l-3.42,5.77.4,1,6.37,1.71,1.31-.54,3.42-5.78-.39-1-6.38-1.71Zm4.6-7.76L187.26,29l.39,1L194,31.72l1.31-.54,3.42-5.77-.4-1L192,22.7Zm4.6-7.75-3.42,5.77.39,1L198.63,24l1.3-.54,3.42-5.78-.39-1L196.58,15ZM171.67,72.07l-3.42,5.77.39,1L175,80.55l1.31-.54,3.42-5.77-.4-1L173,71.53Zm4.6-7.75-3.42,5.77.39,1,6.38,1.7,1.3-.54,3.42-5.77-.39-1-6.38-1.71Zm4.59-7.76-3.42,5.77.4,1L184.21,65l1.31-.54,3.42-5.78-.39-1L182.17,56Zm4.6-7.76L182,54.58l.39,1,6.38,1.71,1.31-.54L193.54,51l-.4-1-6.37-1.71Zm4.6-7.75-3.43,5.77.4,1,6.38,1.71,1.3-.54,3.42-5.78-.39-1-6.38-1.71Zm4.59-7.76-3.42,5.78.39,1L198,41.77l1.31-.54,3.42-5.77-.39-1L196,32.75Zm4.6-7.75-3.42,5.77.39,1L202.6,34l1.3-.54,3.43-5.78-.4-1L200.55,25Zm4.6-7.76-3.43,5.78.4,1,6.38,1.71,1.3-.54L211.92,20l-.39-1-6.38-1.71ZM180.24,74.37l-3.42,5.77.39,1,6.38,1.71,1.3-.55,3.43-5.77-.4-1-6.38-1.7Zm4.6-7.76-3.43,5.77.4,1,6.38,1.71,1.3-.54,3.42-5.77-.39-1-6.38-1.71Zm4.59-7.75L186,64.63l.39,1,6.38,1.7,1.31-.54L197.51,61l-.4-1-6.37-1.7ZM194,51.1l-3.42,5.77.39,1,6.38,1.71,1.3-.54,3.43-5.78-.4-1-6.38-1.71Zm4.59-7.75-3.42,5.77.4,1,6.37,1.7,1.31-.54,3.42-5.77-.39-1-6.38-1.71Zm4.6-7.76-3.42,5.77.39,1,6.38,1.71,1.31-.54,3.42-5.78-.4-1-6.37-1.71Zm4.6-7.76-3.42,5.78.39,1,6.38,1.71,1.3-.54L215.89,30l-.39-1-6.38-1.71Zm4.59-7.75L209,25.85l.4,1,6.37,1.71,1.31-.54,3.42-5.78-.39-1-6.38-1.71Zm-23.6,56.58-3.42,5.78.39,1,6.38,1.71,1.3-.54,3.42-5.77-.39-1-6.38-1.71Zm4.59-7.75L190,74.68l.4,1,6.37,1.71,1.31-.55,3.42-5.77-.39-1-6.38-1.71Zm4.6-7.76-3.42,5.78.39,1,6.38,1.71,1.31-.54,3.42-5.77-.4-1-6.37-1.71Zm4.6-7.75-3.43,5.77.4,1L206,61.88l1.3-.55,3.42-5.77-.39-1-6.38-1.7Zm4.59-7.76-3.42,5.77.39,1,6.38,1.71,1.31-.54,3.42-5.77-.39-1L208.5,45.1Zm4.6-7.75-3.42,5.77.39,1,6.38,1.7,1.3-.54,3.43-5.77-.4-1-6.38-1.71Zm4.6-7.76L213,35.9l.4,1,6.38,1.71,1.3-.54,3.42-5.78-.39-1-6.38-1.71ZM221,22.37l-3.42,5.78.39,1,6.38,1.71,1.31-.54,3.42-5.77-.4-1-6.37-1.71Z"/><polygon class="cls-19" points="235.76 23.48 197.28 88.4 234.74 98.44 273.21 33.52 235.76 23.48"/><path class="cls-20" d="M204,80.69l-3.42,5.78.4,1,6.37,1.71,1.31-.54,3.42-5.77-.39-1-6.38-1.71Zm4.6-7.75-3.42,5.77.39,1,6.38,1.71,1.31-.55,3.42-5.77-.4-1-6.38-1.7Zm4.6-7.76L209.75,71l.4,1,6.38,1.71,1.3-.54,3.42-5.77-.39-1-6.38-1.71Zm4.59-7.75-3.42,5.77.39,1,6.38,1.71,1.31-.55,3.42-5.77-.39-1-6.38-1.7Zm4.6-7.76L219,55.44l.39,1,6.38,1.71,1.3-.54,3.43-5.77-.4-1-6.38-1.71ZM227,41.92l-3.42,5.77.4,1,6.38,1.7,1.3-.54L235,44.08l-.39-1-6.38-1.71Zm4.6-7.76-3.42,5.77.39,1,6.38,1.71,1.31-.54,3.42-5.78-.4-1-6.37-1.71Zm4.6-7.76-3.42,5.78.39,1,6.38,1.71,1.3-.54,3.42-5.77-.39-1-6.38-1.71ZM212.55,83l-3.42,5.77.39,1,6.38,1.71,1.31-.54,3.42-5.78-.4-1-6.37-1.71Zm4.6-7.76L213.73,81l.39,1,6.38,1.71,1.3-.54,3.42-5.77-.39-1-6.38-1.71Zm4.59-7.75-3.42,5.77.4,1L225.09,76l1.31-.54,3.42-5.78-.39-1-6.38-1.71Zm4.6-7.76-3.42,5.78.39,1,6.38,1.71,1.31-.54,3.42-5.77-.4-1-6.37-1.71Zm4.6-7.75-3.42,5.77.39,1,6.38,1.71,1.3-.55L239,54.13l-.39-1-6.38-1.7Zm4.59-7.76L232.11,50l.4,1,6.37,1.71,1.31-.54,3.42-5.77-.39-1-6.38-1.71Zm4.6-7.75-3.42,5.77.39,1,6.38,1.7,1.3-.54,3.43-5.77-.4-1-6.38-1.71Zm4.6-7.76-3.43,5.77.4,1,6.38,1.71,1.3-.54,3.42-5.78-.39-1L246,28.16ZM221.12,85.28l-3.42,5.78.39,1,6.38,1.71,1.3-.54,3.43-5.77-.4-1-6.38-1.71Zm4.6-7.75-3.43,5.77.4,1L229.07,86l1.3-.54,3.42-5.78-.39-1L227,77Zm4.59-7.76-3.42,5.78.39,1,6.38,1.71,1.31-.54,3.42-5.77-.39-1-6.38-1.71Zm4.6-7.75-3.42,5.77.39,1,6.38,1.71,1.3-.54L243,64.18l-.4-1-6.38-1.71Zm4.59-7.76L236.08,60l.4,1,6.37,1.71,1.31-.54,3.42-5.77-.39-1-6.38-1.71Zm4.6-7.75-3.42,5.77.39,1L247.45,55l1.31-.55,3.42-5.77-.4-1L245.41,46Zm4.6-7.76-3.42,5.77.39,1,6.38,1.71,1.3-.54,3.42-5.77-.39-1L250,38.21ZM253.29,31l-3.42,5.77.4,1,6.37,1.71,1.31-.55,3.42-5.77-.39-1-6.38-1.7Zm-23.6,56.58-3.42,5.77.39,1L233,96.06l1.3-.54,3.42-5.78-.39-1L231,87Zm4.59-7.76-3.42,5.78.4,1,6.37,1.71,1.31-.54L242.36,82,242,81l-6.38-1.71Zm4.6-7.75-3.42,5.77.39,1,6.38,1.71,1.31-.54L247,74.23l-.4-1-6.37-1.71Zm4.6-7.76-3.43,5.78.4,1,6.38,1.71,1.3-.54,3.42-5.77-.39-1-6.38-1.71Zm4.59-7.75-3.42,5.77.4,1L251.42,65l1.31-.54,3.42-5.78-.39-1L249.38,56Zm4.6-7.76-3.42,5.78.39,1L256,57.28l1.3-.54L260.75,51l-.4-1L254,48.26Zm4.6-7.75-3.43,5.77.4,1,6.38,1.71,1.3-.54,3.42-5.78-.39-1-6.38-1.71Zm4.59-7.76-3.42,5.78.39,1,6.38,1.71,1.31-.54,3.42-5.77-.4-1-6.37-1.71Z"/><polygon class="cls-19" points="276.64 34.4 238.17 99.32 275.62 109.36 314.1 44.44 276.64 34.4"/><path class="cls-20" d="M244.86,91.61l-3.42,5.77.4,1,6.37,1.71,1.31-.54,3.42-5.78-.39-1-6.38-1.71Zm4.6-7.76L246,89.63l.39,1,6.38,1.71,1.31-.54L257.54,86l-.4-1-6.37-1.71Zm4.6-7.75-3.43,5.77.4,1,6.38,1.71,1.3-.54,3.42-5.78-.39-1-6.38-1.71Zm4.59-7.76-3.42,5.78.4,1L262,76.82l1.31-.54,3.42-5.77-.39-1L260,67.8Zm4.6-7.75-3.42,5.77.39,1,6.38,1.71,1.3-.54,3.43-5.78-.4-1-6.38-1.71Zm4.6-7.76-3.43,5.78.4,1,6.38,1.71,1.3-.54L275.92,55l-.39-1-6.38-1.71Zm4.59-7.75L269,50.85l.39,1,6.38,1.71L277.1,53l3.42-5.77-.4-1-6.37-1.7Zm4.6-7.76-3.42,5.78.39,1,6.38,1.71,1.3-.54,3.43-5.77-.4-1-6.38-1.71ZM253.43,93.91,250,99.68l.39,1,6.38,1.7,1.31-.54,3.42-5.77-.4-1-6.37-1.71Zm4.6-7.76-3.42,5.77.39,1,6.38,1.71,1.3-.54,3.43-5.78-.4-1-6.38-1.71Zm4.59-7.76-3.42,5.78.4,1L266,86.87l1.31-.54,3.42-5.77-.39-1-6.38-1.71Zm4.6-7.75-3.42,5.77.39,1,6.38,1.71,1.31-.54,3.42-5.78-.4-1-6.37-1.71Zm4.6-7.76-3.42,5.78.39,1,6.38,1.71,1.3-.54,3.42-5.77-.39-1-6.38-1.71Zm4.59-7.75L273,60.9l.4,1,6.37,1.71,1.31-.54,3.42-5.78-.39-1-6.38-1.71Zm4.6-7.76-3.42,5.78.39,1,6.38,1.71,1.31-.54,3.42-5.77-.4-1-6.37-1.71Zm4.6-7.75-3.43,5.77.4,1L289,48.1l1.3-.54,3.42-5.78-.39-1-6.38-1.71ZM262,96.2,258.58,102l.39,1,6.38,1.71,1.31-.54,3.42-5.77-.4-1-6.37-1.71Zm4.6-7.75-3.43,5.77.4,1,6.38,1.7,1.3-.54,3.42-5.77-.39-1L267.9,87.9Zm4.59-7.76-3.42,5.77.39,1,6.38,1.71,1.31-.54,3.42-5.78-.39-1-6.38-1.71Zm4.6-7.75-3.42,5.77.39,1,6.38,1.71,1.3-.54,3.43-5.77-.4-1-6.38-1.71Zm4.6-7.76L277,71l.4,1,6.38,1.71,1.3-.54,3.42-5.78-.39-1-6.38-1.71ZM285,57.42l-3.42,5.78.39,1,6.38,1.71,1.31-.54,3.42-5.77-.4-1-6.37-1.71Zm4.6-7.75-3.42,5.77.39,1,6.38,1.71,1.3-.54,3.42-5.78-.39-1-6.38-1.71Zm4.59-7.76-3.42,5.78.4,1,6.37,1.71,1.31-.54,3.42-5.77-.39-1-6.38-1.71ZM270.57,98.5l-3.42,5.77.39,1,6.38,1.71,1.3-.55,3.43-5.77-.4-1L271.87,98Zm4.59-7.76-3.42,5.77.4,1,6.37,1.71,1.31-.54,3.42-5.77-.39-1-6.38-1.71Zm4.6-7.75-3.42,5.77.39,1,6.38,1.71,1.31-.55,3.42-5.77-.4-1-6.37-1.7Zm4.6-7.76L280.94,81l.39,1,6.38,1.71,1.3-.54,3.42-5.77-.39-1-6.38-1.71ZM289,67.48l-3.42,5.77.4,1L292.3,76l1.31-.54L297,69.64l-.39-1-6.38-1.71Zm4.6-7.76-3.42,5.77.39,1,6.38,1.71,1.31-.54,3.42-5.78-.4-1-6.38-1.71Zm4.6-7.76-3.43,5.78.4,1,6.38,1.71,1.3-.54,3.42-5.77-.39-1-6.38-1.71Zm4.59-7.75L299.32,50l.39,1,6.38,1.71,1.31-.54,3.42-5.78-.39-1-6.38-1.71Z"/><polygon class="cls-19" points="317.52 45.32 279.05 110.24 316.5 120.27 354.98 55.35 317.52 45.32"/><path class="cls-20" d="M285.74,102.53l-3.42,5.77.4,1,6.37,1.71,1.31-.55,3.42-5.77-.39-1-6.38-1.7Zm4.6-7.76-3.42,5.77.39,1,6.38,1.71,1.31-.54,3.42-5.77-.4-1-6.37-1.71Zm4.6-7.75-3.42,5.77.39,1,6.38,1.7,1.3-.54L303,89.18l-.39-1-6.38-1.71Zm4.59-7.76L296.11,85l.4,1,6.37,1.71,1.31-.54,3.42-5.78-.39-1-6.38-1.71Zm4.6-7.75-3.42,5.77.39,1,6.38,1.7,1.3-.54,3.43-5.77-.4-1L305.43,71Zm4.6-7.76-3.43,5.77.4,1,6.38,1.71,1.3-.54,3.42-5.78-.39-1L310,63.21ZM313.32,56l-3.42,5.78.39,1,6.38,1.71,1.31-.54,3.42-5.77-.39-1-6.38-1.71Zm4.6-7.75L314.5,54l.39,1,6.38,1.71,1.3-.54L326,50.4l-.4-1-6.38-1.71Zm-23.61,56.58-3.42,5.78.39,1,6.38,1.71,1.31-.54,3.42-5.77-.39-1-6.38-1.71Zm4.6-7.75-3.42,5.77.39,1,6.38,1.71,1.3-.55L307,99.23l-.4-1-6.38-1.7Zm4.59-7.76-3.42,5.78.4,1,6.37,1.71,1.31-.54,3.42-5.77-.39-1-6.38-1.71Zm4.6-7.75-3.42,5.77.39,1L311.45,90l1.31-.55,3.42-5.77-.4-1L309.41,81Zm4.6-7.76-3.42,5.77.39,1,6.38,1.71,1.3-.54L320.77,76l-.39-1L314,73.26Zm4.59-7.75-3.42,5.77.4,1,6.37,1.7L322,74l3.42-5.77-.39-1L318.6,65.5Zm4.6-7.76-3.42,5.77.39,1,6.38,1.71,1.31-.54L330,60.45l-.4-1-6.37-1.71Zm4.6-7.76-3.42,5.78.39,1L329.84,59l1.3-.54,3.42-5.77-.39-1L327.79,50Zm-23.61,56.59-3.42,5.77.39,1,6.38,1.71,1.31-.54,3.42-5.78-.4-1-6.37-1.71Zm4.6-7.76-3.43,5.78.4,1,6.38,1.71,1.3-.54,3.42-5.77-.39-1-6.38-1.71Zm4.59-7.75-3.42,5.77.4,1,6.37,1.71,1.31-.54,3.42-5.78-.39-1-6.38-1.71Zm4.6-7.76-3.42,5.78.39,1L320,92.33l1.3-.54L324.75,86l-.4-1L318,83.31Zm4.6-7.75-3.43,5.77.4,1,6.38,1.71,1.3-.55,3.42-5.77-.39-1-6.38-1.7Zm4.59-7.76-3.42,5.77.39,1,6.38,1.71,1.31-.54,3.42-5.77-.39-1-6.38-1.71Zm4.6-7.75L327,66.36l.39,1,6.38,1.7,1.3-.54,3.43-5.77-.4-1L331.76,60Zm4.59-7.76-3.42,5.77.4,1,6.37,1.71,1.31-.54L343.13,55l-.39-1-6.38-1.71Zm-23.6,56.58L308,115.19l.39,1,6.38,1.71,1.3-.54,3.43-5.77-.4-1-6.38-1.71Zm4.59-7.75-3.42,5.77.4,1,6.37,1.71,1.31-.54,3.42-5.78-.39-1-6.38-1.71Zm4.6-7.76-3.42,5.78.39,1,6.38,1.71,1.31-.54,3.42-5.77-.4-1L322,93.36Zm4.6-7.75-3.42,5.77.39,1,6.38,1.71,1.3-.54,3.42-5.78-.39-1-6.38-1.71Zm4.59-7.76-3.42,5.78.4,1,6.37,1.71,1.31-.54,3.42-5.77-.39-1-6.38-1.71Zm4.6-7.75L331,76.41l.39,1,6.38,1.71,1.31-.55,3.42-5.77-.4-1-6.37-1.7Zm4.6-7.76-3.43,5.78.4,1,6.38,1.71,1.3-.54,3.42-5.77-.39-1-6.38-1.71Zm4.59-7.75L340.2,60.9l.4,1L347,63.61l1.31-.55,3.42-5.77-.39-1-6.38-1.7Z"/><polygon class="cls-21" points="359.9 55.27 112.76 69.23 153.07 0 359.9 55.27"/><polygon class="cls-13" points="391.11 446.41 436.35 434.29 436.35 352.19 391.11 364.31 391.11 446.41"/><polygon class="cls-16" points="436.35 352.19 436.35 434.29 431.08 432.88 431.08 353.61 436.35 352.19"/><polygon class="cls-14" points="391.11 446.41 436.35 434.29 431.08 432.88 391.11 443.58 391.11 446.41"/><polygon class="cls-22" points="394.87 438.73 427.2 430.07 427.2 356.84 394.87 365.5 394.87 438.73"/><polygon class="cls-13" points="448.07 431.14 493.31 419.02 493.31 336.92 448.07 349.05 448.07 431.14"/><polygon class="cls-16" points="493.31 336.92 493.31 419.02 488.04 417.61 488.04 338.34 493.31 336.92"/><polygon class="cls-14" points="448.07 431.14 493.31 419.02 488.04 417.61 448.07 428.31 448.07 431.14"/><polygon class="cls-23" points="451.83 423.46 484.16 414.8 484.16 341.57 451.83 350.23 451.83 423.46"/><polygon class="cls-13" points="505.03 415.87 550.27 403.75 550.27 321.65 505.03 333.78 505.03 415.87"/><polygon class="cls-16" points="550.27 321.65 550.27 403.75 545 402.34 545 323.07 550.27 321.65"/><polygon class="cls-14" points="505.03 415.87 550.27 403.75 545 402.34 505.03 413.05 505.03 415.87"/><polygon class="cls-22" points="508.79 408.19 541.12 399.53 541.12 326.3 508.79 334.96 508.79 408.19"/><polygon class="cls-13" points="391.11 294.63 436.35 282.5 436.35 200.41 391.11 212.53 391.11 294.63"/><polygon class="cls-16" points="436.35 200.41 436.35 282.5 431.08 281.09 431.08 201.82 436.35 200.41"/><polygon class="cls-14" points="391.11 294.63 436.35 282.5 431.08 281.09 391.11 291.8 391.11 294.63"/><polygon class="cls-23" points="394.87 286.95 427.2 278.28 427.2 205.05 394.87 213.72 394.87 286.95"/><polygon class="cls-13" points="448.07 279.36 493.31 267.23 493.31 185.14 448.07 197.26 448.07 279.36"/><polygon class="cls-16" points="493.31 185.14 493.31 267.23 488.04 265.82 488.04 186.55 493.31 185.14"/><polygon class="cls-14" points="448.07 279.36 493.31 267.23 488.04 265.82 448.07 276.53 448.07 279.36"/><polygon class="cls-24" points="451.83 271.68 484.16 263.01 484.16 189.78 451.83 198.45 451.83 271.68"/><polygon class="cls-13" points="505.03 264.09 550.27 251.97 550.27 169.87 505.03 181.99 505.03 264.09"/><polygon class="cls-16" points="550.27 169.87 550.27 251.97 545 250.55 545 171.28 550.27 169.87"/><polygon class="cls-14" points="505.03 264.09 550.27 251.97 545 250.55 505.03 261.26 505.03 264.09"/><polygon class="cls-22" points="508.79 256.41 541.12 247.75 541.12 174.52 508.79 183.18 508.79 256.41"/><polygon class="cls-17" points="374.74 450.77 68.92 368.82 68.92 286.8 374.74 368.74 374.74 450.77"/><polygon class="cls-13" points="244.45 415.87 199.21 403.75 199.21 321.65 244.45 333.78 244.45 415.87"/><polygon class="cls-16" points="199.21 321.65 199.21 403.75 204.48 402.34 204.48 323.07 199.21 321.65"/><polygon class="cls-14" points="244.45 415.87 199.21 403.75 204.48 402.34 244.45 413.05 244.45 415.87"/><polygon class="cls-24" points="240.69 408.19 208.36 399.53 208.36 326.3 240.69 334.96 240.69 408.19"/><polygon class="cls-13" points="187.49 400.61 142.25 388.48 142.25 306.39 187.49 318.51 187.49 400.61"/><polygon class="cls-16" points="142.25 306.39 142.25 388.48 147.52 387.07 147.52 307.8 142.25 306.39"/><polygon class="cls-14" points="187.49 400.61 142.25 388.48 147.52 387.07 187.49 397.78 187.49 400.61"/><polygon class="cls-25" points="183.73 392.93 151.4 384.26 151.4 311.03 183.73 319.69 183.73 392.93"/><polygon class="cls-13" points="130.53 385.34 85.29 373.21 85.29 291.12 130.53 303.24 130.53 385.34"/><polygon class="cls-16" points="85.29 291.12 85.29 373.21 90.56 371.8 90.56 292.53 85.29 291.12"/><polygon class="cls-14" points="130.53 385.34 85.29 373.21 90.56 371.8 130.53 382.51 130.53 385.34"/><polygon class="cls-23" points="126.77 377.66 94.44 369 94.44 295.76 126.77 304.43 126.77 377.66"/><polygon class="cls-17" points="374.74 298.98 68.92 217.04 68.92 135.01 374.74 216.95 374.74 298.98"/><polygon class="cls-13" points="358.37 294.63 313.13 282.5 313.13 200.41 358.37 212.53 358.37 294.63"/><polygon class="cls-16" points="313.13 200.41 313.13 282.5 318.4 281.09 318.4 201.82 313.13 200.41"/><polygon class="cls-14" points="358.37 294.63 313.13 282.5 318.4 281.09 358.37 291.8 358.37 294.63"/><polygon class="cls-25" points="354.61 286.95 322.28 278.28 322.28 205.05 354.61 213.72 354.61 286.95"/><polygon class="cls-13" points="301.41 279.36 256.17 267.23 256.17 185.14 301.41 197.26 301.41 279.36"/><polygon class="cls-16" points="256.17 185.14 256.17 267.23 261.44 265.82 261.44 186.55 256.17 185.14"/><polygon class="cls-14" points="301.41 279.36 256.17 267.23 261.44 265.82 301.41 276.53 301.41 279.36"/><polygon class="cls-23" points="297.65 271.68 265.32 263.01 265.32 189.78 297.65 198.45 297.65 271.68"/><polygon class="cls-13" points="244.45 264.09 199.21 251.97 199.21 169.87 244.45 181.99 244.45 264.09"/><polygon class="cls-16" points="199.21 169.87 199.21 251.97 204.48 250.55 204.48 171.28 199.21 169.87"/><polygon class="cls-14" points="244.45 264.09 199.21 251.97 204.48 250.55 244.45 261.26 244.45 264.09"/><polygon class="cls-24" points="240.69 256.41 208.36 247.75 208.36 174.52 240.69 183.18 240.69 256.41"/><polygon class="cls-13" points="187.49 248.82 142.25 236.7 142.25 154.6 187.49 166.72 187.49 248.82"/><polygon class="cls-16" points="142.25 154.6 142.25 236.7 147.52 235.28 147.52 156.01 142.25 154.6"/><polygon class="cls-14" points="187.49 248.82 142.25 236.7 147.52 235.28 187.49 245.99 187.49 248.82"/><polygon class="cls-23" points="183.73 241.14 151.4 232.48 151.4 159.25 183.73 167.91 183.73 241.14"/><polygon class="cls-13" points="130.53 233.55 85.29 221.43 85.29 139.33 130.53 151.45 130.53 233.55"/><polygon class="cls-16" points="85.29 139.33 85.29 221.43 90.56 220.01 90.56 140.75 85.29 139.33"/><polygon class="cls-14" points="130.53 233.55 85.29 221.43 90.56 220.01 130.53 230.72 130.53 233.55"/><polygon class="cls-24" points="126.77 225.87 94.44 217.21 94.44 143.98 126.77 152.64 126.77 225.87"/><polygon class="cls-25" points="358.37 511.5 256.17 484.12 256.17 336.92 358.37 364.31 358.37 511.5"/><polygon class="cls-12" points="256.17 336.92 256.17 484.12 268.08 480.93 268.08 340.12 256.17 336.92"/><polygon class="cls-14" points="358.37 511.5 256.17 484.12 268.08 480.93 358.37 505.12 358.37 511.5"/><polygon class="cls-23" points="353.69 501.44 302.91 487.83 302.91 371.8 353.69 385.41 353.69 501.44"/><polygon class="cls-16" points="308.53 448.96 302.91 447.45 302.91 428.5 308.53 430.01 308.53 448.96"/><polygon class="cls-16" points="212.38 347.01 307.77 372.57 307.77 382 212.38 356.44 212.38 347.01"/><polygon class="cls-26" points="212.38 347.01 307.77 372.57 366.23 356.9 270.83 331.34 212.38 347.01"/><polygon class="cls-27" points="366.23 356.9 366.23 366.33 307.77 382 307.77 372.57 366.23 356.9"/><polygon class="cls-21" points="68.92 446.37 374.74 161.53 68.92 79.58 68.92 446.37"/><polygon class="cls-11" points="561.99 111.35 374.74 528.31 561.99 478.14 561.99 111.35"/><path class="cls-3" d="M614.08,496.68c0,5.55-13.67,10.06-30.53,10.06S553,502.23,553,496.68s13.67-10.05,30.54-10.05S614.08,491.13,614.08,496.68Z"/><path class="cls-3" d="M600.6,497.21c0,3.7-10.26,6.7-22.91,6.7s-22.9-3-22.9-6.7,10.26-6.7,22.9-6.7S600.6,493.51,600.6,497.21Z"/><path class="cls-1" d="M574.58,456.15a83.26,83.26,0,0,1,.14-9.07C566.35,444.2,561.5,421,561.5,421c6.3,13.55,11.36,20.49,14,21.22.3-2.92.67-9.84.83-12.74a65.69,65.69,0,0,1,.65-7c.53-3.17-1.08-17.41.34-18.75,0,0,2.63,20.83,3.74,18.52,3.45-7.24,5.33-8.34,9.44-14.47.51-.76-9.46,20.33-9.35,21.52.41,4.75,1,11.65,1.62,21.63a80,80,0,0,0,10.49-7.36c-1.81-6.16,4-18.26,4-18.26-.17,6.52-2.67,15.2-1.49,16,2.55-3,15.36-12.6,18.38-16.55,0,0-17.91,23.51-30.91,32.59.6,7.63.84,20.2,1.15,22.64.66,5.09,1.67,11,2.7,15.43.79.91-4.13,3.9-8.67,3.1-4.18-.73-7.21-1.18-6.5-3.1.25-2.21.81-4.32.86-6.68.1-4.69.23-21.23.78-24.52-18.91-9.4-34.78-32.05-34.78-32.05C552.33,445.48,568.93,455.71,574.58,456.15Z"/><g class="cls-28"><path class="cls-6" d="M583.21,457.36s-2,4.48-2,7.06-.65,20,0,21.63,2,17.43,2,17.43,1-19.27,1.15-23.48C584.48,477,583.21,457.36,583.21,457.36Z"/><path class="cls-5" d="M576.44,502.51s1.52-10,.87-15.81-1.93-6.78-1-14.85,2.26-15.82,1.94-20-.32-14.52-.32-14.52l-3.24,9.77s.66-2.35-2.25-4-4.2,0-4.2,0l6.31,13s.8,5-.5,4.4-6.77-1.62-9.36-3.23-8.39-1-4.84.32,12.27,19.37,12.27,21,1,14.85.64,19.69S576.44,502.51,576.44,502.51Z"/><path class="cls-6" d="M592.49,457.64s-5.49-2.9-6.46-3.22-4.52.32-4.84,1.93-3.23,7.43-4.85,6.78-1.61-6.13-3.87-7.75-9-2.26-11.62-.64-28.73-11.62-28.73-11.62,1.94-43.26,3.23-43.26,57.78,1,57.78,1l8.39,39.06Z"/></g><path class="cls-29" d="M511.78,419.05a23.54,23.54,0,0,0,25.8,29.18c10.32,12.3,28.33,14.6,40.9,4.95a28.73,28.73,0,0,0,7.2-8.12c10.45,11.35,27.78,13.22,40,3.86,12.92-9.92,15.16-28.67,5-41.91a30.5,30.5,0,0,0-15.8-10.77l0-.11a30,30,0,0,0,1.41-38.57,30.91,30.91,0,0,0-4.61-4.8,12.49,12.49,0,0,0-19.08-9,23.3,23.3,0,0,0-37.69,25.87,18.79,18.79,0,0,0-11,11.26,28.81,28.81,0,0,0-28.6,17.23,10.59,10.59,0,1,0-3.49,20.89Z"/><path class="cls-8" d="M511.78,419.05a10.59,10.59,0,1,1,3.49-20.89,28.81,28.81,0,0,1,28.6-17.23,18.79,18.79,0,0,1,11-11.26,23.3,23.3,0,0,1,37.69-25.87,12.27,12.27,0,0,1,11.11-1.11c-1.07.87-2.35,1.93-3.82,3.19-4.14,3.55-4.89,4.85-4.89,4.85s-13.78-1.24-19.64,6.92c-12.38,17.27,2,32,2,32s-16.46-5.27-26.91-.2c-8.77,4.25-16.91,12.06-19.89,20.36-7.08,19.65,13.22,27.36,13.22,27.36s6.63.12,1.84,7.2a13,13,0,0,0-1.95,9.28,30.48,30.48,0,0,1-6-5.45,23.54,23.54,0,0,1-25.8-29.18Zm31.1,2.82a6.39,6.39,0,1,0-9-.93A6.39,6.39,0,0,0,542.88,421.87Zm2.77-13.49a4.05,4.05,0,1,0-5.69-.59A4.05,4.05,0,0,0,545.65,408.38ZM591,362.72a4,4,0,1,0-5.69-.58A4,4,0,0,0,591,362.72Zm-44.66,65.16a3,3,0,1,0-4.18-.43A3,3,0,0,0,546.38,427.88Zm43-56a3,3,0,1,0-4.19-.43A3,3,0,0,0,589.43,371.88Z"/><path class="cls-10" d="M599.83,403.24c-8.4,3.37-10.44,4-9.7,1.63,2-6.49,3.47-8.17,13.07-12.9,15.75-7.78,11.71-31.65,10.11-37.67a30.52,30.52,0,0,1,2.92,3.26,30,30,0,0,1-1.41,38.57l0,.11A30.5,30.5,0,0,1,630.65,407c10.16,13.24,7.92,32-5,41.91a29.17,29.17,0,0,1-26.21,4.73c-24.31-27.4,15.49-3.52,24.08-14.49C639.76,418.43,618.06,396,599.83,403.24Zm-8,29.6c-.29-5.28-.89-.71-8.27,3.72-8.09,4.86-25.49-.17-32.3,4.54-2.5,1.72,7.66,16.59,6,17.84a28.84,28.84,0,0,0,28.4-13.88S592.09,438.13,591.81,432.84Zm-72.47-20.63a4.05,4.05,0,1,0-5.7-.59A4.05,4.05,0,0,0,519.34,412.21Zm-.8,7.19a2.6,2.6,0,1,0-3.66-.37A2.6,2.6,0,0,0,518.54,419.4Zm104.55,8a4,4,0,1,0-5.7-.58A4,4,0,0,0,623.09,427.36Zm-15.74-40.53a6.61,6.61,0,1,0-9.3-1A6.62,6.62,0,0,0,607.35,386.83ZM623,434.14a1.9,1.9,0,1,0-2.67-.28A1.89,1.89,0,0,0,623,434.14Zm-32.37-6.61a1.91,1.91,0,1,0-2.68-.28A1.92,1.92,0,0,0,590.64,427.53Z"/><path class="cls-30" d="M737.49,504.07c0,7.49-23.31,13.56-52.07,13.56s-52.07-6.07-52.07-13.56,23.31-13.55,52.07-13.55S737.49,496.59,737.49,504.07Z"/><path class="cls-3" d="M714.5,504.78c0,5-17.49,9-39.06,9s-39.06-4.05-39.06-9,17.49-9,39.06-9S714.5,499.79,714.5,504.78Z"/><path class="cls-1" d="M687.91,492.84c-1.17-.67,1.32-7.95,1.49-13.42,0,0-5.77,10.14-4,15.31A78.08,78.08,0,0,1,675,500.91c-.66-8.37-1.19-14.15-1.61-18.14-.1-1,9.8-18.7,9.29-18-4.07,5.13-5.94,6.06-9.38,12.13-1.1,1.94-3.71-15.53-3.71-15.53-1.4,1.12.2,13.06-.34,15.72a50.42,50.42,0,0,0-.65,5.89c-.15,2.43-.51,8.23-.81,10.68-2.6-.6-7.61-6.43-13.88-17.8,0,0,4.82,19.45,13.14,21.86-.08.94-.13,1.76-.16,2.54-10.12-3.64-28.21-8.94-35.57-15,0,0,3.46,8.79,33.84,17l1.28,1.34a2.3,2.3,0,0,0,2.44,2.16c1.8.09,4-.27,4.94,1.19s2-.37,5.06-2.25a20.54,20.54,0,0,0,2.68-2.44c11.78-9,24.61-23.19,24.61-23.19C703.16,482.27,690.45,490.3,687.91,492.84Z"/><path class="cls-7" d="M722.7,469.38a12,12,0,0,0-13.09-2.08,23.43,23.43,0,0,0-19.22-17.09,24,24,0,0,0,4.34-14.5c-.36-13.11-11-23.46-23.85-23.09a23.4,23.4,0,0,0-22.49,22.21,22.53,22.53,0,0,0-8.43-1.4c-12.81.36-22.9,11.29-22.53,24.41a24,24,0,0,0,1.47,7.63,24.16,24.16,0,0,0-3,12.36c.37,13.12,11.06,23.46,23.87,23.1a22.62,22.62,0,0,0,11-3.23c.2.2.36.43.57.62A14.65,14.65,0,0,0,672,497.4a14.88,14.88,0,0,0,2.55-3.83,22.55,22.55,0,0,0,21.58,2.1,8.48,8.48,0,0,0,2.49,4.38,8.9,8.9,0,0,0,12.56-.6,9,9,0,0,0,2-8.86,12.45,12.45,0,0,0,9.89-4A12.21,12.21,0,0,0,722.7,469.38Z"/><path class="cls-8" d="M678.64,427.09a4.32,4.32,0,1,1-4.32-4.32A4.31,4.31,0,0,1,678.64,427.09Z"/><path class="cls-8" d="M668.5,425.05a2,2,0,1,1-2-2A2,2,0,0,1,668.5,425.05Z"/><path class="cls-8" d="M716,470.73a2,2,0,1,1-2-2A2,2,0,0,1,716,470.73Z"/><g class="cls-9"><path class="cls-10" d="M639.75,500.93a22.62,22.62,0,0,0,11-3.23c.2.2.36.43.57.62A14.65,14.65,0,0,0,672,497.4a14.88,14.88,0,0,0,2.55-3.83,22.55,22.55,0,0,0,21.58,2.1,8.48,8.48,0,0,0,2.49,4.38,8.9,8.9,0,0,0,12.56-.6,9,9,0,0,0,2-8.86,12.45,12.45,0,0,0,9.89-4,12.27,12.27,0,0,0,1.35-15.13c-1.51,3.66-3.71,8.17-6,10.07-4.15,3.44-8.71-4.27-12.92-8.41s-6.15.41-12,3.35-11.52-2.34-20.32-5.13-24.06,9.66-29,11.33-12.44,6.21-21.56,2.05A18.37,18.37,0,0,1,616,479.7,23.43,23.43,0,0,0,639.75,500.93Z"/><path class="cls-10" d="M691.24,469.86a5,5,0,1,1-5-5A5,5,0,0,1,691.24,469.86Z"/><path class="cls-10" d="M634.9,464.2a4.18,4.18,0,1,1-4.18-4.18A4.18,4.18,0,0,1,634.9,464.2Z"/><path class="cls-10" d="M697.29,468.38A2.28,2.28,0,1,1,695,466.1,2.27,2.27,0,0,1,697.29,468.38Z"/><path class="cls-10" d="M624.63,463.82a2.28,2.28,0,1,1-2.27-2.28A2.28,2.28,0,0,1,624.63,463.82Z"/><path class="cls-10" d="M637.28,457.43A2.33,2.33,0,1,1,635,455.1,2.32,2.32,0,0,1,637.28,457.43Z"/></g><path class="cls-8" d="M670.88,412.62a23.41,23.41,0,0,0-22.49,22.21,22.53,22.53,0,0,0-8.43-1.4,23.14,23.14,0,0,0-20.16,13.26c10-7.46,25.66-5.34,33.26-3.68a1.46,1.46,0,0,0,1.56-.68,1.44,1.44,0,0,0-.14-1.7l-2.35-2.73a2.62,2.62,0,0,1-.27-3c3.36-5.63,16-23.07,38.59-12.23A23,23,0,0,0,670.88,412.62Z"/><path class="cls-8" d="M690.43,450.14a47.44,47.44,0,0,0-21.93,8.49s14.73-4.24,28-2.86a38.26,38.26,0,0,1,7.92,2,23,23,0,0,0-14-7.57A.25.25,0,0,0,690.43,450.14Z"/><path class="cls-7" d="M665.14,482.7a4.32,4.32,0,1,1-4.31-4.31A4.32,4.32,0,0,1,665.14,482.7Z"/><path class="cls-7" d="M666.47,475.42a2,2,0,1,1-2-2A2,2,0,0,1,666.47,475.42Z"/></g></g></g></svg>
