<?xml version="1.0" encoding="UTF-8"?>
<svg xmlns="http://www.w3.org/2000/svg" version="1.1" viewBox="0 0 100 100">
  <!-- Generator: Adobe Illustrator 29.0.0, SVG Export Plug-In . SVG Version: 2.1.0 Build 186)  -->
  <defs>
    <style>
      .st0 {
        fill: #977677;
      }

      .st1 {
        fill: #a65838;
      }

      .st2 {
        fill: #f8f6e1;
      }

      .st3 {
        fill: #fcf4e0;
      }

      .st4 {
        fill: #7e4c5d;
      }

      .st5 {
        fill: #c5a4ac;
      }

      .st5, .st6, .st7, .st8, .st9, .st10 {
        mix-blend-mode: multiply;
      }

      .st11 {
        fill: #ffc780;
      }

      .st12 {
        fill: #98797a;
      }

      .st13 {
        fill: #4e303a;
      }

      .st14 {
        fill: #fdbc69;
      }

      .st15 {
        fill: #c2dd76;
      }

      .st16 {
        fill: #e8a584;
      }

      .st17 {
        fill: #aa5a39;
      }

      .st18 {
        fill: #a88b8f;
      }

      .st19 {
        fill: #b97821;
      }

      .st20 {
        fill: #7b444a;
      }

      .st6 {
        fill: #897998;
      }

      .st21 {
        isolation: isolate;
      }

      .st22 {
        fill: #bda195;
      }

      .st23 {
        fill: #f7f3f1;
      }

      .st24 {
        fill: #aa7723;
      }

      .st25 {
        fill: #895b6b;
      }

      .st26 {
        fill: #fad6a4;
      }

      .st27 {
        fill: #6e3d1c;
      }

      .st28 {
        fill: #f9f6e1;
      }

      .st7 {
        fill: #c4a3ab;
      }

      .st29 {
        fill: #c7805e;
      }

      .st30 {
        fill: #987677;
      }

      .st8 {
        fill: #c4bccc;
      }

      .st31 {
        fill: #9c7f84;
      }

      .st32 {
        fill: #f28b46;
      }

      .st33 {
        fill: #d6e371;
      }

      .st34 {
        fill: #4a2e37;
      }

      .st35 {
        fill: #612c07;
      }

      .st36 {
        fill: #bd6c37;
      }

      .st37 {
        fill: #2b0512;
      }

      .st38 {
        fill: #593b45;
      }

      .st39 {
        fill: #febd69;
      }

      .st40 {
        fill: #63373c;
      }

      .st41 {
        fill: #a17e7e;
      }

      .st42 {
        fill: #947475;
      }

      .st43 {
        fill: #a14c29;
      }

      .st9 {
        fill: #c5bdcd;
      }

      .st44 {
        fill: #e5dad5;
      }

      .st45 {
        fill: #a95a39;
      }

      .st10 {
        fill: #b0a4ba;
      }

      .st46 {
        fill: #694c51;
      }

      .st47 {
        fill: #7c4f1f;
      }

      .st48 {
        fill: #20000b;
      }

      .st49 {
        fill: #54343e;
      }

      .st50 {
        fill: #4d6e4a;
      }
    </style>
  </defs>
  <g class="st21">
    <g id="Layer_1">
      <g>
        <g>
          <polygon class="st8" points="96.3 72 81.1 63.2 71.1 81 80.7 81 96.3 72"/>
          <polygon class="st41" points="33.8 51.4 34.7 51.9 34.7 53.5 33.8 53 33.8 51.4"/>
          <polygon class="st41" points="36.1 52.7 36.8 53.2 36.8 54.7 36.1 54.3 36.1 52.7"/>
          <polygon class="st19" points="33.8 51.4 34.7 51.9 34.7 53.5 33.8 53 33.8 51.4"/>
          <g>
            <polygon class="st44" points="23 27.4 42.4 38.6 42.4 64.4 23 53.2 23 27.4"/>
            <g>
              <polygon class="st44" points="36.1 54.5 36.1 55.3 34.5 54.3 34.5 53.5 36.1 54.5"/>
              <polygon class="st10" points="36.2 54.4 36.3 54.6 36.3 55.5 34.6 54.5 34.5 54.4 36.1 55.3 36.2 55.2 36.2 54.4"/>
              <polygon class="st28" points="36.2 54.4 36.1 54.5 34.5 53.5 34.5 53.5 36.2 54.4"/>
              <polygon class="st30" points="36.2 55.2 36.2 54.4 36.1 54.5 36.1 55.3 36.2 55.2"/>
            </g>
            <polygon class="st6" points="23 27.4 23 28.1 42.4 39.3 42.4 38.6 23 27.4"/>
          </g>
          <g>
            <polygon class="st40" points="24.3 53.9 21.6 55.5 21.6 52.9 24.3 51.4 24.3 53.9"/>
            <polygon class="st16" points="23.5 50.9 24.3 51.4 21.6 52.9 20.8 52.5 23.5 50.9"/>
          </g>
          <g>
            <path class="st0" d="M30.9,46.5l.7.4c1.4.8,2.6,2.9,2.6,4.5v8.3l-5.9-3.4v-8.3c0-1.7,1.2-2.3,2.6-1.5Z"/>
            <path class="st13" d="M28.6,47.8v8.3l5.6,3.2v-7.9c0-.3,0-.6-.1-.9-.2-1.1-.9-2.2-1.7-3-.2-.2-.5-.4-.8-.6l-.7-.4c-.6-.4-1.2-.4-1.7-.3-.4.3-.6.8-.6,1.6Z"/>
            <path class="st25" d="M28.9,48h0s5.2,3,5.2,3h0c0-.1,0-.2,0-.2,0-.1,0-.2,0-.4-.2-1.1-.9-2.2-1.7-3-.1-.1-.3-.2-.5-.3l-.7-.4c-1.2-.7-2.2-.1-2.2,1.3Z"/>
            <path class="st37" d="M29.7,46.5c-.4.2-.6.7-.6,1.4h0s5,2.9,5,2.9c0,0,0,.1,0,.2h0s-5.2-2.9-5.2-2.9h0c0-.8.3-1.3.8-1.5Z"/>
            <g>
              <polygon class="st25" points="28.9 55.9 31.3 57.3 31.3 49.6 28.9 48.3 28.9 55.9"/>
              <polygon class="st13" points="30.1 56.6 30.2 56.6 30.2 49 30.1 48.9 30.1 56.6"/>
            </g>
            <g>
              <polygon class="st25" points="31.7 57.5 34.1 58.9 34.1 51.2 31.7 49.9 31.7 57.5"/>
              <polygon class="st13" points="32.9 58.2 33 58.3 33 50.6 32.9 50.5 32.9 58.2"/>
            </g>
            <polygon class="st23" points="28.3 56.2 34.2 59.7 34.2 59.3 28.6 56.1 28.3 56.2"/>
            <polygon class="st38" points="31.7 57.5 32.9 58.2 32.9 58 31.9 57.4 31.7 57.5"/>
            <polygon class="st37" points="31.9 50 31.7 49.9 31.7 57.5 31.9 57.4 31.9 50"/>
            <polygon class="st38" points="33 58.3 34.1 58.9 34.1 58.7 33.2 58.2 33 58.3"/>
            <polygon class="st37" points="33.2 50.7 33 50.6 33 58.3 33.2 58.2 33.2 50.7"/>
            <polygon class="st38" points="28.9 55.9 30.1 56.6 30.1 56.4 29.1 55.8 28.9 55.9"/>
            <path class="st38" d="M28.9,48l5.2,3h0c0-.1,0-.2,0-.2l-5-2.9h-.2Z"/>
            <polygon class="st37" points="29.1 48.4 28.9 48.3 28.9 55.9 29.1 55.8 29.1 48.4"/>
            <polygon class="st38" points="30.2 56.6 31.3 57.3 31.3 57.1 30.4 56.5 30.2 56.6"/>
            <polygon class="st37" points="30.4 49.1 30.2 49 30.2 56.6 30.4 56.5 30.4 49.1"/>
            <path class="st6" d="M28.3,47.9v8.3h.6s0-7.9,0-7.9c0-.3,0-.5,0-.7,0,.1,0,.2,0,.3h0s.4,0,.4,0c0-1.4,1-1.5,2.2-.8l.7.4c.2,0,.3.2.5.3.2.2.4.4.6.6-.3-.4-.6-.8-1-1.2-.1-.1-.3-.2-.5-.3l-.6-.3c0,0,.1,0,.2.1l.6.4c-.2-.1-.4-.3-.5-.4l-.7-.4c-1.4-.8-2.6-.2-2.6,1.5ZM29.7,46.5h0s0,0,0,0h0ZM29.6,46.5s0,0,0,0c0,0,0,0,0,0ZM29.6,46.6s0,0,0,0c0,0,0,0,0,0Z"/>
            <polygon class="st6" points="28.9 48 29.3 48 29.1 47.9 28.9 48"/>
            <polygon class="st6" points="28.9 55.9 29.3 55.9 29.3 48.7 30.1 49.1 30.1 48.9 29.1 48.4 29.1 55.8 28.9 55.9"/>
            <polygon class="st6" points="30.2 56.6 30.6 56.6 30.6 49.4 31.3 49.9 31.3 49.6 30.4 49.1 30.4 56.5 30.2 56.6"/>
            <polygon class="st6" points="31.7 57.5 32.1 57.5 32.1 50.3 32.9 50.7 32.9 50.5 31.9 50 31.9 57.4 31.7 57.5"/>
            <polygon class="st6" points="33 58.3 33.4 58.3 33.4 51.1 34.1 51.5 34.1 51.2 33.2 50.7 33.2 58.2 33 58.3"/>
          </g>
          <g>
            <g>
              <path class="st0" d="M37.6,39.4h0v5.3l-2.7-1.6v-5.3h0c.6-.8,2.1,0,2.7,1.6Z"/>
              <g>
                <path class="st13" d="M35.1,37.6v5.3l.3.2h0s2.1,1.2,2.1,1.2v-4.9c-.3-.9-1-1.5-1.6-1.8,0,0,0,0,0,0,0,0,0,0,0,0,0,0,0,0,0,0,0,0,0,0,0,0,0,0,0,0,0,0,0,0,0,0,0,0,0,0,0,0,0,0,0,0,0,0,0,0,0,0,0,0,0,0,0,0,0,0,0,0,0,0,0,0,0,0h0s0,0,0,0c0,0,0,0,0,0,0,0,0,0,0,0,0,0,0,0,0,0s0,0,0,0c0,0,0,0,0,0,0,0,0,0,0,0,0,0,0,0,0,0,0,0,0,0,0,0,0,0,0,0,0,0,0,0,0,0,0,0,0,0,0,0,0,0,0,0,0,0,0,0t0,0s0,0,0,.1Z"/>
                <path class="st25" d="M35.3,37.9v4.8l2.2,1.3v-4.6c-.3-.9-1-1.5-1.6-1.8-.3,0-.5,0-.7.3Z"/>
                <path class="st37" d="M35.6,37.6s0,0-.1.1v4.8h-.2c0,.1,0-4.7,0-4.7,0-.1.1-.3.3-.2Z"/>
                <polygon class="st38" points="35.3 42.7 37.6 44 37.6 43.8 35.5 42.6 35.3 42.7"/>
                <polygon class="st13" points="35.3 39.4 35.3 39.6 37.6 40.9 37.6 40.7 35.3 39.4"/>
              </g>
              <polygon class="st38" points="35.3 39.4 37.6 40.7 37.6 40.5 35.5 39.3 35.3 39.4"/>
              <polygon class="st23" points="37.6 44.7 34.8 43.1 35.1 42.9 37.6 44.3 37.6 44.7"/>
            </g>
            <polygon class="st6" points="34.9 43.7 37.7 44.7 37.8 45 37.8 45.7 34.9 44.1 34.9 43.7"/>
            <g>
              <polygon class="st12" points="37.4 45.1 37.6 45 37.6 45.4 37.4 45.5 37.4 45.1"/>
              <polygon class="st3" points="34.6 43.5 37.4 45.1 37.4 45.5 34.6 43.8 34.6 43.5"/>
              <polygon class="st6" points="34.6 43.3 37.4 45 37.4 45.3 34.6 43.7 34.6 43.3"/>
              <polygon class="st12" points="37.4 45.2 37.7 45.1 37.7 44.7 37.4 44.9 37.4 45.2"/>
              <polygon class="st23" points="34.4 43.1 34.7 43 37.7 44.7 37.4 44.9 34.4 43.1"/>
              <polygon class="st3" points="34.4 43.5 37.4 45.2 37.4 44.9 34.4 43.1 34.4 43.5"/>
            </g>
            <path class="st6" d="M35.1,37.6v5.3l-.3.2h.6v-.4h.3v-2.9h-.2c0-.1,0,2.7,0,2.7h-.2c0,.1,0,.1,0,.1v-3.1h.1c0,0,0-.3,0-.3h.3v-1.3c.2,0,.3,0,.5.1.5.2,1,.7,1.4,1.4h0c-.3-1-1-1.6-1.6-1.9,0,0,0,0,0,0,0,0,0,0,0,0,0,0,0,0,0,0,0,0,0,0,0,0,0,0,0,0,0,0,0,0,0,0,0,0,0,0,0,0,0,0,0,0,0,0,0,0,0,0,0,0,0,0,0,0,0,0,0,0,0,0,0,0,0,0h0s0,0,0,0c0,0,0,0,0,0,0,0,0,0,0,0,0,0,0,0,0,0s0,0,0,0c0,0,0,0,0,0,0,0,0,0,0,0,0,0,0,0,0,0,0,0,0,0,0,0,0,0,0,0,0,0,0,0,0,0,0,0,0,0,0,0,0,0,0,0,0,0,0,0t0,0s0,0,0,.1ZM35.3,37.9c0-.1.2-.2.3-.2,0,0,0,0-.1.1v1.5h-.2c0,.1,0-1.4,0-1.4Z"/>
          </g>
          <g>
            <g>
              <path class="st0" d="M29.1,34.5h0v5.3l-2.7-1.6v-5.3h0c.6-.8,2.1,0,2.7,1.6Z"/>
              <g>
                <path class="st13" d="M26.6,32.7v5.3l.3.2h0s2.1,1.2,2.1,1.2v-4.9c-.3-.9-1-1.5-1.6-1.8,0,0,0,0,0,0,0,0,0,0,0,0,0,0,0,0,0,0,0,0,0,0,0,0,0,0,0,0,0,0,0,0,0,0,0,0,0,0,0,0,0,0,0,0,0,0,0,0,0,0,0,0,0,0,0,0,0,0,0,0,0,0,0,0,0,0h0s0,0,0,0c0,0,0,0,0,0,0,0,0,0,0,0,0,0,0,0,0,0s0,0,0,0c0,0,0,0,0,0,0,0,0,0,0,0,0,0,0,0,0,0,0,0,0,0,0,0,0,0,0,0,0,0,0,0,0,0,0,0,0,0,0,0,0,0,0,0,0,0,0,0h0s0,0,0,.1Z"/>
                <path class="st25" d="M26.8,33v4.8l2.2,1.3v-4.6c-.3-.9-1-1.5-1.6-1.8-.3,0-.5,0-.7.3Z"/>
                <path class="st37" d="M27.1,32.7s0,0-.1.1v4.8h-.2c0,.1,0-4.7,0-4.7,0-.1.1-.3.3-.2Z"/>
                <polygon class="st38" points="26.8 37.8 29.1 39.1 29.1 38.9 27 37.7 26.8 37.8"/>
                <polygon class="st13" points="26.8 34.5 26.8 34.7 29.1 36 29.1 35.8 26.8 34.5"/>
              </g>
              <polygon class="st38" points="26.8 34.5 29.1 35.8 29.1 35.6 27 34.4 26.8 34.5"/>
              <polygon class="st23" points="29.1 39.8 26.3 38.2 26.6 38 29.1 39.4 29.1 39.8"/>
            </g>
            <polygon class="st6" points="26.4 38.8 29.2 39.8 29.3 40.1 29.3 40.8 26.4 39.2 26.4 38.8"/>
            <g>
              <polygon class="st12" points="29 40.2 29.1 40.1 29.1 40.5 29 40.6 29 40.2"/>
              <polygon class="st3" points="26.1 38.6 29 40.2 29 40.6 26.1 38.9 26.1 38.6"/>
              <polygon class="st6" points="26.1 38.4 29 40.1 29 40.4 26.1 38.8 26.1 38.4"/>
              <polygon class="st12" points="28.9 40.3 29.2 40.2 29.2 39.8 28.9 40 28.9 40.3"/>
              <polygon class="st23" points="25.9 38.2 26.2 38.1 29.2 39.8 28.9 40 25.9 38.2"/>
              <polygon class="st3" points="25.9 38.6 28.9 40.3 28.9 40 25.9 38.2 25.9 38.6"/>
            </g>
            <path class="st6" d="M26.6,32.7v5.3l-.3.2h.6v-.4h.3v-2.9h-.2c0-.1,0,2.7,0,2.7h-.2c0,.1,0,.1,0,.1v-3.1h.1c0,0,0-.3,0-.3h.3v-1.3c.2,0,.3,0,.5.1.5.2,1,.7,1.4,1.4h0c-.3-1-1-1.6-1.6-1.9,0,0,0,0,0,0,0,0,0,0,0,0,0,0,0,0,0,0,0,0,0,0,0,0,0,0,0,0,0,0,0,0,0,0,0,0,0,0,0,0,0,0,0,0,0,0,0,0,0,0,0,0,0,0,0,0,0,0,0,0,0,0,0,0,0,0h0s0,0,0,0c0,0,0,0,0,0,0,0,0,0,0,0,0,0,0,0,0,0s0,0,0,0c0,0,0,0,0,0,0,0,0,0,0,0,0,0,0,0,0,0,0,0,0,0,0,0,0,0,0,0,0,0,0,0,0,0,0,0,0,0,0,0,0,0,0,0,0,0,0,0h0s0,0,0,.1ZM26.8,33c0-.1.2-.2.3-.2,0,0,0,0-.1.1v1.5h-.2c0,.1,0-1.4,0-1.4Z"/>
          </g>
          <g>
            <polygon class="st16" points="42.4 52.5 22.8 40.5 23 40.3 42.4 51.5 42.4 52.5"/>
            <polygon class="st20" points="42.4 51.5 42.2 51.7 42.2 52.6 42.4 52.5 42.4 51.5"/>
            <polygon class="st29" points="22.8 40.5 42.2 51.7 42.2 52.6 22.8 41.4 22.8 40.5"/>
          </g>
          <g>
            <polygon class="st44" points="51.5 54.5 51.5 69.6 56 72.2 56 72.2 56 72.2 57 71.6 68.7 78.4 68.7 79.6 71.1 81 71.1 65.8 51.5 54.5"/>
            <g>
              <polygon class="st44" points="55.6 67.2 55.6 68 54 67.1 54 66.3 55.6 67.2"/>
              <polygon class="st10" points="55.7 67.2 55.8 67.3 55.8 68.2 54.1 67.2 54 67.1 55.6 68 55.7 68 55.7 67.2"/>
              <polygon class="st28" points="55.7 67.2 55.6 67.2 54 66.3 54 66.2 55.7 67.2"/>
              <polygon class="st30" points="55.7 68 55.7 67.2 55.6 67.2 55.6 68 55.7 68"/>
            </g>
            <polygon class="st44" points="71.1 65.8 51.5 54.5 51.5 43.8 71.1 55.1 71.1 65.8"/>
            <polygon class="st6" points="51.5 43.8 51.5 43.8 71.1 55.1 71.1 55.8 52.8 45.3 53.1 45.5 53.1 55.6 52.3 55.6 51.5 54.7 51.5 43.8 51.5 43.8"/>
            <polygon class="st13" points="56 60.9 56 72.2 57 71.6 68.7 78.4 68.7 68.3 57.5 61.8 56 60.9"/>
            <g>
              <polygon class="st49" points="57.5 61.8 57.5 61.8 68.7 68.3 68.7 68.3 57.5 61.8"/>
              <g>
                <polygon class="st34" points="57.5 62.7 57.5 62.9 68.7 69.4 68.7 69.2 57.5 62.7"/>
                <polygon class="st49" points="57.5 62.9 57.5 63.2 68.7 69.7 68.7 69.4 57.5 62.9"/>
              </g>
              <g>
                <polygon class="st34" points="57.5 64.1 57.5 64.3 68.7 70.8 68.7 70.6 57.5 64.1"/>
                <polygon class="st49" points="57.5 64.3 57.5 64.6 68.7 71 68.7 70.8 57.5 64.3"/>
              </g>
              <g>
                <polygon class="st34" points="57.5 65.5 57.5 65.7 68.7 72.1 68.7 72 57.5 65.5"/>
                <polygon class="st49" points="57.5 65.7 57.5 65.9 68.7 72.4 68.7 72.1 57.5 65.7"/>
              </g>
              <g>
                <polygon class="st34" points="57.5 66.8 57.5 67 68.7 73.5 68.7 73.3 57.5 66.8"/>
                <polygon class="st49" points="57.5 67 57.5 67.3 68.7 73.8 68.7 73.5 57.5 67"/>
              </g>
              <g>
                <polygon class="st34" points="57.5 68.2 57.5 68.4 68.7 74.9 68.7 74.7 57.5 68.2"/>
                <polygon class="st49" points="57.5 68.4 57.5 68.7 68.7 75.2 68.7 74.9 57.5 68.4"/>
              </g>
              <g>
                <polygon class="st34" points="57.5 69.6 57.5 69.8 68.7 76.2 68.7 76.1 57.5 69.6"/>
                <polygon class="st49" points="57.5 69.8 57.5 70 68.7 76.5 68.7 76.2 57.5 69.8"/>
              </g>
              <g>
                <polygon class="st34" points="57.5 70.9 57.5 71.1 68.7 77.6 68.7 77.4 57.5 70.9"/>
                <polygon class="st49" points="57.5 71.1 57.5 71.4 68.7 77.9 68.7 77.6 57.5 71.1"/>
              </g>
            </g>
            <polygon class="st7" points="56 72.2 58.1 72.2 58.1 64 68.7 70 68.7 68.1 56.7 61.6 56 72.2"/>
            <polygon class="st0" points="56 72.2 57 71.6 57 61.5 56 60.9 56 72.2"/>
          </g>
          <g>
            <polygon class="st3" points="69 68.7 69 67.6 55.2 59.6 55.2 60.8 69 68.7"/>
            <polygon class="st12" points="69.2 67.5 69 67.6 69 68.7 69.2 68.6 69.2 67.5"/>
            <polygon class="st2" points="55.4 59.5 55.2 59.6 69 67.6 69.2 67.5 55.4 59.5"/>
          </g>
          <polygon class="st0" points="87.7 45.5 79.5 41.9 71.1 55.1 71.1 81 87.7 71.4 87.7 45.5"/>
          <polygon class="st4" points="80.3 42.3 30 13.3 21.6 26.6 71.9 55.6 80.3 42.3"/>
          <polygon class="st13" points="80.3 42.3 31.2 14 39.5 17.7 88.5 46 80.3 42.3"/>
          <g>
            <polygon class="st20" points="21.2 57 23.1 55.9 23.1 52.4 21.2 53.5 21.2 57"/>
            <polygon class="st29" points="21.2 57 19.3 55.9 19.3 52.4 21.2 53.5 21.2 57"/>
            <polygon class="st6" points="21.2 54 19.3 52.9 19.3 52.4 21.2 53.5 21.2 54"/>
            <polygon class="st23" points="19.1 51.6 21.4 50.2 23.3 51.3 21 52.7 19.1 51.6"/>
            <polygon class="st14" points="21.2 52.2 19.9 51.4 19.9 43.9 21.2 44.7 21.2 52.2"/>
            <polygon class="st45" points="21.2 52.2 22.6 51.4 22.6 43.9 21.2 44.7 21.2 52.2"/>
            <polygon class="st3" points="21 53.6 19.1 52.5 19.1 51.6 21 52.7 21 53.6"/>
            <polygon class="st0" points="21 53.6 23.3 52.2 23.3 51.3 21 52.7 21 53.6"/>
            <polygon class="st29" points="21.5 56.8 34.2 64.2 34.2 61.6 21.5 54.3 21.5 56.8"/>
          </g>
          <polygon class="st16" points="22.3 53.8 21.5 54.3 34.2 61.6 35 61.2 22.3 53.8"/>
          <polygon class="st6" points="21.2 57 21.8 57 21.8 54.4 22.8 54.4 23.1 54.3 22.3 53.8 21.5 54.3 21.5 56.8 21.2 57"/>
          <polygon class="st29" points="38.2 66.9 33.9 64.4 33.9 60.8 38.2 63.3 38.2 66.9"/>
          <polygon class="st6" points="38.2 63.9 33.9 61.4 33.9 60.8 38.2 63.3 38.2 63.9"/>
          <polygon class="st3" points="38 63.4 33.7 60.9 33.7 60 38 62.5 38 63.4"/>
          <polygon class="st23" points="33.7 60 36 58.7 40.3 61.2 38 62.5 33.7 60"/>
          <g>
            <polygon class="st16" points="39.4 54.3 19.2 42.6 20 42.1 39.4 53.3 39.4 54.3"/>
            <polygon class="st20" points="39.4 53.3 38.6 53.8 38.6 54.7 39.4 54.3 39.4 53.3"/>
            <polygon class="st29" points="19.2 42.6 38.6 53.8 38.6 54.7 19.2 43.5 19.2 42.6"/>
          </g>
          <g>
            <g>
              <polygon class="st29" points="17.9 42.5 18.7 42.9 18.7 43.8 17.9 43.3 17.9 42.5"/>
              <polygon class="st20" points="18.7 42.9 23.9 39.9 23.9 40.8 18.7 43.8 18.7 42.9"/>
              <polygon class="st16" points="23.1 39.4 23.9 39.9 18.7 42.9 17.9 42.5 23.1 39.4"/>
            </g>
            <g>
              <polygon class="st29" points="20.7 44.1 21.5 44.5 21.5 45.4 20.7 45 20.7 44.1"/>
              <polygon class="st20" points="21.5 44.5 26.7 41.5 26.7 42.4 21.5 45.4 21.5 44.5"/>
              <polygon class="st16" points="25.9 41.1 26.7 41.5 21.5 44.5 20.7 44.1 25.9 41.1"/>
            </g>
            <g>
              <polygon class="st29" points="23.5 45.7 24.3 46.2 24.3 47.1 23.5 46.6 23.5 45.7"/>
              <polygon class="st20" points="24.3 46.2 29.5 43.2 29.5 44.1 24.3 47.1 24.3 46.2"/>
              <polygon class="st16" points="28.7 42.7 29.5 43.2 24.3 46.2 23.5 45.7 28.7 42.7"/>
            </g>
            <g>
              <polygon class="st29" points="26.3 47.3 27.1 47.8 27.1 48.7 26.3 48.2 26.3 47.3"/>
              <polygon class="st20" points="27.1 47.8 32.3 44.8 32.3 45.7 27.1 48.7 27.1 47.8"/>
              <polygon class="st16" points="31.5 44.3 32.3 44.8 27.1 47.8 26.3 47.3 31.5 44.3"/>
            </g>
            <g>
              <polygon class="st29" points="29.1 49 29.9 49.4 29.9 50.3 29.1 49.8 29.1 49"/>
              <polygon class="st20" points="29.9 49.4 35.2 46.4 35.2 47.3 29.9 50.3 29.9 49.4"/>
              <polygon class="st16" points="34.3 46 35.2 46.4 29.9 49.4 29.1 49 34.3 46"/>
            </g>
            <g>
              <polygon class="st29" points="31.9 50.6 32.8 51.1 32.8 51.9 31.9 51.5 31.9 50.6"/>
              <polygon class="st20" points="32.8 51.1 38 48 38 48.9 32.8 51.9 32.8 51.1"/>
              <polygon class="st16" points="37.2 47.6 38 48 32.8 51.1 31.9 50.6 37.2 47.6"/>
            </g>
          </g>
          <g>
            <polygon class="st26" points="51.5 43.8 45.9 47 36.8 41.8 42.4 38.6 51.5 43.8"/>
            <path class="st7" d="M42.1,42.1c0-.3-1.8-1.2-1.7-1.3,0,0,1.6-.9,1.6-.9,0,0,.1,0,.2,0h0c2.5-.2,5.6,1.6,8.1,4.7h0s0,0,0,0l-4.5,2.6-3.7-2.2v-2.8Z"/>
            <path class="st26" d="M38.8,51.6l8.7,5.4v-15.1c0-.4-.2-.8-.5-1.2h0c-2.5-3.1-5.6-4.9-8.1-4.7h0c0,0-.1,0-.2,0,0,0-1.6.9-1.6.9-.1.1,1.7,1.1,1.7,1.3v13.3Z"/>
            <polygon class="st26" points="53.6 55.9 48 59.2 35.9 52.2 41.5 49 53.6 55.9"/>
            <polygon class="st7" points="53.1 55.6 49.1 58 45.9 58 51.5 54.7 53.1 55.6"/>
            <polygon class="st6" points="56 72.2 56 58.6 53.6 55.9 53.6 70.8 56 72.2"/>
            <polygon class="st7" points="52.7 74.1 48 74.1 53.6 70.8 56 72.2 55.9 72.2 52.7 74.1"/>
            <polygon class="st7" points="46.6 66.8 43.5 68.6 38.4 68.6 44 65.3 46.6 66.8"/>
            <polygon class="st45" points="53.6 70.8 48 74.1 48 59.2 53.6 55.9 53.6 70.8"/>
            <polygon class="st45" points="51.5 54.7 45.9 58 45.9 47 51.5 43.8 51.5 54.7"/>
            <polygon class="st45" points="47.5 46.1 45.9 47 45.9 42.8 47.5 41.9 47.5 46.1"/>
            <path class="st14" d="M36.8,52.7l9,5.2v-15.1c0-.4-.2-.8-.5-1.2h0c-2.5-3.1-5.6-4.9-8.1-4.7h0c-.3,0-.5.3-.5.7v15.1Z"/>
            <polygon class="st14" points="35.9 52.2 35.9 67.1 38.4 68.6 41 67.1 44.3 69 44.3 72 48 74.1 48 59.2 35.9 52.2"/>
            <path class="st45" d="M38.4,60.3v8.3l2.6-1.5,3.3,1.9v-5.3c0-1.7-1.2-3.7-2.6-4.5l-.7-.4c-1.4-.8-2.6-.2-2.6,1.5Z"/>
            <path class="st43" d="M44.3,63.7v5.3l-3.3-1.9v-8.3s0,0,0,0c0,0,0,0,0,0l.7.4c1.4.8,2.6,2.9,2.6,4.5Z"/>
            <path class="st7" d="M41,58.8s0,0,0,0l.7.4c1.4.8,2.5,2.6,2.6,4.2,0,0,0,0,0,0l-.7-.4s0,0,0,0c0,0,0,0,0,0v5.6l-2.5-1.5v-8.3s0,0,0,0Z"/>
          </g>
          <polygon class="st6" points="69.2 65.1 69.4 65.4 69.4 66.2 70.9 67.8 70.9 69 70.4 69 68.9 67.1 67.8 66.4 67.6 66 69.2 65.1"/>
          <polygon class="st6" points="65.1 62.8 65.4 63.1 65.4 63.9 66.8 65.5 66.8 66.6 65.7 66.4 65.5 65.5 64.9 64.8 63.8 64.1 63.5 63.7 65.1 62.8"/>
          <polygon class="st6" points="61.1 60.5 61.3 60.8 61.3 61.6 62.8 63.2 62.8 64.3 61.7 64.1 61.4 63.2 60.8 62.4 59.7 61.7 59.5 61.3 61.1 60.5"/>
          <polygon class="st6" points="57.1 58.1 57.3 58.4 57.3 59.2 58.8 60.8 58.8 61.9 57.7 61.8 57.4 60.9 56.8 60.1 55.7 59.4 55.4 59 57.1 58.1"/>
          <g>
            <g>
              <polygon class="st3" points="56.8 59.8 56.8 58.3 55.4 57.5 55.4 59 56.8 59.8"/>
              <polygon class="st29" points="52.6 59.7 53.4 60.2 53.4 61.1 52.6 60.6 52.6 59.7"/>
              <polygon class="st20" points="53.4 60.2 56.5 58.4 56.5 59.3 53.4 61.1 53.4 60.2"/>
              <polygon class="st16" points="55.7 58 56.5 58.4 53.4 60.2 52.6 59.7 55.7 58"/>
              <polygon class="st12" points="57.1 58.1 56.8 58.3 56.8 59.8 57.1 59.7 57.1 58.1"/>
              <polygon class="st2" points="55.7 57.3 55.4 57.5 56.8 58.3 57.1 58.1 55.7 57.3"/>
            </g>
            <g>
              <polygon class="st3" points="60.9 62.1 60.9 60.6 59.5 59.8 59.5 61.3 60.9 62.1"/>
              <polygon class="st29" points="56.7 62.1 57.5 62.5 57.5 63.4 56.7 63 56.7 62.1"/>
              <polygon class="st20" points="57.5 62.5 60.6 60.8 60.6 61.6 57.5 63.4 57.5 62.5"/>
              <polygon class="st16" points="59.8 60.3 60.6 60.8 57.5 62.5 56.7 62.1 59.8 60.3"/>
              <polygon class="st12" points="61.1 60.5 60.9 60.6 60.9 62.1 61.1 62 61.1 60.5"/>
              <polygon class="st2" points="59.7 59.7 59.5 59.8 60.9 60.6 61.1 60.5 59.7 59.7"/>
            </g>
            <g>
              <polygon class="st3" points="64.9 64.5 64.9 62.9 63.5 62.1 63.5 63.7 64.9 64.5"/>
              <polygon class="st29" points="60.7 64.4 61.5 64.9 61.5 65.8 60.7 65.3 60.7 64.4"/>
              <polygon class="st20" points="61.5 64.9 64.6 63.1 64.6 64 61.5 65.8 61.5 64.9"/>
              <polygon class="st16" points="63.8 62.6 64.6 63.1 61.5 64.9 60.7 64.4 63.8 62.6"/>
              <polygon class="st12" points="65.1 62.8 64.9 62.9 64.9 64.5 65.1 64.4 65.1 62.8"/>
              <polygon class="st2" points="63.8 62 63.5 62.1 64.9 62.9 65.1 62.8 63.8 62"/>
            </g>
            <g>
              <polygon class="st3" points="69 66.8 69 65.3 67.6 64.5 67.6 66 69 66.8"/>
              <polygon class="st29" points="64.8 66.7 65.6 67.2 65.6 68.1 64.8 67.6 64.8 66.7"/>
              <polygon class="st20" points="65.6 67.2 68.7 65.4 68.7 66.3 65.6 68.1 65.6 67.2"/>
              <polygon class="st16" points="67.9 65 68.7 65.4 65.6 67.2 64.8 66.7 67.9 65"/>
              <polygon class="st12" points="69.2 65.1 69 65.3 69 66.8 69.2 66.7 69.2 65.1"/>
              <polygon class="st2" points="67.8 64.3 67.6 64.5 69 65.3 69.2 65.1 67.8 64.3"/>
            </g>
          </g>
          <g>
            <g>
              <path class="st0" d="M56.8,49.2h0v5.3l-2.7-1.6v-5.3h0c.6-.8,2.1,0,2.7,1.6Z"/>
              <g>
                <path class="st13" d="M54.4,47.5v5.3l.3.2h0s2.1,1.2,2.1,1.2v-4.9c-.3-.9-1-1.5-1.6-1.8,0,0,0,0,0,0,0,0,0,0,0,0,0,0,0,0,0,0,0,0,0,0,0,0,0,0,0,0,0,0,0,0,0,0,0,0,0,0,0,0,0,0,0,0,0,0,0,0,0,0,0,0,0,0,0,0,0,0,0,0,0,0,0,0,0,0h0s0,0,0,0c0,0,0,0,0,0,0,0,0,0,0,0,0,0,0,0,0,0s0,0,0,0c0,0,0,0,0,0,0,0,0,0,0,0,0,0,0,0,0,0,0,0,0,0,0,0,0,0,0,0,0,0,0,0,0,0,0,0,0,0,0,0,0,0,0,0,0,0,0,0,0,0,0,0,0,0,0,0,0,0,0,.1Z"/>
                <path class="st25" d="M54.6,47.7v4.8l2.2,1.3v-4.6c-.3-.9-1-1.5-1.6-1.8-.3,0-.5,0-.7.3Z"/>
                <path class="st37" d="M54.9,47.5s0,0-.1.1v4.8h-.2c0,.1,0-4.7,0-4.7,0-.1.1-.3.3-.2Z"/>
                <polygon class="st38" points="54.6 52.5 56.8 53.8 56.8 53.6 54.7 52.4 54.6 52.5"/>
                <polygon class="st13" points="54.6 49.2 54.6 49.5 56.8 50.8 56.8 50.5 54.6 49.2"/>
              </g>
              <polygon class="st38" points="54.6 49.2 56.8 50.5 56.8 50.3 54.7 49.1 54.6 49.2"/>
              <polygon class="st23" points="56.8 54.5 54.1 52.9 54.4 52.7 56.8 54.1 56.8 54.5"/>
            </g>
            <polygon class="st6" points="54.2 53.6 57 54.6 57 54.8 57 55.6 54.2 53.9 54.2 53.6"/>
            <g>
              <polygon class="st12" points="56.7 54.9 56.9 54.8 56.9 55.2 56.7 55.3 56.7 54.9"/>
              <polygon class="st3" points="53.8 53.3 56.7 54.9 56.7 55.3 53.8 53.6 53.8 53.3"/>
              <polygon class="st6" points="53.8 53.1 56.7 54.8 56.7 55.1 53.8 53.5 53.8 53.1"/>
              <polygon class="st12" points="56.7 55.1 57 54.9 57 54.6 56.7 54.7 56.7 55.1"/>
              <polygon class="st23" points="53.6 53 53.9 52.8 57 54.6 56.7 54.7 53.6 53"/>
              <polygon class="st3" points="53.6 53.3 56.7 55.1 56.7 54.7 53.6 53 53.6 53.3"/>
            </g>
            <path class="st6" d="M54.4,47.5v5.3l-.3.2h.6v-.4h.3v-2.9h-.2c0-.1,0,2.7,0,2.7h-.2c0,.1,0,.1,0,.1v-3.1h.1c0,0,0-.3,0-.3h.3v-1.3c.2,0,.3,0,.5.1.5.2,1,.7,1.4,1.4h0c-.3-1-1-1.6-1.6-1.9,0,0,0,0,0,0,0,0,0,0,0,0,0,0,0,0,0,0,0,0,0,0,0,0,0,0,0,0,0,0,0,0,0,0,0,0,0,0,0,0,0,0,0,0,0,0,0,0,0,0,0,0,0,0,0,0,0,0,0,0,0,0,0,0,0,0h0s0,0,0,0c0,0,0,0,0,0,0,0,0,0,0,0,0,0,0,0,0,0s0,0,0,0c0,0,0,0,0,0,0,0,0,0,0,0,0,0,0,0,0,0,0,0,0,0,0,0,0,0,0,0,0,0,0,0,0,0,0,0,0,0,0,0,0,0,0,0,0,0,0,0h0s0,0,0,.1ZM54.6,47.7c0-.1.2-.2.3-.2,0,0,0,0-.1.1v1.5h-.2c0,.1,0-1.4,0-1.4Z"/>
          </g>
          <g>
            <g>
              <path class="st46" d="M42.7,47.5h0v5.3l-2.7-1.6v-5.3h0c.6-.8,2.1,0,2.7,1.6Z"/>
              <g>
                <path class="st13" d="M40.3,45.8v5.3l2.4,1.4v-4.9c-.3-.9-1-1.5-1.6-1.8-.2,0-.4-.1-.5-.1s-.2,0-.2,0c0,0,0,0,0,.1Z"/>
                <path class="st25" d="M40.5,46v4.8l2.2,1.3v-4.6c-.3-.9-1-1.5-1.6-1.8-.3,0-.5,0-.7.3Z"/>
                <path class="st37" d="M40.8,45.8s0,0-.1.1v4.8h-.2c0,.1,0-4.7,0-4.7,0-.1.1-.3.3-.2Z"/>
                <polygon class="st38" points="40.5 50.9 42.7 52.2 42.7 52 40.7 50.8 40.5 50.9"/>
                <polygon class="st13" points="40.5 47.6 40.5 47.8 42.7 49.1 42.7 48.8 40.5 47.6"/>
              </g>
              <polygon class="st38" points="40.5 47.6 42.7 48.8 42.7 48.6 40.7 47.4 40.5 47.6"/>
              <polygon class="st23" points="42.7 52.8 40 51.2 40.3 51.1 42.7 52.5 42.7 52.8"/>
            </g>
            <polygon class="st6" points="40.1 51.9 42.9 52.9 42.9 53.1 42.9 53.9 40.1 52.2 40.1 51.9"/>
            <g>
              <polygon class="st12" points="42.6 53.3 42.8 53.2 42.8 53.5 42.6 53.6 42.6 53.3"/>
              <polygon class="st3" points="39.8 51.6 42.6 53.3 42.6 53.6 39.8 52 39.8 51.6"/>
              <polygon class="st6" points="39.8 51.5 42.6 53.1 42.6 53.5 39.8 51.8 39.8 51.5"/>
              <polygon class="st12" points="42.6 53.4 42.9 53.2 42.9 52.9 42.6 53 42.6 53.4"/>
              <polygon class="st23" points="39.6 51.3 39.8 51.1 42.9 52.9 42.6 53 39.6 51.3"/>
              <polygon class="st3" points="39.6 51.6 42.6 53.4 42.6 53 39.6 51.3 39.6 51.6"/>
            </g>
            <path class="st6" d="M40,46v5.3h.6v-.4h.3v-2.9h-.2c0-.1,0,2.7,0,2.7h-.2c0,.1,0,.1,0,.1v-3.1h.1c0,0,0-.3,0-.3h.3v-1.3c.2,0,.3,0,.5.1.5.2,1,.7,1.4,1.4h0c-.3-1-1-1.6-1.6-1.9,0,0-.1,0-.2,0h0s0,0-.1,0c0,0,0,0,0,0,0,0,0,0,0,0,0,0,0,0,0,0,0,0,0,0,0,0,0,0,0,0,0,0,0,0,0,0,0,0s0,0,0,0c0,0,0,0,0,0,0,0,0,0,0,0,0,0,0,0,0,0,0,0,0,0,0,0,0,0,0,0,0,0,0,0,0,0,0,0,0,0,0,0,0,0,0,0,0,0,0,0,0,0,0,0,0,0-.2,0-.3.1-.4.3ZM40.5,46c0-.1.2-.2.3-.2,0,0,0,0-.1.1v1.5h-.2c0,.1,0-1.4,0-1.4Z"/>
          </g>
          <g>
            <g>
              <polygon class="st6" points="62.1 58.1 66.8 60.3 66.9 60.5 66.9 61.3 62.1 58.5 62.1 58.1"/>
              <g>
                <polygon class="st12" points="66.6 60.7 66.8 60.6 66.8 60.9 66.6 61 66.6 60.7"/>
                <polygon class="st3" points="61.7 57.8 66.6 60.7 66.6 61 61.7 58.2 61.7 57.8"/>
                <polygon class="st6" points="61.7 57.7 66.6 60.5 66.6 60.8 61.7 58 61.7 57.7"/>
                <polygon class="st12" points="66.6 60.8 66.8 60.6 66.8 60.3 66.6 60.4 66.6 60.8"/>
                <polygon class="st23" points="61.5 57.5 61.8 57.4 66.8 60.3 66.6 60.4 61.5 57.5"/>
                <polygon class="st3" points="61.5 57.8 66.6 60.8 66.6 60.4 61.5 57.5 61.5 57.8"/>
              </g>
            </g>
            <g>
              <polygon class="st0" points="62 52.2 62 57.5 66.3 60 66.3 55 64.7 54 64.5 53.9 64.2 53.8 62.4 52.8 62.3 52.3 62 52.2"/>
              <polygon class="st23" points="66.6 60.2 62 57.5 62.3 57.3 66.6 59.8 66.6 60.2"/>
              <g>
                <polygon class="st13" points="62.3 52.3 62.3 57.3 66.6 59.8 66.6 54.8 65 53.9 64.8 53.8 64.6 53.6 62.7 52.6 62.5 52.5 62.3 52.3"/>
                <polygon class="st6" points="63.1 52.9 63.1 52.8 64.6 53.6 64.8 53.8 65 53.9 65.1 54 65.1 54.4 63.1 53.3 63.1 52.9"/>
                <g>
                  <g>
                    <polygon class="st25" points="64.8 53.8 64.8 55.6 65 55.8 66.6 56.7 66.6 54.8 65 53.9 64.8 53.8"/>
                    <polygon class="st25" points="64.8 56 64.8 58.5 66.6 59.6 66.6 57.1 65 56.1 64.8 56"/>
                    <polygon class="st38" points="64.8 58.5 66.6 59.6 66.6 59.4 65 58.4 64.8 58.5"/>
                    <polygon class="st6" points="64.8 56 65 56.1 65 56.1 65 56.1 65.2 56.2 66.6 57.1 66.6 57.3 65.2 56.5 65.2 58.5 64.8 58.5 65 58.4 65 56.4 64.8 56.3 64.8 56"/>
                  </g>
                  <g>
                    <polygon class="st25" points="62.5 52.5 62.5 54.4 62.7 54.5 64.6 55.5 64.6 53.6 62.7 52.6 62.5 52.5"/>
                    <polygon class="st25" points="62.5 54.7 62.5 57.2 64.6 58.4 64.6 55.9 62.7 54.8 62.5 54.7"/>
                    <polygon class="st37" points="62.5 52.5 62.5 54.4 62.7 54.5 62.7 52.6 62.5 52.5"/>
                    <polygon class="st37" points="62.7 54.8 62.5 54.7 62.5 57.2 62.7 57.1 62.7 54.8"/>
                    <polygon class="st37" points="64.8 53.8 64.8 55.6 65 55.8 65 53.9 64.8 53.8"/>
                    <polygon class="st37" points="65 56.1 64.8 56 64.8 58.5 65 58.4 65 56.1"/>
                  </g>
                </g>
                <polygon class="st38" points="62.5 57.2 64.6 58.4 64.6 58.2 62.7 57.1 62.5 57.2"/>
                <polygon class="st38" points="62.5 54.4 64.6 55.5 64.6 55.3 62.7 54.2 62.5 54.4"/>
                <polygon class="st38" points="64.8 55.6 65 55.8 66.6 56.7 66.6 56.5 65 55.5 64.8 55.6"/>
              </g>
            </g>
            <polygon class="st6" points="65 53.9 65 53.9 65 53.9 65.1 53.9 66.6 54.8 66.6 55.2 65.2 54.4 65.2 55.6 64.8 55.6 65 55.5 65 54.3 65 53.9"/>
            <path class="st6" d="M62.6,57.5v-.2h.4v-2l1.6.9v-.3l-1.8-1v.3s0,2,0,2h-.2c0,.1,0-2.4,0-2.4h0s0-.3,0-.3h.4v-1.3l1.6.9v-.4l-1.8-1h-.2c0-.1-.2-.3-.2-.3v5l-.3.2h.6ZM62.5,54.4v-1.5h.2c0,.1,0,1.4,0,1.4h-.2Z"/>
          </g>
          <polygon class="st48" points="71.9 55.6 80.3 42.3 80.3 43.1 72.3 55.7 71.9 55.6"/>
          <polygon class="st48" points="88.5 46 80.3 42.3 80.3 43.1 88.2 46.6 88.5 46"/>
          <g>
            <polygon class="st6" points="72.4 44.5 76 43.3 77.7 41 74.6 39.2 70.5 40.6 72.4 44.5"/>
            <polygon class="st44" points="68.2 34.5 72.4 36.9 72.4 44.5 68.2 42.1 68.2 34.5"/>
            <polygon class="st22" points="69.8 33.5 74 36 72.4 36.9 68.2 34.5 69.8 33.5"/>
            <polygon class="st0" points="74 42 72.4 44.5 72.4 36.9 74 36 74 42"/>
          </g>
          <g>
            <polygon class="st42" points="74.1 64.1 74.1 64.9 75.7 63.9 75.7 63.1 74.1 64.1"/>
            <polygon class="st31" points="74 64.1 74.1 64.1 75.7 63.1 75.6 63.1 74 64.1"/>
            <polygon class="st18" points="74 64.8 74 64.1 74.1 64.1 74.1 64.9 74 64.8"/>
          </g>
          <g>
            <polygon class="st42" points="85.5 56.6 85.5 57.4 87.1 56.5 87.1 55.7 85.5 56.6"/>
            <polygon class="st31" points="85.4 56.6 85.5 56.6 87.1 55.7 87 55.7 85.4 56.6"/>
            <polygon class="st18" points="85.4 57.4 85.4 56.6 85.5 56.6 85.5 57.4 85.4 57.4"/>
          </g>
          <g>
            <polygon class="st42" points="84.8 58 84.8 58.8 86.4 57.9 86.4 57.1 84.8 58"/>
            <polygon class="st31" points="84.7 58 84.8 58 86.4 57.1 86.4 57 84.7 58"/>
            <polygon class="st18" points="84.7 58.8 84.7 58 84.8 58 84.8 58.8 84.7 58.8"/>
          </g>
          <g>
            <polygon class="st42" points="81.9 70.6 81.9 71.4 83.5 70.5 83.5 69.7 81.9 70.6"/>
            <polygon class="st31" points="81.8 70.6 81.9 70.6 83.5 69.7 83.5 69.6 81.8 70.6"/>
            <polygon class="st18" points="81.8 71.4 81.8 70.6 81.9 70.6 81.9 71.4 81.8 71.4"/>
          </g>
          <g>
            <polygon class="st42" points="79.9 68.6 79.9 69.4 81.5 68.4 81.5 67.6 79.9 68.6"/>
            <polygon class="st31" points="79.8 68.5 79.9 68.6 81.5 67.6 81.5 67.6 79.8 68.5"/>
            <polygon class="st18" points="79.8 69.3 79.8 68.5 79.9 68.6 79.9 69.4 79.8 69.3"/>
          </g>
          <g>
            <polygon class="st42" points="72.1 76.4 72.1 77.2 73.7 76.3 73.7 75.5 72.1 76.4"/>
            <polygon class="st31" points="72 76.4 72.1 76.4 73.7 75.5 73.7 75.5 72 76.4"/>
            <polygon class="st18" points="72 77.2 72 76.4 72.1 76.4 72.1 77.2 72 77.2"/>
          </g>
          <g>
            <polygon class="st42" points="81.9 47 81.9 47.8 83.6 46.8 83.6 46 81.9 47"/>
            <polygon class="st31" points="81.9 46.9 81.9 47 83.6 46 83.5 46 81.9 46.9"/>
            <polygon class="st18" points="81.9 47.7 81.9 46.9 81.9 47 81.9 47.8 81.9 47.7"/>
          </g>
          <g>
            <polygon class="st42" points="80.8 46.6 80.8 47.4 82.4 46.4 82.4 45.6 80.8 46.6"/>
            <polygon class="st31" points="80.7 46.5 80.8 46.6 82.4 45.6 82.3 45.6 80.7 46.5"/>
            <polygon class="st18" points="80.7 47.3 80.7 46.5 80.8 46.6 80.8 47.4 80.7 47.3"/>
          </g>
          <g>
            <polygon class="st42" points="80 48.1 80 48.9 81.6 48 81.6 47.2 80 48.1"/>
            <polygon class="st31" points="79.9 48.1 80 48.1 81.6 47.2 81.5 47.1 79.9 48.1"/>
            <polygon class="st18" points="79.9 48.9 79.9 48.1 80 48.1 80 48.9 79.9 48.9"/>
          </g>
          <g>
            <polygon class="st44" points="70.2 37.5 70.2 38.3 68.5 37.3 68.5 36.5 70.2 37.5"/>
            <polygon class="st10" points="70.2 37.4 70.3 37.6 70.3 38.5 68.7 37.5 68.6 37.4 70.2 38.3 70.2 38.2 70.2 37.4"/>
            <polygon class="st28" points="70.2 37.4 70.2 37.5 68.5 36.5 68.6 36.5 70.2 37.4"/>
            <polygon class="st30" points="70.2 38.2 70.2 37.4 70.2 37.5 70.2 38.3 70.2 38.2"/>
          </g>
          <g>
            <polygon class="st44" points="71.8 41.7 71.8 42.5 70.2 41.5 70.2 40.7 71.8 41.7"/>
            <polygon class="st10" points="71.9 41.6 72 41.8 72 42.7 70.3 41.7 70.3 41.6 71.8 42.5 71.9 42.4 71.9 41.6"/>
            <polygon class="st28" points="71.9 41.6 71.8 41.7 70.2 40.7 70.3 40.7 71.9 41.6"/>
            <polygon class="st30" points="71.9 42.4 71.9 41.6 71.8 41.7 71.8 42.5 71.9 42.4"/>
          </g>
          <g>
            <polygon class="st44" points="70 60.4 70 61.2 68.3 60.3 68.3 59.5 70 60.4"/>
            <polygon class="st10" points="70 60.4 70.1 60.5 70.1 61.5 68.5 60.5 68.4 60.3 70 61.2 70 61.2 70 60.4"/>
            <polygon class="st28" points="70 60.4 70 60.4 68.3 59.5 68.4 59.5 70 60.4"/>
            <polygon class="st30" points="70 61.2 70 60.4 70 60.4 70 61.2 70 61.2"/>
          </g>
          <g>
            <polygon class="st44" points="64.3 60.8 64.3 61.6 62.6 60.6 62.6 59.9 64.3 60.8"/>
            <polygon class="st10" points="64.3 60.8 64.4 60.9 64.4 61.8 62.8 60.8 62.7 60.7 64.3 61.6 64.3 61.6 64.3 60.8"/>
            <polygon class="st28" points="64.3 60.8 64.3 60.8 62.6 59.9 62.7 59.8 64.3 60.8"/>
            <polygon class="st30" points="64.3 61.6 64.3 60.8 64.3 60.8 64.3 61.6 64.3 61.6"/>
          </g>
          <g>
            <polygon class="st44" points="70.5 77.8 70.5 78.6 68.9 77.7 68.9 76.9 70.5 77.8"/>
            <polygon class="st10" points="70.6 77.8 70.7 77.9 70.7 78.9 69 77.9 68.9 77.7 70.5 78.6 70.6 78.6 70.6 77.8"/>
            <polygon class="st28" points="70.6 77.8 70.5 77.8 68.9 76.9 68.9 76.9 70.6 77.8"/>
            <polygon class="st30" points="70.6 78.6 70.6 77.8 70.5 77.8 70.5 78.6 70.6 78.6"/>
          </g>
          <g>
            <polygon class="st44" points="58.9 49.7 58.9 50.5 57.2 49.6 57.2 48.8 58.9 49.7"/>
            <polygon class="st10" points="58.9 49.7 59 49.8 59 50.8 57.4 49.8 57.3 49.6 58.9 50.5 58.9 50.5 58.9 49.7"/>
            <polygon class="st28" points="58.9 49.7 58.9 49.7 57.2 48.8 57.3 48.8 58.9 49.7"/>
            <polygon class="st30" points="58.9 50.5 58.9 49.7 58.9 49.7 58.9 50.5 58.9 50.5"/>
          </g>
          <g>
            <polygon class="st44" points="59.7 51.4 59.7 52.2 58 51.2 58 50.4 59.7 51.4"/>
            <polygon class="st10" points="59.7 51.3 59.8 51.5 59.8 52.4 58.2 51.4 58.1 51.3 59.7 52.2 59.7 52.1 59.7 51.3"/>
            <polygon class="st28" points="59.7 51.3 59.7 51.4 58 50.4 58.1 50.4 59.7 51.3"/>
            <polygon class="st30" points="59.7 52.1 59.7 51.3 59.7 51.4 59.7 52.2 59.7 52.1"/>
          </g>
          <g>
            <polygon class="st44" points="31.4 34.3 31.4 35.1 29.8 34.1 29.8 33.3 31.4 34.3"/>
            <polygon class="st10" points="31.5 34.3 31.6 34.4 31.6 35.3 29.9 34.3 29.8 34.2 31.4 35.1 31.5 35 31.5 34.3"/>
            <polygon class="st28" points="31.5 34.3 31.4 34.3 29.8 33.3 29.8 33.3 31.5 34.3"/>
            <polygon class="st30" points="31.5 35 31.5 34.3 31.4 34.3 31.4 35.1 31.5 35"/>
          </g>
          <g>
            <polygon class="st44" points="24.8 37.8 24.8 38.6 23.2 37.7 23.2 36.9 24.8 37.8"/>
            <polygon class="st10" points="24.9 37.8 25 37.9 25 38.8 23.3 37.8 23.3 37.7 24.8 38.6 24.9 38.6 24.9 37.8"/>
            <polygon class="st28" points="24.9 37.8 24.8 37.8 23.2 36.9 23.3 36.8 24.9 37.8"/>
            <polygon class="st30" points="24.9 38.6 24.9 37.8 24.8 37.8 24.8 38.6 24.9 38.6"/>
          </g>
          <g>
            <polygon class="st44" points="25 49.5 25 50.3 23.4 49.3 23.4 48.5 25 49.5"/>
            <polygon class="st10" points="25.1 49.4 25.2 49.6 25.2 50.5 23.5 49.5 23.4 49.3 25 50.3 25.1 50.2 25.1 49.4"/>
            <polygon class="st28" points="25.1 49.4 25 49.5 23.4 48.5 23.4 48.5 25.1 49.4"/>
            <polygon class="st30" points="25.1 50.2 25.1 49.4 25 49.5 25 50.3 25.1 50.2"/>
          </g>
          <g>
            <polygon class="st44" points="25.8 51.1 25.8 51.9 24.2 51 24.2 50.2 25.8 51.1"/>
            <polygon class="st10" points="25.9 51.1 26 51.2 26 52.1 24.3 51.2 24.2 51 25.8 51.9 25.9 51.9 25.9 51.1"/>
            <polygon class="st28" points="25.9 51.1 25.8 51.1 24.2 50.2 24.2 50.1 25.9 51.1"/>
            <polygon class="st30" points="25.9 51.9 25.9 51.1 25.8 51.1 25.8 51.9 25.9 51.9"/>
          </g>
          <g>
            <polygon class="st44" points="33.7 43.3 33.7 44.1 32.1 43.1 32.1 42.3 33.7 43.3"/>
            <polygon class="st10" points="33.8 43.2 33.9 43.4 33.9 44.3 32.3 43.3 32.2 43.2 33.7 44.1 33.8 44 33.8 43.2"/>
            <polygon class="st28" points="33.8 43.2 33.7 43.3 32.1 42.3 32.2 42.3 33.8 43.2"/>
            <polygon class="st30" points="33.8 44 33.8 43.2 33.7 43.3 33.7 44.1 33.8 44"/>
          </g>
          <g>
            <polygon class="st44" points="30.5 32.7 30.5 33.5 28.9 32.5 28.9 31.7 30.5 32.7"/>
            <polygon class="st10" points="30.6 32.6 30.7 32.8 30.7 33.7 29 32.7 28.9 32.6 30.5 33.5 30.6 33.4 30.6 32.6"/>
            <polygon class="st28" points="30.6 32.6 30.5 32.7 28.9 31.7 28.9 31.7 30.6 32.6"/>
            <polygon class="st30" points="30.6 33.4 30.6 32.6 30.5 32.7 30.5 33.5 30.6 33.4"/>
          </g>
          <g>
            <polygon class="st39" points="37.8 56.8 37.8 57.6 36.2 56.6 36.2 55.8 37.8 56.8"/>
            <polygon class="st5" points="37.9 56.7 38 56.9 38 57.8 36.3 56.8 36.2 56.7 37.8 57.6 37.9 57.5 37.9 56.7"/>
            <polygon class="st11" points="37.9 56.7 37.8 56.8 36.2 55.8 36.2 55.8 37.9 56.7"/>
            <polygon class="st17" points="37.9 57.5 37.9 56.7 37.8 56.8 37.8 57.6 37.9 57.5"/>
          </g>
          <g>
            <polygon class="st39" points="38.7 55.6 38.7 56.4 37.1 55.4 37.1 54.6 38.7 55.6"/>
            <polygon class="st5" points="38.8 55.5 38.9 55.7 38.9 56.6 37.2 55.6 37.1 55.5 38.7 56.4 38.8 56.3 38.8 55.5"/>
            <polygon class="st11" points="38.8 55.5 38.7 55.6 37.1 54.6 37.1 54.6 38.8 55.5"/>
            <polygon class="st17" points="38.8 56.3 38.8 55.5 38.7 55.6 38.7 56.4 38.8 56.3"/>
          </g>
          <g>
            <polygon class="st39" points="46.6 70.5 46.6 71.3 45 70.3 45 69.5 46.6 70.5"/>
            <polygon class="st5" points="46.7 70.4 46.8 70.6 46.8 71.5 45.1 70.5 45 70.4 46.6 71.3 46.7 71.2 46.7 70.4"/>
            <polygon class="st11" points="46.7 70.4 46.6 70.5 45 69.5 45 69.5 46.7 70.4"/>
            <polygon class="st17" points="46.7 71.2 46.7 70.4 46.6 70.5 46.6 71.3 46.7 71.2"/>
          </g>
          <g>
            <polygon class="st39" points="43.6 55.4 43.6 56.2 42 55.2 42 54.5 43.6 55.4"/>
            <polygon class="st5" points="43.7 55.4 43.8 55.5 43.8 56.4 42.1 55.4 42 55.3 43.6 56.2 43.7 56.2 43.7 55.4"/>
            <polygon class="st11" points="43.7 55.4 43.6 55.4 42 54.5 42 54.4 43.7 55.4"/>
            <polygon class="st17" points="43.7 56.2 43.7 55.4 43.6 55.4 43.6 56.2 43.7 56.2"/>
          </g>
          <g>
            <polygon class="st39" points="39.1 40.4 39.1 41.2 37.5 40.2 37.5 39.4 39.1 40.4"/>
            <polygon class="st5" points="39.2 40.4 39.3 40.5 39.3 41.4 37.6 40.4 37.6 40.3 39.1 41.2 39.2 41.1 39.2 40.4"/>
            <polygon class="st11" points="39.2 40.4 39.1 40.4 37.5 39.4 37.6 39.4 39.2 40.4"/>
            <polygon class="st17" points="39.2 41.1 39.2 40.4 39.1 40.4 39.1 41.2 39.2 41.1"/>
          </g>
          <g>
            <polygon class="st39" points="44.9 45.7 44.9 46.5 43.2 45.5 43.2 44.7 44.9 45.7"/>
            <polygon class="st5" points="44.9 45.6 45.1 45.8 45.1 46.7 43.4 45.7 43.3 45.6 44.9 46.5 44.9 46.4 44.9 45.6"/>
            <polygon class="st11" points="44.9 45.6 44.9 45.7 43.2 44.7 43.3 44.7 44.9 45.6"/>
            <polygon class="st17" points="44.9 46.4 44.9 45.6 44.9 45.7 44.9 46.5 44.9 46.4"/>
          </g>
          <g>
            <polygon class="st1" points="48.7 60.1 48.7 60.9 50.3 59.9 50.3 59.1 48.7 60.1"/>
            <polygon class="st32" points="48.6 60 48.7 60.1 50.3 59.1 50.2 59.1 48.6 60"/>
            <polygon class="st36" points="48.6 60.8 48.6 60 48.7 60.1 48.7 60.9 48.6 60.8"/>
          </g>
          <g>
            <polygon class="st1" points="48.7 47.6 48.7 48.4 50.3 47.4 50.3 46.6 48.7 47.6"/>
            <polygon class="st32" points="48.6 47.5 48.7 47.6 50.3 46.6 50.3 46.6 48.6 47.5"/>
            <polygon class="st36" points="48.6 48.3 48.6 47.5 48.7 47.6 48.7 48.4 48.6 48.3"/>
          </g>
          <g>
            <polygon class="st1" points="46.3 52.9 46.3 53.7 48 52.8 48 52 46.3 52.9"/>
            <polygon class="st32" points="46.3 52.9 46.3 52.9 48 52 47.9 51.9 46.3 52.9"/>
            <polygon class="st36" points="46.3 53.7 46.3 52.9 46.3 52.9 46.3 53.7 46.3 53.7"/>
          </g>
          <g>
            <polygon class="st1" points="50.7 65.1 50.7 65.9 52.3 65 52.3 64.2 50.7 65.1"/>
            <polygon class="st32" points="50.6 65.1 50.7 65.1 52.3 64.2 52.2 64.1 50.6 65.1"/>
            <polygon class="st36" points="50.6 65.9 50.6 65.1 50.7 65.1 50.7 65.9 50.6 65.9"/>
          </g>
          <g>
            <polygon class="st1" points="49.8 66.6 49.8 67.4 51.5 66.5 51.5 65.7 49.8 66.6"/>
            <polygon class="st32" points="49.8 66.6 49.8 66.6 51.5 65.7 51.4 65.6 49.8 66.6"/>
            <polygon class="st36" points="49.8 67.4 49.8 66.6 49.8 66.6 49.8 67.4 49.8 67.4"/>
          </g>
        </g>
        <g>
          <polygon class="st8" points="13.4 63.4 16.5 63.4 21 60.8 24.5 60.8 29 63.3 24.4 66 20.9 66 17.5 64 13.4 64 13.4 63.4"/>
          <g>
            <g>
              <path class="st47" d="M10.5,53.4c.1,0,.2,0,.3,0,.5,0,.1-.9,0-1.1,0-.2,0-.5-.2-.7,0-.3-.2-.6-.3-.9,0,0,0,0,0,0,0,0,0,0,0,0,0,0,0,0,0,0,0,.1,0,.2.1.3,0,.1.1.3.2.4.1.3.2.6.3.9.2.8.7,1.6,1.1,2.3.1.2.2.4.3.5.1.3.4.6.4.9,0,.2,0,.5,0,.7,0,.2,0,.3,0,.5,0,.5,0,5.9-.1,5.7-.1-.5-.1-6.2-.3-6.7-.2-.5-.3-1-.7-1.4-.2-.2-.4-.5-.6-.7-.3-.3-.7-.4-1-.5-.3-.2-.6-.5-.8-.8-.5-.6-.8-1.3-1.1-2-.1-.3-.3-.7-.2-1,.3.5.5,1,.7,1.5.2.5.4,1,.8,1.4.2.2.5.6.9.7Z"/>
              <path class="st47" d="M12.8,62.8s0,0,0,0c0-.2,0-5.4,0-5.6,0-.2,0-.5,0-.7,0-.3-.3-.7-.4-.9,0-.2-.2-.4-.3-.5-.4-.7-.9-1.5-1.1-2.3,0-.3-.2-.6-.3-.9,0,0,0-.2-.1-.3,0-.3-.2-.5-.2-.8,0,0,0,0,0,0,0,0,0,0,0,0,0,0,0,0,0,0,0,.1,0,.2.1.3,0,.1.1.3.2.4.1.3.2.6.3.9.2.8.7,1.6,1.1,2.3.1.2.2.4.3.5.1.3.4.6.4.9,0,.2,0,.5,0,.7,0,.2,0,.3,0,.5,0,.5,0,5.9-.1,5.7,0,0,0,0,0-.1Z"/>
              <path class="st35" d="M15.9,52.7c-.2,0-.3.1-.4,0-.1-.1-.1-.3,0-.4,0-.1,0-.2,0-.4.1-.5.2-1,.3-1.5.1-.7.3-1.4.3-2,0,0,0,0,0,0-.2.5-.3,1.1-.4,1.6,0,.3-.1.6-.2,1,0,.1,0,.3-.1.5,0,.1,0,.3-.1.4,0,.3-.2.5-.3.8-.1.3-.3.5-.4.8-.2.4-.4.7-.6,1-.2.3-.4.6-.5.9,0,.2,0,.5,0,.7,0,.2,0,.3,0,.5,0,.5-.2,6-.3,6.5,0-.3.2-5.6.3-5.9.1-.5.3-1.1.5-1.6.2-.5.4-.9.7-1.4.2-.2.4-.5.6-.7.2-.2.5-.2.7-.4.2-.1.4-.3.6-.5.5-.5.9-1.1,1-1.8,0,.1-.2.4-.3.5-.2.2-.3.4-.5.7-.1.2-.4.6-.8.8Z"/>
              <g>
                <path class="st35" d="M15.7,50.2c0,.3-.1.6-.2,1,0,.2,0,.3-.1.5,0,.1,0,.3-.1.4,0,.3-.2.5-.3.8-.1.3-.3.5-.4.8-.2.4-.4.7-.6,1-.2.3-.4.6-.5.9,0,.2,0,.5,0,.7,0,0,0,.1,0,.2,0,.2-.1.5-.2.7,0,.3-.2,5.6-.3,5.9.1-.4.3-6,.3-6.5,0-.2,0-.3,0-.5,0-.2,0-.5,0-.7,0-.3.3-.7.5-.9.2-.3.4-.6.6-1,.1-.3.3-.5.4-.8.1-.3.2-.5.3-.8,0-.1,0-.3.1-.4,0-.1,0-.3.1-.5.1-.3.2-.6.2-1,.1-.5.2-1.1.4-1.6,0,0,0,0,0,0,0,.2,0,.4,0,.5-.1.4-.2.9-.3,1.4Z"/>
                <path class="st24" d="M16.8,52.1c0,0-.1.2-.2.3,0,0,0,0,0,.1,0,0-.1.1-.2.2,0,0-.2.2-.3.2-.2,0-.3.1-.4,0,0,0,0-.2-.1-.3h0c.1.1.3,0,.4,0,.3-.2.6-.7.8-.8.2-.2.3-.4.5-.7,0-.1.3-.3.3-.5,0,.3-.1.6-.3.9-.1.2-.3.4-.4.5Z"/>
              </g>
              <path class="st27" d="M12.4,63.6s0,0,0,0c0,0,0,0,0,0,0,0,0,0,0,0,.1.2.4.3.8.3.4,0,.6-.2.7-.3h0s0,0,0,0h0c0,0,0-.1,0-.1,0,0,0,0,0-.1,0,0,0,0,0,0-.1-.3-.1-7.8-.2-9.5,0-.1,0-.3,0-.4,0-.4,0-.7,0-1.1,0-.4,0-.8,0-1.2,0,0,0-.1,0-.2,0-.1,0-.2,0-.3,0,0,0-.2,0-.3,0,0,0-.2,0-.3,0,0,0-.2,0-.3,0,0,0-.2,0-.3h0c0-.2,0-.3-.1-.5,0,0,0-.1,0-.1,0,0,0,0,0,0,0,0,0,0,0,0,0,0,0,0,0,0,0,0,0,0,0,.1,0,1.4-.1,2.8-.2,4.1,0,.9,0,1.8,0,2.6,0,.5,0,1,0,1.5,0,.7,0,5,0,5.4,0,0,0,0,0,0,0,0,0,0,0,0h0c0,0,0,.1,0,.2,0,0,0,0,0,.1,0,0,0,.2,0,.2,0,0,0,0,0,0,0,0,0,0,0,0,0,0,0,0,0,0,0,0,0,0,0,0,0,0,0,0,0,0,0,0,0,0,0,0,0,0,0,0,0,0Z"/>
              <path class="st35" d="M13.1,48.9s0,0,0,0c.1.5.2.9.2,1.4.1,1.1.1,2.3.1,3.4,0,1.7,0,9.2.2,9.5,0,.2.2.3.3.4,0,0,0,0,0,0h0c0,0,0-.1,0-.1,0,0,0,0,0-.1,0,0,0,0,0,0-.1-.3-.1-7.8-.2-9.5,0-.1,0-.3,0-.4,0-.4,0-.7,0-1.1,0-.4,0-.8,0-1.2,0,0,0-.1,0-.2,0-.1,0-.2,0-.3,0,0,0-.2,0-.3,0,0,0-.2,0-.3,0,0,0-.2,0-.3,0,0,0-.2,0-.3h0c0-.2,0-.3-.1-.5,0,0,0-.1,0-.1,0,0,0,0,0,0,0,0,0,0,0,0h0s0,0,0,0c0,0,0,0,0,0,0,0,0,0,0,0h0s0,0,0,0Z"/>
              <path class="st27" d="M12.4,63.6s0,0,0,0c0,0,0,0,0,0,0,0,0,0,0,0h0s0,0,.1,0c0,0,0,0,.1,0,0,0,.1,0,.2-.1.2-.2.2-.5.2-.8,0-.3,0-6.4,0-6.9,0-.9,0-1.8,0-2.6,0-1,0-1.9.1-2.9,0-.3,0-.6,0-.9h0c0-.2,0-.3-.1-.5,0,0,0-.1,0-.1,0,0,0,0,0,0,0,0,0,0,0,0,0,0,0,0,0,0,0,0,0,0,0,.1,0,1.4-.1,2.8-.2,4.1,0,.9,0,1.8,0,2.6,0,.5,0,6.6,0,6.9,0,0,0,0,0,0,0,0,0,0,0,0h0c0,0,0,.1,0,.2,0,0,0,0,0,.1,0,0,0,.2,0,.2,0,0,0,0,0,0,0,0,0,0,0,0,0,0,0,0,0,0,0,0,0,0,0,0,0,0,0,0,0,0,0,0,0,0,0,0,0,0,0,0,0,0Z"/>
            </g>
            <g>
              <polygon class="st50" points="12.8 54.5 18.1 51.4 18.1 43.6 12.8 46.7 12.8 54.5"/>
              <polygon class="st33" points="12.8 46.7 18.1 43.6 12.4 40.3 7 43.3 12.8 46.7"/>
              <polygon class="st15" points="12.8 54.5 7 51.2 7 43.3 12.8 46.7 12.8 54.5"/>
            </g>
            <g>
              <polygon class="st50" points="11.9 45.8 16.5 43.1 16.5 39.3 11.9 42 11.9 45.8"/>
              <polygon class="st33" points="11.9 42 16.5 39.3 12 36.7 7.4 39.4 11.9 42"/>
              <polygon class="st15" points="11.9 45.8 7.4 43.2 7.4 39.4 11.9 42 11.9 45.8"/>
            </g>
            <g>
              <polygon class="st50" points="11.2 52.3 12.6 51.5 12.6 47.7 11.2 48.5 11.2 52.3"/>
              <polygon class="st33" points="11.2 48.5 12.6 47.7 8.2 45.1 6.7 45.9 11.2 48.5"/>
              <polygon class="st15" points="11.2 52.3 6.7 49.7 6.7 45.9 11.2 48.5 11.2 52.3"/>
            </g>
          </g>
        </g>
        <g>
          <polygon class="st8" points="81.1 81.9 84.3 81.9 88.8 79.3 92.3 79.3 96.7 81.9 92.2 84.5 88.7 84.5 85.2 82.5 81.1 82.5 81.1 81.9"/>
          <g>
            <g>
              <path class="st47" d="M78.2,71.9c.1,0,.2,0,.3,0,.5,0,.1-.9,0-1.1,0-.2,0-.5-.2-.7,0-.3-.2-.6-.3-.9,0,0,0,0,0,0,0,0,0,0,0,0,0,0,0,0,0,0,0,.1,0,.2.1.3,0,.1.1.3.2.4.1.3.2.6.3.9.2.8.7,1.6,1.1,2.3.1.2.2.4.3.5.1.3.4.6.4.9,0,.2,0,.5,0,.7,0,.2,0,.3,0,.5,0,.5,0,5.9-.1,5.7-.1-.5-.1-6.2-.3-6.7-.2-.5-.3-1-.7-1.4-.2-.2-.4-.5-.6-.7-.3-.3-.7-.4-1-.5-.3-.2-.6-.5-.8-.8-.5-.6-.8-1.3-1.1-2-.1-.3-.3-.7-.2-1,.3.5.5,1,.7,1.5.2.5.4,1,.8,1.4.2.2.5.6.9.7Z"/>
              <path class="st47" d="M80.5,81.3s0,0,0,0c0-.2,0-5.4,0-5.6,0-.2,0-.5,0-.7,0-.3-.3-.7-.4-.9,0-.2-.2-.4-.3-.5-.4-.7-.9-1.5-1.1-2.3,0-.3-.2-.6-.3-.9,0,0,0-.2-.1-.3,0-.3-.2-.5-.2-.8,0,0,0,0,0,0,0,0,0,0,0,0,0,0,0,0,0,0,0,.1,0,.2.1.3,0,.1.1.3.2.4.1.3.2.6.3.9.2.8.7,1.6,1.1,2.3.1.2.2.4.3.5.1.3.4.6.4.9,0,.2,0,.5,0,.7,0,.2,0,.3,0,.5,0,.5,0,5.9-.1,5.7,0,0,0,0,0-.1Z"/>
              <path class="st35" d="M83.7,71.2c-.2,0-.3.1-.4,0-.1-.1-.1-.3,0-.4,0-.1,0-.2,0-.4.1-.5.2-1,.3-1.5.1-.7.3-1.4.3-2,0,0,0,0,0,0-.2.5-.3,1.1-.4,1.6,0,.3-.1.6-.2,1,0,.1,0,.3-.1.5,0,.1,0,.3-.1.4,0,.3-.2.5-.3.8-.1.3-.3.5-.4.8-.2.4-.4.7-.6,1-.2.3-.4.6-.5.9,0,.2,0,.5,0,.7,0,.2,0,.3,0,.5,0,.5-.2,6-.3,6.5,0-.3.2-5.6.3-5.9.1-.5.3-1.1.5-1.6.2-.5.4-.9.7-1.4.2-.2.4-.5.6-.7.2-.2.5-.2.7-.4.2-.1.4-.3.6-.5.5-.5.9-1.1,1-1.8,0,.1-.2.4-.3.5-.2.2-.3.4-.5.7-.1.2-.4.6-.8.8Z"/>
              <g>
                <path class="st35" d="M83.5,68.8c0,.3-.1.6-.2,1,0,.2,0,.3-.1.5,0,.1,0,.3-.1.4,0,.3-.2.5-.3.8-.1.3-.3.5-.4.8-.2.4-.4.7-.6,1-.2.3-.4.6-.5.9,0,.2,0,.5,0,.7,0,0,0,.1,0,.2,0,.2-.1.5-.2.7,0,.3-.2,5.6-.3,5.9.1-.4.3-6,.3-6.5,0-.2,0-.3,0-.5,0-.2,0-.5,0-.7,0-.3.3-.7.5-.9.2-.3.4-.6.6-1,.1-.3.3-.5.4-.8.1-.3.2-.5.3-.8,0-.1,0-.3.1-.4,0-.1,0-.3.1-.5.1-.3.2-.6.2-1,.1-.5.2-1.1.4-1.6,0,0,0,0,0,0,0,.2,0,.4,0,.5-.1.4-.2.9-.3,1.4Z"/>
                <path class="st24" d="M84.5,70.6c0,0-.1.2-.2.3,0,0,0,0,0,.1,0,0-.1.1-.2.2,0,0-.2.2-.3.2-.2,0-.3.1-.4,0,0,0,0-.2-.1-.3h0c.1.1.3,0,.4,0,.3-.2.6-.7.8-.8.2-.2.3-.4.5-.7,0-.1.3-.3.3-.5,0,.3-.1.6-.3.9-.1.2-.3.4-.4.5Z"/>
              </g>
              <path class="st27" d="M80.2,82.1s0,0,0,0c0,0,0,0,0,0,0,0,0,0,0,0,.1.2.4.3.8.3.4,0,.6-.2.7-.3h0s0,0,0,0h0c0,0,0-.1,0-.1,0,0,0,0,0-.1,0,0,0,0,0,0-.1-.3-.1-7.8-.2-9.5,0-.1,0-.3,0-.4,0-.4,0-.7,0-1.1,0-.4,0-.8,0-1.2,0,0,0-.1,0-.2,0-.1,0-.2,0-.3,0,0,0-.2,0-.3,0,0,0-.2,0-.3,0,0,0-.2,0-.3,0,0,0-.2,0-.3h0c0-.2,0-.3-.1-.5,0,0,0-.1,0-.1,0,0,0,0,0,0,0,0,0,0,0,0,0,0,0,0,0,0,0,0,0,0,0,.1,0,1.4-.1,2.8-.2,4.1,0,.9,0,1.8,0,2.6,0,.5,0,1,0,1.5,0,.7,0,5,0,5.4,0,0,0,0,0,0,0,0,0,0,0,0h0c0,0,0,.1,0,.2,0,0,0,0,0,.1,0,0,0,.2,0,.2,0,0,0,0,0,0,0,0,0,0,0,0,0,0,0,0,0,0,0,0,0,0,0,0,0,0,0,0,0,0,0,0,0,0,0,0,0,0,0,0,0,0Z"/>
              <path class="st35" d="M80.8,67.5s0,0,0,0c.1.5.2.9.2,1.4.1,1.1.1,2.3.1,3.4,0,1.7,0,9.2.2,9.5,0,.2.2.3.3.4,0,0,0,0,0,0h0c0,0,0-.1,0-.1,0,0,0,0,0-.1,0,0,0,0,0,0-.1-.3-.1-7.8-.2-9.5,0-.1,0-.3,0-.4,0-.4,0-.7,0-1.1,0-.4,0-.8,0-1.2,0,0,0-.1,0-.2,0-.1,0-.2,0-.3,0,0,0-.2,0-.3,0,0,0-.2,0-.3,0,0,0-.2,0-.3,0,0,0-.2,0-.3h0c0-.2,0-.3-.1-.5,0,0,0-.1,0-.1,0,0,0,0,0,0,0,0,0,0,0,0h0s0,0,0,0c0,0,0,0,0,0,0,0,0,0,0,0h0s0,0,0,0Z"/>
              <path class="st27" d="M80.2,82.1s0,0,0,0c0,0,0,0,0,0,0,0,0,0,0,0h0s0,0,.1,0c0,0,0,0,.1,0,0,0,.1,0,.2-.1.2-.2.2-.5.2-.8,0-.3,0-6.4,0-6.9,0-.9,0-1.8,0-2.6,0-1,0-1.9.1-2.9,0-.3,0-.6,0-.9h0c0-.2,0-.3-.1-.5,0,0,0-.1,0-.1,0,0,0,0,0,0,0,0,0,0,0,0,0,0,0,0,0,0,0,0,0,0,0,.1,0,1.4-.1,2.8-.2,4.1,0,.9,0,1.8,0,2.6,0,.5,0,6.6,0,6.9,0,0,0,0,0,0,0,0,0,0,0,0h0c0,0,0,.1,0,.2,0,0,0,0,0,.1,0,0,0,.2,0,.2,0,0,0,0,0,0,0,0,0,0,0,0,0,0,0,0,0,0,0,0,0,0,0,0,0,0,0,0,0,0,0,0,0,0,0,0,0,0,0,0,0,0Z"/>
            </g>
            <g>
              <polygon class="st50" points="80.6 73 85.9 70 85.9 62.1 80.6 65.2 80.6 73"/>
              <polygon class="st33" points="80.6 65.2 85.9 62.1 80.1 58.8 74.8 61.9 80.6 65.2"/>
              <polygon class="st15" points="80.6 73 74.8 69.7 74.8 61.9 80.6 65.2 80.6 73"/>
            </g>
            <g>
              <polygon class="st50" points="79.6 64.3 84.2 61.6 84.2 57.8 79.6 60.5 79.6 64.3"/>
              <polygon class="st33" points="79.6 60.5 84.2 57.8 79.7 55.2 75.1 57.9 79.6 60.5"/>
              <polygon class="st15" points="79.6 64.3 75.1 61.7 75.1 57.9 79.6 60.5 79.6 64.3"/>
            </g>
            <g>
              <polygon class="st50" points="79 70.8 80.4 70 80.4 66.2 79 67 79 70.8"/>
              <polygon class="st33" points="79 67 80.4 66.2 75.9 63.6 74.5 64.4 79 67"/>
              <polygon class="st15" points="79 70.8 74.5 68.2 74.5 64.4 79 67 79 70.8"/>
            </g>
          </g>
        </g>
        <g>
          <polygon class="st9" points="45.8 77.7 48.2 76.5 45.9 75 44.4 74.9 43.3 77.6 45.8 77.7"/>
          <polygon class="st50" points="43.3 77.6 45.7 76.3 45.7 73.2 43.3 74.4 43.3 77.6"/>
          <polygon class="st33" points="43.3 74.4 45.7 73.2 42.5 71.3 40.1 72.5 43.3 74.4"/>
          <polygon class="st15" points="43.3 77.6 40.1 75.7 40.1 72.5 43.3 74.4 43.3 77.6"/>
        </g>
        <g>
          <polygon class="st9" points="34.3 70.8 36.6 69.5 34.3 68.1 32.9 68 31.8 70.7 34.3 70.8"/>
          <polygon class="st50" points="31.8 70.7 34.2 69.4 34.2 66.2 31.8 67.5 31.8 70.7"/>
          <polygon class="st33" points="31.8 67.5 34.2 66.2 31 64.4 28.6 65.6 31.8 67.5"/>
          <polygon class="st15" points="31.8 70.7 28.6 68.8 28.6 65.6 31.8 67.5 31.8 70.7"/>
        </g>
        <g>
          <polygon class="st9" points="41.9 79.9 44.3 78.6 42 77.2 40.6 77.1 39.5 79.8 41.9 79.9"/>
          <polygon class="st50" points="39.5 79.8 41.9 78.5 41.9 75.3 39.5 76.6 39.5 79.8"/>
          <polygon class="st33" points="39.5 76.6 41.9 75.3 38.7 73.5 36.3 74.7 39.5 76.6"/>
          <polygon class="st15" points="39.5 79.8 36.3 77.9 36.3 74.7 39.5 76.6 39.5 79.8"/>
        </g>
        <g>
          <polygon class="st9" points="30.4 73 32.8 71.7 30.4 70.2 29 70.2 27.9 72.8 30.4 73"/>
          <polygon class="st50" points="27.9 72.8 30.3 71.6 30.3 68.4 27.9 69.6 27.9 72.8"/>
          <polygon class="st33" points="27.9 69.6 30.3 68.4 27.1 66.5 24.7 67.8 27.9 69.6"/>
          <polygon class="st15" points="27.9 72.8 24.7 71 24.7 67.8 27.9 69.6 27.9 72.8"/>
        </g>
      </g>
    </g>
  </g>
</svg>