<?xml version="1.0" encoding="UTF-8"?><svg xmlns="http://www.w3.org/2000/svg" xmlns:xlink="http://www.w3.org/1999/xlink" viewBox="0 0 737.16 597.54"><defs><style>.cls-1{fill:#43596d;}.cls-2{isolation:isolate;}.cls-10,.cls-13,.cls-21,.cls-3{fill:#242b52;}.cls-24,.cls-3,.cls-5{opacity:0.2;}.cls-10,.cls-13,.cls-3,.cls-5{mix-blend-mode:multiply;}.cls-4{clip-path:url(#clip-path);}.cls-5{fill:#2f1d00;}.cls-6{fill:#ffde96;opacity:0.13;}.cls-7{fill:#007874;}.cls-8{fill:#f1f3be;opacity:0.3;}.cls-9{fill:#005a56;opacity:0.71;}.cls-10{opacity:0.1;}.cls-11{fill:#00c48b;}.cls-12{opacity:0.5;}.cls-13{opacity:0.15;}.cls-14{fill:#b4bdc5;}.cls-15{fill:#e6e7e8;}.cls-16{fill:#9fa8b6;}.cls-17{fill:#dcdddf;}.cls-18,.cls-24{fill:#fff;}.cls-19{fill:#566575;}.cls-20{fill:#00123e;}.cls-22{fill:#7d8191;}.cls-23{fill:#001230;}.cls-25{fill:#404079;}.cls-26{fill:#303a66;}.cls-27{fill:#e9e9ea;}.cls-28{fill:#d0d2d3;}.cls-29{opacity:0.82;}.cls-30{clip-path:url(#clip-path-2);}.cls-31{fill:#87ad54;}</style><clipPath id="clip-path"><path class="cls-1" d="M55.86,441.93a65.87,65.87,0,0,1,.11-7.05c-6.5-2.23-10.27-20.23-10.27-20.23,4.9,10.52,8.83,15.91,10.85,16.48.23-2.27.52-7.64.64-9.89a50,50,0,0,1,.51-5.45c.41-2.46-.83-13.51.26-14.55,0,0,2,16.17,2.9,14.37,2.69-5.61,4.15-6.47,7.33-11.23.4-.59-7.34,15.78-7.25,16.71.32,3.69.73,9,1.26,16.79a62.07,62.07,0,0,0,8.14-5.71c-1.4-4.79,3.11-14.18,3.11-14.18-.14,5.06-2.08,11.8-1.17,12.42,2-2.35,11.93-9.78,14.28-12.84,0,0-13.91,18.25-24,25.29.47,5.93.65,15.68.89,17.58.52,3.95,1.3,8.52,2.1,12,.61.71-3.21,3-6.73,2.41-3.25-.57-5.6-.92-5-2.41.2-1.72.63-3.35.67-5.19.08-3.64.18-16.48.6-19-14.67-7.3-27-24.88-27-24.88C38.59,433.64,51.47,441.58,55.86,441.93Z"/></clipPath><clipPath id="clip-path-2"><path class="cls-1" d="M87.46,534c-.38,2.75-.45,4.8-5.45,5-5.88.28-16.8-1.75-17.15-5,0,0,.56-23.74,7.35-40.13S78.4,444.71,79,438.49s3.4-9.33,3.4-9.33l5.08,4.47s1.14,29.15,0,39.89-3.67,21.59-4.52,33.54C82.23,517,87.46,534,87.46,534Z"/></clipPath></defs><g class="cls-2"><g id="Layer_2" data-name="Layer 2"><g id="_ÎÓÈ_1" data-name="—ÎÓÈ_1"><path class="cls-3" d="M86.53,473.39c0,4.31-10.62,7.81-23.71,7.81s-23.7-3.5-23.7-7.81,10.61-7.8,23.7-7.8S86.53,469.08,86.53,473.39Z"/><path class="cls-3" d="M76.06,473.8c0,2.87-8,5.2-17.78,5.2s-17.78-2.33-17.78-5.2,8-5.2,17.78-5.2S76.06,470.93,76.06,473.8Z"/><path class="cls-1" d="M55.86,441.93a65.87,65.87,0,0,1,.11-7.05c-6.5-2.23-10.27-20.23-10.27-20.23,4.9,10.52,8.83,15.91,10.85,16.48.23-2.27.52-7.64.64-9.89a50,50,0,0,1,.51-5.45c.41-2.46-.83-13.51.26-14.55,0,0,2,16.17,2.9,14.37,2.69-5.61,4.15-6.47,7.33-11.23.4-.59-7.34,15.78-7.25,16.71.32,3.69.73,9,1.26,16.79a62.07,62.07,0,0,0,8.14-5.71c-1.4-4.79,3.11-14.18,3.11-14.18-.14,5.06-2.08,11.8-1.17,12.42,2-2.35,11.93-9.78,14.28-12.84,0,0-13.91,18.25-24,25.29.47,5.93.65,15.68.89,17.58.52,3.95,1.3,8.52,2.1,12,.61.71-3.21,3-6.73,2.41-3.25-.57-5.6-.92-5-2.41.2-1.72.63-3.35.67-5.19.08-3.64.18-16.48.6-19-14.67-7.3-27-24.88-27-24.88C38.59,433.64,51.47,441.58,55.86,441.93Z"/><g class="cls-4"><path class="cls-5" d="M62.56,442.86S61,446.34,61,448.35s-.5,15.54,0,16.79,1.57,13.53,1.57,13.53.77-15,.89-18.23C63.54,458.13,62.56,442.86,62.56,442.86Z"/><path class="cls-6" d="M57.3,477.92s1.18-7.77.68-12.28-1.5-5.26-.75-11.53,1.75-12.28,1.5-15.54-.25-11.27-.25-11.27L56,434.88s.51-1.82-1.75-3.07-3.26,0-3.26,0l4.9,10.12s.62,3.91-.38,3.41-5.27-1.25-7.27-2.51-6.52-.75-3.76.25,9.52,15,9.52,16.29.75,11.53.5,15.29S57.3,477.92,57.3,477.92Z"/><path class="cls-5" d="M69.76,443.08s-4.26-2.25-5-2.5-3.51.25-3.76,1.5-2.51,5.77-3.76,5.27-1.25-4.77-3-6-7-1.75-9-.5-22.3-9-22.3-9,1.5-33.58,2.5-33.58,44.86.75,44.86.75l6.52,30.32Z"/></g><path class="cls-7" d="M7.11,413.12a18.26,18.26,0,0,0,20,22.65,23.11,23.11,0,0,0,31.75,3.85,22,22,0,0,0,5.58-6.31,23.1,23.1,0,0,0,31,3c10-7.7,11.77-22.26,3.88-32.53a23.62,23.62,0,0,0-12.27-8.36s0-.06,0-.09a23.26,23.26,0,0,0,1.09-29.95,23.8,23.8,0,0,0-3.57-3.72,9.6,9.6,0,0,0-8.26-8.37,9.76,9.76,0,0,0-6.56,1.41,18.09,18.09,0,0,0-29.26,20.09A14.59,14.59,0,0,0,32,383.53a22.36,22.36,0,0,0-22.2,13.38A8.12,8.12,0,0,0,3,398.58a8.23,8.23,0,0,0,4.07,14.54Z"/><path class="cls-8" d="M7.11,413.12a8.22,8.22,0,1,1,2.71-16.21A22.36,22.36,0,0,1,32,383.53a14.59,14.59,0,0,1,8.52-8.74A18.09,18.09,0,0,1,69.8,354.7a9.76,9.76,0,0,1,6.56-1.41,10.17,10.17,0,0,1,2.07.55c-.83.68-1.83,1.5-3,2.48-3.21,2.75-3.79,3.77-3.79,3.77s-10.7-1-15.25,5.37c-9.61,13.4,1.52,24.86,1.52,24.86s-12.77-4.09-20.89-.15c-6.81,3.3-13.13,9.36-15.44,15.8-5.5,15.26,10.26,21.24,10.26,21.24s5.15.1,1.43,5.59A10.09,10.09,0,0,0,31.79,440a23.25,23.25,0,0,1-4.65-4.24,18.26,18.26,0,0,1-20-22.65Zm24.14,2.19a5,5,0,1,0-7-.72A5,5,0,0,0,31.25,415.31Zm2.15-10.47a3.15,3.15,0,1,0-4.42-.46A3.16,3.16,0,0,0,33.4,404.84ZM68.64,369.4a3.14,3.14,0,1,0-4.42-.46A3.16,3.16,0,0,0,68.64,369.4ZM34,420a2.31,2.31,0,1,0-3.25-.33A2.31,2.31,0,0,0,34,420ZM67.39,376.5a2.31,2.31,0,1,0-3.25-.33A2.31,2.31,0,0,0,67.39,376.5Z"/><path class="cls-9" d="M75.46,400.85c-6.52,2.62-8.11,3.11-7.53,1.27,1.56-5,2.7-6.35,10.15-10,12.22-6,9.09-24.57,7.85-29.24a22.78,22.78,0,0,1,2.26,2.52,23.26,23.26,0,0,1-1.09,29.95s0,.06,0,.09a23.62,23.62,0,0,1,12.27,8.36c7.89,10.27,6.15,24.83-3.88,32.53A22.67,22.67,0,0,1,75.16,440c-18.88-21.28,12-2.74,18.69-11.26C106.46,412.64,89.62,395.19,75.46,400.85Zm-6.23,23c-.22-4.1-.69-.55-6.41,2.89-6.28,3.77-19.79-.14-25.08,3.52-1.94,1.34,5.95,12.88,4.69,13.85a22.47,22.47,0,0,0,16.46-4.47,22,22,0,0,0,5.58-6.31S69.46,427.94,69.23,423.83ZM13,407.81a3.15,3.15,0,1,0-4.43-.46A3.13,3.13,0,0,0,13,407.81Zm-.63,5.59a2,2,0,1,0-2.84-.29A2,2,0,0,0,12.35,413.4Zm81.17,6.18a3.15,3.15,0,1,0-4.43-.46A3.14,3.14,0,0,0,93.52,419.58ZM81.3,388.11a5.13,5.13,0,1,0-7.22-.74A5.13,5.13,0,0,0,81.3,388.11Zm12.16,36.73a1.48,1.48,0,1,0-2.08-.22A1.48,1.48,0,0,0,93.46,424.84Zm-25.13-5.13a1.48,1.48,0,1,0-2.08-.22A1.49,1.49,0,0,0,68.33,419.71Z"/><path class="cls-10" d="M696.53,519.62c0,9.06-28.23,16.41-63,16.41s-63.05-7.35-63.05-16.41,28.23-16.41,63.05-16.41S696.53,510.56,696.53,519.62Z"/><path class="cls-3" d="M668.69,520.48c0,6-21.17,10.94-47.29,10.94s-47.29-4.9-47.29-10.94,21.17-10.94,47.29-10.94S668.69,514.44,668.69,520.48Z"/><path class="cls-1" d="M636.5,506c-1.42-.81,1.59-9.63,1.79-16.25,0,0-7,12.28-4.8,18.54a94.92,94.92,0,0,1-12.62,7.48c-.8-10.13-1.44-17.14-2-22-.13-1.21,11.86-22.63,11.24-21.85-4.93,6.21-7.19,7.34-11.35,14.69-1.33,2.35-4.5-18.81-4.5-18.81-1.69,1.36.24,15.82-.41,19a62.93,62.93,0,0,0-.78,7.13c-.19,3-.62,10-1,12.93-3.15-.73-9.21-7.78-16.8-21.55,0,0,5.84,23.55,15.9,26.47-.09,1.13-.14,2.13-.18,3.07-12.26-4.4-34.16-10.83-43.07-18.2,0,0,4.19,10.65,41,20.54l1.56,1.63a2.77,2.77,0,0,0,3,2.62c2.17.11,4.79-.33,6,1.44s2.44-.44,6.13-2.73a23.68,23.68,0,0,0,3.24-3c14.27-10.84,29.8-28.07,29.8-28.07C655,493.22,639.57,502.94,636.5,506Z"/><path class="cls-11" d="M678.62,477.62a14.55,14.55,0,0,0-15.85-2.53A28.38,28.38,0,0,0,639.5,454.4a29,29,0,0,0,5.26-17.55c-.44-15.88-13.37-28.41-28.89-28-14.64.41-26.33,12.22-27.23,26.89a27.43,27.43,0,0,0-10.2-1.68c-15.51.43-27.73,13.66-27.28,29.55a29.39,29.39,0,0,0,1.78,9.24,29.14,29.14,0,0,0-3.65,15c.44,15.89,13.38,28.41,28.89,28a27.46,27.46,0,0,0,13.35-3.92c.24.25.43.52.68.75a17.8,17.8,0,0,0,28.14-5.75,27.37,27.37,0,0,0,26.13,2.55,10.41,10.41,0,0,0,3,5.3,10.77,10.77,0,0,0,15.2-.73,11,11,0,0,0,2.45-10.73,15,15,0,0,0,12-4.81A14.75,14.75,0,0,0,678.62,477.62Z"/><path class="cls-8" d="M625.27,426.4a5.23,5.23,0,1,1-5.23-5.23A5.23,5.23,0,0,1,625.27,426.4Z"/><path class="cls-8" d="M613,423.94a2.46,2.46,0,1,1-2.45-2.45A2.46,2.46,0,0,1,613,423.94Z"/><path class="cls-8" d="M670.45,479.25a2.46,2.46,0,1,1-2.46-2.46A2.46,2.46,0,0,1,670.45,479.25Z"/><g class="cls-12"><path class="cls-9" d="M578.18,515.82a27.46,27.46,0,0,0,13.35-3.92c.24.25.43.52.68.75a17.8,17.8,0,0,0,28.14-5.75,27.37,27.37,0,0,0,26.13,2.55,10.41,10.41,0,0,0,3,5.3,10.77,10.77,0,0,0,15.2-.73,11,11,0,0,0,2.45-10.73,15,15,0,0,0,12-4.81,14.83,14.83,0,0,0,1.64-18.31c-1.83,4.43-4.49,9.89-7.26,12.19-5,4.16-10.55-5.17-15.64-10.19s-7.45.51-14.49,4.06-14-2.83-24.61-6.21-29.13,11.69-35.16,13.72-15.06,7.51-26.11,2.49a22.37,22.37,0,0,1-8-6.12C551,504.9,563.42,516.23,578.18,515.82Z"/><path class="cls-9" d="M640.53,478.2a6,6,0,1,1-6-6A6,6,0,0,1,640.53,478.2Z"/><path class="cls-9" d="M572.31,471.34a5.06,5.06,0,1,1-5.06-5.06A5.06,5.06,0,0,1,572.31,471.34Z"/><path class="cls-9" d="M647.85,476.4a2.76,2.76,0,1,1-2.76-2.76A2.76,2.76,0,0,1,647.85,476.4Z"/><path class="cls-9" d="M559.88,470.88a2.76,2.76,0,1,1-2.76-2.76A2.76,2.76,0,0,1,559.88,470.88Z"/><path class="cls-9" d="M575.19,463.14a2.82,2.82,0,1,1-2.81-2.82A2.82,2.82,0,0,1,575.19,463.14Z"/></g><path class="cls-8" d="M615.87,408.88c-14.64.41-26.33,12.22-27.23,26.89a27.23,27.23,0,0,0-10.2-1.68A28,28,0,0,0,554,450.14c12.14-9,31.06-6.46,40.27-4.45a1.76,1.76,0,0,0,1.89-.83,1.78,1.78,0,0,0-.17-2.06l-2.85-3.31a3.15,3.15,0,0,1-.32-3.67c4.07-6.82,19.36-27.94,46.72-14.82A27.9,27.9,0,0,0,615.87,408.88Z"/><path class="cls-8" d="M639.55,454.32A57.52,57.52,0,0,0,613,464.59s17.84-5.13,33.91-3.46a45.51,45.51,0,0,1,9.59,2.44,27.89,27.89,0,0,0-17-9.17Z"/><path class="cls-11" d="M608.93,493.74a5.23,5.23,0,1,1-5.23-5.22A5.23,5.23,0,0,1,608.93,493.74Z"/><path class="cls-11" d="M610.54,484.92a2.46,2.46,0,1,1-2.46-2.45A2.46,2.46,0,0,1,610.54,484.92Z"/><polygon class="cls-13" points="398.06 597.54 537.09 597.54 737.16 543.93 528.66 488.13 398.06 523.08 398.06 597.54"/><polygon class="cls-14" points="585.31 350.39 398.06 400.56 398.06 584.59 585.31 534.42 585.31 350.39"/><polygon class="cls-15" points="92.23 502.65 398.06 584.59 398.06 400.56 92.23 318.62 92.23 502.65"/><polygon class="cls-16" points="398.06 597.54 585.31 547.37 585.31 524.22 398.06 574.4 398.06 597.54"/><polygon class="cls-14" points="398.06 597.54 92.23 515.6 92.23 492.45 398.06 574.4 398.06 597.54"/><polygon class="cls-16" points="593.55 360.63 400.04 412.48 400.04 422.66 593.55 370.81 593.55 360.63"/><polygon class="cls-17" points="83.99 337.98 400.04 422.66 400.04 412.48 83.99 327.79 83.99 337.98"/><polygon class="cls-18" points="593.55 361.16 277.5 276.48 83.99 327.79 400.04 412.48 593.55 361.16"/><polygon class="cls-14" points="585.31 198.14 398.06 248.32 398.06 409.9 585.31 359.73 585.31 198.14"/><polygon class="cls-15" points="92.23 327.96 398.06 409.9 398.06 248.32 92.23 166.37 92.23 327.96"/><polygon class="cls-19" points="363.93 377.39 316.52 364.69 316.52 265.85 363.93 278.55 363.93 377.39"/><polygon class="cls-16" points="316.52 265.85 316.52 364.69 322.05 363.21 322.05 267.33 316.52 265.85"/><polygon class="cls-15" points="363.93 377.39 316.52 364.69 322.05 363.21 363.93 374.43 363.93 377.39"/><polygon class="cls-20" points="359.99 369.35 326.12 360.27 326.12 270.72 359.99 279.8 359.99 369.35"/><polygon class="cls-19" points="344.72 368.26 341.38 367.37 341.38 273.32 344.72 274.21 344.72 368.26"/><polygon class="cls-19" points="363.93 328.51 322.05 317.29 322.05 313.31 363.93 324.53 363.93 328.51"/><polygon class="cls-17" points="310.7 365.14 362.94 379.13 362.94 384.3 310.7 370.3 310.7 365.14"/><polygon class="cls-18" points="310.7 365.14 362.94 379.13 367.46 377.92 315.22 363.93 310.7 365.14"/><polygon class="cls-14" points="367.46 377.92 362.94 379.13 362.94 384.3 367.46 383.09 367.46 377.92"/><polygon class="cls-17" points="310.7 259.96 362.94 273.95 362.94 279.12 310.7 265.12 310.7 259.96"/><polygon class="cls-18" points="310.7 259.96 362.94 273.95 367.46 272.74 315.22 258.75 310.7 259.96"/><polygon class="cls-14" points="367.46 272.74 362.94 273.95 362.94 279.12 367.46 277.9 367.46 272.74"/><polygon class="cls-19" points="272.67 560.27 209.12 543.24 209.12 414.58 272.67 431.61 272.67 560.27"/><polygon class="cls-16" points="209.12 414.58 209.12 543.24 216.53 541.25 216.53 416.57 209.12 414.58"/><polygon class="cls-15" points="272.67 560.27 209.12 543.24 216.53 541.25 272.67 556.3 272.67 560.27"/><polygon class="cls-20" points="267.39 549.48 221.98 537.31 221.98 421.11 267.39 433.28 267.39 549.48"/><polygon class="cls-21" points="265.24 542.31 224.13 531.3 224.13 428.28 265.24 439.29 265.24 542.31"/><polygon class="cls-20" points="246.92 541.12 241.56 539.68 241.56 429.31 246.92 430.75 246.92 541.12"/><polygon class="cls-20" points="266.4 510.72 222.97 499.08 222.97 494.96 266.4 506.59 266.4 510.72"/><polygon class="cls-20" points="266.4 476.15 222.97 464.52 222.97 460.39 266.4 472.03 266.4 476.15"/><path class="cls-16" d="M252.26,495.7c0,1.8-1.2,2.94-2.67,2.55a4.18,4.18,0,0,1-2.67-4c0-1.8,1.19-2.95,2.67-2.55A4.19,4.19,0,0,1,252.26,495.7Z"/><path class="cls-16" d="M241.29,492.87c0,1.8-1.19,2.94-2.67,2.54a4.17,4.17,0,0,1-2.67-4c0-1.8,1.2-2.94,2.67-2.54A4.16,4.16,0,0,1,241.29,492.87Z"/><polygon class="cls-17" points="181.92 408.99 256.53 428.98 256.53 436.36 181.92 416.37 181.92 408.99"/><polygon class="cls-18" points="181.92 408.99 256.53 428.98 279.39 422.85 204.78 402.87 181.92 408.99"/><polygon class="cls-14" points="279.39 422.85 279.39 430.23 256.53 436.36 256.53 428.98 279.39 422.85"/><polygon class="cls-19" points="270.07 352.29 222.67 339.58 222.67 240.74 270.07 253.44 270.07 352.29"/><polygon class="cls-16" points="222.67 240.74 222.67 339.58 228.19 338.1 228.19 242.22 222.67 240.74"/><polygon class="cls-15" points="270.07 352.29 222.67 339.58 228.19 338.1 270.07 349.32 270.07 352.29"/><polygon class="cls-21" points="266.13 344.24 232.26 335.16 232.26 245.61 266.13 254.69 266.13 344.24"/><polygon class="cls-19" points="250.86 343.16 247.53 342.26 247.53 248.21 250.86 249.1 250.86 343.16"/><polygon class="cls-19" points="270.07 303.4 228.19 292.18 228.19 288.2 270.07 299.42 270.07 303.4"/><polygon class="cls-17" points="216.84 340.03 269.08 354.03 269.08 359.19 216.84 345.19 216.84 340.03"/><polygon class="cls-18" points="216.84 340.03 269.08 354.03 273.6 352.81 221.36 338.82 216.84 340.03"/><polygon class="cls-14" points="273.6 352.81 269.08 354.02 269.08 359.19 273.6 357.98 273.6 352.81"/><polygon class="cls-17" points="216.84 234.85 269.08 248.84 269.08 254.01 216.84 240.01 216.84 234.85"/><polygon class="cls-18" points="216.84 234.85 269.08 248.84 273.6 247.63 221.36 233.64 216.84 234.85"/><polygon class="cls-14" points="273.6 247.63 269.08 248.84 269.08 254.01 273.6 252.8 273.6 247.63"/><polygon class="cls-19" points="429.74 376.83 477.14 364.13 477.14 265.28 429.74 277.99 429.74 376.83"/><polygon class="cls-22" points="477.14 265.28 477.14 364.13 471.61 362.64 471.61 266.76 477.14 265.28"/><polygon class="cls-15" points="429.74 376.83 477.14 364.13 471.61 362.64 429.74 373.87 429.74 376.83"/><polygon class="cls-23" points="433.68 368.78 467.55 359.7 467.55 270.15 433.68 279.23 433.68 368.78"/><polygon class="cls-19" points="448.95 367.7 452.28 366.81 452.28 272.75 448.95 273.64 448.95 367.7"/><polygon class="cls-19" points="429.74 327.94 471.61 316.72 471.61 312.74 429.74 323.96 429.74 327.94"/><polygon class="cls-16" points="482.96 364.57 430.73 378.57 430.73 383.73 482.96 369.74 482.96 364.57"/><polygon class="cls-15" points="482.96 364.57 430.73 378.57 426.21 377.36 478.45 363.36 482.96 364.57"/><polygon class="cls-17" points="426.21 377.36 430.73 378.57 430.73 383.73 426.21 382.52 426.21 377.36"/><polygon class="cls-16" points="482.96 259.39 430.73 273.38 430.73 278.55 482.96 264.55 482.96 259.39"/><polygon class="cls-15" points="482.96 259.39 430.73 273.38 426.21 272.17 478.45 258.18 482.96 259.39"/><polygon class="cls-17" points="426.21 272.17 430.73 273.38 430.73 278.55 426.21 277.34 426.21 272.17"/><polygon class="cls-19" points="510.77 354.92 558.17 342.22 558.17 243.38 510.77 256.08 510.77 354.92"/><polygon class="cls-22" points="558.17 243.38 558.17 342.22 552.65 340.74 552.65 244.86 558.17 243.38"/><polygon class="cls-15" points="510.77 354.92 558.17 342.22 552.65 340.74 510.77 351.96 510.77 354.92"/><polygon class="cls-21" points="514.71 346.88 548.58 337.8 548.58 248.25 514.71 257.32 514.71 346.88"/><polygon class="cls-19" points="529.98 345.8 533.31 344.9 533.31 250.85 529.98 251.74 529.98 345.8"/><polygon class="cls-19" points="510.77 306.04 552.65 294.82 552.65 290.84 510.77 302.06 510.77 306.04"/><polygon class="cls-16" points="564 342.67 511.76 356.67 511.76 361.83 564 347.83 564 342.67"/><polygon class="cls-15" points="564 342.67 511.76 356.67 507.24 355.45 559.48 341.46 564 342.67"/><polygon class="cls-17" points="507.24 355.45 511.76 356.67 511.76 361.83 507.24 360.62 507.24 355.45"/><polygon class="cls-16" points="564 237.49 511.76 251.48 511.76 256.65 564 242.65 564 237.49"/><polygon class="cls-15" points="564 237.49 511.76 251.48 507.24 250.27 559.48 236.28 564 237.49"/><polygon class="cls-17" points="507.24 250.27 511.76 251.48 511.76 256.65 507.24 255.44 507.24 250.27"/><polygon class="cls-19" points="429.74 540.05 477.14 527.35 477.14 428.51 429.74 441.21 429.74 540.05"/><polygon class="cls-22" points="477.14 428.51 477.14 527.35 471.61 525.87 471.61 429.99 477.14 428.51"/><polygon class="cls-15" points="429.74 540.05 477.14 527.35 471.61 525.87 429.74 537.09 429.74 540.05"/><polygon class="cls-21" points="433.68 532.01 467.55 522.93 467.55 433.38 433.68 442.45 433.68 532.01"/><polygon class="cls-19" points="448.95 530.92 452.28 530.03 452.28 435.98 448.95 436.87 448.95 530.92"/><polygon class="cls-19" points="429.74 491.17 471.61 479.95 471.61 475.97 429.74 487.19 429.74 491.17"/><polygon class="cls-16" points="482.96 527.8 430.73 541.79 430.73 546.96 482.96 532.96 482.96 527.8"/><polygon class="cls-15" points="482.96 527.8 430.73 541.79 426.21 540.58 478.45 526.59 482.96 527.8"/><polygon class="cls-17" points="426.21 540.58 430.73 541.79 430.73 546.96 426.21 545.75 426.21 540.58"/><polygon class="cls-16" points="482.96 422.61 430.73 436.61 430.73 441.77 482.96 427.78 482.96 422.61"/><polygon class="cls-15" points="482.96 422.61 430.73 436.61 426.21 435.4 478.45 421.4 482.96 422.61"/><polygon class="cls-17" points="426.21 435.4 430.73 436.61 430.73 441.77 426.21 440.56 426.21 435.4"/><polygon class="cls-19" points="510.77 518.15 558.17 505.45 558.17 406.61 510.77 419.31 510.77 518.15"/><polygon class="cls-22" points="558.17 406.61 558.17 505.45 552.65 503.97 552.65 408.09 558.17 406.61"/><polygon class="cls-15" points="510.77 518.15 558.17 505.45 552.65 503.97 510.77 515.19 510.77 518.15"/><polygon class="cls-23" points="514.71 510.1 548.58 501.03 548.58 411.47 514.71 420.55 514.71 510.1"/><polygon class="cls-19" points="529.98 509.02 533.31 508.13 533.31 414.07 529.98 414.97 529.98 509.02"/><polygon class="cls-19" points="510.77 469.26 552.65 458.05 552.65 454.07 510.77 465.29 510.77 469.26"/><polygon class="cls-16" points="564 505.89 511.76 519.89 511.76 525.05 564 511.06 564 505.89"/><polygon class="cls-15" points="564 505.89 511.76 519.89 507.24 518.68 559.48 504.68 564 505.89"/><polygon class="cls-17" points="507.24 518.68 511.76 519.89 511.76 525.05 507.24 523.84 507.24 518.68"/><polygon class="cls-16" points="564 400.71 511.76 414.71 511.76 419.87 564 405.88 564 400.71"/><polygon class="cls-15" points="564 400.71 511.76 414.71 507.24 413.5 559.48 399.5 564 400.71"/><polygon class="cls-17" points="507.24 413.5 511.76 414.71 511.76 419.87 507.24 418.66 507.24 413.5"/><polygon class="cls-19" points="176.21 327.18 128.81 314.48 128.81 215.63 176.21 228.33 176.21 327.18"/><polygon class="cls-16" points="128.81 215.63 128.81 314.48 134.34 312.99 134.34 217.11 128.81 215.63"/><polygon class="cls-15" points="176.21 327.18 128.81 314.48 134.34 312.99 176.21 324.21 176.21 327.18"/><polygon class="cls-23" points="172.27 319.13 138.4 310.06 138.4 220.5 172.27 229.58 172.27 319.13"/><polygon class="cls-19" points="157 318.05 153.67 317.15 153.67 223.1 157 223.99 157 318.05"/><polygon class="cls-19" points="176.21 278.29 134.34 267.07 134.34 263.09 176.21 274.31 176.21 278.29"/><polygon class="cls-17" points="122.98 314.92 175.22 328.92 175.22 334.08 122.98 320.08 122.98 314.92"/><polygon class="cls-18" points="122.98 314.92 175.22 328.92 179.74 327.71 127.5 313.71 122.98 314.92"/><polygon class="cls-14" points="179.74 327.71 175.22 328.92 175.22 334.08 179.74 332.87 179.74 327.71"/><polygon class="cls-17" points="122.98 209.74 175.22 223.73 175.22 228.9 122.98 214.9 122.98 209.74"/><polygon class="cls-18" points="122.98 209.74 175.22 223.73 179.74 222.52 127.5 208.53 122.98 209.74"/><polygon class="cls-14" points="179.74 222.52 175.22 223.73 175.22 228.9 179.74 227.69 179.74 222.52"/><polygon class="cls-19" points="363.93 537.63 316.52 524.93 316.52 426.08 363.93 438.79 363.93 537.63"/><polygon class="cls-16" points="316.52 426.08 316.52 524.93 322.05 523.45 322.05 427.57 316.52 426.08"/><polygon class="cls-15" points="363.93 537.63 316.52 524.93 322.05 523.45 363.93 534.67 363.93 537.63"/><polygon class="cls-23" points="359.99 529.58 326.12 520.51 326.12 430.95 359.99 440.03 359.99 529.58"/><polygon class="cls-19" points="344.72 528.5 341.38 527.61 341.38 433.55 344.72 434.44 344.72 528.5"/><polygon class="cls-19" points="363.93 488.74 322.05 477.52 322.05 473.55 363.93 484.76 363.93 488.74"/><polygon class="cls-17" points="310.7 525.37 362.94 539.37 362.94 544.53 310.7 530.54 310.7 525.37"/><polygon class="cls-18" points="310.7 525.37 362.94 539.37 367.46 538.16 315.22 524.16 310.7 525.37"/><polygon class="cls-14" points="367.46 538.16 362.94 539.37 362.94 544.53 367.46 543.32 367.46 538.16"/><polygon class="cls-17" points="310.7 420.19 362.94 434.19 362.94 439.35 310.7 425.36 310.7 420.19"/><polygon class="cls-18" points="310.7 420.19 362.94 434.19 367.46 432.98 315.22 418.98 310.7 420.19"/><polygon class="cls-14" points="367.46 432.98 362.94 434.19 362.94 439.35 367.46 438.14 367.46 432.98"/><polygon class="cls-19" points="176.21 487.41 128.81 474.71 128.81 375.87 176.21 388.57 176.21 487.41"/><polygon class="cls-16" points="128.81 375.87 128.81 474.71 134.34 473.23 134.34 377.35 128.81 375.87"/><polygon class="cls-15" points="176.21 487.41 128.81 474.71 134.34 473.23 176.21 484.45 176.21 487.41"/><polygon class="cls-21" points="172.27 479.37 138.4 470.29 138.4 380.74 172.27 389.81 172.27 479.37"/><polygon class="cls-19" points="157 478.28 153.67 477.39 153.67 383.33 157 384.23 157 478.28"/><polygon class="cls-19" points="176.21 438.53 134.34 427.31 134.34 423.33 176.21 434.55 176.21 438.53"/><polygon class="cls-17" points="122.98 475.16 175.22 489.15 175.22 494.31 122.98 480.32 122.98 475.16"/><polygon class="cls-18" points="122.98 475.16 175.22 489.15 179.74 487.94 127.5 473.94 122.98 475.16"/><polygon class="cls-14" points="179.74 487.94 175.22 489.15 175.22 494.31 179.74 493.11 179.74 487.94"/><polygon class="cls-17" points="122.98 369.97 175.22 383.97 175.22 389.13 122.98 375.14 122.98 369.97"/><polygon class="cls-18" points="122.98 369.97 175.22 383.97 179.74 382.76 127.5 368.76 122.98 369.97"/><polygon class="cls-14" points="179.74 382.76 175.22 383.97 175.22 389.13 179.74 387.92 179.74 382.76"/><polygon class="cls-10" points="585.31 547.37 585.31 198.14 398.06 597.54 585.31 547.37"/><polygon class="cls-24" points="398.06 248.32 92.23 515.6 92.23 166.37 398.06 248.32"/><polygon class="cls-21" points="79.31 158.04 401.44 244.35 401.44 259.16 79.31 172.86 79.31 158.04"/><polygon class="cls-25" points="79.31 158.04 401.44 244.35 457.03 63.2 221.13 0 79.31 158.04"/><polygon class="cls-26" points="457.03 63.2 401.44 244.35 401.44 259.16 598.85 206.26 598.85 191.44 457.03 63.2"/><polygon class="cls-21" points="598.85 206.26 598.85 191.44 401.44 244.35 401.44 259.16 598.85 206.26"/><polygon class="cls-27" points="294.88 43.01 267.96 35.8 294.88 28.59 321.8 35.8 294.88 43.01"/><polygon class="cls-27" points="294.88 43.01 267.96 35.8 294.88 28.59 321.8 35.8 294.88 43.01"/><polygon class="cls-27" points="294.88 43.01 267.96 35.8 294.88 28.59 321.8 35.8 294.88 43.01"/><polygon class="cls-27" points="294.88 43.01 267.96 35.8 294.88 28.59 321.8 35.8 294.88 43.01"/><polygon class="cls-26" points="294.88 40.65 276.78 35.8 294.88 30.95 312.97 35.8 294.88 40.65"/><polygon class="cls-1" points="294.88 40.65 294.88 30.95 312.97 35.8 294.88 40.65"/><polygon class="cls-28" points="294.88 118.49 267.96 111.28 267.96 35.8 294.88 43.01 294.88 118.49"/><polygon class="cls-14" points="294.88 118.49 321.8 72.23 321.8 35.8 294.88 43.01 294.88 118.49"/><path class="cls-3" d="M616.81,565.48s.7,1.77,3.88,3.88-.35,6.36-.35,6.36l-15.53,7.41-10.95-.71-19.06,5.65L555,578.89l-8.47-6.35s6.7-10.24,7.76-10.59,25.06-4.23,26.12-4.23,12.36-3.53,12.36-3.53Z"/><path class="cls-3" d="M561.76,567.79s-.53.85-2.91,1.88.27,3.09.27,3.09l11.6,3.6,8.18-.35,14.25,2.74,14.77-4.45,6.33-3.09s-5-5-5.8-5.14S589.72,564,588.93,564s-9.24-1.72-9.24-1.72Z"/><path class="cls-1" d="M578,572.9c1.75,2.54,9.91,2.54,12,0l-2.09-28.71h-8.24L579.7,558Z"/><polygon class="cls-7" points="586.54 422.82 574.4 446.35 577.55 445.62 576.23 449.89 563.38 463.61 566.74 466.88 564.03 473.9 556.55 480.85 563.25 485.71 552.63 500.93 559.05 507.34 544.35 525.07 554.58 529.8 536.09 538.85 540.39 545.01 551.59 548.74 575.02 562.85 608.72 557.37 637.64 539.64 619.93 533.73 627.8 529.8 610.09 509.73 617.59 502.56 606.94 488.26 616.78 484.13 606.94 477.44 603.85 471.9 609.37 469.97 599.52 459.73 604.58 457.37 593.22 445.56 598.28 443.2 586.54 422.82"/><polygon class="cls-9" points="575.02 562.85 608.72 557.37 637.64 539.64 619.93 533.73 627.8 529.8 610.09 509.73 617.59 502.56 606.94 488.26 616.78 484.13 606.94 477.44 603.85 471.9 609.37 469.97 599.52 459.73 604.58 457.37 593.22 445.56 598.28 443.2 587.4 424.33 588.44 441.62 582.92 445.17 591.19 448.73 590.4 460.13 581.48 463.27 591.19 473.5 582.53 487.89 603.53 501.6 591.19 507.59 577.41 508.93 604.32 530.71 590.14 538.55 551.09 548.59 551.59 548.74 575.02 562.85"/><polygon class="cls-8" points="559.05 507.34 544.35 525.07 575.71 505.29 559.05 507.34"/><polygon class="cls-8" points="563.25 485.71 552.63 500.93 557.51 505.29 570.4 487.13 563.25 485.71"/><polygon class="cls-8" points="556.55 480.85 559.17 482.75 567.31 474.82 567.67 468.1 564.03 473.9 556.55 480.85"/><polygon class="cls-8" points="554.58 529.8 536.09 538.85 586.86 529.8 554.58 529.8"/><polygon class="cls-8" points="576.53 448.93 576.23 449.89 563.38 463.61 565.52 463.63 582.07 448.93 576.53 448.93"/><polygon class="cls-8" points="576.4 445.89 583.06 440.01 586.54 422.82 574.4 446.35 576.4 445.89"/><polygon class="cls-8" points="563.38 481.51 567.67 477.83 567.67 481.01 563.38 481.51"/><polygon class="cls-8" points="584.3 448.93 584.3 452.25 586.54 450.59 584.3 448.93"/><polygon class="cls-8" points="565.53 501.6 570.4 501.6 570.4 497.36 565.53 501.6"/><polygon class="cls-8" points="586.86 527.48 582.07 522.84 579.74 526.25 586.86 527.48"/><polygon class="cls-8" points="601.84 542.01 597.05 537.37 594.72 540.79 601.84 542.01"/><polygon class="cls-8" points="619.42 532.12 614.63 527.48 612.3 530.89 619.42 532.12"/><polygon class="cls-8" points="578.33 522.84 575.71 527.48 571.77 527.48 578.33 522.84"/><polygon class="cls-8" points="586.86 472.98 584.3 475.43 582.07 472.98 586.86 472.98"/><polygon class="cls-8" points="595.98 483.27 593.42 485.71 591.19 483.27 595.98 483.27"/><polygon class="cls-8" points="613.53 483.27 610.97 485.71 608.74 483.27 613.53 483.27"/><polygon class="cls-8" points="600.67 456.92 598.11 459.36 595.88 456.92 600.67 456.92"/><polygon class="cls-8" points="591.19 503.16 595.48 501.94 590.14 499.48 591.19 503.16"/><g class="cls-29"><polygon class="cls-9" points="615.86 534.32 611.14 534.32 615.86 537.54 615.86 534.32"/><polygon class="cls-9" points="606.94 511.03 601.16 512.65 606.94 515.18 606.94 511.03"/><polygon class="cls-9" points="590.14 488.26 595.48 489.88 591.19 492.66 590.14 488.26"/><polygon class="cls-9" points="598.28 460.65 595.48 460.65 598.28 463.63 598.28 460.65"/></g><path class="cls-3" d="M116.43,536.68c0,6.14-15.12,11.12-33.78,11.12s-33.78-5-33.78-11.12S64,525.56,82.65,525.56,116.43,530.54,116.43,536.68Z"/><path class="cls-3" d="M97.34,535.56c0,3.19-8.83,5.77-19.73,5.77s-19.73-2.58-19.73-5.77,8.83-5.77,19.73-5.77S97.34,532.37,97.34,535.56Z"/><path class="cls-1" d="M87.46,534c-.38,2.75-.45,4.8-5.45,5-5.88.28-16.8-1.75-17.15-5,0,0,.56-23.74,7.35-40.13S78.4,444.71,79,438.49s3.4-9.33,3.4-9.33l5.08,4.47s1.14,29.15,0,39.89-3.67,21.59-4.52,33.54C82.23,517,87.46,534,87.46,534Z"/><g class="cls-30"><path class="cls-5" d="M81,540.33s-6.6-21-3.64-30.3,7.63-42,7.63-47.47.85-19.5-1.69-21.62-5.09,3.82-5.09,3.82-3.81-22-2.54-22,27.55,2.54,27.55,2.54L91.8,524.45l.42,12.29Z"/><path class="cls-5" d="M66.85,506.43s5.9-2.16,6.89-.79.19,1.77,2.16,4.92,8.66,2.95,9.25,2.56,7.48-.2,6.1-2.36.59-20.46-3-20.86-18.89-1.57-18.89-1S66.85,506.43,66.85,506.43Z"/><path class="cls-6" d="M69.63,539.81s-.55-11.48,0-17,2.81-6.15,2.58-10a24.39,24.39,0,0,0-2-7.68s-1.29,4.53-2,7.87-.88,9-1.11,12.63,0,12.52,0,12.52Z"/></g><path class="cls-11" d="M129.31,483.34a21.18,21.18,0,0,0-1.44-35c-.23-14.46-11.5-26.29-25.75-26.69a25.77,25.77,0,0,0-9.64,1.59c-.85-13.87-11.9-25-25.73-25.4-14.65-.42-26.87,11.41-27.29,26.42a27.42,27.42,0,0,0,4.93,16.5.41.41,0,0,0,0,.09A27,27,0,0,0,21.45,467a28,28,0,0,0,.49,6,11.13,11.13,0,0,0,1.31,13.57A11.29,11.29,0,0,0,30.18,490a21,21,0,0,0,41,3.33,16.89,16.89,0,0,0,14.06-1.63A25.94,25.94,0,0,0,115,495.94a9.53,9.53,0,1,0,14.3-12.6Z"/><path class="cls-8" d="M62.7,405.84c12.23-2.78,17.14-.35,25,3.55a26.29,26.29,0,0,0-21-11.58c-14.65-.42-26.87,11.41-27.29,26.42a27.42,27.42,0,0,0,4.93,16.5.41.41,0,0,0,0,.09A27,27,0,0,0,21.45,467a28.28,28.28,0,0,0,.19,3.93c2.3-5.1,13-24.07,28.45-20.56,9.39,2.15,11.37,1.81,16.46-1.59,1.87-1.24.07-1.95-7.7-4.37C42,439.11,39.58,411.09,62.7,405.84Z"/><path class="cls-8" d="M81.26,428.26c-2.8,3.85.4,4.1,7.89,2.09,4.33-1.15,12.62-3,20-2.44,2.72.22,9.15,1.68,11,1.73a25.91,25.91,0,0,0-27.71-6.43S84.06,424.4,81.26,428.26Z"/><g class="cls-12"><path class="cls-9" d="M137.89,466.31a21.15,21.15,0,0,0-10-18,27.62,27.62,0,0,0-1.09-7.21,11.75,11.75,0,0,1-6.64,5.37c-7.36,2.22-2.8,6.07-2.8,6.07s-4.48-10.84-20.58-1.13c-6.8,4.1-9.3,10.14-17.84,8.13-10.18-2.4-11.76,2.37-12,7.12s1.63,18.45-16.82,23.48c-8.73,2.38-17.65-6.32-17.65-6.32s-1.27.48-6.17.61c-1.74.05-3.24.06-4.48.06A11.07,11.07,0,0,0,30.18,490a21,21,0,0,0,41,3.33,16.89,16.89,0,0,0,14.06-1.63A25.94,25.94,0,0,0,115,495.94a9.53,9.53,0,1,0,14.3-12.6A21.14,21.14,0,0,0,137.89,466.31Z"/><path class="cls-9" d="M115,469.45a5.75,5.75,0,1,1-5.75-5.74A5.76,5.76,0,0,1,115,469.45Z"/><path class="cls-9" d="M103.24,475.2a3.65,3.65,0,1,1-3.64-3.65A3.65,3.65,0,0,1,103.24,475.2Z"/><path class="cls-9" d="M45.62,481.3A3.65,3.65,0,1,1,42,477.66,3.64,3.64,0,0,1,45.62,481.3Z"/><path class="cls-9" d="M112.84,460.19a2.68,2.68,0,1,1-2.68-2.68A2.68,2.68,0,0,1,112.84,460.19Z"/><path class="cls-9" d="M51,474.86a2.68,2.68,0,1,1-2.68-2.68A2.68,2.68,0,0,1,51,474.86Z"/></g><path class="cls-31" d="M123.79,487.47a3.65,3.65,0,1,1-3.65-3.65A3.64,3.64,0,0,1,123.79,487.47Z"/><path class="cls-31" d="M127.14,481.59a2.35,2.35,0,1,1-2.35-2.34A2.34,2.34,0,0,1,127.14,481.59Z"/><path class="cls-8" d="M60,418a3.65,3.65,0,1,1-3.65-3.64A3.64,3.64,0,0,1,60,418Z"/><path class="cls-8" d="M50.22,457.51a6,6,0,1,1-5.95-5.94A5.95,5.95,0,0,1,50.22,457.51Z"/><path class="cls-8" d="M61.92,411.34a1.72,1.72,0,1,1-1.72-1.71A1.71,1.71,0,0,1,61.92,411.34Z"/><path class="cls-8" d="M80.77,434.35a1.72,1.72,0,1,1-1.72-1.72A1.71,1.71,0,0,1,80.77,434.35Z"/><path class="cls-11" d="M137.57,470.4a7.5,7.5,0,0,0-8.07,1.77,14.59,14.59,0,0,0-15-5.53,14.91,14.91,0,0,0-.78-9.39,14.44,14.44,0,0,0-27.07,10,14.13,14.13,0,0,0-5.21,1.11,14.64,14.64,0,0,0-7.51,19.28,15.3,15.3,0,0,0,2.59,4.09,15,15,0,0,0,1.07,7.85,14.63,14.63,0,0,0,19.09,8,14.08,14.08,0,0,0,5.66-4.39,4.09,4.09,0,0,0,.47.23,9.16,9.16,0,0,0,12.39-8,14.15,14.15,0,0,0,8.65-.78,14,14,0,0,0,4.34-2.91,5.38,5.38,0,0,0,2.45,2,5.55,5.55,0,0,0,7.14-3.21,5.63,5.63,0,0,0-.84-5.6,7.73,7.73,0,0,0,4.83-4.55A7.61,7.61,0,0,0,137.57,470.4Z"/><path class="cls-8" d="M102.39,455.91a2.69,2.69,0,1,1-3.49-1.52A2.69,2.69,0,0,1,102.39,455.91Z"/><path class="cls-8" d="M96.05,457a1.26,1.26,0,1,1-1.64-.72A1.26,1.26,0,0,1,96.05,457Z"/><path class="cls-8" d="M134,472.72a1.26,1.26,0,1,1-1.64-.72A1.27,1.27,0,0,1,134,472.72Z"/><g class="cls-12"><path class="cls-9" d="M96.65,507.58a14.08,14.08,0,0,0,5.66-4.39,4.09,4.09,0,0,0,.47.23,9.16,9.16,0,0,0,12.39-8,14.15,14.15,0,0,0,8.65-.78,14,14,0,0,0,4.34-2.91,5.38,5.38,0,0,0,2.45,2,5.55,5.55,0,0,0,7.14-3.21,5.63,5.63,0,0,0-.84-5.6,7.73,7.73,0,0,0,4.83-4.55,7.65,7.65,0,0,0-2.66-9.08c0,2.47-.29,5.58-1.19,7.2-1.62,2.94-6-.49-9.4-1.94s-3.48,1.65-6.18,4.67-7.21,1.27-13,1.65S97.61,493.88,95.1,496s-5.8,6.43-12,6.11a11.63,11.63,0,0,1-5-1.42A14.6,14.6,0,0,0,96.65,507.58Z"/><path class="cls-9" d="M119.43,477.84a3.09,3.09,0,1,1-4-1.75A3.09,3.09,0,0,1,119.43,477.84Z"/><path class="cls-9" d="M85.48,487.38a2.6,2.6,0,1,1-3.37-1.47A2.6,2.6,0,0,1,85.48,487.38Z"/><path class="cls-9" d="M122.6,475.6a1.42,1.42,0,1,1-1.84-.8A1.42,1.42,0,0,1,122.6,475.6Z"/><path class="cls-9" d="M79.44,489.5a1.42,1.42,0,1,1-1.84-.8A1.42,1.42,0,0,1,79.44,489.5Z"/><path class="cls-9" d="M85.32,482.92a1.45,1.45,0,1,1-1.88-.83A1.45,1.45,0,0,1,85.32,482.92Z"/></g><path class="cls-8" d="M94.6,449.29a14.57,14.57,0,0,0-8,18,14.13,14.13,0,0,0-5.21,1.11,14.42,14.42,0,0,0-8.67,12.28c4.11-6.61,13.66-8.94,18.44-9.71a.9.9,0,0,0,.76-.75.92.92,0,0,0-.47-.95l-2-1.05a1.63,1.63,0,0,1-.84-1.7c.66-4,4-17,19.59-15.88A14.33,14.33,0,0,0,94.6,449.29Z"/><path class="cls-8" d="M114.48,466.59a29.56,29.56,0,0,0-10.79,9.91s7.58-5.81,15.59-8a24,24,0,0,1,5-.64,14.32,14.32,0,0,0-9.86-1.19S114.47,466.61,114.48,466.59Z"/><path class="cls-11" d="M107.23,491.22a2.69,2.69,0,1,1-3.49-1.51A2.7,2.7,0,0,1,107.23,491.22Z"/><path class="cls-11" d="M106.34,486.7a1.27,1.27,0,1,1-1.64-.71A1.27,1.27,0,0,1,106.34,486.7Z"/></g></g></g></svg>
