<?xml version="1.0" encoding="UTF-8"?><svg xmlns="http://www.w3.org/2000/svg" xmlns:xlink="http://www.w3.org/1999/xlink" viewBox="0 0 642.03 464.71"><defs><style>.cls-1{fill:#43596d;}.cls-2{isolation:isolate;}.cls-10,.cls-14,.cls-20,.cls-3{fill:#242b52;}.cls-23,.cls-3,.cls-5{opacity:0.2;}.cls-10,.cls-14,.cls-3,.cls-5{mix-blend-mode:multiply;}.cls-4{clip-path:url(#clip-path);}.cls-5{fill:#2f1d00;}.cls-6{fill:#ffde96;opacity:0.13;}.cls-7{fill:#007874;}.cls-8{fill:#f1f3be;opacity:0.3;}.cls-9{fill:#005a56;opacity:0.71;}.cls-10{opacity:0.1;}.cls-11{fill:#00c48b;}.cls-12{opacity:0.5;}.cls-13{fill:#001230;}.cls-14{opacity:0.15;}.cls-15{fill:#b4bdc5;}.cls-16{fill:#7d8191;}.cls-17{fill:#e6e7e8;}.cls-18{fill:#566575;}.cls-19{fill:#00123e;}.cls-21{fill:#9fa8b6;}.cls-22{fill:#303a66;}.cls-23,.cls-26{fill:#fff;}.cls-24{fill:#404079;}.cls-25{fill:#dcdddf;}.cls-27{fill:#e3e3e7;}.cls-28{fill:#ebebeb;}.cls-29{fill:#1c75bc;}</style><clipPath id="clip-path"><path class="cls-1" d="M527.75,355.42a81.24,81.24,0,0,1,.14-8.82c-8.13-2.79-12.85-25.32-12.85-25.32,6.13,13.17,11,19.92,13.58,20.62.29-2.83.65-9.56.8-12.38a65.08,65.08,0,0,1,.63-6.81c.52-3.08-1-16.92.34-18.22,0,0,2.55,20.24,3.63,18,3.36-7,5.18-8.1,9.17-14.06.5-.74-9.18,19.76-9.08,20.91.4,4.63.92,11.32,1.58,21a76.23,76.23,0,0,0,10.19-7.16c-1.76-6,3.89-17.75,3.89-17.75-.17,6.34-2.6,14.78-1.46,15.56,2.49-2.95,14.94-12.25,17.87-16.08,0,0-17.4,22.84-30,31.66.59,7.42.82,19.63,1.12,22,.64,4.94,1.63,10.66,2.63,15,.76.89-4,3.79-8.43,3-4.07-.71-7-1.15-6.32-3a65.24,65.24,0,0,0,.84-6.49c.09-4.56.22-20.63.75-23.83-18.37-9.14-33.79-31.14-33.79-31.14C506.13,345.05,522.26,355,527.75,355.42Z"/></clipPath></defs><g class="cls-2"><g id="Layer_2" data-name="Layer 2"><g id="_ÎÓÈ_1" data-name="—ÎÓÈ_1"><path class="cls-3" d="M566.14,394.81c0,5.4-13.28,9.77-29.67,9.77s-29.68-4.37-29.68-9.77S520.08,385,536.47,385,566.14,389.42,566.14,394.81Z"/><path class="cls-3" d="M553,395.32c0,3.6-10,6.51-22.26,6.51s-22.26-2.91-22.26-6.51,10-6.51,22.26-6.51S553,391.72,553,395.32Z"/><path class="cls-1" d="M527.75,355.42a81.24,81.24,0,0,1,.14-8.82c-8.13-2.79-12.85-25.32-12.85-25.32,6.13,13.17,11,19.92,13.58,20.62.29-2.83.65-9.56.8-12.38a65.08,65.08,0,0,1,.63-6.81c.52-3.08-1-16.92.34-18.22,0,0,2.55,20.24,3.63,18,3.36-7,5.18-8.1,9.17-14.06.5-.74-9.18,19.76-9.08,20.91.4,4.63.92,11.32,1.58,21a76.23,76.23,0,0,0,10.19-7.16c-1.76-6,3.89-17.75,3.89-17.75-.17,6.34-2.6,14.78-1.46,15.56,2.49-2.95,14.94-12.25,17.87-16.08,0,0-17.4,22.84-30,31.66.59,7.42.82,19.63,1.12,22,.64,4.94,1.63,10.66,2.63,15,.76.89-4,3.79-8.43,3-4.07-.71-7-1.15-6.32-3a65.24,65.24,0,0,0,.84-6.49c.09-4.56.22-20.63.75-23.83-18.37-9.14-33.79-31.14-33.79-31.14C506.13,345.05,522.26,355,527.75,355.42Z"/><g class="cls-4"><path class="cls-5" d="M536.14,356.59s-2,4.36-2,6.87-.63,19.45,0,21,2,16.94,2,16.94,1-18.73,1.12-22.82C537.37,375.71,536.14,356.59,536.14,356.59Z"/><path class="cls-6" d="M529.56,400.48s1.48-9.73.85-15.37-1.88-6.59-.94-14.43,2.2-15.38,1.88-19.46-.31-14.11-.31-14.11l-3.15,9.49s.64-2.28-2.19-3.85-4.07,0-4.07,0l6.12,12.67s.78,4.9-.48,4.27-6.58-1.56-9.09-3.13-8.16-.94-4.71.31,11.92,18.82,11.92,20.39.94,14.43.63,19.14S529.56,400.48,529.56,400.48Z"/><path class="cls-5" d="M545.16,356.87s-5.34-2.82-6.28-3.14-4.39.32-4.7,1.89-3.14,7.21-4.71,6.58-1.57-6-3.77-7.52-8.78-2.2-11.29-.63-27.92-11.3-27.92-11.3,1.88-42,3.14-42,56.15.94,56.15.94l8.16,38Z"/></g><path class="cls-7" d="M466.73,319.36a22.86,22.86,0,0,0,25.07,28.36c10,12,27.53,14.19,39.75,4.82a28,28,0,0,0,7-7.9c10.15,11,27,12.85,38.85,3.76,12.56-9.64,14.73-27.87,4.86-40.73a29.61,29.61,0,0,0-15.36-10.47l0-.1a29.12,29.12,0,0,0,1.37-37.49,30.12,30.12,0,0,0-4.48-4.67,12,12,0,0,0-10.34-10.47,12.13,12.13,0,0,0-8.2,1.76,22.65,22.65,0,0,0-36.63,25.15,18.27,18.27,0,0,0-10.67,10.94,28,28,0,0,0-27.79,16.74,10.3,10.3,0,1,0-3.39,20.3Z"/><path class="cls-8" d="M466.73,319.36a10.3,10.3,0,1,1,3.39-20.3,28,28,0,0,1,27.79-16.74,18.27,18.27,0,0,1,10.67-10.94,22.65,22.65,0,0,1,36.63-25.15,12.13,12.13,0,0,1,8.2-1.76,11.85,11.85,0,0,1,2.6.69c-1,.84-2.29,1.87-3.72,3.1-4,3.44-4.75,4.71-4.75,4.71s-13.39-1.21-19.09,6.73c-12,16.77,1.91,31.12,1.91,31.12s-16-5.12-26.15-.19c-8.53,4.13-16.44,11.72-19.33,19.78C478,329.51,497.73,337,497.73,337s6.44.12,1.79,7a12.63,12.63,0,0,0-1.9,9,29.38,29.38,0,0,1-5.82-5.3,22.86,22.86,0,0,1-25.07-28.36Zm30.21,2.75a6.2,6.2,0,1,0-8.73-.9A6.21,6.21,0,0,0,496.94,322.11Zm2.7-13.12a3.93,3.93,0,1,0-5.53-.57A3.93,3.93,0,0,0,499.64,309Zm44.12-44.36a3.94,3.94,0,1,0-5.54-.57A3.95,3.95,0,0,0,543.76,264.63ZM500.35,328a2.89,2.89,0,1,0-4.06-.42A2.88,2.88,0,0,0,500.35,328Zm41.84-54.43a2.89,2.89,0,1,0-4.07-.41A2.9,2.9,0,0,0,542.19,273.52Z"/><path class="cls-9" d="M552.29,304c-8.16,3.28-10.15,3.9-9.43,1.59,1.95-6.31,3.38-7.94,12.71-12.54,15.3-7.56,11.37-30.76,9.83-36.61a29.84,29.84,0,0,1,2.83,3.17,29.12,29.12,0,0,1-1.37,37.49l0,.1a29.61,29.61,0,0,1,15.36,10.47c9.87,12.86,7.7,31.09-4.86,40.73a28.43,28.43,0,0,1-25.48,4.6c-23.62-26.64,15.05-3.43,23.4-14.09C591.1,318.76,570,296.91,552.29,304Zm-7.79,28.77c-.28-5.13-.87-.69-8,3.61-7.86,4.72-24.77-.16-31.39,4.41-2.43,1.68,7.44,16.13,5.87,17.35a28,28,0,0,0,27.6-13.5S544.77,337.91,544.5,332.77Zm-70.43-20.06a3.93,3.93,0,1,0-5.53-.57A3.92,3.92,0,0,0,474.07,312.71Zm-.78,7a2.53,2.53,0,1,0-3.56-.37A2.54,2.54,0,0,0,473.29,319.71Zm101.6,7.73a3.93,3.93,0,1,0-5.53-.56A3.93,3.93,0,0,0,574.89,327.44ZM559.6,288.05a6.42,6.42,0,1,0-9-.93A6.42,6.42,0,0,0,559.6,288.05Zm15.22,46a1.83,1.83,0,0,0,.27-2.6,1.85,1.85,0,1,0-.27,2.6Zm-31.46-6.42a1.85,1.85,0,1,0-2.6-.28A1.85,1.85,0,0,0,543.36,327.61Z"/><path class="cls-10" d="M126.29,363.6c0,7.77-24.21,14.08-54.08,14.08s-54.07-6.31-54.07-14.08,24.21-14.07,54.07-14.07S126.29,355.83,126.29,363.6Z"/><path class="cls-3" d="M102.41,364.34c0,5.18-18.16,9.38-40.56,9.38s-40.55-4.2-40.55-9.38S39.45,355,61.85,355,102.41,359.15,102.41,364.34Z"/><path class="cls-1" d="M74.8,351.94c-1.21-.7,1.37-8.26,1.54-13.94,0,0-6,10.53-4.12,15.9a81,81,0,0,1-10.82,6.42c-.69-8.69-1.23-14.7-1.67-18.84-.11-1.05,10.17-19.42,9.64-18.75-4.23,5.33-6.17,6.3-9.73,12.6-1.15,2-3.86-16.13-3.86-16.13-1.46,1.17.2,13.57-.35,16.33a51.86,51.86,0,0,0-.67,6.11c-.17,2.53-.54,8.56-.85,11.1-2.7-.63-7.91-6.68-14.41-18.48,0,0,5,20.19,13.64,22.69-.08,1-.13,1.83-.16,2.63C42.47,355.81,23.68,350.3,16,344c0,0,3.6,9.13,35.14,17.62L52.51,363A2.38,2.38,0,0,0,55,365.24c1.87.09,4.12-.29,5.13,1.23s2.09-.38,5.25-2.34a20.22,20.22,0,0,0,2.78-2.53c12.24-9.3,25.56-24.08,25.56-24.08C90.64,341,77.44,349.3,74.8,351.94Z"/><path class="cls-11" d="M110.93,327.58a12.49,12.49,0,0,0-13.6-2.17,24.32,24.32,0,0,0-20-17.74,25,25,0,0,0,4.51-15.06c-.38-13.62-11.47-24.36-24.78-24a24.32,24.32,0,0,0-23.35,23.06A23.56,23.56,0,0,0,25,290.24c-13.3.38-23.78,11.72-23.4,25.35a25.21,25.21,0,0,0,1.53,7.92A25.05,25.05,0,0,0,0,336.35c.38,13.62,11.48,24.36,24.78,24A23.49,23.49,0,0,0,36.24,357c.2.21.37.44.59.64a15.19,15.19,0,0,0,21.48-.95,15.36,15.36,0,0,0,2.65-4,23.46,23.46,0,0,0,22.41,2.19A8.85,8.85,0,0,0,86,359.42a9.24,9.24,0,0,0,13-.62,9.38,9.38,0,0,0,2.1-9.2,12.88,12.88,0,0,0,10.27-4.13A12.65,12.65,0,0,0,110.93,327.58Z"/><path class="cls-8" d="M65.17,283.66a4.49,4.49,0,1,1-4.48-4.49A4.48,4.48,0,0,1,65.17,283.66Z"/><path class="cls-8" d="M54.65,281.55a2.11,2.11,0,1,1-2.11-2.11A2.12,2.12,0,0,1,54.65,281.55Z"/><path class="cls-8" d="M103.92,329a2.11,2.11,0,1,1-2.11-2.11A2.12,2.12,0,0,1,103.92,329Z"/><g class="cls-12"><path class="cls-9" d="M24.79,360.34A23.49,23.49,0,0,0,36.24,357c.2.21.37.44.59.64a15.19,15.19,0,0,0,21.48-.95,15.36,15.36,0,0,0,2.65-4,23.46,23.46,0,0,0,22.41,2.19A8.85,8.85,0,0,0,86,359.42a9.24,9.24,0,0,0,13-.62,9.38,9.38,0,0,0,2.1-9.2,12.92,12.92,0,0,0,11.68-19.84c-1.57,3.81-3.85,8.49-6.23,10.47-4.31,3.56-9-4.44-13.42-8.74s-6.39.43-12.42,3.48-12-2.43-21.11-5.33-25,10-30.16,11.76-12.91,6.45-22.39,2.14a19.08,19.08,0,0,1-6.88-5.25A24.32,24.32,0,0,0,24.79,360.34Z"/><path class="cls-9" d="M78.26,328.07a5.17,5.17,0,1,1-5.16-5.15A5.16,5.16,0,0,1,78.26,328.07Z"/><path class="cls-9" d="M19.75,322.19a4.34,4.34,0,1,1-4.33-4.34A4.33,4.33,0,0,1,19.75,322.19Z"/><path class="cls-9" d="M84.54,326.53a2.37,2.37,0,1,1-2.37-2.37A2.36,2.36,0,0,1,84.54,326.53Z"/><path class="cls-9" d="M9.1,321.8a2.37,2.37,0,1,1-2.37-2.36A2.36,2.36,0,0,1,9.1,321.8Z"/><path class="cls-9" d="M22.23,315.17a2.42,2.42,0,1,1-2.42-2.42A2.42,2.42,0,0,1,22.23,315.17Z"/></g><path class="cls-8" d="M57.11,268.63a24.32,24.32,0,0,0-23.35,23.06A23.56,23.56,0,0,0,25,290.24,24,24,0,0,0,4.08,304c10.41-7.75,26.64-5.54,34.53-3.82a1.52,1.52,0,0,0,1.63-.7,1.54,1.54,0,0,0-.15-1.77l-2.45-2.84a2.73,2.73,0,0,1-.27-3.15c3.49-5.85,16.6-24,40.07-12.7A23.9,23.9,0,0,0,57.11,268.63Z"/><path class="cls-8" d="M77.42,307.6a49.25,49.25,0,0,0-22.77,8.81s15.29-4.41,29.07-3A38.73,38.73,0,0,1,92,315.53a23.89,23.89,0,0,0-14.57-7.86Z"/><path class="cls-11" d="M51.16,341.4a4.49,4.49,0,1,1-4.48-4.47A4.48,4.48,0,0,1,51.16,341.4Z"/><path class="cls-11" d="M52.54,333.84a2.11,2.11,0,1,1-2.11-2.1A2.11,2.11,0,0,1,52.54,333.84Z"/><polygon class="cls-13" points="394.93 84.87 442.7 97.66 559.34 235.54 511.57 222.75 394.93 84.87"/><polygon class="cls-14" points="388.21 335.04 314.6 354.76 314.6 464.71 411.87 464.71 642.03 403.04 388.21 335.04"/><polygon class="cls-15" points="73.54 346.06 314.6 410.64 314.6 464.71 73.54 400.13 73.54 346.06"/><polygon class="cls-16" points="511.57 357.86 511.57 411.93 314.6 464.71 314.6 410.64 511.57 357.86"/><polygon class="cls-17" points="73.54 194.48 314.6 259.06 314.6 455.68 73.54 391.1 73.54 194.48"/><polygon class="cls-15" points="511.57 206.27 511.57 402.89 314.6 455.68 314.6 259.06 413.08 89.85 511.57 206.27"/><polygon class="cls-18" points="280.89 446.62 221.93 430.82 221.93 311.46 280.89 327.26 280.89 446.62"/><polygon class="cls-15" points="221.93 311.46 221.93 430.82 228.81 428.98 228.81 313.3 221.93 311.46"/><polygon class="cls-17" points="280.89 446.62 221.93 430.82 228.81 428.98 280.89 442.93 280.89 446.62"/><polygon class="cls-19" points="275.99 436.61 233.86 425.32 233.86 317.52 275.99 328.81 275.99 436.61"/><polygon class="cls-20" points="273.99 429.96 242.53 421.53 242.53 342.69 273.99 351.12 273.99 429.96"/><polygon class="cls-19" points="275.06 400.65 234.78 389.85 234.78 386.02 275.06 396.82 275.06 400.65"/><polygon class="cls-19" points="275.06 368.58 234.78 357.79 234.78 353.96 275.06 364.75 275.06 368.58"/><path class="cls-21" d="M270.87,389.19c0,1.68-1.11,2.73-2.48,2.37a3.88,3.88,0,0,1-2.48-3.69c0-1.68,1.11-2.73,2.48-2.37A3.88,3.88,0,0,1,270.87,389.19Z"/><polygon class="cls-18" points="192.29 422.75 139.96 408.73 139.96 284.11 192.29 298.13 192.29 422.75"/><polygon class="cls-15" points="139.96 284.11 139.96 408.73 146.06 407.1 146.06 285.74 139.96 284.11"/><polygon class="cls-17" points="192.29 422.75 139.96 408.73 146.06 407.1 192.29 419.48 192.29 422.75"/><polygon class="cls-19" points="187.94 413.87 150.55 403.85 150.55 289.48 187.94 299.5 187.94 413.87"/><polygon class="cls-18" points="139.96 408.87 87.63 394.85 87.63 270.22 139.96 284.24 139.96 408.87"/><polygon class="cls-15" points="87.63 270.22 87.63 394.85 93.73 393.21 93.73 271.86 87.63 270.22"/><polygon class="cls-17" points="139.96 408.87 87.63 394.85 93.73 393.21 139.96 405.6 139.96 408.87"/><polygon class="cls-22" points="135.61 399.98 98.22 389.96 98.22 275.59 135.61 285.61 135.61 399.98"/><polygon class="cls-18" points="375.45 439.15 423 426.41 423 313.17 375.45 325.91 375.45 439.15"/><polygon class="cls-16" points="423 313.17 423 426.41 417.46 424.92 417.46 314.66 423 313.17"/><polygon class="cls-17" points="375.45 439.15 423 426.41 417.46 424.92 375.45 436.18 375.45 439.15"/><polygon class="cls-19" points="379.41 431.08 413.38 421.98 413.38 318.06 379.41 327.16 379.41 431.08"/><polygon class="cls-18" points="423 426.41 470.55 413.67 470.55 300.43 423 313.17 423 426.41"/><polygon class="cls-16" points="470.55 300.43 470.55 413.67 465 412.18 465 301.92 470.55 300.43"/><polygon class="cls-17" points="423 426.41 470.55 413.67 465 412.18 423 423.44 423 426.41"/><polygon class="cls-20" points="426.95 418.34 460.93 409.24 460.93 305.32 426.95 314.42 426.95 418.34"/><path class="cls-16" d="M400.68,198.11c-4.51,16.84,1.83,33.16,14.15,36.47s26-7.67,30.49-24.51-1.82-33.17-14.15-36.47S405.2,181.27,400.68,198.11Z"/><path class="cls-20" d="M400.68,198.11c3.74-13.94,13.73-23.86,24.06-25,8.38,6.13,12.09,19.73,8.35,33.68s-13.73,23.86-24.06,25C400.65,225.65,397,212.05,400.68,198.11Z"/><polygon class="cls-18" points="414.76 231.9 419.01 230.76 419.01 176.28 414.76 177.42 414.76 231.9"/><polygon class="cls-23" points="73.54 194.48 314.6 259.06 73.54 391.1 73.54 194.48"/><polygon class="cls-22" points="28.05 200.4 326.07 280.25 326.07 297.75 28.05 217.91 28.05 200.4"/><polygon class="cls-20" points="442.7 79.84 326.07 280.24 326.07 298.06 442.7 97.66 559.34 235.54 559.34 217.73 442.7 79.84"/><polygon class="cls-24" points="144.69 0 442.7 79.84 326.07 280.25 28.05 200.4 144.69 0"/><polygon class="cls-25" points="202.16 304.61 271.37 323.15 271.37 329.99 202.16 311.45 202.16 304.61"/><polygon class="cls-26" points="202.16 304.61 271.37 323.15 292.57 317.46 223.36 298.92 202.16 304.61"/><polygon class="cls-21" points="292.57 317.46 292.57 324.31 271.37 329.99 271.37 323.15 292.57 317.46"/><polygon class="cls-10" points="511.57 206.27 511.57 402.89 314.6 455.68 511.57 206.27"/><polygon class="cls-20" points="354.08 157.92 124.63 96.61 79.91 173.41 309.35 234.72 354.08 157.92"/><polygon class="cls-27" points="352.39 153.74 122.94 92.43 78.22 169.22 307.66 230.54 352.39 153.74"/><path class="cls-14" d="M123.73,179.2,82.18,168.07l42.69-72,41.55,11.13Zm88-59.91-41.55-11.13-42.69,72,41.55,11.13Zm45.35,12.11-41.55-11.13-42.68,72,41.54,11.13Zm45.35,12.11-41.55-11.13-42.68,72,41.54,11.13Zm45.35,12.11-41.55-11.13-42.68,72,41.55,11.14Z"/><polygon class="cls-28" points="123.97 94.26 81.29 166.28 122.84 177.41 165.52 105.39 123.97 94.26"/><path class="cls-29" d="M88.72,157.72l-3.8,6.41.44,1.1,7.07,1.9,1.45-.6,3.8-6.41-.44-1.1-7.07-1.9Zm5.1-8.6-3.8,6.4.44,1.11,7.07,1.89,1.45-.6,3.8-6.4-.44-1.11-7.08-1.89Zm5.1-8.6-3.8,6.4.44,1.11,7.07,1.89,1.45-.6,3.8-6.4-.44-1.11-7.08-1.89Zm5.09-8.61-3.79,6.41.44,1.1,7.07,1.9,1.45-.6,3.8-6.41-.44-1.1-7.08-1.9Zm5.1-8.6-3.79,6.4.44,1.11,7.07,1.89,1.45-.6,3.79-6.4-.43-1.11-7.08-1.89Zm5.1-8.61-3.79,6.41.43,1.11,7.08,1.89,1.45-.6,3.79-6.4-.43-1.11-7.08-1.9Zm5.1-8.6-3.79,6.41.43,1.1,7.08,1.9,1.45-.6,3.79-6.41-.44-1.1-7.07-1.9Zm5.1-8.6-3.8,6.4.44,1.11,7.08,1.89,1.45-.6,3.79-6.4-.44-1.11-7.07-1.89ZM98.22,160.27l-3.79,6.4.43,1.11,7.08,1.9,1.45-.61,3.79-6.4-.43-1.11-7.08-1.89Zm5.1-8.6-3.79,6.4.43,1.11,7.08,1.89,1.45-.6,3.79-6.4-.43-1.11-7.08-1.89Zm5.1-8.61-3.79,6.41.43,1.1,7.08,1.9,1.45-.6,3.79-6.41-.44-1.1-7.07-1.9Zm5.1-8.6-3.8,6.4.44,1.11,7.08,1.89,1.44-.6,3.8-6.4-.44-1.11L115,133.86Zm5.1-8.6-3.8,6.4.44,1.11,7.08,1.89,1.44-.6,3.8-6.4-.44-1.11-7.07-1.9Zm5.1-8.61-3.8,6.41.44,1.1,7.07,1.9,1.45-.6,3.8-6.41-.44-1.1-7.07-1.9Zm5.1-8.6-3.8,6.4.44,1.11,7.07,1.89,1.45-.6,3.8-6.4-.44-1.11-7.08-1.89Zm5.1-8.61-3.8,6.41.44,1.1,7.07,1.9,1.45-.6,3.8-6.4-.44-1.11-7.08-1.9Zm-26.19,62.78-3.8,6.4.44,1.11,7.07,1.89,1.45-.6,3.8-6.4-.44-1.11-7.07-1.89Zm5.1-8.61-3.8,6.41.44,1.1,7.07,1.9L118,163l3.8-6.41-.44-1.1-7.08-1.9Zm5.1-8.6-3.8,6.4.44,1.11,7.07,1.9,1.45-.61,3.8-6.4-.44-1.11L119.37,145ZM123,137l-3.79,6.4.44,1.11,7.07,1.89,1.45-.6,3.8-6.4-.44-1.11-7.08-1.89Zm5.1-8.61-3.79,6.41.44,1.1,7.07,1.9,1.45-.6,3.79-6.41-.43-1.1-7.08-1.9Zm5.1-8.6-3.79,6.4.43,1.11,7.08,1.89,1.45-.6,3.79-6.4-.43-1.11-7.08-1.89Zm5.1-8.6-3.79,6.4.43,1.11L142,120.6l1.45-.6,3.79-6.4-.43-1.11-7.08-1.9Zm5.1-8.61L139.63,109l.43,1.1,7.08,1.9,1.45-.6,3.79-6.41-.44-1.1-7.07-1.9Zm-26.19,62.77-3.79,6.41.43,1.1,7.08,1.9,1.45-.6,3.79-6.41-.43-1.1-7.08-1.9Zm5.1-8.6-3.79,6.4.43,1.11,7.08,1.9,1.45-.6,3.79-6.41-.43-1.1-7.08-1.9Zm5.1-8.6-3.79,6.4.43,1.11,7.08,1.89,1.45-.6,3.79-6.4-.44-1.11-7.07-1.89Zm5.1-8.61-3.8,6.41.44,1.1,7.08,1.9,1.44-.6,3.8-6.41-.44-1.1L134,139Zm5.1-8.6-3.8,6.4.44,1.11,7.08,1.89,1.44-.6,3.8-6.4-.44-1.11-7.07-1.89Zm5.1-8.6-3.8,6.4.44,1.11,7.07,1.89,1.45-.6,3.8-6.4-.44-1.11-7.07-1.89Zm5.1-8.61-3.8,6.41.44,1.1,7.07,1.9,1.45-.6,3.8-6.41-.44-1.1-7.08-1.9Zm5.1-8.6-3.8,6.4.44,1.11,7.07,1.89,1.45-.6,3.8-6.4-.44-1.11-7.08-1.89Z"/><polygon class="cls-28" points="169.32 106.37 126.64 178.39 168.19 189.52 210.87 117.5 169.32 106.37"/><path class="cls-29" d="M134.07,169.83l-3.8,6.41.44,1.1,7.08,1.9,1.44-.6,3.8-6.41-.44-1.1-7.07-1.9Zm5.1-8.6-3.8,6.4.44,1.11,7.07,1.9,1.45-.6,3.8-6.41-.44-1.1-7.07-1.9Zm5.1-8.6-3.8,6.4.44,1.11L148,162l1.45-.6,3.8-6.4-.44-1.11L145.71,152Zm5.1-8.61-3.8,6.41.44,1.1,7.07,1.9,1.45-.6,3.8-6.41-.44-1.1-7.08-1.9Zm5.09-8.6-3.79,6.4.44,1.11,7.07,1.9,1.45-.6,3.8-6.41-.44-1.11-7.08-1.89Zm5.1-8.6-3.79,6.4.43,1.11,7.08,1.89,1.45-.6,3.79-6.4-.43-1.11L161,126.22Zm5.1-8.61-3.79,6.41.43,1.1,7.08,1.9,1.45-.6,3.79-6.41-.43-1.1-7.08-1.9Zm5.1-8.6L166,116l.43,1.11,7.08,1.89,1.45-.6,3.79-6.4-.44-1.11L171.21,109Zm-26.19,62.77-3.79,6.4.44,1.11,7.07,1.9,1.45-.6,3.79-6.41-.43-1.1-7.08-1.9Zm5.1-8.6-3.79,6.4.43,1.11,7.08,1.89,1.45-.6,3.79-6.4-.43-1.11-7.08-1.89Zm5.1-8.61L150,161.58l.43,1.1,7.08,1.9,1.45-.6,3.79-6.41-.44-1.1-7.07-1.9Zm5.1-8.6-3.79,6.4.43,1.11,7.08,1.9,1.45-.6,3.79-6.41-.44-1.1-7.07-1.9ZM164,138l-3.8,6.4.44,1.11,7.08,1.89,1.44-.6,3.8-6.4-.44-1.11-7.07-1.89Zm5.1-8.61-3.8,6.41.44,1.1,7.08,1.9,1.44-.6,3.8-6.41-.44-1.1-7.07-1.9Zm5.1-8.6-3.8,6.4.44,1.11,7.07,1.9,1.45-.61,3.8-6.4-.44-1.11-7.07-1.89Zm5.1-8.6-3.8,6.4.44,1.11,7.07,1.89,1.45-.6,3.8-6.4-.44-1.11-7.08-1.89Zm-26.19,62.77-3.8,6.4.44,1.11,7.08,1.89,1.44-.6,3.8-6.4-.44-1.11-7.07-1.89Zm5.1-8.61-3.8,6.41.44,1.1,7.07,1.9,1.45-.6,3.8-6.41-.44-1.1-7.07-1.9Zm5.1-8.6-3.8,6.4.44,1.11,7.07,1.9,1.45-.6,3.8-6.41-.44-1.1-7.08-1.9Zm5.1-8.6-3.8,6.4.44,1.11,7.07,1.89,1.45-.6,3.8-6.4-.44-1.11-7.08-1.89Zm5.09-8.61-3.79,6.41.44,1.1,7.07,1.9,1.45-.6,3.8-6.41-.44-1.1-7.08-1.9Zm5.1-8.6-3.79,6.4.44,1.11,7.07,1.9,1.45-.6,3.79-6.41-.43-1.1-7.08-1.9Zm5.1-8.6-3.79,6.4.43,1.11,7.08,1.89,1.45-.6,3.79-6.4-.43-1.11-7.08-1.89Zm5.1-8.61L185,121.11l.43,1.1,7.08,1.9,1.45-.6,3.79-6.41-.43-1.1-7.08-1.9Zm-26.19,62.77-3.79,6.41.44,1.1,7.07,1.9,1.45-.6,3.79-6.4-.43-1.11-7.08-1.9Zm5.1-8.6-3.79,6.41.43,1.1,7.08,1.9,1.45-.6,3.79-6.41-.43-1.1-7.08-1.9Zm5.1-8.6-3.79,6.4.43,1.11,7.08,1.89,1.45-.6,3.79-6.4-.43-1.11-7.08-1.89Zm5.1-8.61-3.79,6.41.43,1.1,7.08,1.9,1.45-.6,3.79-6.41-.44-1.1-7.07-1.9Zm5.1-8.6-3.8,6.4.44,1.11,7.08,1.9,1.44-.6,3.8-6.41-.44-1.1-7.07-1.9Zm5.1-8.6-3.8,6.4.44,1.11,7.08,1.89,1.44-.6,3.8-6.4-.44-1.11-7.07-1.89Zm5.1-8.61-3.8,6.41.44,1.1,7.07,1.9,1.45-.6,3.8-6.41-.44-1.1-7.07-1.9Zm5.1-8.6-3.8,6.4.44,1.11,7.07,1.9,1.45-.6,3.8-6.41-.44-1.1-7.08-1.9Z"/><polygon class="cls-28" points="214.67 118.48 171.99 190.5 213.54 201.63 256.22 129.61 214.67 118.48"/><path class="cls-29" d="M179.42,181.94l-3.8,6.41.44,1.1,7.08,1.9,1.44-.6,3.8-6.4-.44-1.11-7.07-1.9Zm5.1-8.6-3.8,6.41.44,1.1,7.08,1.9,1.44-.6,3.8-6.41-.44-1.1-7.07-1.9Zm5.1-8.6-3.8,6.4.44,1.11,7.07,1.89,1.45-.6,3.8-6.4-.44-1.11-7.07-1.89Zm5.1-8.61-3.8,6.41.44,1.1,7.07,1.9,1.45-.6,3.8-6.41-.44-1.1-7.08-1.9Zm5.1-8.6-3.8,6.41.44,1.1,7.07,1.9,1.45-.6,3.8-6.41-.44-1.1-7.08-1.9Zm5.09-8.6-3.79,6.4.44,1.11,7.07,1.89,1.45-.6,3.8-6.4-.44-1.11-7.08-1.89Zm5.1-8.61-3.79,6.41.43,1.1,7.08,1.9,1.45-.6,3.79-6.41-.43-1.1-7.08-1.9Zm5.1-8.6-3.79,6.4.43,1.11,7.08,1.9,1.45-.6,3.79-6.41-.43-1.1-7.08-1.9Zm-26.19,62.77-3.79,6.41.44,1.1,7.07,1.9,1.45-.6,3.8-6.41-.44-1.1-7.08-1.9Zm5.1-8.6-3.79,6.4.44,1.11,7.07,1.89,1.45-.6,3.79-6.4-.43-1.11-7.08-1.89Zm5.1-8.61-3.79,6.41.43,1.1,7.08,1.9,1.45-.6,3.79-6.4-.43-1.11-7.08-1.9Zm5.1-8.6-3.79,6.41.43,1.1,7.08,1.9,1.45-.6,3.79-6.41-.44-1.1-7.07-1.9Zm5.1-8.6-3.8,6.4.44,1.11,7.08,1.89,1.45-.6,3.79-6.4-.44-1.11-7.07-1.89Zm5.1-8.61-3.8,6.41.44,1.1,7.08,1.9,1.44-.6,3.8-6.41-.44-1.1-7.07-1.9Zm5.1-8.6-3.8,6.4.44,1.11,7.08,1.9,1.44-.6,3.8-6.41-.44-1.1-7.07-1.9Zm5.1-8.6-3.8,6.4.44,1.11,7.07,1.89,1.45-.6,3.8-6.4-.44-1.11-7.07-1.89ZM198.43,187l-3.8,6.4.44,1.11,7.08,1.89,1.44-.6,3.8-6.4-.44-1.11-7.07-1.89Zm5.1-8.61-3.8,6.41.44,1.1,7.08,1.9,1.44-.6,3.8-6.4-.44-1.11-7.07-1.9Zm5.1-8.6-3.8,6.41.44,1.1,7.07,1.9,1.45-.6,3.8-6.41-.44-1.1-7.07-1.9Zm5.1-8.6-3.8,6.4.44,1.11,7.07,1.89,1.45-.6,3.8-6.4-.44-1.11-7.08-1.89Zm5.1-8.61L215,159l.44,1.1,7.07,1.9,1.45-.6,3.8-6.4-.44-1.11-7.08-1.9Zm5.09-8.6-3.79,6.41.44,1.1,7.07,1.9,1.45-.6,3.8-6.41-.44-1.1-7.08-1.9Zm5.1-8.6-3.79,6.4.44,1.11,7.07,1.89,1.45-.6,3.79-6.4-.43-1.11-7.08-1.89Zm5.1-8.61-3.79,6.41.43,1.1,7.08,1.9,1.45-.6,3.79-6.41-.43-1.1-7.08-1.9Zm-26.19,62.78-3.79,6.4.44,1.11,7.07,1.89,1.45-.6,3.8-6.4-.44-1.11-7.08-1.9ZM213,181l-3.79,6.41.44,1.1,7.07,1.9,1.45-.6,3.79-6.41-.43-1.1-7.08-1.9Zm5.1-8.6-3.79,6.4.43,1.11,7.08,1.89,1.45-.6,3.79-6.4-.43-1.11-7.08-1.89Zm5.1-8.61-3.79,6.41.43,1.1,7.08,1.9,1.45-.6,3.79-6.4-.43-1.11-7.08-1.9Zm5.1-8.6-3.79,6.41.43,1.1,7.08,1.9,1.45-.6,3.79-6.41-.44-1.1-7.07-1.9Zm5.1-8.6-3.8,6.4.44,1.11,7.08,1.89,1.44-.6,3.8-6.4-.44-1.11L234.88,146Zm5.1-8.61-3.8,6.41.44,1.1,7.08,1.9,1.44-.6,3.8-6.41-.44-1.1-7.07-1.9Zm5.1-8.6-3.8,6.41.44,1.1,7.07,1.9,1.45-.6,3.8-6.41-.44-1.1-7.07-1.9Z"/><polygon class="cls-28" points="260.02 130.59 217.34 202.61 258.89 213.74 301.57 141.72 260.02 130.59"/><path class="cls-29" d="M224.77,194.06l-3.8,6.4.44,1.11,7.08,1.89,1.45-.6,3.79-6.4-.44-1.11-7.07-1.89Zm5.1-8.61-3.8,6.41.44,1.1,7.08,1.9,1.44-.6,3.8-6.41-.44-1.1-7.07-1.9Zm5.1-8.6-3.8,6.4.44,1.11,7.08,1.89,1.44-.6,3.8-6.4-.44-1.11-7.07-1.89Zm5.1-8.61-3.8,6.41.44,1.11,7.07,1.89,1.45-.6,3.8-6.4-.44-1.11-7.07-1.9Zm5.1-8.6-3.8,6.41.44,1.1,7.07,1.9,1.45-.6,3.8-6.41-.44-1.1-7.08-1.9Zm5.1-8.6-3.8,6.4.44,1.11,7.07,1.89,1.45-.6,3.8-6.4-.44-1.11-7.08-1.89Zm5.09-8.61-3.79,6.41.44,1.1,7.07,1.9,1.45-.6,3.79-6.4-.43-1.11-7.08-1.9Zm5.1-8.6-3.79,6.41.43,1.1,7.08,1.9,1.45-.6,3.79-6.41-.43-1.1-7.08-1.9ZM234.28,196.6l-3.8,6.41.44,1.1L238,206l1.45-.6,3.8-6.41-.44-1.1-7.08-1.9Zm5.09-8.6-3.79,6.4.44,1.11,7.07,1.89,1.45-.6,3.8-6.4-.44-1.11-7.08-1.89Zm5.1-8.6-3.79,6.4.44,1.11,7.07,1.89,1.45-.6,3.79-6.4-.43-1.11-7.08-1.89Zm5.1-8.61-3.79,6.41.43,1.1,7.08,1.9,1.45-.6,3.79-6.41-.43-1.1-7.08-1.9Zm5.1-8.6-3.79,6.4.43,1.11,7.08,1.89,1.45-.6,3.79-6.4-.44-1.11-7.07-1.89Zm5.1-8.61L256,160l.44,1.11,7.08,1.89,1.45-.6,3.79-6.4-.44-1.11-7.07-1.9Zm5.1-8.6-3.8,6.41.44,1.1,7.08,1.9,1.44-.6,3.8-6.41-.44-1.1-7.07-1.9Zm5.1-8.6-3.8,6.4.44,1.11,7.08,1.89,1.44-.6,3.8-6.4-.44-1.11-7.07-1.89Zm-26.19,62.77-3.79,6.4.43,1.11,7.08,1.9L249,208l3.79-6.4-.44-1.11-7.07-1.89Zm5.1-8.6-3.8,6.4.44,1.11L252.6,200l1.44-.6,3.8-6.4-.44-1.11L250.33,190Zm5.1-8.61-3.8,6.41.44,1.1,7.08,1.9,1.44-.6,3.8-6.41-.44-1.1-7.07-1.9Zm5.1-8.6-3.8,6.4.44,1.11,7.07,1.89,1.45-.6,3.8-6.4-.44-1.11-7.07-1.89Zm5.1-8.6-3.8,6.4.44,1.11,7.07,1.89,1.45-.6,3.8-6.4L272.7,166l-7.08-1.9Zm5.1-8.61-3.8,6.41.44,1.1,7.07,1.9,1.45-.6,3.8-6.41-.44-1.1-7.08-1.9Zm5.09-8.6-3.79,6.4L271,155l7.07,1.89,1.45-.6,3.8-6.4-.44-1.11-7.08-1.89Zm5.1-8.61-3.79,6.41.44,1.1,7.07,1.9,1.45-.6,3.79-6.4-.43-1.11-7.08-1.9ZM253.29,201.7l-3.8,6.4.44,1.11L257,211.1l1.45-.6,3.8-6.4-.44-1.11-7.08-1.89Zm5.09-8.61-3.79,6.41.44,1.1,7.07,1.9,1.45-.6,3.8-6.41-.44-1.1-7.08-1.9Zm5.1-8.6-3.79,6.4.44,1.11,7.07,1.9,1.45-.61,3.79-6.4-.43-1.11-7.08-1.89Zm5.1-8.6-3.79,6.4.43,1.11,7.08,1.89,1.45-.6,3.79-6.4-.43-1.11L270,175.29Zm5.1-8.61-3.79,6.41.43,1.1,7.08,1.9,1.45-.6,3.79-6.41-.43-1.1-7.08-1.9Zm5.1-8.6-3.79,6.4.43,1.11,7.08,1.89,1.45-.6,3.79-6.4L287.3,160l-7.07-1.89Zm5.1-8.6-3.8,6.4.44,1.11,7.08,1.89,1.44-.6,3.8-6.4-.44-1.11-7.07-1.9Zm5.1-8.61-3.8,6.41.44,1.1,7.08,1.9,1.44-.6,3.8-6.41-.44-1.1-7.07-1.9Z"/><polygon class="cls-28" points="305.38 142.7 262.69 214.72 304.24 225.85 346.92 153.83 305.38 142.7"/><path class="cls-29" d="M270.12,206.17l-3.79,6.4.43,1.11,7.08,1.89,1.45-.6,3.79-6.4-.44-1.11-7.07-1.89Zm5.1-8.61-3.8,6.41.44,1.1,7.08,1.9,1.45-.6,3.79-6.41-.44-1.1-7.07-1.9Zm5.1-8.6-3.8,6.4.44,1.11,7.08,1.9,1.44-.6,3.8-6.41-.44-1.11-7.07-1.89Zm5.1-8.6-3.8,6.4.44,1.11,7.08,1.89,1.44-.6,3.8-6.4-.44-1.11-7.07-1.89Zm5.1-8.61-3.8,6.41.44,1.1,7.07,1.9,1.45-.6,3.8-6.41-.44-1.1-7.07-1.9Zm5.1-8.6-3.8,6.4.44,1.11,7.07,1.89,1.45-.6,3.8-6.4-.44-1.11-7.08-1.89Zm5.1-8.6-3.8,6.4.44,1.11,7.07,1.89,1.45-.6,3.8-6.4-.44-1.11L302.16,154Zm5.09-8.61L302,152.35l.44,1.1,7.07,1.9,1.45-.6,3.79-6.41-.43-1.1-7.08-1.9Zm-26.18,62.77-3.8,6.41.44,1.1,7.07,1.9,1.45-.6,3.8-6.41-.44-1.1-7.08-1.9Zm5.1-8.6-3.8,6.4.44,1.11,7.07,1.9,1.45-.6,3.8-6.41-.44-1.1-7.08-1.9Zm5.09-8.6-3.79,6.4.44,1.11,7.07,1.89,1.45-.6,3.8-6.4-.44-1.11-7.08-1.89Zm5.1-8.61-3.79,6.41.43,1.1,7.08,1.9,1.45-.6,3.79-6.41-.43-1.1-7.08-1.9Zm5.1-8.6-3.79,6.4.43,1.11,7.08,1.9,1.45-.61,3.79-6.4-.43-1.11-7.08-1.89Zm5.1-8.6-3.79,6.4.43,1.11,7.08,1.89,1.45-.6,3.79-6.4-.44-1.11-7.07-1.89Zm5.1-8.61-3.8,6.41.44,1.1,7.08,1.9,1.45-.6,3.79-6.41-.44-1.1-7.07-1.9Zm5.1-8.6-3.8,6.4L312,156l7.08,1.89,1.44-.6,3.8-6.4-.44-1.11-7.07-1.89Zm-26.19,62.77-3.79,6.4.43,1.11,7.08,1.9,1.45-.6,3.79-6.41-.44-1.1-7.07-1.9Zm5.1-8.6-3.8,6.4.44,1.11,7.08,1.89,1.45-.6,3.79-6.4-.44-1.11-7.07-1.89Zm5.1-8.61-3.8,6.41.44,1.1,7.08,1.9,1.44-.6,3.8-6.41-.44-1.1-7.07-1.9Zm5.1-8.6-3.8,6.4.44,1.11,7.08,1.9,1.44-.6,3.8-6.41-.44-1.1-7.07-1.9Zm5.1-8.6-3.8,6.4.44,1.11,7.07,1.89,1.45-.6,3.8-6.4-.44-1.11L311,176.25Zm5.1-8.61-3.8,6.41.44,1.1,7.07,1.9,1.45-.6,3.8-6.41-.44-1.1-7.08-1.9Zm5.1-8.6-3.8,6.4.44,1.11,7.07,1.9,1.45-.61,3.8-6.4-.44-1.11L321.17,159Zm5.09-8.6-3.79,6.4.44,1.11,7.07,1.89,1.45-.6,3.8-6.4-.44-1.11-7.08-1.89Zm-26.18,62.77-3.8,6.4.44,1.11,7.07,1.89,1.45-.6,3.8-6.4-.44-1.11-7.08-1.89Zm5.1-8.61-3.8,6.41.44,1.1,7.07,1.9,1.45-.6,3.8-6.41-.44-1.1-7.08-1.9Zm5.09-8.6L305,203l.44,1.11,7.07,1.9,1.45-.6,3.8-6.41-.44-1.1-7.08-1.9Zm5.1-8.6-3.79,6.4.44,1.11,7.07,1.89,1.45-.6,3.79-6.4-.43-1.11-7.08-1.89Zm5.1-8.61-3.79,6.41.43,1.1,7.08,1.9,1.45-.6,3.79-6.41-.43-1.1-7.08-1.9Zm5.1-8.6-3.79,6.4.43,1.11,7.08,1.9,1.45-.6,3.79-6.41-.44-1.1-7.07-1.9Zm5.1-8.6-3.8,6.4.44,1.11,7.08,1.89,1.45-.6,3.79-6.4-.44-1.11-7.07-1.89Zm5.1-8.61-3.8,6.41.44,1.1,7.08,1.9,1.44-.6,3.8-6.41-.44-1.1-7.07-1.9Z"/><polygon class="cls-23" points="352.39 153.74 78.22 169.22 122.94 92.43 352.39 153.74"/><path class="cls-10" d="M596.81,419.19c0,6.93-21.59,12.55-48.23,12.55s-48.22-5.62-48.22-12.55,21.59-12.56,48.22-12.56S596.81,412.25,596.81,419.19Z"/><path class="cls-3" d="M575.51,419.84c0,4.62-16.19,8.37-36.17,8.37s-36.16-3.75-36.16-8.37,16.19-8.37,36.16-8.37S575.51,415.22,575.51,419.84Z"/><path class="cls-1" d="M550.89,408.79c-1.08-.63,1.22-7.37,1.38-12.44,0,0-5.34,9.4-3.68,14.19a72.59,72.59,0,0,1-9.65,5.72c-.61-7.75-1.1-13.11-1.49-16.8-.1-.93,9.07-17.32,8.6-16.72-3.77,4.75-5.5,5.61-8.68,11.24-1,1.79-3.44-14.39-3.44-14.39-1.3,1,.18,12.1-.32,14.56a48.51,48.51,0,0,0-.6,5.45c-.14,2.26-.47,7.63-.75,9.9-2.41-.56-7-6-12.85-16.48,0,0,4.46,18,12.16,20.24-.07.86-.11,1.63-.14,2.35-9.37-3.37-26.12-8.28-32.94-13.92,0,0,3.2,8.14,31.34,15.71l1.18,1.24a2.13,2.13,0,0,0,2.26,2c1.67.08,3.67-.26,4.57,1.1s1.87-.34,4.69-2.09A18.5,18.5,0,0,0,545,417.4c10.91-8.29,22.79-21.47,22.79-21.47C565,399,553.24,406.43,550.89,408.79Z"/><path class="cls-11" d="M583.11,387.06A11.12,11.12,0,0,0,571,385.13a21.72,21.72,0,0,0-17.8-15.83,22.23,22.23,0,0,0,4-13.42,21.46,21.46,0,0,0-42.91-.82,21,21,0,0,0-7.81-1.29,21.76,21.76,0,0,0-20.87,22.6,22.31,22.31,0,0,0,1.37,7.07,22.29,22.29,0,0,0-2.8,11.44,21.76,21.76,0,0,0,22.1,21.4,21,21,0,0,0,10.21-3c.19.19.33.4.52.58a13.57,13.57,0,0,0,19.16-.85,13.32,13.32,0,0,0,2.36-3.55,20.93,20.93,0,0,0,20,2,8,8,0,0,0,2.31,4,8.23,8.23,0,0,0,11.63-.56,8.37,8.37,0,0,0,1.88-8.2A11.48,11.48,0,0,0,583.5,403,11.29,11.29,0,0,0,583.11,387.06Z"/><path class="cls-8" d="M542.3,347.89a4,4,0,1,1-4-4A4,4,0,0,1,542.3,347.89Z"/><path class="cls-8" d="M532.92,346a1.88,1.88,0,1,1-1.88-1.88A1.88,1.88,0,0,1,532.92,346Z"/><path class="cls-8" d="M576.86,388.31a1.88,1.88,0,1,1-1.88-1.88A1.88,1.88,0,0,1,576.86,388.31Z"/><g class="cls-12"><path class="cls-9" d="M506.29,416.28a21,21,0,0,0,10.21-3c.19.19.33.4.52.58a13.57,13.57,0,0,0,19.16-.85,13.32,13.32,0,0,0,2.36-3.55,20.93,20.93,0,0,0,20,2,8,8,0,0,0,2.31,4,8.23,8.23,0,0,0,11.63-.56,8.37,8.37,0,0,0,1.88-8.2A11.52,11.52,0,0,0,584.76,389c-1.4,3.4-3.44,7.57-5.55,9.33-3.85,3.18-8.07-4-12-7.79s-5.7.38-11.08,3.1-10.67-2.17-18.82-4.75-22.28,8.94-26.9,10.49-11.51,5.75-20,1.91a17.17,17.17,0,0,1-6.14-4.68A21.69,21.69,0,0,0,506.29,416.28Z"/><path class="cls-9" d="M554,387.5a4.6,4.6,0,1,1-4.6-4.59A4.6,4.6,0,0,1,554,387.5Z"/><path class="cls-9" d="M501.8,382.26a3.87,3.87,0,1,1-3.87-3.87A3.87,3.87,0,0,1,501.8,382.26Z"/><path class="cls-9" d="M559.58,386.13a2.11,2.11,0,1,1-2.12-2.11A2.11,2.11,0,0,1,559.58,386.13Z"/><path class="cls-9" d="M492.3,381.91a2.11,2.11,0,1,1-2.11-2.11A2.11,2.11,0,0,1,492.3,381.91Z"/><path class="cls-9" d="M504,376a2.16,2.16,0,1,1-2.16-2.15A2.15,2.15,0,0,1,504,376Z"/></g><path class="cls-8" d="M535.12,334.49a21.67,21.67,0,0,0-20.82,20.57,21,21,0,0,0-7.81-1.29,21.44,21.44,0,0,0-18.67,12.28c9.28-6.92,23.76-4.95,30.8-3.41a1.35,1.35,0,0,0,1.31-2.21l-2.17-2.53a2.41,2.41,0,0,1-.25-2.81c3.11-5.22,14.81-21.36,35.74-11.33A21.34,21.34,0,0,0,535.12,334.49Z"/><path class="cls-8" d="M553.23,369.24a43.94,43.94,0,0,0-20.31,7.86s13.64-3.93,25.93-2.65a35.46,35.46,0,0,1,7.34,1.87,21.35,21.35,0,0,0-13-7Z"/><path class="cls-11" d="M529.81,399.39a4,4,0,1,1-4-4A4,4,0,0,1,529.81,399.39Z"/><path class="cls-11" d="M531,392.65a1.89,1.89,0,1,1-1.88-1.88A1.88,1.88,0,0,1,531,392.65Z"/></g></g></g></svg>
