<?xml version="1.0" encoding="UTF-8"?>
<svg id="Layer_1" xmlns="http://www.w3.org/2000/svg" version="1.1" viewBox="0 0 100 100">
  <!-- Generator: Adobe Illustrator 29.0.0, SVG Export Plug-In . SVG Version: 2.1.0 Build 186)  -->
  <defs>
    <style>
      .st0 {
        fill: #977677;
      }

      .st1 {
        fill: #fcf4e0;
      }

      .st2 {
        fill: #51a200;
      }

      .st3 {
        fill: #7b5b00;
      }

      .st4 {
        fill: #6fde00;
      }

      .st5 {
        fill: #2f5e00;
      }

      .st6 {
        fill: #926d00;
      }

      .st7 {
        fill: #836100;
      }

      .st8 {
        fill: #51a300;
      }

      .st9 {
        opacity: .2;
      }

      .st9, .st10, .st11, .st12 {
        isolation: isolate;
      }

      .st13 {
        fill: #56ad00;
      }

      .st14 {
        fill: #306100;
      }

      .st15 {
        fill: #418400;
      }

      .st16 {
        fill: #5bb900;
      }

      .st17 {
        fill: #52a600;
      }

      .st18 {
        fill: #6cd900;
      }

      .st19 {
        fill: #98797a;
      }

      .st20 {
        fill: #63c600;
      }

      .st21 {
        fill: #4e303a;
      }

      .st22 {
        fill: #87909c;
      }

      .st23 {
        fill: #6edc00;
      }

      .st24 {
        fill: #7b5c00;
      }

      .st10 {
        fill: #c4bccc;
      }

      .st10, .st25, .st12 {
        mix-blend-mode: multiply;
      }

      .st26 {
        fill: #70485a;
      }

      .st27 {
        fill: #c2dd76;
      }

      .st28 {
        fill: #356b00;
      }

      .st29 {
        fill: #5ab500;
      }

      .st30 {
        fill: #8d6900;
      }

      .st31 {
        fill: #3d7c00;
      }

      .st32 {
        fill: #ab7f00;
      }

      .st33 {
        fill: #505f78;
      }

      .st34 {
        fill: #6ddb00;
      }

      .st35 {
        fill: #3b7700;
      }

      .st36 {
        fill: #52a400;
      }

      .st37 {
        fill: #59b200;
      }

      .st38 {
        fill: #70e100;
      }

      .st39 {
        fill: #70e000;
      }

      .st40 {
        fill: #816000;
      }

      .st41 {
        fill: #4b9700;
      }

      .st42 {
        fill: #2e5d00;
      }

      .st43 {
        fill: #445166;
      }

      .st44 {
        fill: #5ebd00;
      }

      .st45 {
        fill: #4b9800;
      }

      .st46 {
        fill: #4c9a00;
      }

      .st47 {
        fill: #916c00;
      }

      .st48 {
        fill: #6bd700;
      }

      .st49 {
        fill: #56ae00;
      }

      .st50 {
        fill: #3d7b00;
      }

      .st51 {
        fill: #55ac00;
      }

      .st52 {
        fill: #906b00;
      }

      .st53 {
        fill: #a97e00;
      }

      .st54 {
        fill: #ae8100;
      }

      .st55 {
        fill: #7d5d00;
      }

      .st56 {
        fill: #5dbd00;
      }

      .st57 {
        fill: #8b6700;
      }

      .st58 {
        fill: #50a000;
      }

      .st59 {
        fill: #49576e;
      }

      .st60 {
        fill: #895b6b;
      }

      .st61 {
        fill: #60c100;
      }

      .st62 {
        fill: #3c7800;
      }

      .st63 {
        fill: #7e5e00;
      }

      .st64 {
        fill: #50a100;
      }

      .st65 {
        fill: #458b00;
      }

      .st66 {
        fill: #846200;
      }

      .st67 {
        fill: #2d5a00;
      }

      .st12, .st68 {
        fill: #897998;
      }

      .st69 {
        fill: #513c00;
      }

      .st70 {
        fill: #69d200;
      }

      .st71 {
        fill: #7c5c00;
      }

      .st72 {
        fill: #7a5b00;
      }

      .st73 {
        fill: #a0a9b8;
      }

      .st74 {
        fill: #836200;
      }

      .st75 {
        fill: #805f00;
      }

      .st76 {
        fill: #d6e371;
      }

      .st77 {
        fill: #8b6800;
      }

      .st78 {
        fill: #68d000;
      }

      .st79 {
        fill: #63c700;
      }

      .st80 {
        fill: #60c000;
      }

      .st81 {
        fill: #5cba00;
      }

      .st82 {
        fill: #6edd00;
      }

      .st83 {
        fill: #f3ebd8;
      }

      .st84 {
        fill: #a7aeb9;
      }

      .st85 {
        fill: #826100;
      }

      .st86 {
        fill: #aa7f00;
      }

      .st87 {
        fill: #64c800;
      }

      .st88 {
        fill: #3f7e00;
      }

      .st89 {
        fill: #65cb00;
      }

      .st90 {
        fill: #2c5a00;
      }

      .st91 {
        fill: #285100;
      }

      .st92 {
        fill: #801a29;
      }

      .st93 {
        fill: #b18400;
      }

      .st94 {
        fill: #886500;
      }

      .st95 {
        fill: #489100;
      }

      .st96 {
        fill: #64c900;
      }

      .st97 {
        fill: #a98d8e;
      }

      .st98 {
        fill: #5bb800;
      }

      .st99 {
        fill: #54aa00;
      }

      .st100 {
        fill: #4e9e00;
      }

      .st101 {
        fill: #e5dad5;
      }

      .st102 {
        fill: #360;
      }

      .st103 {
        fill: #b4bbc7;
      }

      .st104 {
        fill: #876400;
      }

      .st105 {
        fill: #4e9d00;
      }

      .st106 {
        fill: #929ba8;
      }

      .st107 {
        fill: #f44a47;
      }

      .st108 {
        fill: #57af00;
      }

      .st109 {
        fill: #3f8000;
      }

      .st110 {
        fill: #53a700;
      }

      .st111 {
        fill: #6ad400;
      }

      .st112 {
        fill: #f37564;
      }

      .st113 {
        fill: #7f5f00;
      }

      .st114 {
        fill: #4d6e4a;
      }
    </style>
  </defs>
  <g class="st11">
    <g id="Layer_11">
      <g>
        <path class="st9" d="M35.2,66c.8.7,1,1.4.4,2,0-.8-.2-1.4-.4-2Z"/>
        <g>
          <polygon class="st3" points="17.4 56.8 17.3 56.4 17.2 56.3 16.7 54.6 17 55.1 17.4 56.8"/>
          <polygon class="st93" points="17.3 56.4 17.4 56.8 18.9 56.8 19.5 56.4 19.6 56.1 20 56.3 19.1 57 17.1 57 16.8 56.4 17.2 56.3 17.3 56.4"/>
          <polygon class="st85" points="18.9 56.8 17.4 56.8 17 55.1 18.9 55.1 18.9 56.8"/>
          <polygon class="st69" points="19.5 56.4 18.9 56.8 18.9 55.1 19.7 54.4 19.6 56.1 19.5 56.4"/>
          <polygon class="st72" points="17.7 59.3 16.8 56.4 17.1 57 17.9 59.7 17.7 59.3"/>
          <polygon class="st69" points="20 56.3 19.6 59.2 19.1 59.7 19.1 57 20 56.3"/>
          <polygon class="st40" points="19.1 57 19.1 59.7 17.9 59.7 17.1 57 19.1 57"/>
          <polygon class="st93" points="16.7 54.6 17.1 54.5 17.1 54.6 17.3 55 18.6 54.9 19.3 54.5 19.3 54.3 19.7 54.4 18.9 55.1 17 55.1 16.7 54.6"/>
          <polygon class="st69" points="19.3 54.5 18.6 54.9 18.6 53.2 19.5 52.6 19.3 54.3 19.3 54.5"/>
          <polygon class="st7" points="18.6 54.9 17.3 55 16.8 53.2 18.6 53.2 18.6 54.9"/>
          <polygon class="st24" points="17.3 55 17.1 54.6 17.1 54.5 16.6 52.7 16.8 53.2 17.3 55"/>
          <polygon class="st93" points="16.6 52.7 16.9 52.6 16.9 52.8 17.1 53.1 18.4 53.1 19 52.7 19 52.5 19.5 52.6 18.6 53.2 16.8 53.2 16.6 52.7"/>
          <polygon class="st71" points="17.1 53.1 16.9 52.8 16.9 52.6 16.4 50.9 16.6 51.3 17.1 53.1"/>
          <polygon class="st66" points="18.4 53.1 17.1 53.1 16.6 51.3 18.3 51.3 18.4 53.1"/>
          <polygon class="st69" points="19 52.7 18.4 53.1 18.3 51.3 19.2 50.8 19 52.5 19 52.7"/>
          <polygon class="st93" points="16.4 50.9 16.8 50.8 16.8 50.9 16.9 51.3 18.1 51.2 18.7 50.8 18.7 50.7 19.2 50.8 18.3 51.3 16.6 51.3 16.4 50.9"/>
          <polygon class="st55" points="16.9 51.3 16.8 50.9 16.8 50.8 16.2 49 16.5 49.5 16.9 51.3"/>
          <polygon class="st66" points="18.1 51.2 16.9 51.3 16.5 49.5 18.1 49.4 18.1 51.2"/>
          <polygon class="st69" points="18.7 50.8 18.1 51.2 18.1 49.4 18.9 48.9 18.7 50.7 18.7 50.8"/>
          <polygon class="st93" points="16.2 49 16.5 48.9 16.6 49 16.8 49.3 17.9 49.3 18.5 48.9 18.5 48.9 18.9 48.9 18.1 49.4 16.5 49.5 16.2 49"/>
          <polygon class="st69" points="18.5 48.9 17.9 49.3 17.8 47.4 18.6 47 18.5 48.9 18.5 48.9"/>
          <polygon class="st57" points="17.9 49.3 16.8 49.3 16.2 47.4 17.8 47.4 17.9 49.3"/>
          <polygon class="st63" points="16.8 49.3 16.6 49 16.5 48.9 16.1 47.1 16.2 47.4 16.8 49.3"/>
          <polygon class="st54" points="16.1 47.1 16.4 47.1 16.4 47.1 16.5 47.4 17.7 47.3 18.2 47.1 18.2 47 18.6 47 17.8 47.4 16.2 47.4 16.1 47.1"/>
          <polygon class="st69" points="18.2 47.1 17.7 47.3 17.6 45.4 18.3 45.1 18.2 47 18.2 47.1"/>
          <polygon class="st77" points="17.7 47.3 16.5 47.4 16.1 45.5 17.6 45.4 17.7 47.3"/>
          <polygon class="st63" points="16.5 47.4 16.4 47.1 16.4 47.1 15.9 45.2 16.1 45.5 16.5 47.4"/>
          <polygon class="st54" points="15.9 45.2 16.2 45.2 16.2 45.2 16.3 45.4 17.4 45.3 18 45.1 18 45 18.3 45.1 17.6 45.4 16.1 45.5 15.9 45.2"/>
          <polygon class="st47" points="17.4 45.3 16.3 45.4 15.9 43.4 17.3 43.3 17.4 45.3"/>
          <polygon class="st69" points="18 45.1 17.4 45.3 17.3 43.3 18 43.1 18 45 18 45.1"/>
          <polygon class="st113" points="16.3 45.4 16.2 45.2 16.2 45.2 15.7 43.3 15.9 43.4 16.3 45.4"/>
          <polygon class="st86" points="15.7 43.3 16 43.2 16 43.3 16.1 43.4 17.1 43.3 17.7 43.1 17.7 43.1 18 43.1 17.3 43.3 15.9 43.4 15.7 43.3"/>
          <polygon class="st69" points="17.7 43.1 17.1 43.3 17.1 41.3 17.7 41.1 17.7 43.1 17.7 43.1"/>
          <polygon class="st47" points="17.1 43.3 16.1 43.4 15.6 41.4 17.1 41.3 17.1 43.3"/>
          <polygon class="st75" points="16.1 43.4 16 43.3 16 43.2 15.5 41.3 15.6 41.4 16.1 43.4"/>
          <polygon class="st86" points="15.5 41.3 15.8 41.3 15.8 41.3 15.9 41.4 16.9 41.3 17.4 41.2 17.4 41.1 17.7 41.1 17.1 41.3 15.6 41.4 15.5 41.3"/>
          <polygon class="st6" points="16.9 41.3 15.9 41.4 15.5 39.4 16.8 39.3 16.9 41.3"/>
          <polygon class="st85" points="15.9 41.4 15.8 41.3 15.8 41.3 15.4 39.3 15.5 39.4 15.9 41.4"/>
          <polygon class="st69" points="17.4 41.2 16.9 41.3 16.8 39.3 17.5 39.2 17.4 41.1 17.4 41.2"/>
          <polygon class="st53" points="15.4 39.3 15.7 39.2 15.7 39.3 15.9 39.4 16.8 39.3 17.3 39.2 17.3 39.2 17.5 39.2 16.8 39.3 15.5 39.4 15.4 39.3"/>
          <polygon class="st69" points="17.3 39.2 16.8 39.3 16.9 37.4 17.5 37.3 17.3 39.2 17.3 39.2"/>
          <polygon class="st30" points="16.8 39.3 15.9 39.4 15.5 37.4 16.9 37.4 16.8 39.3"/>
          <polygon class="st104" points="15.9 39.4 15.7 39.3 15.7 39.2 15.4 37.3 15.5 37.4 15.9 39.4"/>
          <polygon class="st32" points="15.4 37.3 15.8 37.2 15.8 37.3 15.9 37.4 16.8 37.4 17.3 37.3 17.3 37.2 17.5 37.3 16.9 37.4 15.5 37.4 15.4 37.3"/>
          <polygon class="st69" points="17.3 37.3 16.8 37.4 17 35.6 17.7 35.3 17.3 37.2 17.3 37.3"/>
          <polygon class="st94" points="16.8 37.4 15.9 37.4 15.7 35.4 16.5 35.5 16.5 35.6 16.5 35.5 17 35.6 16.8 37.4"/>
          <polygon class="st77" points="15.9 37.4 15.8 37.3 15.8 37.2 15.5 35.2 15.7 35.4 15.9 37.4"/>
          <polygon class="st32" points="15.5 35.2 15.9 35.2 15.9 35.3 16 35.4 16.4 35.5 16.5 35.5 15.7 35.4 15.5 35.2"/>
          <polygon class="st74" points="16.4 35.5 16 35.4 16 34.6 16.4 35.5"/>
          <polygon class="st52" points="16 35.4 15.9 35.3 15.9 35.2 15.9 34.3 16 34.6 16 35.4"/>
          <polygon class="st32" points="17.4 35.3 17.7 35.3 17 35.6 16.5 35.5 16.5 35.5 16.9 35.5 17.4 35.3 17.4 35.3"/>
          <polygon class="st69" points="17.4 35.3 16.9 35.5 17.1 34.2 17.4 33.6 17.8 33.5 17.4 35.3 17.4 35.3"/>
          <polygon class="st74" points="16.9 35.5 16.5 35.5 17.1 34.2 16.9 35.5"/>
          <polygon class="st32" points="17.5 33.4 17.8 33.5 17.4 33.6 17.4 33.5 17.5 33.5 17.5 33.4"/>
          <polygon class="st69" points="17.5 33.5 17.4 33.5 17.6 33.2 17.5 33.4 17.5 33.5"/>
          <polygon class="st67" points="23.8 22.2 22.5 22.9 22.3 21.9 23.8 22.2"/>
          <polygon class="st67" points="22.3 21.9 22.5 22.9 21.1 22.7 22.3 21.9"/>
          <polygon class="st67" points="21.1 22.7 22.5 22.9 21.9 23.6 21.4 24.2 20.8 24.8 20.3 25.4 20.6 23.8 20.6 23.7 21.1 22.7"/>
          <polygon class="st67" points="21.1 22.7 20.6 23.7 20.6 23.6 21.1 22.7"/>
          <polygon class="st67" points="21.1 22.7 20.6 23.6 20.5 22.6 20.4 22.5 21.1 22.7"/>
          <polygon class="st67" points="21.1 22.7 20.4 22.5 20.1 22.2 19.6 22 19.8 21.7 19.9 21.7 19.9 21.7 19.9 21.6 20.5 21 20.5 21 21.1 22.7"/>
          <polygon class="st67" points="22.3 21.9 21.1 22.7 20.5 21 22.3 21.9"/>
          <polygon class="st67" points="23.8 22.2 22.3 21.9 23.6 21.5 23.8 22.2"/>
          <polygon class="st67" points="22.3 21.9 20.5 21 21.9 20.4 22 20.3 22.3 21.9"/>
          <polygon class="st67" points="23.6 21.5 22.3 21.9 22 20.3 23.6 21.5"/>
          <polygon class="st67" points="23.8 22.2 23.6 21.5 25.3 21.8 25.2 21.8 23.8 22.2"/>
          <polygon class="st37" points="25.3 21.8 23.6 21.5 26.1 21.8 25.3 21.8"/>
          <polygon class="st67" points="23.6 21.5 22 20.3 23.5 20.4 23.6 20.4 23.9 20.5 24.3 20.5 24.6 20.5 24.6 20.5 23.6 21.5"/>
          <polygon class="st67" points="26.1 21.8 23.6 21.5 24.6 20.5 26.1 21.8"/>
          <polygon class="st29" points="25.3 21.8 26.1 21.8 26.1 21.9 25.3 21.8"/>
          <polygon class="st91" points="25.3 21.8 26.1 21.9 26.7 22.3 26 22.3 25.2 21.8 25.3 21.8"/>
          <polygon class="st50" points="26.1 21.8 24.6 20.5 26.7 22.2 26.1 21.8"/>
          <polygon class="st58" points="26.7 22.2 24.6 20.5 28.6 22.3 26.7 22.2"/>
          <polygon class="st88" points="26.1 21.8 26.7 22.2 27 22.5 26.7 22.3 26.1 21.9 26.1 21.8"/>
          <polygon class="st58" points="28.6 22.3 24.6 20.5 25.8 20.7 26.5 20.8 26.8 21 27.3 21.3 28.4 22.1 28.6 22.3"/>
          <polygon class="st35" points="26.7 22.2 28.6 22.3 30.8 26.6 26.7 22.2"/>
          <polygon class="st5" points="30.8 26.6 28.6 22.3 31.3 26.7 30.8 26.6"/>
          <polygon class="st62" points="26.7 22.2 30.8 26.6 29.2 26.9 28.5 25.4 27.6 23.8 27 22.5 26.7 22.2"/>
          <polygon class="st67" points="29.2 26.9 30.8 26.6 32 34.1 30.1 29.3 29.2 26.9"/>
          <polygon class="st42" points="31.3 26.7 28.6 22.3 29.5 23.1 29.8 23.7 30.7 25.6 31.3 26.7"/>
          <polygon class="st28" points="29.5 23.1 28.6 22.3 28.4 22.1 30.5 21.4 32.2 25.5 29.8 23.7 29.5 23.1"/>
          <polygon class="st67" points="30.8 26.6 31.3 26.7 31.7 29.6 32 34.1 30.8 26.6"/>
          <polygon class="st49" points="12.6 27.5 12.3 22.4 16.3 27.5 12.6 27.5"/>
          <polygon class="st13" points="16.3 27.5 12.3 22.4 16.6 22.7 16.3 27.5"/>
          <polygon class="st81" points="16.6 22.7 12.3 22.4 12.3 22.3 12.4 22.2 12.6 21.7 12.8 21.1 12.8 21.1 13 20.8 13.1 20.6 16.6 22.7"/>
          <polygon class="st16" points="16.6 22.7 13.1 20.6 16.9 21.1 16.6 22.7"/>
          <polygon class="st99" points="16.9 21.1 13.1 20.6 13.8 20.5 14.2 20.4 16.9 21.1"/>
          <polygon class="st110" points="16.9 21.1 14.2 20.4 15 20.5 16.8 20.8 16.9 20.8 17.3 20.8 16.9 21.1"/>
          <polygon class="st95" points="16.9 21.1 17.3 20.8 20.5 22.6 16.9 21.1"/>
          <polygon class="st65" points="20.5 22.6 17.3 20.8 17.5 21 17.7 21 18 21.1 19.3 21.8 19.6 22 20.1 22.2 20.4 22.5 20.5 22.6"/>
          <polygon class="st100" points="16.9 21.1 20.5 22.6 20.6 23.6 20.6 23.7 20.6 23.8 16.9 21.1"/>
          <polygon class="st64" points="16.6 22.7 16.9 21.1 20.6 23.8 16.6 22.7"/>
          <polygon class="st41" points="16.6 22.7 20.6 23.8 20.3 25.4 19.9 27.8 16.6 22.7"/>
          <polygon class="st46" points="16.3 27.5 16.6 22.7 19.9 27.8 16.3 27.5"/>
          <polygon class="st45" points="12.6 27.5 16.3 27.5 16.5 35.6 16.5 35.5 16.4 35.5 16 34.6 15.9 34.3 12.6 27.5"/>
          <polygon class="st15" points="16.3 27.5 19.9 27.8 19.1 29.7 18.9 30.2 17.6 33.2 17.4 33.5 17.4 33.6 17.1 34.2 16.5 35.5 16.5 35.5 16.5 35.6 16.3 27.5"/>
          <polygon class="st96" points="6.9 20.2 10.2 20.1 8.1 20.8 6.9 20.2"/>
          <polygon class="st79" points="8.1 20.8 10.2 20.1 11.2 20.6 8.1 20.8"/>
          <polygon class="st36" points="11.2 20.6 10.2 20.1 10.3 20.2 10.6 20.2 10.9 20.3 11.5 20.5 11.7 20.6 12.2 20.8 11.2 20.6"/>
          <polygon class="st2" points="11.2 20.6 12.2 20.8 12.8 21.1 12.8 21.1 11.2 20.6"/>
          <polygon class="st56" points="12.8 21.1 12.2 20.8 11.7 20.6 12.1 20.3 13 20.8 12.8 21.1"/>
          <polygon class="st8" points="11.2 20.6 12.8 21.1 12.6 21.7 12.1 22.1 11.2 20.6"/>
          <polygon class="st105" points="12.1 22.1 12.6 21.7 12.4 22.2 12.1 22.1"/>
          <polygon class="st51" points="12.1 22.1 12.4 22.2 12.3 22.3 11.9 22.1 12.1 22.1"/>
          <polygon class="st61" points="11.2 20.6 12.1 22.1 11.9 22.1 9.8 22.4 11.2 20.6"/>
          <polygon class="st20" points="8.1 20.8 11.2 20.6 9.8 22.4 8.1 20.8"/>
          <polygon class="st39" points="6.9 20.2 8.1 20.8 5.8 22.3 6.9 20.2"/>
          <polygon class="st23" points="8.1 20.8 9.8 22.4 9.4 22.8 8.7 23.3 8.2 23.6 8.2 23.6 8.1 20.8"/>
          <polygon class="st39" points="4.3 21.7 6.9 20.2 5.8 22.3 4.3 21.7"/>
          <polygon class="st4" points="5.8 22.3 8.1 20.8 8.2 23.6 5.8 22.3"/>
          <polygon class="st48" points="4.3 21.7 5.8 22.3 3.5 26.6 4.3 21.7"/>
          <polygon class="st48" points="5.8 22.3 8.2 23.6 7.2 25.1 6.8 25.7 5.6 27.2 5.8 22.3"/>
          <polygon class="st111" points="2.2 26.3 4.3 21.7 3.5 26.6 2.2 26.3"/>
          <polygon class="st48" points="3.5 26.6 5.8 22.3 5.6 27.2 3.5 26.6"/>
          <polygon class="st44" points="2.2 26.3 3.5 26.6 2.5 34.1 2.2 26.3"/>
          <polygon class="st80" points="3.5 26.6 5.6 27.2 5.4 27.7 2.5 34.1 3.5 26.6"/>
          <polygon class="st108" points="13.8 19.8 15 20.5 14.2 20.4 13.8 20.5 12.1 20.3 13.8 19.8"/>
          <polygon class="st108" points="13 20.8 12.1 20.3 13.8 20.5 13.1 20.6 13 20.8"/>
          <polygon class="st81" points="13.8 19.8 12.1 20.3 10.9 20.3 10.6 20.2 13.8 19.8"/>
          <polygon class="st79" points="12.1 20.3 11.7 20.6 11.5 20.5 12.1 20.3"/>
          <polygon class="st98" points="11.7 19.8 13.8 19.8 10.6 20.2 10.3 20.2 11.7 19.8"/>
          <polygon class="st79" points="10.9 20.3 12.1 20.3 11.5 20.5 10.9 20.3"/>
          <polygon class="st17" points="9.4 22.8 8.3 25 8.7 23.3 9.4 22.8"/>
          <polygon class="st17" points="8.7 23.3 8.3 25 7.2 25.6 8.2 23.6 8.7 23.3"/>
          <polygon class="st91" points="8.2 23.6 7.2 25.6 7.2 25.1 8.2 23.6 8.2 23.6"/>
          <polygon class="st91" points="7.2 25.1 7.2 25.6 6.8 25.7 7.2 25.1"/>
          <polygon class="st91" points="6.8 25.7 7.2 25.6 5.8 31.7 5.4 27.7 5.6 27.2 6.8 25.7"/>
          <polygon class="st91" points="7.2 25.6 8.3 25 5.8 31.7 7.2 25.6"/>
          <polygon class="st96" points="20.8 19.8 21.6 19.7 20.6 20.1 20.8 19.8"/>
          <polygon class="st89" points="20.6 20.1 21.6 19.7 20.5 20.2 20.6 20.1"/>
          <polygon class="st67" points="20.5 20.2 21.6 19.7 21.9 20.4 20.5 21 20.5 21 20.2 21 20.4 20.5 20.5 20.2"/>
          <polygon class="st87" points="18.1 20.2 18.4 20.1 20.8 19.8 18.1 20.2"/>
          <polygon class="st18" points="18.1 20.2 20.8 19.8 20.6 20.1 20.5 20.2 20.4 20.5 18.1 20.2"/>
          <polygon class="st34" points="18.1 20.2 20.4 20.5 18 20.8 18.1 20.2"/>
          <polygon class="st23" points="18 20.8 20.4 20.5 20.2 21 19.9 21.7 19.9 21.7 19.9 21.7 18 20.8"/>
          <polygon class="st82" points="18 20.8 19.9 21.7 19.8 21.7 19.3 21.8 18 21.1 18 20.8"/>
          <polygon class="st78" points="19.3 21.8 19.8 21.7 19.6 22 19.3 21.8"/>
          <polygon class="st38" points="18 20.8 18 21.1 17.7 21 18 20.8"/>
          <polygon class="st39" points="18 20.8 17.7 21 17.5 21 18 20.8"/>
          <polygon class="st39" points="18.1 20.2 18 20.8 17.5 21 17.3 20.8 16.9 20.8 18.1 20.2"/>
          <polygon class="st70" points="18.1 20.2 16.9 20.8 16.8 20.8 18.1 20.2"/>
          <polygon class="st67" points="20.2 21 20.5 21 19.9 21.6 19.9 21.7 20.2 21"/>
          <polygon class="st67" points="19.9 21.7 19.9 21.6 19.9 21.7 19.9 21.7"/>
          <polygon class="st67" points="21.9 23.6 21.8 24.7 21.4 24.2 21.9 23.6"/>
          <polygon class="st67" points="21.4 24.2 21.8 24.7 20.8 24.8 21.4 24.2"/>
          <polygon class="st14" points="20.8 24.8 21.8 24.7 19.1 30.6 19.1 29.7 19.9 27.8 20.3 25.4 20.8 24.8"/>
          <polygon class="st35" points="19.1 29.7 19.1 30.6 18.9 30.2 19.1 29.7"/>
          <polygon class="st44" points="23.5 20.4 23.8 20.3 23.6 20.4 23.5 20.4"/>
          <polygon class="st44" points="23.6 20.4 23.8 20.3 25.1 20 23.9 20.5 23.6 20.4"/>
          <polygon class="st91" points="23.9 20.5 25.1 20 24.3 20.5 23.9 20.5"/>
          <polygon class="st91" points="24.3 20.5 25.1 20 24.6 20.5 24.3 20.5"/>
          <polygon class="st91" points="24.6 20.5 25.1 20 28.2 20 25.8 20.7 24.6 20.5 24.6 20.5"/>
          <polygon class="st91" points="25.8 20.7 28.2 20 26.8 21 26.5 20.8 25.8 20.7"/>
          <polygon class="st91" points="26.8 21 28.2 20 30.5 21.4 27.3 21.3 26.8 21"/>
          <polygon class="st14" points="26 22.3 26.7 22.3 27 22.5 27.6 23.8 26 22.3"/>
          <polygon class="st91" points="27.3 21.3 30.5 21.4 28.4 22.1 27.3 21.3"/>
          <polygon class="st90" points="26 22.3 27.6 23.8 28.5 25.4 28.2 25.4 26 22.3"/>
          <polygon class="st31" points="28.2 25.4 28.5 25.4 29.2 26.9 30.1 29.3 28.2 25.4"/>
          <polygon class="st102" points="29.8 23.7 32.2 25.5 30.7 25.6 29.8 23.7"/>
          <polygon class="st109" points="30.7 25.6 32.2 25.5 31.7 29.6 31.3 26.7 30.7 25.6"/>
        </g>
      </g>
      <g>
        <polyline class="st10" points="14.1 59.3 19.7 56 24.1 56 29.7 59.3 24 62.6 19.6 62.6 15.3 60.1"/>
        <g>
          <polygon class="st97" points="51.8 14.2 84.5 33.1 84.2 33.3 51.5 14.3 51.8 14.2"/>
          <polygon class="st10" points="94.3 62.6 73.5 50.6 52 79.4 65.2 79.4 94.3 62.6"/>
          <g>
            <polygon class="st1" points="52.3 42.2 83.4 60.1 83.4 61.3 52.3 43.4 52.3 42.2"/>
            <polygon class="st106" points="51.5 14.3 84.2 33.3 67.9 10.9 51.5 14.3"/>
            <polygon class="st106" points="52.3 42.2 83.4 60.1 83.4 33.5 52.3 15.6 52.3 42.2"/>
            <polygon class="st1" points="21 60.3 52 78.2 52 79.4 21 61.5 21 60.3"/>
            <polygon class="st83" points="21.3 60.1 52.3 78 52 78.2 21 60.3 21.3 60.1"/>
            <polygon class="st83" points="18.9 61.5 37.4 72.2 39.8 70.8 21.3 60.1 18.9 61.5"/>
            <polygon class="st106" points="21.3 33.5 21.3 60.1 52.3 78 52.3 51.5 21.3 33.5"/>
            <g>
              <g>
                <g>
                  <polygon class="st22" points="21.3 59.5 21.3 59.7 52.3 77.6 52.3 77.4 21.3 59.5"/>
                  <polygon class="st73" points="21.3 59.1 21.3 59.5 52.3 77.4 52.3 77.1 21.3 59.1"/>
                </g>
                <g>
                  <polygon class="st22" points="21.3 57.8 21.3 58 52.3 75.9 52.3 75.7 21.3 57.8"/>
                  <polygon class="st73" points="21.3 57.4 21.3 57.8 52.3 75.7 52.3 75.3 21.3 57.4"/>
                </g>
                <g>
                  <polygon class="st22" points="21.3 56 21.3 56.3 52.3 74.2 52.3 74 21.3 56"/>
                  <polygon class="st73" points="21.3 55.7 21.3 56 52.3 74 52.3 73.6 21.3 55.7"/>
                </g>
                <g>
                  <polygon class="st22" points="21.3 54.3 21.3 54.5 52.3 72.5 52.3 72.2 21.3 54.3"/>
                  <polygon class="st73" points="21.3 54 21.3 54.3 52.3 72.2 52.3 71.9 21.3 54"/>
                </g>
                <g>
                  <polygon class="st22" points="21.3 52.6 21.3 52.8 52.3 70.7 52.3 70.5 21.3 52.6"/>
                  <polygon class="st73" points="21.3 52.2 21.3 52.6 52.3 70.5 52.3 70.2 21.3 52.2"/>
                </g>
                <g>
                  <polygon class="st22" points="21.3 50.9 21.3 51.1 52.3 69 52.3 68.8 21.3 50.9"/>
                  <polygon class="st73" points="21.3 50.5 21.3 50.9 52.3 68.8 52.3 68.4 21.3 50.5"/>
                </g>
                <g>
                  <polygon class="st22" points="21.3 49.1 21.3 49.4 52.3 67.3 52.3 67.1 21.3 49.1"/>
                  <polygon class="st73" points="21.3 48.8 21.3 49.1 52.3 67.1 52.3 66.7 21.3 48.8"/>
                </g>
                <g>
                  <polygon class="st22" points="21.3 47.4 21.3 47.6 52.3 65.6 52.3 65.3 21.3 47.4"/>
                  <polygon class="st73" points="21.3 47.1 21.3 47.4 52.3 65.3 52.3 65 21.3 47.1"/>
                </g>
              </g>
              <g>
                <g>
                  <polygon class="st22" points="21.3 45.7 21.3 45.9 52.3 63.8 52.3 63.6 21.3 45.7"/>
                  <polygon class="st73" points="21.3 45.3 21.3 45.7 52.3 63.6 52.3 63.3 21.3 45.3"/>
                </g>
                <g>
                  <polygon class="st22" points="21.3 44 21.3 44.2 52.3 62.1 52.3 61.9 21.3 44"/>
                  <polygon class="st73" points="21.3 43.6 21.3 44 52.3 61.9 52.3 61.5 21.3 43.6"/>
                </g>
                <g>
                  <polygon class="st22" points="21.3 42.2 21.3 42.5 52.3 60.4 52.3 60.2 21.3 42.2"/>
                  <polygon class="st73" points="21.3 41.9 21.3 42.2 52.3 60.2 52.3 59.8 21.3 41.9"/>
                </g>
                <g>
                  <polygon class="st22" points="21.3 40.5 21.3 40.7 52.3 58.7 52.3 58.4 21.3 40.5"/>
                  <polygon class="st73" points="21.3 40.2 21.3 40.5 52.3 58.4 52.3 58.1 21.3 40.2"/>
                </g>
                <g>
                  <polygon class="st22" points="21.3 38.8 21.3 39 52.3 57 52.3 56.7 21.3 38.8"/>
                  <polygon class="st73" points="21.3 38.4 21.3 38.8 52.3 56.7 52.3 56.4 21.3 38.4"/>
                </g>
                <g>
                  <polygon class="st22" points="21.3 37.1 21.3 37.3 52.3 55.2 52.3 55 21.3 37.1"/>
                  <polygon class="st73" points="21.3 36.7 21.3 37.1 52.3 55 52.3 54.6 21.3 36.7"/>
                </g>
                <g>
                  <polygon class="st22" points="21.3 35.3 21.3 35.6 52.3 53.5 52.3 53.3 21.3 35.3"/>
                  <polygon class="st73" points="21.3 35 21.3 35.3 52.3 53.3 52.3 52.9 21.3 35"/>
                </g>
                <g>
                  <polygon class="st22" points="21.3 33.6 21.3 33.9 52.3 51.8 52.3 51.6 21.3 33.6"/>
                  <polygon class="st73" points="21.3 33.5 21.3 33.6 52.3 51.6 52.3 51.5 21.3 33.5"/>
                </g>
              </g>
            </g>
            <polygon class="st12" points="20.5 60.8 22.2 60.8 22.5 61 22.8 61 22.8 52.3 21.3 51.4 21.3 37.1 39.8 47.8 39.8 45 21.3 34.3 21.3 33.5 52.3 51.5 52.3 52.2 41.9 46.2 41.9 61.1 41.5 61.3 41.5 71.7 40.8 71.7 39.5 71 37.8 71.9 37.4 71.9 36.2 71.2 37.4 70.5 39.1 70.5 39.4 70.7 39.7 70.7 39.7 62.1 32.9 58.1 32.9 66.8 32 66.8 32.5 66.6 32.5 57.9 24.5 53.3 24.5 62 22.5 62 22.2 62.2 20.5 62.2 19.2 61.5 20.5 60.8"/>
            <polygon class="st0" points="83.4 60.1 52 78.2 52 79.4 83.4 61.3 83.4 60.1"/>
            <polygon class="st59" points="52.3 51.5 52.3 78 83.4 60.1 83.4 33.5 52.3 51.5"/>
            <g>
              <g class="st25">
                <polygon class="st68" points="35.4 65.2 38.7 67.1 38.7 59.4 38.4 58.6 35.4 57.5 35.4 65.2"/>
              </g>
              <polygon class="st1" points="34.8 64.7 37.9 66.6 37.9 58.8 34.8 57 34.8 64.7"/>
              <polygon class="st101" points="35.3 57.8 35.3 64.3 37.7 65.7 37.7 59.1 35.3 57.8"/>
              <polygon class="st83" points="35.1 64.4 37.7 65.9 37.7 65.7 35.3 64.3 35.1 64.4"/>
              <polygon class="st12" points="35.1 64.4 35.5 64.4 35.5 58.1 37.7 59.4 37.7 59.1 35.3 57.8 35.3 64.3 35.1 64.4"/>
              <polygon class="st60" points="35.6 64.1 37.6 65.3 37.6 59.2 35.6 58 35.6 64.1"/>
              <polygon class="st0" points="35.6 58 35.6 64.1 35.8 64 35.8 58.2 35.6 58"/>
              <polygon class="st0" points="36.6 58.6 36.6 64.7 36.8 64.6 36.8 58.7 36.6 58.6"/>
              <polygon class="st0" points="35.1 57.7 35.1 64.4 35.3 64.3 35.3 57.8 35.1 57.7"/>
              <polygon class="st101" points="36.6 64.7 36.5 64.6 36.5 58.5 36.6 58.6 36.6 64.7"/>
              <polygon class="st101" points="35.6 59.6 35.6 59.7 37.6 60.8 37.6 60.7 35.6 59.6"/>
              <polygon class="st101" points="35.6 61 35.6 61.2 37.6 62.3 37.6 62.1 35.6 61"/>
              <polygon class="st101" points="35.6 62.5 35.6 62.6 37.6 63.7 37.6 63.6 35.6 62.5"/>
              <polygon class="st83" points="36.5 64.6 35.6 64.1 35.8 64 36.5 64.4 36.5 64.6"/>
              <polygon class="st83" points="36.5 63 35.6 62.5 35.8 62.3 36.5 62.7 36.5 63"/>
              <polygon class="st83" points="36.5 61.5 35.6 61 35.8 60.9 36.5 61.3 36.5 61.5"/>
              <polygon class="st83" points="36.5 60.1 35.6 59.6 35.8 59.4 36.5 59.8 36.5 60.1"/>
              <polygon class="st83" points="37.6 65.3 36.6 64.7 36.8 64.6 37.6 65 37.6 65.3"/>
              <polygon class="st83" points="37.6 63.6 36.6 63 36.8 62.9 37.6 63.3 37.6 63.6"/>
              <polygon class="st83" points="37.6 62.1 36.6 61.6 36.8 61.5 37.6 61.9 37.6 62.1"/>
              <polygon class="st83" points="37.6 60.7 36.6 60.1 36.8 60 37.6 60.4 37.6 60.7"/>
              <polygon class="st0" points="37.9 66.6 38.4 66.3 38.4 58.6 37.9 58.8 37.9 66.6"/>
              <polygon class="st83" points="34.8 57 35.2 56.7 38.4 58.6 37.9 58.8 34.8 57"/>
              <polygon class="st12" points="35.6 64.1 36 64.1 36 63.1 36.5 63.4 36.5 63.1 35.8 62.7 35.8 64 35.6 64.1"/>
              <polygon class="st12" points="36.6 64.7 37 64.7 37 63.7 37.6 64 37.6 63.7 36.8 63.3 36.8 64.6 36.6 64.7"/>
              <polygon class="st12" points="35.6 62.5 36 62.5 36 61.7 36.5 61.9 36.5 61.6 35.8 61.3 35.8 62.3 35.6 62.5"/>
              <polygon class="st12" points="36.6 63 37 63 37 62.2 37.6 62.6 37.6 62.3 36.8 61.8 36.8 62.9 36.6 63"/>
              <polygon class="st12" points="35.6 61 36 61 36 60.2 36.5 60.5 36.5 60.2 35.8 59.8 35.8 60.9 35.6 61"/>
              <polygon class="st12" points="36.6 61.6 37 61.6 37 60.8 37.6 61.1 37.6 60.8 36.8 60.4 36.8 61.5 36.6 61.6"/>
              <polygon class="st12" points="35.6 59.6 36 59.6 36 58.7 36.5 58.9 36.5 58.5 35.8 58.2 35.8 59.4 35.6 59.6"/>
              <polygon class="st12" points="36.6 60.1 37 60.1 37 59.2 37.6 59.6 37.6 59.2 36.8 58.7 36.8 60 36.6 60.1"/>
            </g>
            <g>
              <g>
                <polygon class="st1" points="26.2 63.4 32 66.8 32 54.9 26.2 51.5 26.2 63.4"/>
                <polygon class="st12" points="26.2 55.2 32 58.6 32 54.9 26.2 51.5 26.2 55.2"/>
                <polygon class="st107" points="26.8 63.3 31.4 66 31.4 55.2 26.8 52.6 26.8 63.3"/>
              </g>
              <polygon class="st83" points="31.4 66 31.4 65.6 27.1 63.1 26.8 63.3 31.4 66"/>
              <polygon class="st19" points="26.8 52.6 27.1 52.7 27.1 63.1 26.8 63.3 26.8 52.6"/>
              <polygon class="st0" points="32 66.8 32.5 66.6 32.5 54.7 32 54.9 32 66.8"/>
              <polygon class="st0" points="26.2 51.5 26.6 51.3 32.5 54.7 32 54.9 26.2 51.5"/>
              <g>
                <polygon class="st60" points="28.6 60.8 30.4 61.9 30.4 55.8 28.6 54.7 28.6 60.8"/>
                <polygon class="st92" points="28.6 54.7 28.6 60.8 28.8 60.7 28.8 54.8 28.6 54.7"/>
                <polygon class="st92" points="29.6 55.3 29.6 61.4 29.8 61.3 29.8 55.4 29.6 55.3"/>
                <polygon class="st107" points="29.6 61.4 29.5 61.3 29.5 55.2 29.6 55.3 29.6 61.4"/>
                <polygon class="st107" points="28.6 56.2 28.6 56.4 30.4 57.4 30.4 57.3 28.6 56.2"/>
                <polygon class="st107" points="28.6 57.7 28.6 57.8 30.4 58.9 30.4 58.7 28.6 57.7"/>
                <polygon class="st107" points="28.6 59.1 28.6 59.3 30.4 60.3 30.4 60.2 28.6 59.1"/>
                <polygon class="st112" points="29.5 61.3 28.6 60.8 28.8 60.7 29.5 61.1 29.5 61.3"/>
                <polygon class="st112" points="30.4 61.9 29.6 61.4 29.8 61.3 30.4 61.6 30.4 61.9"/>
                <polygon class="st112" points="29.5 59.6 28.6 59.1 28.8 59 29.5 59.4 29.5 59.6"/>
                <polygon class="st112" points="30.4 60.2 29.6 59.7 29.8 59.6 30.4 59.9 30.4 60.2"/>
                <polygon class="st112" points="29.5 58.2 28.6 57.7 28.8 57.6 29.5 57.9 29.5 58.2"/>
                <polygon class="st112" points="30.4 58.7 29.6 58.3 29.8 58.1 30.4 58.5 30.4 58.7"/>
                <polygon class="st112" points="29.5 56.7 28.6 56.2 28.8 56.1 29.5 56.5 29.5 56.7"/>
                <polygon class="st112" points="30.4 57.3 29.6 56.8 29.8 56.7 30.4 57 30.4 57.3"/>
              </g>
              <polygon class="st12" points="26.8 63.3 27.1 63.1 27.1 52.7 31.4 55.2 31.4 57.5 30 56.7 30 56.8 29.6 56.8 29.8 56.7 29.8 55.4 29.6 55.3 29.6 56.4 29.5 56.3 29 56.1 29 56.2 28.6 56.2 28.8 56.1 28.8 54.8 28.6 54.7 28.6 55.9 27.4 55.2 27.4 63.3 26.8 63.3"/>
              <polygon class="st12" points="28.6 60.8 29 60.8 29 59.8 29.5 60.1 29.5 59.8 28.8 59.4 28.8 60.7 28.6 60.8"/>
              <polygon class="st12" points="28.6 59.1 29 59.1 29 58.4 29.5 58.6 29.5 58.3 28.8 58 28.8 59 28.6 59.1"/>
              <polygon class="st12" points="28.6 57.7 29 57.7 29 56.9 29.5 57.2 29.5 56.9 28.8 56.5 28.8 57.6 28.6 57.7"/>
              <polygon class="st12" points="29.6 61.4 30 61.4 30 60.4 30.4 60.6 30.4 60.3 29.8 60 29.8 61.3 29.6 61.4"/>
              <polygon class="st12" points="29.6 59.7 30 59.7 30 58.9 30.4 59.2 30.4 58.9 29.8 58.5 29.8 59.6 29.6 59.7"/>
              <polygon class="st12" points="29.6 58.3 30 58.3 30 57.5 30.4 57.7 30.4 57.4 29.8 57.1 29.8 58.1 29.6 58.3"/>
            </g>
            <polygon class="st12" points="40.8 71.7 40.8 73 39.4 72.2 39.5 71 40.8 71.7"/>
            <polygon class="st1" points="20.1 32.5 52.9 51.4 52.9 52.1 20.1 33.2 20.1 32.5"/>
            <polygon class="st106" points="20.4 32.3 53.2 51.2 52.3 50 52.1 49.7 51.6 49.1 50.2 47.1 49.9 46.7 49.4 46.1 48 44.1 47.7 43.7 47.2 43.1 45.8 41.1 45.5 40.7 45 40.1 43.6 38.1 43.3 37.7 42.8 37.1 41.4 35.1 41.1 34.7 40.7 34.1 39.2 32.1 38.9 31.7 38.5 31.1 37 29.1 36.8 28.9 36.6 28.9 35.1 29.2 34.7 29.3 34.4 29.4 32.9 29.7 32.5 29.8 32.2 29.8 30.8 30.1 30.3 30.2 30 30.3 28.6 30.6 28.1 30.7 27.8 30.7 26.4 31 25.9 31.1 25.6 31.2 24.2 31.5 23.7 31.6 23.4 31.7 22 32 21.5 32.1 21.2 32.1 20.4 32.3"/>
            <g>
              <g>
                <polygon class="st22" points="21.2 32.1 52.3 50.1 52.3 50 52.1 49.7 21.5 32.1 21.2 32.1"/>
                <polygon class="st73" points="21.5 32.1 52.1 49.7 51.6 49.1 22 32 21.5 32.1"/>
              </g>
              <g>
                <polygon class="st22" points="23.4 31.7 50.2 47.1 49.9 46.7 23.7 31.6 23.4 31.7"/>
                <polygon class="st73" points="23.7 31.6 49.9 46.7 49.4 46.1 24.2 31.5 23.7 31.6"/>
              </g>
              <g>
                <polygon class="st22" points="25.6 31.2 48 44.1 47.7 43.7 25.9 31.1 25.6 31.2"/>
                <polygon class="st73" points="25.9 31.1 47.7 43.7 47.2 43.1 26.4 31 25.9 31.1"/>
              </g>
              <g>
                <polygon class="st22" points="27.8 30.7 45.8 41.1 45.5 40.7 28.1 30.7 27.8 30.7"/>
                <polygon class="st73" points="28.1 30.7 45.5 40.7 45 40.1 28.6 30.6 28.1 30.7"/>
              </g>
              <g>
                <polygon class="st22" points="30 30.3 43.6 38.1 43.3 37.7 30.3 30.2 30 30.3"/>
                <polygon class="st73" points="30.3 30.2 43.3 37.7 42.8 37.1 30.8 30.1 30.3 30.2"/>
              </g>
              <g>
                <polygon class="st22" points="32.2 29.8 41.4 35.1 41.1 34.7 32.5 29.8 32.2 29.8"/>
                <polygon class="st73" points="32.5 29.8 41.1 34.7 40.7 34.1 32.9 29.7 32.5 29.8"/>
              </g>
              <g>
                <polygon class="st22" points="34.4 29.4 39.2 32.1 38.9 31.7 34.7 29.3 34.4 29.4"/>
                <polygon class="st73" points="34.7 29.3 38.9 31.7 38.5 31.1 35.1 29.2 34.7 29.3"/>
              </g>
              <polygon class="st22" points="36.6 28.9 37 29.1 36.8 28.9 36.6 28.9"/>
            </g>
            <polygon class="st12" points="36.8 30.2 22.1 33.3 20.4 32.3 36.8 28.9 53.2 51.2 51.5 50.2 36.8 30.2"/>
            <polygon class="st83" points="20.4 32.3 53.2 51.2 52.9 51.4 20.1 32.5 20.4 32.3"/>
            <polygon class="st0" points="52.9 51.4 84.5 33.1 84.5 33.8 52.9 52.1 52.9 51.4"/>
          </g>
          <g>
            <polygon class="st59" points="37.4 45.6 37.4 58.1 39.8 56.7 39.8 44.2 37.4 45.6"/>
            <g>
              <g>
                <polygon class="st43" points="37.4 56 37.4 56.3 39.8 54.9 39.8 54.6 37.4 56"/>
                <polygon class="st33" points="37.4 55.7 37.4 56 39.8 54.6 39.8 54.3 37.4 55.7"/>
              </g>
              <g>
                <polygon class="st43" points="37.4 54.3 37.4 54.5 39.8 53.1 39.8 52.9 37.4 54.3"/>
                <polygon class="st33" points="37.4 54 37.4 54.3 39.8 52.9 39.8 52.6 37.4 54"/>
              </g>
              <g>
                <polygon class="st43" points="37.4 52.6 37.4 52.8 39.8 51.4 39.8 51.2 37.4 52.6"/>
                <polygon class="st33" points="37.4 52.2 37.4 52.6 39.8 51.2 39.8 50.8 37.4 52.2"/>
              </g>
              <g>
                <polygon class="st43" points="37.4 50.9 37.4 51.1 39.8 49.7 39.8 49.5 37.4 50.9"/>
                <polygon class="st33" points="37.4 50.5 37.4 50.9 39.8 49.5 39.8 49.1 37.4 50.5"/>
              </g>
              <g>
                <polygon class="st43" points="37.4 49.1 37.4 49.4 39.8 48 39.8 47.7 37.4 49.1"/>
                <polygon class="st33" points="37.4 48.8 37.4 49.1 39.8 47.7 39.8 47.4 37.4 48.8"/>
              </g>
              <g>
                <polygon class="st43" points="37.4 47.4 37.4 47.6 39.8 46.3 39.8 46 37.4 47.4"/>
                <polygon class="st33" points="37.4 47.1 37.4 47.4 39.8 46 39.8 45.7 37.4 47.1"/>
              </g>
              <g>
                <polygon class="st43" points="37.4 45.7 37.4 45.9 39.8 44.5 39.8 44.3 37.4 45.7"/>
                <polygon class="st33" points="37.4 45.6 37.4 45.7 39.8 44.3 39.8 44.2 37.4 45.6"/>
              </g>
            </g>
            <polygon class="st1" points="20.5 32.3 40.5 43.9 40.5 44.6 20.5 33.1 20.5 32.3"/>
            <polygon class="st84" points="20.5 32.3 40.5 43.9 30.5 30.3 20.5 32.3"/>
          </g>
          <g>
            <polygon class="st1" points="36.1 68.9 37.4 69.6 37.4 71.9 36.1 71.2 36.1 68.9"/>
            <polygon class="st0" points="38.6 68.9 37.4 69.6 37.4 71.9 38.6 71.2 38.6 68.9"/>
            <polygon class="st83" points="38.6 68.9 37.4 69.6 36.1 68.9 37.4 68.2 38.6 68.9"/>
            <polygon class="st12" points="40.8 73 39 73.4 37.4 73.4 39.4 72.2 40.8 73"/>
            <g>
              <polygon class="st1" points="37.3 69.3 36.6 68.9 36.6 57 37.3 57.4 37.3 69.3"/>
              <polygon class="st12" points="37.3 59.2 36.6 58.7 36.6 57 37.3 57.4 37.3 59.2"/>
              <polygon class="st0" points="37.3 69.3 38 68.9 38 57 37.3 57.4 37.3 69.3"/>
            </g>
          </g>
          <g>
            <polygon class="st1" points="19.2 59.2 20.5 59.9 20.5 62.2 19.2 61.5 19.2 59.2"/>
            <polygon class="st0" points="21.7 59.2 20.5 59.9 20.5 62.2 21.7 61.5 21.7 59.2"/>
            <polygon class="st83" points="21.7 59.2 20.5 59.9 19.2 59.2 20.5 58.5 21.7 59.2"/>
            <g>
              <polygon class="st1" points="20.4 59.6 19.7 59.2 19.7 47.2 20.4 47.7 20.4 59.6"/>
              <polygon class="st12" points="20.4 49.4 19.7 49 19.7 47.2 20.4 47.7 20.4 49.4"/>
              <polygon class="st0" points="20.4 59.6 21.1 59.2 21.1 47.2 20.4 47.7 20.4 59.6"/>
            </g>
          </g>
          <polygon class="st21" points="67.9 10.9 36.8 28.9 53.2 51.2 84.2 33.3 67.9 10.9"/>
          <polygon class="st26" points="53.2 51.2 36.8 28.9 36.8 29.6 52.8 51.4 53.2 51.2"/>
          <polygon class="st26" points="20.4 32.3 36.8 28.9 36.8 29.6 20.7 32.9 20.4 32.3"/>
          <polygon class="st60" points="67.9 10.9 36.8 28.9 20.4 32.3 51.5 14.3 67.9 10.9"/>
          <g>
            <polygon class="st84" points="18.9 34.9 18.9 47.4 37.4 58.1 37.4 45.6 18.9 34.9"/>
            <g>
              <g>
                <polygon class="st22" points="18.9 45.3 18.9 45.6 37.4 56.3 37.4 56 18.9 45.3"/>
                <polygon class="st103" points="18.9 45 18.9 45.3 37.4 56 37.4 55.7 18.9 45"/>
              </g>
              <g>
                <polygon class="st22" points="18.9 43.6 18.9 43.9 37.4 54.5 37.4 54.3 18.9 43.6"/>
                <polygon class="st103" points="18.9 43.3 18.9 43.6 37.4 54.3 37.4 54 18.9 43.3"/>
              </g>
              <g>
                <polygon class="st22" points="18.9 41.9 18.9 42.1 37.4 52.8 37.4 52.6 18.9 41.9"/>
                <polygon class="st103" points="18.9 41.5 18.9 41.9 37.4 52.6 37.4 52.2 18.9 41.5"/>
              </g>
              <g>
                <polygon class="st22" points="18.9 40.2 18.9 40.4 37.4 51.1 37.4 50.9 18.9 40.2"/>
                <polygon class="st103" points="18.9 39.8 18.9 40.2 37.4 50.9 37.4 50.5 18.9 39.8"/>
              </g>
              <g>
                <polygon class="st22" points="18.9 38.4 18.9 38.7 37.4 49.4 37.4 49.1 18.9 38.4"/>
                <polygon class="st103" points="18.9 38.1 18.9 38.4 37.4 49.1 37.4 48.8 18.9 38.1"/>
              </g>
              <g>
                <polygon class="st22" points="18.9 36.7 18.9 37 37.4 47.6 37.4 47.4 18.9 36.7"/>
                <polygon class="st103" points="18.9 36.4 18.9 36.7 37.4 47.4 37.4 47.1 18.9 36.4"/>
              </g>
              <g>
                <polygon class="st22" points="18.9 35 18.9 35.2 37.4 45.9 37.4 45.7 18.9 35"/>
                <polygon class="st103" points="18.9 34.9 18.9 35 37.4 45.7 37.4 45.6 18.9 34.9"/>
              </g>
            </g>
            <polygon class="st12" points="18.9 35.7 37.4 46.3 37.4 45.6 18.9 34.9 18.9 35.7"/>
            <polygon class="st1" points="17.8 33.9 37.8 45.4 37.8 46.2 17.8 34.7 17.8 33.9"/>
            <polygon class="st84" points="18.1 33.7 38.1 45.3 37.3 44.1 37 43.7 36.5 43.1 35.1 41.2 34.8 40.8 34.3 40.1 32.9 38.2 32.6 37.8 32.2 37.2 30.7 35.2 30.4 34.8 30 34.2 28.5 32.2 28.2 31.8 28.1 31.6 28 31.7 27.7 31.7 26.3 32 25.8 32.1 25.5 32.2 24.1 32.5 23.6 32.6 23.3 32.6 21.9 33 21.4 33 21.1 33.1 19.7 33.4 19.2 33.5 19 33.6 18.1 33.7"/>
            <g>
              <g>
                <polygon class="st22" points="19 33.6 37.3 44.1 37 43.7 19.2 33.5 19 33.6"/>
                <polygon class="st103" points="19.2 33.5 37 43.7 36.5 43.1 19.7 33.4 19.2 33.5"/>
              </g>
              <g>
                <polygon class="st22" points="21.1 33.1 35.1 41.2 34.8 40.8 21.4 33 21.1 33.1"/>
                <polygon class="st103" points="21.4 33 34.8 40.8 34.3 40.1 21.9 33 21.4 33"/>
              </g>
              <g>
                <g>
                  <polygon class="st22" points="23.3 32.6 32.9 38.2 32.6 37.8 23.6 32.6 23.3 32.6"/>
                  <polygon class="st103" points="23.6 32.6 32.6 37.8 32.2 37.2 24.1 32.5 23.6 32.6"/>
                </g>
                <g>
                  <polygon class="st22" points="25.5 32.2 30.7 35.2 30.4 34.8 25.8 32.1 25.5 32.2"/>
                  <polygon class="st103" points="25.8 32.1 30.4 34.8 30 34.2 26.3 32 25.8 32.1"/>
                </g>
                <g>
                  <polygon class="st22" points="27.7 31.7 28.5 32.2 28.2 31.8 28 31.7 27.7 31.7"/>
                  <polygon class="st103" points="28 31.7 28.2 31.8 28.1 31.6 28 31.7"/>
                </g>
              </g>
            </g>
            <polygon class="st12" points="28.1 33 19.9 34.7 18.1 33.7 28.1 31.6 38.1 45.3 36.4 44.3 28.1 33"/>
            <polygon class="st1" points="18.7 47.5 37.2 58.2 37.2 57.3 18.7 46.6 18.7 47.5"/>
            <polygon class="st12" points="18.7 47.2 37.2 57.9 37.2 57.3 18.7 46.6 18.7 47.2"/>
          </g>
          <polygon class="st21" points="30.5 30.3 40.5 43.9 38.1 45.3 28.1 31.6 30.5 30.3"/>
          <polygon class="st60" points="30.5 30.3 20.5 32.3 18.1 33.7 28.1 31.6 30.5 30.3"/>
          <polygon class="st0" points="37.8 45.4 40.5 43.9 40.5 44.6 37.8 46.2 37.8 45.4"/>
          <polygon class="st83" points="18.1 33.7 38.1 45.3 37.8 45.4 17.8 33.9 18.1 33.7"/>
          <polygon class="st0" points="37.4 56.7 39.8 55.3 39.8 56.7 37.4 58.1 37.2 58.2 37.2 57.3 36.9 57.4 36.9 57 37.4 56.7"/>
          <polygon class="st1" points="18.4 46.8 36.9 57.4 36.9 57 18.4 46.3 18.4 46.8"/>
          <polygon class="st83" points="18.9 46 37.4 56.7 36.9 57 18.4 46.3 18.9 46"/>
          <g>
            <g>
              <g class="st25">
                <polygon class="st68" points="42.5 55 49.8 59.2 49.8 51.5 49.5 50.7 42.5 47.3 42.5 55"/>
              </g>
              <polygon class="st0" points="49.1 58.7 49.5 58.4 49.5 50.7 49.1 50.9 49.1 58.7"/>
              <polygon class="st83" points="41.9 46.8 42.3 46.5 49.5 50.7 49.1 50.9 41.9 46.8"/>
              <polygon class="st1" points="41.9 54.5 49.1 58.7 49.1 50.9 41.9 46.8 41.9 54.5"/>
            </g>
            <polygon class="st83" points="42.2 54.2 48.8 58 48.8 57.8 42.4 54.1 42.2 54.2"/>
            <polygon class="st12" points="42.2 54.2 42.6 54.2 42.6 47.9 48.8 51.5 48.8 51.3 42.4 47.6 42.4 54.1 42.2 54.2"/>
            <polygon class="st0" points="42.2 47.4 42.2 54.2 42.4 54.1 42.4 47.6 42.2 47.4"/>
            <polygon class="st101" points="42.7 47.8 42.7 53.9 43.5 54.4 43.5 54.4 43.6 54.4 44.6 55 44.7 55.1 45.6 55.6 45.9 55.7 46.7 56.2 46.8 56.3 47.8 56.9 47.9 56.9 48.7 57.4 48.7 51.3 47.9 50.8 46.8 50.2 46.7 50.1 45.6 49.5 44.7 49 44.6 48.9 43.6 48.3 43.5 48.3 42.7 47.8"/>
            <polygon class="st60" points="42.7 47.8 42.7 53.9 43.5 54.4 43.5 54.4 43.6 54.4 44.6 55 44.7 55.1 45.6 55.6 45.9 55.7 46.7 56.2 46.8 56.3 47.8 56.9 47.9 56.9 48.7 57.4 48.7 51.3 47.9 50.8 46.8 50.2 46.7 50.1 45.6 49.5 44.7 49 44.6 48.9 43.6 48.3 43.5 48.3 42.7 47.8"/>
            <g>
              <polygon class="st0" points="43.6 48.3 43.6 54.4 43.9 54.3 43.9 48.5 43.6 48.3"/>
              <polygon class="st83" points="44.6 55 43.6 54.4 43.9 54.3 44.6 54.8 44.6 55"/>
              <polygon class="st83" points="44.6 53.3 43.6 52.8 43.9 52.6 44.6 53.1 44.6 53.3"/>
              <polygon class="st83" points="44.6 51.9 43.6 51.3 43.9 51.2 44.6 51.6 44.6 51.9"/>
              <polygon class="st83" points="44.6 50.4 43.6 49.9 43.9 49.7 44.6 50.2 44.6 50.4"/>
              <polygon class="st12" points="43.6 54.4 44.1 54.4 44.1 53.4 44.6 53.8 44.6 53.5 43.9 53 43.9 54.3 43.6 54.4"/>
              <polygon class="st12" points="43.6 52.8 44.1 52.8 44.1 52 44.6 52.3 44.6 52 43.9 51.6 43.9 52.6 43.6 52.8"/>
              <polygon class="st12" points="43.6 51.3 44.1 51.3 44.1 50.5 44.6 50.9 44.6 50.6 43.9 50.1 43.9 51.2 43.6 51.3"/>
              <polygon class="st12" points="43.6 49.9 44.1 49.9 44.1 49 44.6 49.3 44.6 48.9 43.9 48.5 43.9 49.7 43.6 49.9"/>
            </g>
            <g>
              <polygon class="st0" points="42.7 47.8 42.7 53.9 42.9 53.8 42.9 47.9 42.7 47.8"/>
              <polygon class="st83" points="43.5 54.4 42.7 53.9 42.9 53.8 43.5 54.1 43.5 54.4"/>
              <polygon class="st83" points="43.5 52.7 42.7 52.2 42.9 52.1 43.5 52.5 43.5 52.7"/>
              <polygon class="st83" points="43.5 51.3 42.7 50.8 42.9 50.7 43.5 51 43.5 51.3"/>
              <polygon class="st83" points="43.5 49.8 42.7 49.3 42.9 49.2 43.5 49.5 43.5 49.8"/>
              <polygon class="st12" points="42.7 53.9 43.2 53.9 43.2 52.9 43.5 53.1 43.5 52.8 42.9 52.5 42.9 53.8 42.7 53.9"/>
              <polygon class="st12" points="42.7 52.2 43.2 52.2 43.2 51.5 43.5 51.7 43.5 51.4 42.9 51.1 42.9 52.1 42.7 52.2"/>
              <polygon class="st12" points="42.7 50.8 43.2 50.8 43.2 50 43.5 50.2 43.5 49.9 42.9 49.6 42.9 50.7 42.7 50.8"/>
              <polygon class="st12" points="42.7 49.3 43.2 49.3 43.2 48.4 43.5 48.7 43.5 48.3 42.9 47.9 42.9 49.2 42.7 49.3"/>
            </g>
            <g>
              <polygon class="st0" points="44.7 49 44.7 55.1 45 55 45 49.1 44.7 49"/>
              <polygon class="st83" points="45.6 55.6 44.7 55.1 45 55 45.6 55.3 45.6 55.6"/>
              <polygon class="st83" points="45.6 53.9 44.7 53.4 45 53.3 45.6 53.6 45.6 53.9"/>
              <polygon class="st83" points="45.6 52.4 44.7 52 45 51.8 45.6 52.2 45.6 52.4"/>
              <polygon class="st83" points="45.6 51 44.7 50.5 45 50.4 45.6 50.7 45.6 51"/>
              <polygon class="st12" points="44.7 55.1 45.2 55.1 45.2 54.1 45.6 54.3 45.6 54 45 53.7 45 55 44.7 55.1"/>
              <polygon class="st12" points="44.7 53.4 45.2 53.4 45.2 52.6 45.6 52.9 45.6 52.6 45 52.2 45 53.3 44.7 53.4"/>
              <polygon class="st12" points="44.7 52 45.2 52 45.2 51.2 45.6 51.4 45.6 51.1 45 50.8 45 51.8 44.7 52"/>
              <polygon class="st12" points="44.7 50.5 45.2 50.5 45.2 49.6 45.6 49.9 45.6 49.5 45 49.1 45 50.4 44.7 50.5"/>
            </g>
            <g>
              <polygon class="st0" points="46.8 50.2 46.8 56.3 47.1 56.2 47.1 50.3 46.8 50.2"/>
              <polygon class="st83" points="47.8 56.9 46.8 56.3 47.1 56.2 47.8 56.6 47.8 56.9"/>
              <polygon class="st83" points="47.8 55.2 46.8 54.6 47.1 54.5 47.8 54.9 47.8 55.2"/>
              <polygon class="st83" points="47.8 53.7 46.8 53.2 47.1 53 47.8 53.5 47.8 53.7"/>
              <polygon class="st83" points="47.8 52.3 46.8 51.7 47.1 51.6 47.8 52 47.8 52.3"/>
              <polygon class="st12" points="46.8 56.3 47.3 56.3 47.3 55.3 47.8 55.6 47.8 55.3 47.1 54.9 47.1 56.2 46.8 56.3"/>
              <polygon class="st12" points="46.8 54.6 47.3 54.6 47.3 53.8 47.8 54.2 47.8 53.9 47.1 53.4 47.1 54.5 46.8 54.6"/>
              <polygon class="st12" points="46.8 53.2 47.3 53.2 47.3 52.4 47.8 52.7 47.8 52.4 47.1 52 47.1 53 46.8 53.2"/>
              <polygon class="st12" points="46.8 51.7 47.3 51.7 47.3 50.8 47.8 51.1 47.8 50.8 47.1 50.3 47.1 51.6 46.8 51.7"/>
            </g>
            <g>
              <polygon class="st0" points="45.9 49.6 45.9 55.7 46.1 55.6 46.1 49.7 45.9 49.6"/>
              <polygon class="st83" points="46.7 56.2 45.9 55.7 46.1 55.6 46.7 56 46.7 56.2"/>
              <polygon class="st83" points="46.7 54.6 45.9 54.1 46.1 53.9 46.7 54.3 46.7 54.6"/>
              <polygon class="st83" points="46.7 53.1 45.9 52.6 46.1 52.5 46.7 52.8 46.7 53.1"/>
              <polygon class="st83" points="46.7 51.6 45.9 51.2 46.1 51 46.7 51.4 46.7 51.6"/>
              <polygon class="st12" points="45.9 55.7 46.3 55.7 46.3 54.7 46.7 55 46.7 54.7 46.1 54.3 46.1 55.6 45.9 55.7"/>
              <polygon class="st12" points="45.9 54.1 46.3 54.1 46.3 53.3 46.7 53.5 46.7 53.2 46.1 52.9 46.1 53.9 45.9 54.1"/>
              <polygon class="st12" points="45.9 52.6 46.3 52.6 46.3 51.8 46.7 52.1 46.7 51.8 46.1 51.4 46.1 52.5 45.9 52.6"/>
              <polygon class="st12" points="45.9 51.2 46.3 51.2 46.3 50.3 46.7 50.5 46.7 50.1 46.1 49.7 46.1 51 45.9 51.2"/>
            </g>
            <g>
              <polygon class="st0" points="47.9 50.8 47.9 56.9 48.2 56.8 48.2 50.9 47.9 50.8"/>
              <polygon class="st83" points="48.7 57.4 47.9 56.9 48.2 56.8 48.7 57.1 48.7 57.4"/>
              <polygon class="st83" points="48.7 55.7 47.9 55.3 48.2 55.1 48.7 55.5 48.7 55.7"/>
              <polygon class="st83" points="48.7 54.3 47.9 53.8 48.2 53.7 48.7 54 48.7 54.3"/>
              <polygon class="st83" points="48.7 52.8 47.9 52.4 48.2 52.2 48.7 52.6 48.7 52.8"/>
              <polygon class="st12" points="47.9 56.9 48.4 56.9 48.4 55.9 48.7 56.1 48.7 55.9 48.2 55.5 48.2 56.8 47.9 56.9"/>
              <polygon class="st12" points="47.9 55.3 48.4 55.3 48.4 54.5 48.7 54.7 48.7 54.4 48.2 54.1 48.2 55.1 47.9 55.3"/>
              <polygon class="st12" points="47.9 53.8 48.4 53.8 48.4 53 48.7 53.2 48.7 52.9 48.2 52.6 48.2 53.7 47.9 53.8"/>
              <polygon class="st12" points="47.9 52.4 48.4 52.4 48.4 51.5 48.7 51.7 48.7 51.3 48.2 50.9 48.2 52.2 47.9 52.4"/>
            </g>
            <polygon class="st101" points="45.6 49.5 45.6 55.6 45.9 55.7 45.9 49.6 45.6 49.5"/>
            <polygon class="st101" points="46.7 50.1 46.7 56.2 46.8 56.3 46.8 50.2 46.7 50.1"/>
            <polygon class="st101" points="47.8 50.8 47.8 56.9 47.9 56.9 47.9 50.8 47.8 50.8"/>
            <polygon class="st101" points="44.6 48.9 44.6 55 44.7 55.1 44.7 49 44.6 48.9"/>
            <polygon class="st101" points="42.7 49.3 42.7 49.5 43.5 49.9 43.6 50 44.6 50.6 44.7 50.6 45.6 51.1 45.9 51.3 46.7 51.8 46.8 51.9 47.8 52.4 47.9 52.5 48.7 52.9 48.7 52.8 47.9 52.4 47.8 52.3 46.8 51.7 46.7 51.6 45.9 51.2 45.6 51 44.7 50.5 44.6 50.4 43.6 49.9 43.5 49.8 42.7 49.3"/>
            <polygon class="st101" points="42.7 50.8 42.7 50.9 43.5 51.4 43.6 51.5 44.6 52 44.7 52.1 45.6 52.6 45.9 52.7 46.7 53.2 46.8 53.3 47.8 53.9 47.9 53.9 48.7 54.4 48.7 54.3 47.9 53.8 47.8 53.7 46.8 53.2 46.7 53.1 45.9 52.6 45.6 52.4 44.7 52 44.6 51.9 43.6 51.3 43.5 51.3 42.7 50.8"/>
            <polygon class="st101" points="42.7 52.2 42.7 52.4 43.5 52.8 43.6 52.9 44.6 53.5 44.7 53.5 45.6 54 45.9 54.2 46.7 54.7 46.8 54.8 47.8 55.3 47.9 55.4 48.7 55.8 48.7 55.7 47.9 55.3 47.8 55.2 46.8 54.6 46.7 54.6 45.9 54.1 45.6 53.9 44.7 53.4 44.6 53.3 43.6 52.8 43.5 52.7 42.7 52.2"/>
            <polygon class="st101" points="43.5 48.3 43.5 54.4 43.6 54.4 43.6 48.3 43.5 48.3"/>
          </g>
          <g>
            <g>
              <g class="st25">
                <polygon class="st68" points="42.5 69.4 49.8 73.6 49.8 65.8 49.5 65 42.5 61.6 42.5 69.4"/>
              </g>
              <polygon class="st0" points="49.1 73 49.5 72.8 49.5 65 49.1 65.3 49.1 73"/>
              <polygon class="st83" points="41.9 61.1 42.3 60.9 49.5 65 49.1 65.3 41.9 61.1"/>
              <polygon class="st1" points="41.9 68.8 49.1 73 49.1 65.3 41.9 61.1 41.9 68.8"/>
            </g>
            <polygon class="st83" points="42.2 68.5 48.8 72.3 48.8 72.1 42.4 68.4 42.2 68.5"/>
            <polygon class="st12" points="42.2 68.5 42.6 68.5 42.6 62.2 48.8 65.8 48.8 65.6 42.4 61.9 42.4 68.4 42.2 68.5"/>
            <polygon class="st0" points="42.2 61.8 42.2 68.5 42.4 68.4 42.4 61.9 42.2 61.8"/>
            <polygon class="st101" points="42.7 62.1 42.7 68.3 43.5 68.7 43.5 68.7 43.6 68.8 44.6 69.3 44.7 69.4 45.6 69.9 45.9 70.1 46.7 70.6 46.8 70.6 47.8 71.2 47.9 71.3 48.7 71.7 48.7 65.6 47.9 65.1 46.8 64.5 46.7 64.4 45.6 63.8 44.7 63.3 44.6 63.2 43.6 62.7 43.5 62.6 42.7 62.1"/>
            <polygon class="st60" points="42.7 62.1 42.7 68.3 43.5 68.7 43.5 68.7 43.6 68.8 44.6 69.3 44.7 69.4 45.6 69.9 45.9 70.1 46.7 70.6 46.8 70.6 47.8 71.2 47.9 71.3 48.7 71.7 48.7 65.6 47.9 65.1 46.8 64.5 46.7 64.4 45.6 63.8 44.7 63.3 44.6 63.2 43.6 62.7 43.5 62.6 42.7 62.1"/>
            <g>
              <polygon class="st0" points="43.6 62.7 43.6 68.8 43.9 68.6 43.9 62.8 43.6 62.7"/>
              <polygon class="st83" points="44.6 69.3 43.6 68.8 43.9 68.6 44.6 69.1 44.6 69.3"/>
              <polygon class="st83" points="44.6 67.7 43.6 67.1 43.9 67 44.6 67.4 44.6 67.7"/>
              <polygon class="st83" points="44.6 66.2 43.6 65.7 43.9 65.5 44.6 66 44.6 66.2"/>
              <polygon class="st83" points="44.6 64.8 43.6 64.2 43.9 64.1 44.6 64.5 44.6 64.8"/>
              <polygon class="st12" points="43.6 68.8 44.1 68.8 44.1 67.8 44.6 68.1 44.6 67.8 43.9 67.4 43.9 68.6 43.6 68.8"/>
              <polygon class="st12" points="43.6 67.1 44.1 67.1 44.1 66.3 44.6 66.7 44.6 66.4 43.9 65.9 43.9 67 43.6 67.1"/>
              <polygon class="st12" points="43.6 65.7 44.1 65.7 44.1 64.9 44.6 65.2 44.6 64.9 43.9 64.5 43.9 65.5 43.6 65.7"/>
              <polygon class="st12" points="43.6 64.2 44.1 64.2 44.1 63.3 44.6 63.6 44.6 63.2 43.9 62.8 43.9 64.1 43.6 64.2"/>
            </g>
            <g>
              <polygon class="st0" points="42.7 62.1 42.7 68.3 42.9 68.1 42.9 62.3 42.7 62.1"/>
              <polygon class="st83" points="43.5 68.7 42.7 68.3 42.9 68.1 43.5 68.5 43.5 68.7"/>
              <polygon class="st83" points="43.5 67 42.7 66.6 42.9 66.5 43.5 66.8 43.5 67"/>
              <polygon class="st83" points="43.5 65.6 42.7 65.1 42.9 65 43.5 65.3 43.5 65.6"/>
              <polygon class="st83" points="43.5 64.1 42.7 63.7 42.9 63.6 43.5 63.9 43.5 64.1"/>
              <polygon class="st12" points="42.7 68.3 43.2 68.3 43.2 67.3 43.5 67.5 43.5 67.2 42.9 66.8 42.9 68.1 42.7 68.3"/>
              <polygon class="st12" points="42.7 66.6 43.2 66.6 43.2 65.8 43.5 66 43.5 65.7 42.9 65.4 42.9 66.5 42.7 66.6"/>
              <polygon class="st12" points="42.7 65.1 43.2 65.1 43.2 64.3 43.5 64.6 43.5 64.3 42.9 63.9 42.9 65 42.7 65.1"/>
              <polygon class="st12" points="42.7 63.7 43.2 63.7 43.2 62.8 43.5 63 43.5 62.6 42.9 62.3 42.9 63.6 42.7 63.7"/>
            </g>
            <g>
              <polygon class="st0" points="44.7 63.3 44.7 69.4 45 69.3 45 63.4 44.7 63.3"/>
              <polygon class="st83" points="45.6 69.9 44.7 69.4 45 69.3 45.6 69.7 45.6 69.9"/>
              <polygon class="st83" points="45.6 68.2 44.7 67.7 45 67.6 45.6 68 45.6 68.2"/>
              <polygon class="st83" points="45.6 66.8 44.7 66.3 45 66.2 45.6 66.5 45.6 66.8"/>
              <polygon class="st83" points="45.6 65.3 44.7 64.8 45 64.7 45.6 65.1 45.6 65.3"/>
              <polygon class="st12" points="44.7 69.4 45.2 69.4 45.2 68.4 45.6 68.7 45.6 68.4 45 68 45 69.3 44.7 69.4"/>
              <polygon class="st12" points="44.7 67.7 45.2 67.7 45.2 67 45.6 67.2 45.6 66.9 45 66.6 45 67.6 44.7 67.7"/>
              <polygon class="st12" points="44.7 66.3 45.2 66.3 45.2 65.5 45.6 65.8 45.6 65.5 45 65.1 45 66.2 44.7 66.3"/>
              <polygon class="st12" points="44.7 64.8 45.2 64.8 45.2 63.9 45.6 64.2 45.6 63.8 45 63.4 45 64.7 44.7 64.8"/>
            </g>
            <g>
              <polygon class="st0" points="46.8 64.5 46.8 70.6 47.1 70.5 47.1 64.6 46.8 64.5"/>
              <polygon class="st83" points="47.8 71.2 46.8 70.6 47.1 70.5 47.8 70.9 47.8 71.2"/>
              <polygon class="st83" points="47.8 69.5 46.8 69 47.1 68.8 47.8 69.3 47.8 69.5"/>
              <polygon class="st83" points="47.8 68.1 46.8 67.5 47.1 67.4 47.8 67.8 47.8 68.1"/>
              <polygon class="st83" points="47.8 66.6 46.8 66 47.1 65.9 47.8 66.4 47.8 66.6"/>
              <polygon class="st12" points="46.8 70.6 47.3 70.6 47.3 69.6 47.8 70 47.8 69.7 47.1 69.2 47.1 70.5 46.8 70.6"/>
              <polygon class="st12" points="46.8 69 47.3 69 47.3 68.2 47.8 68.5 47.8 68.2 47.1 67.8 47.1 68.8 46.8 69"/>
              <polygon class="st12" points="46.8 67.5 47.3 67.5 47.3 66.7 47.8 67 47.8 66.8 47.1 66.3 47.1 67.4 46.8 67.5"/>
              <polygon class="st12" points="46.8 66 47.3 66 47.3 65.1 47.8 65.5 47.8 65.1 47.1 64.6 47.1 65.9 46.8 66"/>
            </g>
            <g>
              <polygon class="st0" points="45.9 64 45.9 70.1 46.1 69.9 46.1 64.1 45.9 64"/>
              <polygon class="st83" points="46.7 70.6 45.9 70.1 46.1 69.9 46.7 70.3 46.7 70.6"/>
              <polygon class="st83" points="46.7 68.9 45.9 68.4 46.1 68.3 46.7 68.6 46.7 68.9"/>
              <polygon class="st83" points="46.7 67.4 45.9 66.9 46.1 66.8 46.7 67.2 46.7 67.4"/>
              <polygon class="st83" points="46.7 66 45.9 65.5 46.1 65.4 46.7 65.7 46.7 66"/>
              <polygon class="st12" points="45.9 70.1 46.3 70.1 46.3 69.1 46.7 69.3 46.7 69 46.1 68.7 46.1 69.9 45.9 70.1"/>
              <polygon class="st12" points="45.9 68.4 46.3 68.4 46.3 67.6 46.7 67.9 46.7 67.6 46.1 67.2 46.1 68.3 45.9 68.4"/>
              <polygon class="st12" points="45.9 66.9 46.3 66.9 46.3 66.2 46.7 66.4 46.7 66.1 46.1 65.8 46.1 66.8 45.9 66.9"/>
              <polygon class="st12" points="45.9 65.5 46.3 65.5 46.3 64.6 46.7 64.8 46.7 64.4 46.1 64.1 46.1 65.4 45.9 65.5"/>
            </g>
            <g>
              <polygon class="st0" points="47.9 65.1 47.9 71.3 48.2 71.1 48.2 65.3 47.9 65.1"/>
              <polygon class="st83" points="48.7 71.7 47.9 71.3 48.2 71.1 48.7 71.5 48.7 71.7"/>
              <polygon class="st83" points="48.7 70 47.9 69.6 48.2 69.5 48.7 69.8 48.7 70"/>
              <polygon class="st83" points="48.7 68.6 47.9 68.1 48.2 68 48.7 68.3 48.7 68.6"/>
              <polygon class="st83" points="48.7 67.1 47.9 66.7 48.2 66.6 48.7 66.9 48.7 67.1"/>
              <polygon class="st12" points="47.9 71.3 48.4 71.3 48.4 70.3 48.7 70.5 48.7 70.2 48.2 69.8 48.2 71.1 47.9 71.3"/>
              <polygon class="st12" points="47.9 69.6 48.4 69.6 48.4 68.8 48.7 69 48.7 68.7 48.2 68.4 48.2 69.5 47.9 69.6"/>
              <polygon class="st12" points="47.9 68.1 48.4 68.1 48.4 67.4 48.7 67.6 48.7 67.3 48.2 66.9 48.2 68 47.9 68.1"/>
              <polygon class="st12" points="47.9 66.7 48.4 66.7 48.4 65.8 48.7 66 48.7 65.6 48.2 65.3 48.2 66.6 47.9 66.7"/>
            </g>
            <polygon class="st101" points="45.6 63.8 45.6 69.9 45.9 70.1 45.9 64 45.6 63.8"/>
            <polygon class="st101" points="46.7 64.4 46.7 70.6 46.8 70.6 46.8 64.5 46.7 64.4"/>
            <polygon class="st101" points="47.8 65.1 47.8 71.2 47.9 71.3 47.9 65.1 47.8 65.1"/>
            <polygon class="st101" points="44.6 63.2 44.6 69.3 44.7 69.4 44.7 63.3 44.6 63.2"/>
            <polygon class="st101" points="42.7 63.7 42.7 63.8 43.5 64.3 43.6 64.3 44.6 64.9 44.7 65 45.6 65.5 45.9 65.6 46.7 66.1 46.8 66.2 47.8 66.8 47.9 66.8 48.7 67.3 48.7 67.1 47.9 66.7 47.8 66.6 46.8 66 46.7 66 45.9 65.5 45.6 65.3 44.7 64.8 44.6 64.8 43.6 64.2 43.5 64.1 42.7 63.7"/>
            <polygon class="st101" points="42.7 65.1 42.7 65.3 43.5 65.7 43.6 65.8 44.6 66.4 44.7 66.4 45.6 66.9 45.9 67.1 46.7 67.6 46.8 67.6 47.8 68.2 47.9 68.3 48.7 68.7 48.7 68.6 47.9 68.1 47.8 68.1 46.8 67.5 46.7 67.4 45.9 66.9 45.6 66.8 44.7 66.3 44.6 66.2 43.6 65.7 43.5 65.6 42.7 65.1"/>
            <polygon class="st101" points="42.7 66.6 42.7 66.7 43.5 67.2 43.6 67.2 44.6 67.8 44.7 67.9 45.6 68.4 45.9 68.5 46.7 69 46.8 69.1 47.8 69.7 47.9 69.7 48.7 70.2 48.7 70 47.9 69.6 47.8 69.5 46.8 69 46.7 68.9 45.9 68.4 45.6 68.2 44.7 67.7 44.6 67.7 43.6 67.1 43.5 67 42.7 66.6"/>
            <polygon class="st101" points="43.5 62.6 43.5 68.7 43.6 68.8 43.6 62.7 43.5 62.6"/>
          </g>
          <g>
            <g>
              <g class="st25">
                <polygon class="st68" points="24.6 47.4 31.8 51.6 31.8 43.9 31.6 43.1 24.6 39.7 24.6 47.4"/>
              </g>
              <polygon class="st0" points="31.1 51.1 31.6 50.8 31.6 43.1 31.1 43.3 31.1 51.1"/>
              <polygon class="st83" points="23.9 39.2 24.4 38.9 31.6 43.1 31.1 43.3 23.9 39.2"/>
              <polygon class="st1" points="23.9 46.9 31.1 51.1 31.1 43.3 23.9 39.2 23.9 46.9"/>
            </g>
            <polygon class="st83" points="24.2 46.6 30.8 50.4 30.8 50.2 24.4 46.5 24.2 46.6"/>
            <polygon class="st12" points="24.2 46.6 24.6 46.6 24.6 40.3 30.8 43.9 30.8 43.7 24.4 39.9 24.4 46.5 24.2 46.6"/>
            <polygon class="st0" points="24.2 39.8 24.2 46.6 24.4 46.5 24.4 39.9 24.2 39.8"/>
            <polygon class="st101" points="24.7 40.2 24.7 46.3 25.5 46.8 25.5 46.8 25.6 46.8 26.6 47.4 26.8 47.5 27.6 48 27.9 48.1 28.7 48.6 28.8 48.7 29.8 49.3 30 49.3 30.7 49.8 30.7 43.7 30 43.2 28.8 42.6 28.7 42.5 27.6 41.9 26.8 41.4 26.6 41.3 25.6 40.7 25.5 40.7 24.7 40.2"/>
            <polygon class="st60" points="24.7 40.2 24.7 46.3 25.5 46.8 25.5 46.8 25.6 46.8 26.6 47.4 26.8 47.5 27.6 48 27.9 48.1 28.7 48.6 28.8 48.7 29.8 49.3 30 49.3 30.7 49.8 30.7 43.7 30 43.2 28.8 42.6 28.7 42.5 27.6 41.9 26.8 41.4 26.6 41.3 25.6 40.7 25.5 40.7 24.7 40.2"/>
            <g>
              <polygon class="st0" points="25.6 40.7 25.6 46.8 25.9 46.7 25.9 40.9 25.6 40.7"/>
              <polygon class="st83" points="26.6 47.4 25.6 46.8 25.9 46.7 26.6 47.2 26.6 47.4"/>
              <polygon class="st83" points="26.6 45.7 25.6 45.2 25.9 45 26.6 45.5 26.6 45.7"/>
              <polygon class="st83" points="26.6 44.3 25.6 43.7 25.9 43.6 26.6 44 26.6 44.3"/>
              <polygon class="st83" points="26.6 42.8 25.6 42.3 25.9 42.1 26.6 42.6 26.6 42.8"/>
              <polygon class="st12" points="25.6 46.8 26.1 46.8 26.1 45.8 26.6 46.2 26.6 45.9 25.9 45.4 25.9 46.7 25.6 46.8"/>
              <polygon class="st12" points="25.6 45.2 26.1 45.2 26.1 44.4 26.6 44.7 26.6 44.4 25.9 44 25.9 45 25.6 45.2"/>
              <polygon class="st12" points="25.6 43.7 26.1 43.7 26.1 42.9 26.6 43.3 26.6 43 25.9 42.5 25.9 43.6 25.6 43.7"/>
              <polygon class="st12" points="25.6 42.3 26.1 42.3 26.1 41.4 26.6 41.7 26.6 41.3 25.9 40.9 25.9 42.1 25.6 42.3"/>
            </g>
            <g>
              <polygon class="st0" points="24.7 40.2 24.7 46.3 25 46.2 25 40.3 24.7 40.2"/>
              <polygon class="st83" points="25.5 46.8 24.7 46.3 25 46.2 25.5 46.5 25.5 46.8"/>
              <polygon class="st83" points="25.5 45.1 24.7 44.6 25 44.5 25.5 44.8 25.5 45.1"/>
              <polygon class="st83" points="25.5 43.6 24.7 43.2 25 43.1 25.5 43.4 25.5 43.6"/>
              <polygon class="st83" points="25.5 42.2 24.7 41.7 25 41.6 25.5 41.9 25.5 42.2"/>
              <polygon class="st12" points="24.7 46.3 25.2 46.3 25.2 45.3 25.5 45.5 25.5 45.2 25 44.9 25 46.2 24.7 46.3"/>
              <polygon class="st12" points="24.7 44.6 25.2 44.6 25.2 43.9 25.5 44.1 25.5 43.8 25 43.5 25 44.5 24.7 44.6"/>
              <polygon class="st12" points="24.7 43.2 25.2 43.2 25.2 42.4 25.5 42.6 25.5 42.3 25 42 25 43.1 24.7 43.2"/>
              <polygon class="st12" points="24.7 41.7 25.2 41.7 25.2 40.8 25.5 41 25.5 40.7 25 40.3 25 41.6 24.7 41.7"/>
            </g>
            <g>
              <polygon class="st0" points="26.8 41.4 26.8 47.5 27 47.3 27 41.5 26.8 41.4"/>
              <polygon class="st83" points="27.6 48 26.8 47.5 27 47.3 27.6 47.7 27.6 48"/>
              <polygon class="st83" points="27.6 46.3 26.8 45.8 27 45.7 27.6 46 27.6 46.3"/>
              <polygon class="st83" points="27.6 44.8 26.8 44.4 27 44.2 27.6 44.6 27.6 44.8"/>
              <polygon class="st83" points="27.6 43.4 26.8 42.9 27 42.8 27.6 43.1 27.6 43.4"/>
              <polygon class="st12" points="26.8 47.5 27.2 47.5 27.2 46.5 27.6 46.7 27.6 46.4 27 46.1 27 47.3 26.8 47.5"/>
              <polygon class="st12" points="26.8 45.8 27.2 45.8 27.2 45 27.6 45.3 27.6 45 27 44.6 27 45.7 26.8 45.8"/>
              <polygon class="st12" points="26.8 44.4 27.2 44.4 27.2 43.6 27.6 43.8 27.6 43.5 27 43.2 27 44.2 26.8 44.4"/>
              <polygon class="st12" points="26.8 42.9 27.2 42.9 27.2 42 27.6 42.2 27.6 41.9 27 41.5 27 42.8 26.8 42.9"/>
            </g>
            <g>
              <polygon class="st0" points="28.8 42.6 28.8 48.7 29.1 48.6 29.1 42.7 28.8 42.6"/>
              <polygon class="st83" points="29.8 49.3 28.8 48.7 29.1 48.6 29.8 49 29.8 49.3"/>
              <polygon class="st83" points="29.8 47.6 28.8 47 29.1 46.9 29.8 47.3 29.8 47.6"/>
              <polygon class="st83" points="29.8 46.1 28.8 45.6 29.1 45.4 29.8 45.9 29.8 46.1"/>
              <polygon class="st83" points="29.8 44.7 28.8 44.1 29.1 44 29.8 44.4 29.8 44.7"/>
              <polygon class="st12" points="28.8 48.7 29.3 48.7 29.3 47.7 29.8 48 29.8 47.7 29.1 47.3 29.1 48.6 28.8 48.7"/>
              <polygon class="st12" points="28.8 47 29.3 47 29.3 46.2 29.8 46.6 29.8 46.3 29.1 45.8 29.1 46.9 28.8 47"/>
              <polygon class="st12" points="28.8 45.6 29.3 45.6 29.3 44.8 29.8 45.1 29.8 44.8 29.1 44.4 29.1 45.4 28.8 45.6"/>
              <polygon class="st12" points="28.8 44.1 29.3 44.1 29.3 43.2 29.8 43.5 29.8 43.1 29.1 42.7 29.1 44 28.8 44.1"/>
            </g>
            <g>
              <polygon class="st0" points="27.9 42 27.9 48.1 28.1 48 28.1 42.1 27.9 42"/>
              <polygon class="st83" points="28.7 48.6 27.9 48.1 28.1 48 28.7 48.4 28.7 48.6"/>
              <polygon class="st83" points="28.7 46.9 27.9 46.5 28.1 46.3 28.7 46.7 28.7 46.9"/>
              <polygon class="st83" points="28.7 45.5 27.9 45 28.1 44.9 28.7 45.2 28.7 45.5"/>
              <polygon class="st83" points="28.7 44 27.9 43.6 28.1 43.4 28.7 43.8 28.7 44"/>
              <polygon class="st12" points="27.9 48.1 28.3 48.1 28.3 47.1 28.7 47.4 28.7 47.1 28.1 46.7 28.1 48 27.9 48.1"/>
              <polygon class="st12" points="27.9 46.5 28.3 46.5 28.3 45.7 28.7 45.9 28.7 45.6 28.1 45.3 28.1 46.3 27.9 46.5"/>
              <polygon class="st12" points="27.9 45 28.3 45 28.3 44.2 28.7 44.5 28.7 44.2 28.1 43.8 28.1 44.9 27.9 45"/>
              <polygon class="st12" points="27.9 43.6 28.3 43.6 28.3 42.6 28.7 42.9 28.7 42.5 28.1 42.1 28.1 43.4 27.9 43.6"/>
            </g>
            <g>
              <polygon class="st0" points="30 43.2 30 49.3 30.2 49.2 30.2 43.3 30 43.2"/>
              <polygon class="st83" points="30.7 49.8 30 49.3 30.2 49.2 30.7 49.5 30.7 49.8"/>
              <polygon class="st83" points="30.7 48.1 30 47.7 30.2 47.5 30.7 47.9 30.7 48.1"/>
              <polygon class="st83" points="30.7 46.7 30 46.2 30.2 46.1 30.7 46.4 30.7 46.7"/>
              <polygon class="st83" points="30.7 45.2 30 44.7 30.2 44.6 30.7 45 30.7 45.2"/>
              <polygon class="st12" points="30 49.3 30.4 49.3 30.4 48.3 30.7 48.5 30.7 48.2 30.2 47.9 30.2 49.2 30 49.3"/>
              <polygon class="st12" points="30 47.7 30.4 47.7 30.4 46.9 30.7 47.1 30.7 46.8 30.2 46.5 30.2 47.5 30 47.7"/>
              <polygon class="st12" points="30 46.2 30.4 46.2 30.4 45.4 30.7 45.6 30.7 45.3 30.2 45 30.2 46.1 30 46.2"/>
              <polygon class="st12" points="30 44.7 30.4 44.7 30.4 43.8 30.7 44.1 30.7 43.7 30.2 43.3 30.2 44.6 30 44.7"/>
            </g>
            <polygon class="st101" points="27.6 41.9 27.6 48 27.9 48.1 27.9 42 27.6 41.9"/>
            <polygon class="st101" points="28.7 42.5 28.7 48.6 28.8 48.7 28.8 42.6 28.7 42.5"/>
            <polygon class="st101" points="29.8 43.1 29.8 49.3 30 49.3 30 43.2 29.8 43.1"/>
            <polygon class="st101" points="26.6 41.3 26.6 47.4 26.8 47.5 26.8 41.4 26.6 41.3"/>
            <polygon class="st101" points="24.7 41.7 24.7 41.9 25.5 42.3 25.6 42.4 26.6 43 26.8 43 27.6 43.5 27.9 43.7 28.7 44.2 28.8 44.2 29.8 44.8 30 44.9 30.7 45.3 30.7 45.2 30 44.7 29.8 44.7 28.8 44.1 28.7 44 27.9 43.6 27.6 43.4 26.8 42.9 26.6 42.8 25.6 42.3 25.5 42.2 24.7 41.7"/>
            <polygon class="st101" points="24.7 43.2 24.7 43.3 25.5 43.8 25.6 43.8 26.6 44.4 26.8 44.5 27.6 45 27.9 45.1 28.7 45.6 28.8 45.7 29.8 46.3 30 46.3 30.7 46.8 30.7 46.7 30 46.2 29.8 46.1 28.8 45.6 28.7 45.5 27.9 45 27.6 44.8 26.8 44.4 26.6 44.3 25.6 43.7 25.5 43.6 24.7 43.2"/>
            <polygon class="st101" points="24.7 44.6 24.7 44.8 25.5 45.2 25.6 45.3 26.6 45.9 26.8 45.9 27.6 46.4 27.9 46.6 28.7 47.1 28.8 47.1 29.8 47.7 30 47.8 30.7 48.2 30.7 48.1 30 47.7 29.8 47.6 28.8 47 28.7 46.9 27.9 46.5 27.6 46.3 26.8 45.8 26.6 45.7 25.6 45.2 25.5 45.1 24.7 44.6"/>
            <polygon class="st101" points="25.5 40.7 25.5 46.8 25.6 46.8 25.6 40.7 25.5 40.7"/>
          </g>
          <polygon class="st0" points="37.4 73.4 39.4 72.2 39.5 71 37.4 72.2 37.4 73.4"/>
          <polygon class="st1" points="11 58 37.4 72.2 37.4 73.4 18.9 62.7 11 58"/>
          <polygon class="st26" points="38.1 45.3 28.1 31.6 28.1 32.4 37.8 45.5 38.1 45.3"/>
          <polygon class="st26" points="18.1 33.7 28.1 31.6 28.1 32.4 18.4 34.4 18.1 33.7"/>
        </g>
        <g>
          <g>
            <g>
              <polygon class="st43" points="52.3 77.4 52.3 77.6 83.4 59.7 83.4 59.5 52.3 77.4"/>
              <polygon class="st33" points="52.3 77 52.3 77.4 83.4 59.5 83.4 59.1 52.3 77"/>
            </g>
            <g>
              <polygon class="st43" points="52.3 75.7 52.3 75.9 83.4 58 83.4 57.7 52.3 75.7"/>
              <polygon class="st33" points="52.3 75.3 52.3 75.7 83.4 57.7 83.4 57.4 52.3 75.3"/>
            </g>
            <g>
              <polygon class="st43" points="52.3 74 52.3 74.2 83.4 56.2 83.4 56 52.3 74"/>
              <polygon class="st33" points="52.3 73.6 52.3 74 83.4 56 83.4 55.7 52.3 73.6"/>
            </g>
            <g>
              <polygon class="st43" points="52.3 72.2 52.3 72.5 83.4 54.5 83.4 54.3 52.3 72.2"/>
              <polygon class="st33" points="52.3 71.9 52.3 72.2 83.4 54.3 83.4 53.9 52.3 71.9"/>
            </g>
            <g>
              <polygon class="st43" points="52.3 70.5 52.3 70.7 83.4 52.8 83.4 52.6 52.3 70.5"/>
              <polygon class="st33" points="52.3 70.2 52.3 70.5 83.4 52.6 83.4 52.2 52.3 70.2"/>
            </g>
            <g>
              <polygon class="st43" points="52.3 68.8 52.3 69 83.4 51.1 83.4 50.8 52.3 68.8"/>
              <polygon class="st33" points="52.3 68.4 52.3 68.8 83.4 50.8 83.4 50.5 52.3 68.4"/>
            </g>
            <g>
              <polygon class="st43" points="52.3 67.1 52.3 67.3 83.4 49.3 83.4 49.1 52.3 67.1"/>
              <polygon class="st33" points="52.3 66.7 52.3 67.1 83.4 49.1 83.4 48.8 52.3 66.7"/>
            </g>
            <g>
              <polygon class="st43" points="52.3 65.3 52.3 65.6 83.4 47.6 83.4 47.4 52.3 65.3"/>
              <polygon class="st33" points="52.3 65 52.3 65.3 83.4 47.4 83.4 47 52.3 65"/>
            </g>
            <g>
              <polygon class="st43" points="52.3 63.6 52.3 63.8 83.4 45.9 83.4 45.7 52.3 63.6"/>
              <polygon class="st33" points="52.3 63.3 52.3 63.6 83.4 45.7 83.4 45.3 52.3 63.3"/>
            </g>
          </g>
          <g>
            <g>
              <polygon class="st43" points="52.3 61.9 52.3 62.1 83.4 44.2 83.4 43.9 52.3 61.9"/>
              <polygon class="st33" points="52.3 61.5 52.3 61.9 83.4 43.9 83.4 43.6 52.3 61.5"/>
            </g>
            <g>
              <polygon class="st43" points="52.3 60.2 52.3 60.4 83.4 42.5 83.4 42.2 52.3 60.2"/>
              <polygon class="st33" points="52.3 59.8 52.3 60.2 83.4 42.2 83.4 41.9 52.3 59.8"/>
            </g>
            <g>
              <polygon class="st43" points="52.3 58.4 52.3 58.7 83.4 40.7 83.4 40.5 52.3 58.4"/>
              <polygon class="st33" points="52.3 58.1 52.3 58.4 83.4 40.5 83.4 40.1 52.3 58.1"/>
            </g>
            <g>
              <polygon class="st43" points="52.3 56.7 52.3 56.9 83.4 39 83.4 38.8 52.3 56.7"/>
              <polygon class="st33" points="52.3 56.4 52.3 56.7 83.4 38.8 83.4 38.4 52.3 56.4"/>
            </g>
            <g>
              <polygon class="st43" points="52.3 55 52.3 55.2 83.4 37.3 83.4 37.1 52.3 55"/>
              <polygon class="st33" points="52.3 54.6 52.3 55 83.4 37.1 83.4 36.7 52.3 54.6"/>
            </g>
            <g>
              <polygon class="st43" points="52.3 53.3 52.3 53.5 83.4 35.6 83.4 35.3 52.3 53.3"/>
              <polygon class="st33" points="52.3 52.9 52.3 53.3 83.4 35.3 83.4 35 52.3 52.9"/>
            </g>
            <g>
              <polygon class="st43" points="52.3 51.5 52.3 51.8 83.4 33.8 83.4 33.6 52.3 51.5"/>
              <polygon class="st33" points="52.3 51.5 52.3 51.5 83.4 33.6 83.4 33.5 52.3 51.5"/>
            </g>
          </g>
        </g>
        <g>
          <path class="st27" d="M67.4,51.1"/>
          <path class="st27" d="M61.7,52.6"/>
        </g>
        <g>
          <polygon class="st10" points="74.3 86.9 101.7 71 97.6 68.6 71.7 82.3 70 86.5 74.3 86.9"/>
          <polygon class="st114" points="70 86.5 97.4 70.7 97.4 66.3 70 82.1 70 86.5"/>
          <polygon class="st76" points="70 82.1 97.4 66.3 94.8 64.8 67.4 80.7 70 82.1"/>
          <polygon class="st27" points="70 86.5 67.4 85.1 67.4 80.7 70 82.1 70 86.5"/>
        </g>
      </g>
      <g>
        <polygon class="st3" points="56.1 76.5 56 76.1 56 75.9 55.7 74.3 55.8 74.8 56.1 76.5"/>
        <polygon class="st93" points="56 76.1 56.1 76.5 57.3 76.6 58 76.3 58 76.1 58.4 76.2 57.5 76.7 55.7 76.6 55.6 76 56 75.9 56 76.1"/>
        <polygon class="st85" points="57.3 76.6 56.1 76.5 55.8 74.8 57.5 75 57.3 76.6"/>
        <polygon class="st69" points="58 76.3 57.3 76.6 57.5 75 58.4 74.5 58 76.1 58 76.3"/>
        <polygon class="st72" points="56.1 78.8 55.6 76 55.7 76.6 56.2 79.2 56.1 78.8"/>
        <polygon class="st69" points="58.4 76.2 57.7 78.9 57.2 79.2 57.5 76.7 58.4 76.2"/>
        <polygon class="st40" points="57.5 76.7 57.2 79.2 56.2 79.2 55.7 76.6 57.5 76.7"/>
        <polygon class="st93" points="55.7 74.3 56 74.2 56 74.4 56.2 74.8 57.3 74.8 57.9 74.5 58 74.4 58.4 74.5 57.5 75 55.8 74.8 55.7 74.3"/>
        <polygon class="st69" points="57.9 74.5 57.3 74.8 57.5 73.2 58.3 72.8 58 74.4 57.9 74.5"/>
        <polygon class="st7" points="57.3 74.8 56.2 74.8 55.9 73.1 57.5 73.2 57.3 74.8"/>
        <polygon class="st24" points="56.2 74.8 56 74.4 56 74.2 55.7 72.6 55.9 73.1 56.2 74.8"/>
        <polygon class="st93" points="55.7 72.6 56.1 72.6 56.1 72.6 56.2 73 57.4 73.1 57.9 72.8 58 72.6 58.3 72.8 57.5 73.2 55.9 73.1 55.7 72.6"/>
        <polygon class="st71" points="56.2 73 56.1 72.6 56.1 72.6 55.8 70.9 56 71.3 56.2 73"/>
        <polygon class="st66" points="57.4 73.1 56.2 73 56 71.3 57.5 71.5 57.4 73.1"/>
        <polygon class="st69" points="57.9 72.8 57.4 73.1 57.5 71.5 58.3 71 58 72.6 57.9 72.8"/>
        <polygon class="st93" points="55.8 70.9 56.2 70.8 56.2 71 56.2 71.3 57.4 71.3 57.9 71.1 57.9 71 58.3 71 57.5 71.5 56 71.3 55.8 70.9"/>
        <polygon class="st55" points="56.2 71.3 56.2 71 56.2 70.8 56 69.1 56 69.5 56.2 71.3"/>
        <polygon class="st66" points="57.4 71.3 56.2 71.3 56 69.5 57.5 69.7 57.4 71.3"/>
        <polygon class="st69" points="57.9 71.1 57.4 71.3 57.5 69.7 58.3 69.3 57.9 71 57.9 71.1"/>
        <polygon class="st93" points="56 69.1 56.2 69.1 56.2 69.1 56.3 69.5 57.4 69.5 57.9 69.3 57.9 69.2 58.3 69.3 57.5 69.7 56 69.5 56 69.1"/>
        <polygon class="st69" points="57.9 69.3 57.4 69.5 57.5 67.7 58.3 67.5 57.9 69.2 57.9 69.3"/>
        <polygon class="st57" points="57.4 69.5 56.3 69.5 56.1 67.7 57.5 67.7 57.4 69.5"/>
        <polygon class="st63" points="56.3 69.5 56.2 69.1 56.2 69.1 56 67.3 56.1 67.7 56.3 69.5"/>
        <polygon class="st54" points="56 67.3 56.2 67.3 56.3 67.4 56.4 67.6 57.4 67.7 57.9 67.5 57.9 67.4 58.3 67.5 57.5 67.7 56.1 67.7 56 67.3"/>
        <polygon class="st69" points="57.9 67.5 57.4 67.7 57.5 65.9 58.2 65.6 57.9 67.4 57.9 67.5"/>
        <polygon class="st77" points="57.4 67.7 56.4 67.6 56.2 65.8 57.5 65.9 57.4 67.7"/>
        <polygon class="st63" points="56.4 67.6 56.3 67.4 56.2 67.3 56 65.6 56.2 65.8 56.4 67.6"/>
        <polygon class="st54" points="56 65.6 56.3 65.5 56.3 65.6 56.4 65.8 57.4 65.8 57.8 65.6 57.8 65.6 58.2 65.6 57.5 65.9 56.2 65.8 56 65.6"/>
        <polygon class="st47" points="57.4 65.8 56.4 65.8 56.2 63.9 57.5 64 57.4 65.8"/>
        <polygon class="st69" points="57.8 65.6 57.4 65.8 57.5 64 58.2 63.8 57.8 65.6 57.8 65.6"/>
        <polygon class="st113" points="56.4 65.8 56.3 65.6 56.3 65.5 56.1 63.8 56.2 63.9 56.4 65.8"/>
        <polygon class="st86" points="56.1 63.8 56.4 63.8 56.4 63.8 56.4 63.9 57.4 63.9 57.8 63.8 57.8 63.8 58.2 63.8 57.5 64 56.2 63.9 56.1 63.8"/>
        <polygon class="st69" points="57.8 63.8 57.4 63.9 57.5 62.1 58.1 62 57.8 63.8 57.8 63.8"/>
        <polygon class="st47" points="57.4 63.9 56.4 63.9 56.2 62 57.5 62.1 57.4 63.9"/>
        <polygon class="st75" points="56.4 63.9 56.4 63.8 56.4 63.8 56.2 61.9 56.2 62 56.4 63.9"/>
        <polygon class="st86" points="56.2 61.9 56.4 61.9 56.4 62 56.5 62 57.4 62.1 57.8 62 57.8 62 58.1 62 57.5 62.1 56.2 62 56.2 61.9"/>
        <polygon class="st6" points="57.4 62.1 56.5 62 56.4 60.2 57.6 60.2 57.4 62.1"/>
        <polygon class="st85" points="56.5 62 56.4 62 56.4 61.9 56.2 60 56.4 60.2 56.5 62"/>
        <polygon class="st69" points="57.8 62 57.4 62.1 57.6 60.2 58.2 60.2 57.8 62 57.8 62"/>
        <polygon class="st53" points="56.2 60 56.6 60 56.6 60.1 56.6 60.2 57.5 60.2 58 60.2 58 60.2 58.2 60.2 57.6 60.2 56.4 60.2 56.2 60"/>
        <polygon class="st69" points="58 60.2 57.5 60.2 57.8 58.5 58.4 58.3 58 60.2 58 60.2"/>
        <polygon class="st30" points="57.5 60.2 56.6 60.2 56.6 58.3 57.8 58.5 57.5 60.2"/>
        <polygon class="st104" points="56.6 60.2 56.6 60.1 56.6 60 56.6 58.2 56.6 58.3 56.6 60.2"/>
        <polygon class="st32" points="56.6 58.2 56.8 58.2 56.8 58.2 56.9 58.3 57.8 58.4 58.2 58.3 58.2 58.3 58.4 58.3 57.8 58.5 56.6 58.3 56.6 58.2"/>
        <polygon class="st69" points="58.2 58.3 57.8 58.4 58.1 56.7 58.7 56.6 58.2 58.3 58.2 58.3"/>
        <polygon class="st94" points="57.8 58.4 56.9 58.3 57 56.5 57.6 56.6 57.6 56.8 57.7 56.7 58.1 56.7 57.8 58.4"/>
        <polygon class="st77" points="56.9 58.3 56.8 58.2 56.8 58.2 56.9 56.3 57 56.5 56.9 58.3"/>
        <polygon class="st32" points="56.9 56.3 57.2 56.3 57.2 56.3 57.2 56.5 57.6 56.6 57.6 56.6 57 56.5 56.9 56.3"/>
        <polygon class="st74" points="57.6 56.6 57.2 56.5 57.3 55.7 57.6 56.6"/>
        <polygon class="st52" points="57.2 56.5 57.2 56.3 57.2 56.3 57.2 55.5 57.3 55.7 57.2 56.5"/>
        <polygon class="st32" points="58.5 56.5 58.7 56.6 58.1 56.7 57.7 56.7 57.8 56.6 58 56.7 58.5 56.6 58.5 56.5"/>
        <polygon class="st69" points="58.5 56.6 58 56.7 58.4 55.5 58.7 55 59.1 54.9 58.5 56.5 58.5 56.6"/>
        <polygon class="st74" points="58 56.7 57.8 56.6 58.4 55.5 58 56.7"/>
        <polygon class="st32" points="58.9 54.8 59.1 54.9 58.7 55 58.8 54.9 58.8 54.9 58.9 54.8"/>
        <polygon class="st69" points="58.8 54.9 58.8 54.9 58.9 54.6 58.9 54.8 58.8 54.9"/>
        <polygon class="st67" points="65.7 45 64.5 45.6 64.4 44.6 65.7 45"/>
        <polygon class="st67" points="64.4 44.6 64.5 45.6 63.3 45.3 64.4 44.6"/>
        <polygon class="st67" points="63.3 45.3 64.5 45.6 63.9 46.1 63.3 46.6 62.8 47.2 62.3 47.6 62.7 46.2 62.7 46.1 63.3 45.3"/>
        <polygon class="st67" points="63.3 45.3 62.7 46.1 62.7 46 63.3 45.3"/>
        <polygon class="st67" points="63.3 45.3 62.7 46 62.7 45.1 62.6 45 63.3 45.3"/>
        <polygon class="st67" points="63.3 45.3 62.6 45 62.4 44.6 62 44.4 62.2 44.3 62.2 44.3 62.3 44.2 62.4 44.1 63 43.6 63 43.6 63.3 45.3"/>
        <polygon class="st67" points="64.4 44.6 63.3 45.3 63 43.6 64.4 44.6"/>
        <polygon class="st67" points="65.7 45 64.4 44.6 65.7 44.4 65.7 45"/>
        <polygon class="st67" points="64.4 44.6 63 43.6 64.2 43.2 64.3 43.2 64.4 44.6"/>
        <polygon class="st67" points="65.7 44.4 64.4 44.6 64.3 43.2 65.7 44.4"/>
        <polygon class="st67" points="65.7 45 65.7 44.4 67.1 44.8 67 44.9 65.7 45"/>
        <polygon class="st37" points="67.1 44.8 65.7 44.4 67.7 45 67.1 44.8"/>
        <polygon class="st67" points="65.7 44.4 64.3 43.2 65.7 43.4 65.8 43.4 66 43.5 66.4 43.5 66.6 43.5 66.6 43.5 65.7 44.4"/>
        <polygon class="st67" points="67.7 45 65.7 44.4 66.6 43.5 67.7 45"/>
        <polygon class="st29" points="67.1 44.8 67.7 45 67.8 45 67.1 44.8"/>
        <polygon class="st91" points="67.1 44.8 67.8 45 68.3 45.5 67.6 45.4 67 44.9 67.1 44.8"/>
        <polygon class="st50" points="67.7 45 66.6 43.5 68.3 45.4 67.7 45"/>
        <polygon class="st58" points="68.3 45.4 66.6 43.5 70 45.6 68.3 45.4"/>
        <polygon class="st88" points="67.7 45 68.3 45.4 68.5 45.7 68.3 45.5 67.8 45 67.7 45"/>
        <polygon class="st58" points="70 45.6 66.6 43.5 67.7 43.9 68.3 44.1 68.5 44.3 68.9 44.6 69.8 45.5 70 45.6"/>
        <polygon class="st35" points="68.3 45.4 70 45.6 71.4 49.9 68.3 45.4"/>
        <polygon class="st5" points="71.4 49.9 70 45.6 71.9 50 71.4 49.9"/>
        <polygon class="st62" points="68.3 45.4 71.4 49.9 70 50 69.5 48.5 68.9 46.8 68.5 45.7 68.3 45.4"/>
        <polygon class="st67" points="70 50 71.4 49.9 71.6 56.9 70.5 52.2 70 50"/>
        <polygon class="st42" points="71.9 50 70 45.6 70.6 46.5 70.8 47 71.5 48.9 71.9 50"/>
        <polygon class="st28" points="70.6 46.5 70 45.6 69.8 45.5 71.8 45 72.8 48.9 70.8 47 70.6 46.5"/>
        <polygon class="st67" points="71.4 49.9 71.9 50 71.8 52.8 71.6 56.9 71.4 49.9"/>
        <polygon class="st49" points="55.1 48.8 55.5 44.1 58.5 49.2 55.1 48.8"/>
        <polygon class="st13" points="58.5 49.2 55.5 44.1 59.3 44.8 58.5 49.2"/>
        <polygon class="st81" points="59.3 44.8 55.5 44.1 55.5 44.1 55.5 43.9 55.8 43.5 56 43 56.1 43 56.2 42.6 56.3 42.5 59.3 44.8"/>
        <polygon class="st16" points="59.3 44.8 56.3 42.5 59.7 43.3 59.3 44.8"/>
        <polygon class="st99" points="59.7 43.3 56.3 42.5 57 42.4 57.4 42.4 59.7 43.3"/>
        <polygon class="st110" points="59.7 43.3 57.4 42.4 58.1 42.6 59.7 43 59.7 43 60.1 43.2 59.7 43.3"/>
        <polygon class="st95" points="59.7 43.3 60.1 43.2 62.7 45.1 59.7 43.3"/>
        <polygon class="st65" points="62.7 45.1 60.1 43.2 60.3 43.3 60.4 43.3 60.7 43.5 61.8 44.3 62 44.4 62.4 44.6 62.6 45 62.7 45.1"/>
        <polygon class="st100" points="59.7 43.3 62.7 45.1 62.7 46 62.7 46.1 62.7 46.2 59.7 43.3"/>
        <polygon class="st64" points="59.3 44.8 59.7 43.3 62.7 46.2 59.3 44.8"/>
        <polygon class="st41" points="59.3 44.8 62.7 46.2 62.3 47.6 61.6 49.8 59.3 44.8"/>
        <polygon class="st46" points="58.5 49.2 59.3 44.8 61.6 49.8 58.5 49.2"/>
        <polygon class="st45" points="55.1 48.8 58.5 49.2 57.6 56.8 57.6 56.6 57.6 56.6 57.3 55.7 57.2 55.5 55.1 48.8"/>
        <polygon class="st15" points="58.5 49.2 61.6 49.8 60.7 51.5 60.4 51.9 58.9 54.6 58.8 54.9 58.7 55 58.4 55.5 57.8 56.6 57.7 56.7 57.6 56.8 58.5 49.2"/>
        <polygon class="st96" points="50.9 41.5 53.9 41.7 52 42.2 50.9 41.5"/>
        <polygon class="st79" points="52 42.2 53.9 41.7 54.7 42.4 52 42.2"/>
        <polygon class="st36" points="54.7 42.4 53.9 41.7 54 41.8 54.2 41.9 54.5 42 55 42.2 55.1 42.4 55.5 42.6 54.7 42.4"/>
        <polygon class="st2" points="54.7 42.4 55.5 42.6 56.1 43 56 43 54.7 42.4"/>
        <polygon class="st56" points="56.1 43 55.5 42.6 55.1 42.4 55.5 42.1 56.2 42.6 56.1 43"/>
        <polygon class="st8" points="54.7 42.4 56 43 55.8 43.5 55.3 43.8 54.7 42.4"/>
        <polygon class="st105" points="55.3 43.8 55.8 43.5 55.5 43.9 55.3 43.8"/>
        <polygon class="st51" points="55.3 43.8 55.5 43.9 55.5 44.1 55.1 43.8 55.3 43.8"/>
        <polygon class="st61" points="54.7 42.4 55.3 43.8 55.1 43.8 53.2 43.9 54.7 42.4"/>
        <polygon class="st20" points="52 42.2 54.7 42.4 53.2 43.9 52 42.2"/>
        <polygon class="st39" points="50.9 41.5 52 42.2 49.7 43.3 50.9 41.5"/>
        <polygon class="st23" points="52 42.2 53.2 43.9 52.8 44.1 52.2 44.5 51.8 44.7 51.7 44.8 52 42.2"/>
        <polygon class="st39" points="48.4 42.7 50.9 41.5 49.7 43.3 48.4 42.7"/>
        <polygon class="st4" points="49.7 43.3 52 42.2 51.7 44.8 49.7 43.3"/>
        <polygon class="st48" points="48.4 42.7 49.7 43.3 47.1 47.1 48.4 42.7"/>
        <polygon class="st48" points="49.7 43.3 51.7 44.8 50.6 46.1 50.1 46.5 49 47.9 49.7 43.3"/>
        <polygon class="st111" points="46.1 46.7 48.4 42.7 47.1 47.1 46.1 46.7"/>
        <polygon class="st48" points="47.1 47.1 49.7 43.3 49 47.9 47.1 47.1"/>
        <polygon class="st44" points="46.1 46.7 47.1 47.1 45.5 53.9 46.1 46.7"/>
        <polygon class="st80" points="47.1 47.1 49 47.9 48.8 48.3 45.5 53.9 47.1 47.1"/>
        <polygon class="st108" points="57.1 41.9 58.1 42.6 57.4 42.4 57 42.4 55.5 42.1 57.1 41.9"/>
        <polygon class="st108" points="56.2 42.6 55.5 42.1 57 42.4 56.3 42.5 56.2 42.6"/>
        <polygon class="st81" points="57.1 41.9 55.5 42.1 54.5 42 54.2 41.9 57.1 41.9"/>
        <polygon class="st79" points="55.5 42.1 55.1 42.4 55 42.2 55.5 42.1"/>
        <polygon class="st98" points="55.3 41.6 57.1 41.9 54.2 41.9 54 41.8 55.3 41.6"/>
        <polygon class="st79" points="54.5 42 55.5 42.1 55 42.2 54.5 42"/>
        <polygon class="st17" points="52.8 44.1 51.6 46.1 52.2 44.5 52.8 44.1"/>
        <polygon class="st17" points="52.2 44.5 51.6 46.1 50.6 46.5 51.8 44.7 52.2 44.5"/>
        <polygon class="st91" points="51.8 44.7 50.6 46.5 50.6 46.1 51.7 44.8 51.8 44.7"/>
        <polygon class="st91" points="50.6 46.1 50.6 46.5 50.1 46.5 50.6 46.1"/>
        <polygon class="st91" points="50.1 46.5 50.6 46.5 48.6 51.9 48.8 48.3 49 47.9 50.1 46.5"/>
        <polygon class="st91" points="50.6 46.5 51.6 46.1 48.6 51.9 50.6 46.5"/>
        <polygon class="st96" points="63.4 42.5 64.1 42.6 63.1 42.8 63.4 42.5"/>
        <polygon class="st89" points="63.1 42.8 64.1 42.6 63.1 42.9 63.1 42.8"/>
        <polygon class="st67" points="63.1 42.9 64.1 42.6 64.2 43.2 63 43.6 63 43.6 62.6 43.6 62.9 43.2 63.1 42.9"/>
        <polygon class="st87" points="60.9 42.6 61.2 42.6 63.4 42.5 60.9 42.6"/>
        <polygon class="st18" points="60.9 42.6 63.4 42.5 63.1 42.8 63.1 42.9 62.9 43.2 60.9 42.6"/>
        <polygon class="st34" points="60.9 42.6 62.9 43.2 60.7 43.2 60.9 42.6"/>
        <polygon class="st23" points="60.7 43.2 62.9 43.2 62.6 43.6 62.3 44.1 62.3 44.2 62.2 44.3 60.7 43.2"/>
        <polygon class="st82" points="60.7 43.2 62.2 44.3 62.2 44.3 61.8 44.3 60.7 43.5 60.7 43.2"/>
        <polygon class="st78" points="61.8 44.3 62.2 44.3 62 44.4 61.8 44.3"/>
        <polygon class="st38" points="60.7 43.2 60.7 43.5 60.4 43.3 60.7 43.2"/>
        <polygon class="st39" points="60.7 43.2 60.4 43.3 60.3 43.3 60.7 43.2"/>
        <polygon class="st39" points="60.9 42.6 60.7 43.2 60.3 43.3 60.1 43.2 59.7 43 60.9 42.6"/>
        <polygon class="st70" points="60.9 42.6 59.7 43 59.7 43 60.9 42.6"/>
        <polygon class="st67" points="62.6 43.6 63 43.6 62.4 44.1 62.3 44.1 62.6 43.6"/>
        <polygon class="st67" points="62.3 44.1 62.4 44.1 62.3 44.2 62.3 44.1"/>
        <polygon class="st67" points="63.9 46.1 63.7 47.1 63.3 46.6 63.9 46.1"/>
        <polygon class="st67" points="63.3 46.6 63.7 47.1 62.8 47.2 63.3 46.6"/>
        <polygon class="st14" points="62.8 47.2 63.7 47.1 60.6 52.4 60.7 51.5 61.6 49.8 62.3 47.6 62.8 47.2"/>
        <polygon class="st35" points="60.7 51.5 60.6 52.4 60.4 51.9 60.7 51.5"/>
        <polygon class="st44" points="65.7 43.4 65.9 43.3 65.8 43.4 65.7 43.4"/>
        <polygon class="st44" points="65.8 43.4 65.9 43.3 67.1 43.2 66 43.5 65.8 43.4"/>
        <polygon class="st91" points="66 43.5 67.1 43.2 66.4 43.5 66 43.5"/>
        <polygon class="st91" points="66.4 43.5 67.1 43.2 66.6 43.5 66.4 43.5"/>
        <polygon class="st91" points="66.6 43.5 67.1 43.2 69.9 43.5 67.7 43.9 66.6 43.5 66.6 43.5"/>
        <polygon class="st91" points="67.7 43.9 69.9 43.5 68.5 44.3 68.3 44.1 67.7 43.9"/>
        <polygon class="st91" points="68.5 44.3 69.9 43.5 71.8 45 68.9 44.6 68.5 44.3"/>
        <polygon class="st14" points="67.6 45.4 68.3 45.5 68.5 45.7 68.9 46.8 67.6 45.4"/>
        <polygon class="st91" points="68.9 44.6 71.8 45 69.8 45.5 68.9 44.6"/>
        <polygon class="st90" points="67.6 45.4 68.9 46.8 69.5 48.5 69.2 48.5 67.6 45.4"/>
        <polygon class="st31" points="69.2 48.5 69.5 48.5 70 50 70.5 52.2 69.2 48.5"/>
        <polygon class="st102" points="70.8 47 72.8 48.9 71.5 48.9 70.8 47"/>
        <polygon class="st109" points="71.5 48.9 72.8 48.9 71.8 52.8 71.9 50 71.5 48.9"/>
      </g>
    </g>
  </g>
</svg>