<?xml version="1.0" encoding="UTF-8"?><svg xmlns="http://www.w3.org/2000/svg" xmlns:xlink="http://www.w3.org/1999/xlink" viewBox="0 0 1311.07 567.17"><defs><style>.cls-1{fill:#43596d;}.cls-2{isolation:isolate;}.cls-15,.cls-19,.cls-23,.cls-3{fill:#242b52;}.cls-3,.cls-31,.cls-5{opacity:0.2;}.cls-15,.cls-19,.cls-3,.cls-5{mix-blend-mode:multiply;}.cls-4{clip-path:url(#clip-path);}.cls-5{fill:#2f1d00;}.cls-6{fill:#ffde96;opacity:0.13;}.cls-7{fill:#007874;}.cls-8{fill:#f1f3be;opacity:0.3;}.cls-9{fill:#005a56;opacity:0.71;}.cls-10{clip-path:url(#clip-path-2);}.cls-11{fill:#00c48b;}.cls-12{opacity:0.5;}.cls-13{fill:#87ad54;}.cls-14{opacity:0.82;}.cls-15{opacity:0.1;}.cls-16{clip-path:url(#clip-path-3);}.cls-17{clip-path:url(#clip-path-4);}.cls-18{clip-path:url(#clip-path-5);}.cls-19{opacity:0.15;}.cls-20{fill:#b4bdc5;}.cls-21{fill:#9fa8b6;}.cls-22{fill:#e6e7e8;}.cls-24{fill:#404079;}.cls-25{fill:#566575;}.cls-26{fill:#00123e;}.cls-27{fill:#303a66;}.cls-28{fill:#e3e3e7;}.cls-29{fill:#ebebeb;}.cls-30{fill:#1c75bc;}.cls-31{fill:#fff;}.cls-32{clip-path:url(#clip-path-6);}.cls-33{clip-path:url(#clip-path-7);}.cls-34{clip-path:url(#clip-path-8);}</style><clipPath id="clip-path"><path class="cls-1" d="M1133.19,209.67a44.73,44.73,0,0,1,.08-5.1c-4.7-1.61-7.42-14.61-7.42-14.61,3.54,7.6,6.37,11.49,7.84,11.9.17-1.64.37-5.52.46-7.14a37.53,37.53,0,0,1,.36-3.94c.3-1.78-.6-9.76.2-10.52,0,0,1.47,11.69,2.09,10.39,1.94-4.06,3-4.68,5.3-8.11.29-.43-5.3,11.4-5.24,12.07.23,2.67.53,6.53.91,12.13a43.92,43.92,0,0,0,5.88-4.13c-1-3.45,2.25-10.24,2.25-10.24-.1,3.66-1.5,8.53-.84,9,1.43-1.71,8.62-7.08,10.31-9.29,0,0-10,13.19-17.34,18.28.34,4.28.47,11.33.65,12.7.37,2.86.93,6.16,1.51,8.66.44.52-2.32,2.19-4.87,1.74-2.34-.41-4-.66-3.64-1.74.14-1.24.45-2.42.48-3.74.06-2.64.13-11.92.44-13.76-10.61-5.28-19.51-18-19.51-18C1120.71,203.68,1130,209.42,1133.19,209.67Z"/></clipPath><clipPath id="clip-path-2"><path class="cls-1" d="M1068.06,233.36c-.29,2.09-.35,3.65-4.16,3.83-4.47.21-12.78-1.34-13.05-3.83,0,0,.43-18.07,5.59-30.54s4.72-37.42,5.16-42.16a12.83,12.83,0,0,1,2.59-7.1l3.87,3.41s.86,22.19,0,30.36-2.8,16.44-3.44,25.53C1064.08,220.45,1068.06,233.36,1068.06,233.36Z"/></clipPath><clipPath id="clip-path-3"><path class="cls-1" d="M521.18,241.59c-.38,2.77-.46,4.85-5.52,5.09-5.94.27-17-1.78-17.33-5.09,0,0,.57-24,7.43-40.57s6.26-49.7,6.84-56,3.44-9.43,3.44-9.43l5.14,4.52s1.15,29.48,0,40.33-3.71,21.84-4.57,33.92C515.9,224.43,521.18,241.59,521.18,241.59Z"/></clipPath><clipPath id="clip-path-4"><path class="cls-1" d="M177.51,346c-.39,2.78-.47,4.86-5.52,5.1-5.94.27-17-1.78-17.34-5.1,0,0,.57-24,7.43-40.57s6.26-49.69,6.85-56,3.43-9.43,3.43-9.43l5.15,4.52s1.14,29.48,0,40.33-3.72,21.84-4.57,33.91C172.22,328.83,177.51,346,177.51,346Z"/></clipPath><clipPath id="clip-path-5"><path class="cls-1" d="M72.75,307.86a85.33,85.33,0,0,1,.15-9.17c-8.47-2.91-13.37-26.35-13.37-26.35C65.9,286,71,293.06,73.66,293.8c.3-2.95.67-9.95.83-12.88a66.84,66.84,0,0,1,.65-7.09c.54-3.21-1.08-17.6.35-19,0,0,2.66,21.06,3.78,18.72,3.49-7.31,5.39-8.43,9.55-14.63.52-.77-9.56,20.56-9.46,21.76.43,4.81,1,11.78,1.64,21.87a79.57,79.57,0,0,0,10.61-7.44c-1.83-6.23,4-18.47,4-18.47-.18,6.6-2.71,15.37-1.52,16.19,2.59-3.07,15.54-12.75,18.59-16.73,0,0-18.1,23.76-31.25,32.94.61,7.72.85,20.42,1.16,22.89.67,5.15,1.69,11.1,2.74,15.6.79.93-4.18,3.95-8.78,3.14-4.22-.74-7.29-1.19-6.56-3.14.25-2.23.81-4.36.86-6.75.11-4.74.24-21.46.79-24.79-19.12-9.51-35.16-32.4-35.16-32.4C50.26,297.07,67,307.41,72.75,307.86Z"/></clipPath><clipPath id="clip-path-6"><path class="cls-1" d="M503.13,529.47a60.55,60.55,0,0,1,.11-6.76c-6.24-2.15-9.86-19.42-9.86-19.42,4.7,10.1,8.47,15.27,10.42,15.81.22-2.17.49-7.33.61-9.49a51.85,51.85,0,0,1,.48-5.23c.4-2.36-.79-13,.26-14,0,0,2,15.52,2.78,13.79,2.58-5.39,4-6.21,7-10.78.38-.57-7,15.15-7,16,.31,3.54.71,8.68,1.21,16.12A59.8,59.8,0,0,0,517,520.1c-1.35-4.59,3-13.61,3-13.61-.13,4.86-2,11.33-1.11,11.93,1.9-2.26,11.45-9.4,13.7-12.33,0,0-13.35,17.52-23,24.28.45,5.69.63,15,.86,16.87.49,3.79,1.25,8.18,2,11.5.59.68-3.08,2.91-6.46,2.31-3.12-.54-5.37-.88-4.84-2.31.19-1.65.6-3.22.64-5,.07-3.5.17-15.82.58-18.27-14.09-7-25.92-23.88-25.92-23.88C486.55,521.51,498.92,529.14,503.13,529.47Z"/></clipPath><clipPath id="clip-path-7"><path class="cls-1" d="M706.19,497.5c-.29,2.09-.35,3.66-4.16,3.83-4.47.21-12.79-1.33-13-3.83,0,0,.43-18.07,5.59-30.54s4.72-37.42,5.16-42.15a12.74,12.74,0,0,1,2.58-7.1l3.88,3.4s.86,22.19,0,30.36-2.8,16.44-3.45,25.53C702.2,484.59,706.19,497.5,706.19,497.5Z"/></clipPath><clipPath id="clip-path-8"><path class="cls-1" d="M1222.51,305.65a65.91,65.91,0,0,1,.12-7.18c-6.62-2.28-10.47-20.62-10.47-20.62,5,10.72,9,16.22,11.06,16.79.24-2.31.53-7.78.66-10.08a51.75,51.75,0,0,1,.51-5.55c.42-2.51-.85-13.77.27-14.83,0,0,2.08,16.48,3,14.65,2.73-5.73,4.22-6.6,7.47-11.45.4-.6-7.48,16.08-7.4,17,.33,3.76.75,9.22,1.28,17.12a63,63,0,0,0,8.31-5.83c-1.44-4.87,3.16-14.45,3.16-14.45-.13,5.16-2.11,12-1.18,12.66,2-2.4,12.16-10,14.55-13.09,0,0-14.18,18.6-24.46,25.78.47,6,.66,16,.91,17.92.52,4,1.32,8.69,2.14,12.21.62.72-3.27,3.09-6.87,2.46-3.31-.58-5.7-.94-5.14-2.46.2-1.75.64-3.42.68-5.28.08-3.72.18-16.8.61-19.41-15-7.44-27.51-25.36-27.51-25.36C1204.91,297.2,1218,305.3,1222.51,305.65Z"/></clipPath></defs><g class="cls-2"><g id="Layer_2" data-name="Layer 2"><g id="_ÎÓÈ_1" data-name="—ÎÓÈ_1"><path class="cls-3" d="M1155.35,232.4c0,3.12-7.67,5.64-17.13,5.64s-17.13-2.52-17.13-5.64,7.67-5.63,17.13-5.63S1155.35,229.29,1155.35,232.4Z"/><path class="cls-3" d="M1147.78,232.7c0,2.08-5.75,3.76-12.84,3.76s-12.85-1.68-12.85-3.76,5.75-3.76,12.85-3.76S1147.78,230.62,1147.78,232.7Z"/><path class="cls-1" d="M1133.19,209.67a44.73,44.73,0,0,1,.08-5.1c-4.7-1.61-7.42-14.61-7.42-14.61,3.54,7.6,6.37,11.49,7.84,11.9.17-1.64.37-5.52.46-7.14a37.53,37.53,0,0,1,.36-3.94c.3-1.78-.6-9.76.2-10.52,0,0,1.47,11.69,2.09,10.39,1.94-4.06,3-4.68,5.3-8.11.29-.43-5.3,11.4-5.24,12.07.23,2.67.53,6.53.91,12.13a43.92,43.92,0,0,0,5.88-4.13c-1-3.45,2.25-10.24,2.25-10.24-.1,3.66-1.5,8.53-.84,9,1.43-1.71,8.62-7.08,10.31-9.29,0,0-10,13.19-17.34,18.28.34,4.28.47,11.33.65,12.7.37,2.86.93,6.16,1.51,8.66.44.52-2.32,2.19-4.87,1.74-2.34-.41-4-.66-3.64-1.74.14-1.24.45-2.42.48-3.74.06-2.64.13-11.92.44-13.76-10.61-5.28-19.51-18-19.51-18C1120.71,203.68,1130,209.42,1133.19,209.67Z"/><g class="cls-4"><path class="cls-5" d="M1138,210.34a13.39,13.39,0,0,0-1.14,4c0,1.45-.36,11.23,0,12.13s1.14,9.78,1.14,9.78.56-10.81.65-13.18C1138.74,221.38,1138,210.34,1138,210.34Z"/><path class="cls-6" d="M1134.23,235.68a45.39,45.39,0,0,0,.49-8.88c-.36-3.26-1.09-3.8-.54-8.33s1.27-8.87,1.08-11.23-.18-8.15-.18-8.15l-1.81,5.48a2,2,0,0,0-1.27-2.22c-1.63-.9-2.35,0-2.35,0l3.54,7.32s.44,2.83-.28,2.46-3.8-.9-5.25-1.81-4.71-.54-2.72.18,6.88,10.87,6.88,11.78.55,8.33.37,11S1134.23,235.68,1134.23,235.68Z"/><path class="cls-5" d="M1143.23,210.5s-3.08-1.63-3.62-1.81-2.53.18-2.72,1.09-1.81,4.16-2.71,3.8-.91-3.44-2.18-4.34-5.07-1.27-6.52-.37-16.11-6.52-16.11-6.52,1.08-24.26,1.81-24.26,32.41.54,32.41.54l4.71,21.91Z"/></g><path class="cls-7" d="M1098,188.85a13.19,13.19,0,0,0,14.47,16.37,16.72,16.72,0,0,0,23,2.78,16,16,0,0,0,4-4.56,16.53,16.53,0,0,0,25.24-21.34,17.1,17.1,0,0,0-8.87-6l0-.06a16.81,16.81,0,0,0,.79-21.65,17.34,17.34,0,0,0-2.58-2.69,6.94,6.94,0,0,0-6-6,7.05,7.05,0,0,0-4.74,1,13.07,13.07,0,0,0-21.14,14.52,10.51,10.51,0,0,0-6.16,6.31,16.18,16.18,0,0,0-16,9.67,5.94,5.94,0,1,0-2,11.72Z"/><path class="cls-8" d="M1098,188.85a5.94,5.94,0,1,1,2-11.72,16.18,16.18,0,0,1,16-9.67,10.51,10.51,0,0,1,6.16-6.31,13.07,13.07,0,0,1,21.14-14.52,7.05,7.05,0,0,1,4.74-1,7.53,7.53,0,0,1,1.5.4c-.6.49-1.32,1.08-2.15,1.79a14.33,14.33,0,0,0-2.74,2.73s-7.73-.7-11,3.88c-6.94,9.68,1.1,18,1.1,18s-9.23-3-15.09-.12c-4.93,2.39-9.49,6.77-11.16,11.42-4,11,7.41,15.35,7.41,15.35s3.72.07,1,4a7.31,7.31,0,0,0-1.1,5.21,17.31,17.31,0,0,1-3.36-3.06A13.19,13.19,0,0,1,1098,188.85Zm17.44,1.58a3.58,3.58,0,1,0-5-.52A3.58,3.58,0,0,0,1115.4,190.43Zm1.56-7.57a2.27,2.27,0,1,0-3.2-.33A2.27,2.27,0,0,0,1117,182.86Zm25.46-25.61a2.27,2.27,0,1,0-3.19-.33A2.26,2.26,0,0,0,1142.42,157.25Zm-25.05,36.56a1.67,1.67,0,1,0-2.35-.24A1.68,1.68,0,0,0,1117.37,193.81Zm24.15-31.42a1.67,1.67,0,1,0-2.35-.24A1.67,1.67,0,0,0,1141.52,162.39Z"/><path class="cls-9" d="M1147.35,180c-4.71,1.89-5.86,2.25-5.44.92,1.13-3.64,1.95-4.59,7.33-7.24,8.84-4.37,6.57-17.76,5.68-21.13a17.88,17.88,0,0,1,1.63,1.82,16.81,16.81,0,0,1-.79,21.65l0,.06a17.1,17.1,0,0,1,8.87,6,16.75,16.75,0,0,1-2.81,23.51,16.38,16.38,0,0,1-14.71,2.66c-13.64-15.38,8.69-2,13.51-8.14C1169.76,188.5,1157.58,175.89,1147.35,180Zm-4.5,16.61c-.16-3-.5-.4-4.64,2.09-4.53,2.72-14.29-.1-18.12,2.54-1.4,1,4.3,9.31,3.39,10a16.22,16.22,0,0,0,11.9-3.23,16,16,0,0,0,4-4.56S1143,199.56,1142.85,196.59ZM1102.2,185a2.27,2.27,0,1,0-3.2-.33A2.27,2.27,0,0,0,1102.2,185Zm-.45,4a1.46,1.46,0,1,0-2.06-.21A1.46,1.46,0,0,0,1101.75,189.05Zm58.65,4.47a2.27,2.27,0,1,0-3.2-.33A2.28,2.28,0,0,0,1160.4,193.52Zm-8.83-22.75a3.71,3.71,0,1,0-5.22-.53A3.7,3.7,0,0,0,1151.57,170.77Zm8.79,26.55a1.07,1.07,0,1,0-1.5-.16A1.06,1.06,0,0,0,1160.36,197.32Zm-18.16-3.71a1.07,1.07,0,1,0-1.51-.16A1.08,1.08,0,0,0,1142.2,193.61Z"/><path class="cls-3" d="M1090.11,235.41c0,4.67-11.52,8.46-25.72,8.46s-25.71-3.79-25.71-8.46,11.51-8.47,25.71-8.47S1090.11,230.73,1090.11,235.41Z"/><path class="cls-3" d="M1075.57,234.56c0,2.42-6.72,4.39-15,4.39s-15-2-15-4.39,6.72-4.4,15-4.4S1075.57,232.13,1075.57,234.56Z"/><path class="cls-1" d="M1068.06,233.36c-.29,2.09-.35,3.65-4.16,3.83-4.47.21-12.78-1.34-13.05-3.83,0,0,.43-18.07,5.59-30.54s4.72-37.42,5.16-42.16a12.83,12.83,0,0,1,2.59-7.1l3.87,3.41s.86,22.19,0,30.36-2.8,16.44-3.44,25.53C1064.08,220.45,1068.06,233.36,1068.06,233.36Z"/><g class="cls-10"><path class="cls-5" d="M1063.15,238.19s-5-16-2.77-23.06,5.81-31.95,5.81-36.14.65-14.84-1.29-16.45-3.87,2.9-3.87,2.9-2.9-16.78-1.94-16.78,21,1.94,21,1.94l-8.72,75.5.33,9.35Z"/><path class="cls-5" d="M1052.37,212.38s4.49-1.65,5.24-.6.15,1.35,1.65,3.75,6.59,2.24,7,1.94,5.7-.15,4.65-1.79.45-15.58-2.25-15.88-14.38-1.2-14.38-.75S1052.37,212.38,1052.37,212.38Z"/><path class="cls-6" d="M1054.48,237.79s-.42-8.73,0-13,2.14-4.68,2-7.65a18.56,18.56,0,0,0-1.5-5.84s-1,3.45-1.49,6a87.09,87.09,0,0,0-.85,9.62c-.17,2.75,0,9.53,0,9.53Z"/></g><path class="cls-11" d="M1099.91,194.8a16.12,16.12,0,0,0-1.1-26.66,20.42,20.42,0,0,0-19.6-20.32,19.73,19.73,0,0,0-7.34,1.22,20.18,20.18,0,0,0-40.35.77,20.89,20.89,0,0,0,3.75,12.56.43.43,0,0,1,0,.07,20.55,20.55,0,0,0-17.42,19.9,21.92,21.92,0,0,0,.37,4.54,8.46,8.46,0,0,0,1,10.33,8.55,8.55,0,0,0,5.27,2.69,16,16,0,0,0,31.22,2.53,12.87,12.87,0,0,0,10.7-1.24A19.74,19.74,0,0,0,1089,204.4a7.26,7.26,0,1,0,10.88-9.6Z"/><path class="cls-8" d="M1049.21,135.81c9.3-2.11,13-.27,19.06,2.7a20,20,0,0,0-16-8.81,20.44,20.44,0,0,0-20.77,20.11,20.89,20.89,0,0,0,3.75,12.56.43.43,0,0,1,0,.07,20.55,20.55,0,0,0-17.42,19.9,21,21,0,0,0,.14,3c1.75-3.88,9.93-18.32,21.66-15.65,7.15,1.63,8.65,1.38,12.53-1.21,1.42-.94,0-1.49-5.87-3.33C1033.43,161.14,1031.61,139.81,1049.21,135.81Z"/><path class="cls-8" d="M1063.33,152.88c-2.13,2.93.31,3.12,6,1.59,3.29-.88,9.6-2.3,15.26-1.85,2.08.16,7,1.27,8.37,1.31a19.68,19.68,0,0,0-21.1-4.89S1065.47,149.94,1063.33,152.88Z"/><g class="cls-12"><path class="cls-9" d="M1106.44,181.85a16.09,16.09,0,0,0-7.63-13.71,20.77,20.77,0,0,0-.83-5.49,8.86,8.86,0,0,1-5,4.09c-5.6,1.69-2.13,4.62-2.13,4.62s-3.41-8.25-15.67-.86c-5.17,3.12-7.07,7.72-13.58,6.19-7.74-1.83-9,1.81-9.14,5.42s1.24,14-12.8,17.87c-6.65,1.81-13.44-4.81-13.44-4.81a17.76,17.76,0,0,1-4.69.47c-1.33,0-2.47,0-3.41,0a8.17,8.17,0,0,0,1.11,1.53,8.55,8.55,0,0,0,5.27,2.69,16,16,0,0,0,31.22,2.53,12.87,12.87,0,0,0,10.7-1.24A19.74,19.74,0,0,0,1089,204.4a7.26,7.26,0,1,0,10.88-9.6A16.06,16.06,0,0,0,1106.44,181.85Z"/><path class="cls-9" d="M1089,184.24a4.38,4.38,0,1,1-4.38-4.38A4.38,4.38,0,0,1,1089,184.24Z"/><path class="cls-9" d="M1080.07,188.61a2.78,2.78,0,1,1-2.78-2.78A2.78,2.78,0,0,1,1080.07,188.61Z"/><path class="cls-9" d="M1036.2,193.25a2.78,2.78,0,1,1-2.77-2.77A2.77,2.77,0,0,1,1036.2,193.25Z"/><path class="cls-9" d="M1087.37,177.18a2,2,0,1,1-2-2A2,2,0,0,1,1087.37,177.18Z"/><path class="cls-9" d="M1040.28,188.35a2,2,0,1,1-2-2A2,2,0,0,1,1040.28,188.35Z"/></g><path class="cls-13" d="M1095.71,198a2.78,2.78,0,1,1-2.78-2.78A2.77,2.77,0,0,1,1095.71,198Z"/><path class="cls-13" d="M1098.26,193.48a1.79,1.79,0,1,1-1.79-1.79A1.79,1.79,0,0,1,1098.26,193.48Z"/><path class="cls-8" d="M1047.11,145a2.78,2.78,0,1,1-2.77-2.77A2.78,2.78,0,0,1,1047.11,145Z"/><path class="cls-8" d="M1039.71,175.15a4.53,4.53,0,1,1-4.53-4.53A4.52,4.52,0,0,1,1039.71,175.15Z"/><path class="cls-8" d="M1048.61,140a1.31,1.31,0,1,1-1.3-1.3A1.3,1.3,0,0,1,1048.61,140Z"/><path class="cls-8" d="M1063,157.51a1.31,1.31,0,1,1-1.3-1.31A1.31,1.31,0,0,1,1063,157.51Z"/><path class="cls-11" d="M1106.2,185a5.67,5.67,0,0,0-6.14,1.35,11.11,11.11,0,0,0-11.44-4.22,11.44,11.44,0,0,0-.6-7.15,11,11,0,0,0-20.61,7.64,10.68,10.68,0,0,0-4,.85,11.14,11.14,0,0,0-5.72,14.67,11.51,11.51,0,0,0,2,3.12,11.31,11.31,0,0,0,.81,6,11.13,11.13,0,0,0,14.53,6.06,10.68,10.68,0,0,0,4.31-3.33l.35.17a7,7,0,0,0,9-4,7.33,7.33,0,0,0,.46-2.13,10.7,10.7,0,0,0,9.89-2.81,4.07,4.07,0,0,0,1.86,1.5,4.22,4.22,0,0,0,5.43-2.44,4.26,4.26,0,0,0-.64-4.26,5.9,5.9,0,0,0,3.68-3.47A5.78,5.78,0,0,0,1106.2,185Z"/><path class="cls-8" d="M1079.42,173.93a2,2,0,1,1-2.65-1.16A2,2,0,0,1,1079.42,173.93Z"/><path class="cls-8" d="M1074.59,174.78a1,1,0,1,1-1.24-.54A1,1,0,0,1,1074.59,174.78Z"/><path class="cls-8" d="M1103.45,186.72a1,1,0,1,1-1.79.7,1,1,0,0,1,1.79-.7Z"/><g class="cls-12"><path class="cls-9" d="M1075.05,213.25a10.68,10.68,0,0,0,4.31-3.33l.35.17a7,7,0,0,0,9-4,7.33,7.33,0,0,0,.46-2.13,10.7,10.7,0,0,0,9.89-2.81,4.07,4.07,0,0,0,1.86,1.5,4.22,4.22,0,0,0,5.43-2.44,4.26,4.26,0,0,0-.64-4.26,5.9,5.9,0,0,0,3.68-3.47,5.82,5.82,0,0,0-2-6.91c0,1.88-.22,4.25-.91,5.48-1.23,2.24-4.58-.37-7.16-1.47s-2.64,1.25-4.7,3.55-5.49,1-9.86,1.26-8.94,8.43-10.85,10-4.41,4.9-9.16,4.64a8.54,8.54,0,0,1-3.8-1.08A11.09,11.09,0,0,0,1075.05,213.25Z"/><path class="cls-9" d="M1092.39,190.62a2.36,2.36,0,1,1-3.05-1.33A2.35,2.35,0,0,1,1092.39,190.62Z"/><path class="cls-9" d="M1066.55,197.88a2,2,0,1,1-2.57-1.12A2,2,0,0,1,1066.55,197.88Z"/><path class="cls-9" d="M1094.81,188.92a1.08,1.08,0,0,1-2,.79,1.08,1.08,0,1,1,2-.79Z"/><path class="cls-9" d="M1062,199.49a1.08,1.08,0,1,1-2,.79,1.08,1.08,0,1,1,2-.79Z"/><path class="cls-9" d="M1066.42,194.48a1.1,1.1,0,0,1-2.05.81,1.1,1.1,0,0,1,2.05-.81Z"/></g><path class="cls-8" d="M1073.49,168.88a11.11,11.11,0,0,0-6.08,13.7,10.68,10.68,0,0,0-4,.85,11,11,0,0,0-6.6,9.34c3.13-5,10.4-6.8,14-7.38a.7.7,0,0,0,.57-.58.68.68,0,0,0-.36-.72l-1.51-.8A1.24,1.24,0,0,1,1069,182c.51-3.07,3.06-13,14.91-12.09A10.93,10.93,0,0,0,1073.49,168.88Z"/><path class="cls-8" d="M1088.62,182.06a22.47,22.47,0,0,0-8.21,7.54,40.84,40.84,0,0,1,11.86-6.11,17.7,17.7,0,0,1,3.85-.49,10.9,10.9,0,0,0-7.5-.91Z"/><path class="cls-11" d="M1083.1,200.81a2,2,0,1,1-2.65-1.16A2,2,0,0,1,1083.1,200.81Z"/><path class="cls-11" d="M1082.43,197.36a1,1,0,1,1-1.25-.54A1,1,0,0,1,1082.43,197.36Z"/><path class="cls-3" d="M191,228s-1,2.41-5.31,5.31.48,8.7.48,8.7l21.26,10.15,15-1,26.09,7.73,27.06-12.56,11.59-8.7s-9.18-14-10.63-14.49-34.3-5.8-35.75-5.8-16.91-4.83-16.91-4.83Z"/><path class="cls-3" d="M266.32,231.11s.72,1.17,4,2.58-.36,4.22-.36,4.22L254,242.83l-11.19-.46-19.5,3.75L203.13,240l-8.67-4.22s6.86-6.8,7.95-7S228.05,226,229.13,226s12.64-2.35,12.64-2.35Z"/><path class="cls-1" d="M237.71,239.69c-1.81,2.63-10.27,2.63-12.43,0l2.59-16.16h8.53l.1,7.13Z"/><polygon class="cls-7" points="233.43 97.68 220.28 114.41 223.69 113.7 222.26 117.87 208.33 131.27 213.61 133.73 209.04 141.32 200.94 148.1 207.09 154.93 190.85 166.97 200.56 175.95 183.96 189.04 193.14 198.05 178.75 211 188.61 218.53 193.68 224.51 219.59 233.75 260.18 230.12 281.8 210.07 269.61 199.75 278.15 195.9 258.55 179.21 266.63 174.87 256.92 157.29 266.2 151.31 252.19 139.36 256.92 133.97 247.5 127.48 252.98 125.17 243.17 114.89 246.15 111.33 233.43 97.68"/><polygon class="cls-9" points="219.59 233.75 260.18 230.12 281.8 210.07 269.61 199.75 278.15 195.9 258.55 179.21 266.63 174.87 256.92 157.29 263.61 152.29 252.19 139.36 253.99 136.14 247.5 127.48 252.98 125.17 243.17 114.89 246.15 111.33 234.37 99.15 235.49 109.8 229.52 113.25 238.47 116.73 237.62 127.86 227.95 130.94 238.47 140.94 231.01 155.34 251.84 168.37 247.81 172.45 231.19 177.58 243.12 193.64 255.54 201.89 226.84 219.98 193.15 224.36 193.68 224.51 219.59 233.75"/><polygon class="cls-8" points="200.56 175.95 183.96 189.04 231.19 177.58 210.66 175.73 200.56 175.95"/><polygon class="cls-8" points="207.09 154.93 190.85 166.97 200.56 175.95 215.94 154.24 207.09 154.93"/><polygon class="cls-8" points="200.94 148.1 203.77 149.96 224.54 136.14 212.99 135.66 209.04 141.32 200.94 148.1"/><polygon class="cls-8" points="193.14 198.05 178.75 211 218.46 197.06 193.14 198.05"/><polygon class="cls-8" points="222.59 116.93 222.26 117.87 208.33 131.27 210.66 131.29 228.59 116.93 222.59 116.93"/><polygon class="cls-8" points="222.44 113.96 229.66 108.22 233.43 97.68 220.28 114.41 222.44 113.96"/><polygon class="cls-8" points="213.61 151.75 218.27 148.16 218.27 151.27 213.61 151.75"/><polygon class="cls-8" points="237.9 149.96 242.55 146.37 242.55 149.47 237.9 149.96"/><polygon class="cls-8" points="225.48 126.75 225.48 130 227.9 128.37 225.48 126.75"/><polygon class="cls-8" points="210.66 168.37 215.94 168.37 215.94 164.23 210.66 168.37"/><polygon class="cls-8" points="236.54 112.96 241.82 112.96 241.82 108.82 236.54 112.96"/><polygon class="cls-8" points="249.77 161.71 255.05 161.71 255.05 157.57 249.77 161.71"/><polygon class="cls-8" points="210.97 193.82 205.78 189.29 203.25 192.62 210.97 193.82"/><polygon class="cls-8" points="214.22 203.45 211.37 207.98 207.11 207.98 214.22 203.45"/><polygon class="cls-8" points="222.87 130.09 220.1 132.48 217.68 130.09 222.87 130.09"/><polygon class="cls-8" points="224.94 171.69 229.58 170.49 223.8 168.1 224.94 171.69"/><g class="cls-14"><polygon class="cls-9" points="270.33 195.55 265.21 195.55 270.33 198.69 270.33 195.55"/><polygon class="cls-9" points="244.3 180.5 239.18 180.5 244.3 183.64 244.3 180.5"/><polygon class="cls-9" points="254.97 208.67 249.85 208.67 254.97 211.81 254.97 208.67"/><polygon class="cls-9" points="255.54 171.97 249.28 173.55 255.54 176.02 255.54 171.97"/><polygon class="cls-9" points="237.34 155.34 243.12 156.93 238.47 159.64 237.34 155.34"/><polygon class="cls-9" points="241.74 118.5 247.52 120.09 242.88 122.8 241.74 118.5"/><polygon class="cls-9" points="247.67 142.81 244.63 142.81 247.67 145.72 247.67 142.81"/></g><path class="cls-3" d="M536.08,176.46s-.81,2-4.48,4.48.41,7.33.41,7.33l17.92,8.56,12.63-.82,22,6.52,22.81-10.59,9.78-7.33s-7.74-11.81-9-12.22S579.26,167.5,578,167.5s-14.26-4.07-14.26-4.07Z"/><path class="cls-3" d="M599.61,179.12s.61,1,3.35,2.18-.3,3.56-.3,3.56L589.26,189l-9.44-.39-16.43,3.16-17-5.14L539,183.08s5.79-5.74,6.7-5.93,21.61-2.38,22.53-2.38,10.65-2,10.65-2Z"/><path class="cls-1" d="M575.49,186.36c-1.53,2.22-8.66,2.22-10.48,0l2.18-13.62h7.2l.08,6Z"/><polygon class="cls-7" points="571.88 66.65 560.8 80.75 563.67 80.15 562.47 83.66 550.73 94.96 555.17 97.04 551.32 103.43 544.49 109.15 549.68 114.91 535.98 125.06 544.18 132.63 530.18 143.66 537.91 151.26 525.79 162.17 534.1 168.52 538.37 173.56 560.22 181.35 594.43 178.29 612.66 161.39 602.39 152.69 609.58 149.45 593.05 135.38 599.87 131.72 591.68 116.89 599.51 111.86 587.7 101.78 591.68 97.24 583.75 91.77 588.36 89.82 580.09 81.15 582.61 78.15 571.88 66.65"/><polygon class="cls-9" points="560.22 181.35 594.43 178.29 612.66 161.39 602.39 152.69 609.58 149.45 593.05 135.38 599.87 131.72 591.68 116.89 597.32 112.68 587.7 101.78 589.21 99.07 583.75 91.77 588.36 89.82 580.09 81.15 582.61 78.15 572.67 67.89 573.62 76.86 568.58 79.77 576.14 82.71 575.42 92.09 567.27 94.68 576.14 103.11 569.84 115.25 587.4 126.24 584.01 129.68 569.99 134 580.05 147.54 590.52 154.5 566.33 169.74 537.92 173.43 538.37 173.56 560.22 181.35"/><polygon class="cls-8" points="544.18 132.63 530.18 143.66 569.99 134 552.69 132.44 544.18 132.63"/><polygon class="cls-8" points="549.68 114.91 535.98 125.06 544.18 132.63 557.14 114.33 549.68 114.91"/><polygon class="cls-8" points="544.49 109.15 546.88 110.72 564.39 99.07 554.65 98.66 551.32 103.43 544.49 109.15"/><polygon class="cls-8" points="537.91 151.26 525.79 162.17 559.26 150.42 537.91 151.26"/><polygon class="cls-8" points="562.74 82.87 562.47 83.66 550.73 94.96 552.68 94.98 567.8 82.87 562.74 82.87"/><polygon class="cls-8" points="562.62 80.37 568.7 75.53 571.88 66.65 560.8 80.75 562.62 80.37"/><polygon class="cls-8" points="555.18 112.23 559.1 109.2 559.1 111.82 555.18 112.23"/><polygon class="cls-8" points="575.65 110.72 579.57 107.69 579.57 110.31 575.65 110.72"/><polygon class="cls-8" points="565.18 91.15 565.18 93.89 567.22 92.52 565.18 91.15"/><polygon class="cls-8" points="552.69 126.24 557.14 126.24 557.14 122.75 552.69 126.24"/><polygon class="cls-8" points="574.51 79.52 578.96 79.52 578.96 76.03 574.51 79.52"/><polygon class="cls-8" points="585.66 120.62 590.11 120.62 590.11 117.14 585.66 120.62"/><polygon class="cls-8" points="552.95 147.69 548.57 143.87 546.44 146.68 552.95 147.69"/><polygon class="cls-8" points="555.68 155.81 553.29 159.63 549.69 159.63 555.68 155.81"/><polygon class="cls-8" points="562.98 93.97 560.64 95.98 558.61 93.97 562.98 93.97"/><polygon class="cls-8" points="564.72 129.03 568.64 128.03 563.77 126.01 564.72 129.03"/><g class="cls-14"><polygon class="cls-9" points="602.99 149.15 598.67 149.15 602.99 151.8 602.99 149.15"/><polygon class="cls-9" points="581.05 136.46 576.73 136.46 581.05 139.11 581.05 136.46"/><polygon class="cls-9" points="590.04 160.21 585.73 160.21 590.04 162.86 590.04 160.21"/><polygon class="cls-9" points="590.52 129.27 585.24 130.6 590.52 132.69 590.52 129.27"/><polygon class="cls-9" points="575.17 115.25 580.05 116.59 576.14 118.88 575.17 115.25"/><polygon class="cls-9" points="578.89 84.19 583.76 85.53 579.85 87.82 578.89 84.19"/><polygon class="cls-9" points="583.89 104.69 581.33 104.69 583.89 107.14 583.89 104.69"/></g><path class="cls-15" d="M1162.19,330.12c0,7.57-23.57,13.71-52.65,13.71s-52.65-6.14-52.65-13.71,23.57-13.7,52.65-13.7S1162.19,322.55,1162.19,330.12Z"/><path class="cls-3" d="M1138.94,330.84c0,5-17.68,9.13-39.49,9.13s-39.49-4.09-39.49-9.13,17.68-9.14,39.49-9.14S1138.94,325.79,1138.94,330.84Z"/><path class="cls-1" d="M1112.06,318.77c-1.18-.68,1.33-8,1.5-13.58,0,0-5.83,10.26-4,15.49a79.71,79.71,0,0,1-10.54,6.24c-.67-8.46-1.2-14.31-1.63-18.34-.1-1,9.91-18.9,9.39-18.25-4.12,5.19-6,6.13-9.48,12.27-1.11,2-3.75-15.71-3.75-15.71-1.42,1.14.2,13.21-.34,15.9a49.3,49.3,0,0,0-.66,5.95c-.16,2.46-.52,8.33-.82,10.8-2.63-.61-7.7-6.5-14-18,0,0,4.88,19.66,13.29,22.1-.08.94-.13,1.78-.16,2.56-10.23-3.67-28.52-9-36-15.19,0,0,3.5,8.89,34.21,17.15l1.3,1.36a2.32,2.32,0,0,0,2.46,2.19c1.82.09,4-.28,5,1.2s2-.37,5.12-2.28a19.66,19.66,0,0,0,2.71-2.47c11.91-9.05,24.88-23.44,24.88-23.44C1127.48,308.07,1114.63,316.2,1112.06,318.77Z"/><path class="cls-11" d="M1147.24,295.05a12.15,12.15,0,0,0-13.24-2.11,23.7,23.7,0,0,0-19.43-17.28A24.27,24.27,0,0,0,1119,261c-.37-13.26-11.17-23.72-24.12-23.35a23.68,23.68,0,0,0-22.74,22.45,22.77,22.77,0,0,0-8.52-1.4c-12.95.36-23.16,11.41-22.78,24.67a24.28,24.28,0,0,0,1.49,7.72,24.27,24.27,0,0,0-3,12.5c.37,13.26,11.17,23.72,24.13,23.35a22.76,22.76,0,0,0,11.14-3.27c.2.21.36.44.57.63a14.87,14.87,0,0,0,23.5-4.8,22.86,22.86,0,0,0,21.82,2.13,8.59,8.59,0,0,0,2.53,4.42,9,9,0,0,0,12.69-.6,9.14,9.14,0,0,0,2.05-9,12.56,12.56,0,0,0,10-4A12.33,12.33,0,0,0,1147.24,295.05Z"/><path class="cls-8" d="M1102.68,252.28a4.37,4.37,0,1,1-4.36-4.37A4.36,4.36,0,0,1,1102.68,252.28Z"/><path class="cls-8" d="M1092.43,250.23a2,2,0,1,1-2-2A2,2,0,0,1,1092.43,250.23Z"/><path class="cls-8" d="M1140.41,296.41a2,2,0,1,1-2.05-2.05A2,2,0,0,1,1140.41,296.41Z"/><g class="cls-12"><path class="cls-9" d="M1063.37,326.94a22.76,22.76,0,0,0,11.14-3.27c.2.21.36.44.57.63a14.87,14.87,0,0,0,23.5-4.8,22.86,22.86,0,0,0,21.82,2.13,8.59,8.59,0,0,0,2.53,4.42,9,9,0,0,0,12.69-.6,9.14,9.14,0,0,0,2.05-9,12.56,12.56,0,0,0,10-4,12.42,12.42,0,0,0,1.37-15.3c-1.53,3.71-3.75,8.27-6.07,10.19-4.19,3.48-8.81-4.32-13.06-8.51s-6.22.42-12.1,3.39-11.65-2.37-20.55-5.19-24.32,9.77-29.36,11.46-12.58,6.28-21.81,2.08a18.55,18.55,0,0,1-6.7-5.11A23.67,23.67,0,0,0,1063.37,326.94Z"/><path class="cls-9" d="M1115.43,295.53a5,5,0,1,1-5-5A5,5,0,0,1,1115.43,295.53Z"/><path class="cls-9" d="M1058.46,289.8a4.23,4.23,0,1,1-4.22-4.22A4.22,4.22,0,0,1,1058.46,289.8Z"/><path class="cls-9" d="M1121.54,294a2.31,2.31,0,1,1-2.3-2.31A2.3,2.3,0,0,1,1121.54,294Z"/><path class="cls-9" d="M1048.08,289.42a2.3,2.3,0,1,1-2.3-2.3A2.3,2.3,0,0,1,1048.08,289.42Z"/><path class="cls-9" d="M1060.87,283a2.36,2.36,0,1,1-2.35-2.35A2.36,2.36,0,0,1,1060.87,283Z"/></g><path class="cls-8" d="M1094.84,237.65a23.68,23.68,0,0,0-22.74,22.45,23,23,0,0,0-8.52-1.4,23.38,23.38,0,0,0-20.38,13.4c10.13-7.54,25.94-5.39,33.62-3.72a1.48,1.48,0,0,0,1.59-.69,1.49,1.49,0,0,0-.15-1.72l-2.38-2.76a2.64,2.64,0,0,1-.26-3.07c3.39-5.7,16.16-23.32,39-12.37A23.28,23.28,0,0,0,1094.84,237.65Z"/><path class="cls-8" d="M1114.61,275.59a48,48,0,0,0-22.18,8.58s14.9-4.29,28.32-2.89a38.25,38.25,0,0,1,8,2,23.25,23.25,0,0,0-14.19-7.66A.25.25,0,0,0,1114.61,275.59Z"/><path class="cls-11" d="M1089,308.51a4.37,4.37,0,1,1-4.36-4.36A4.37,4.37,0,0,1,1089,308.51Z"/><path class="cls-11" d="M1090.38,301.15a2.06,2.06,0,1,1-2.05-2A2.05,2.05,0,0,1,1090.38,301.15Z"/><path class="cls-3" d="M550.47,244.31c0,6.21-15.29,11.24-34.16,11.24s-34.15-5-34.15-11.24,15.29-11.25,34.15-11.25S550.47,238.1,550.47,244.31Z"/><path class="cls-3" d="M531.17,243.18c0,3.22-8.93,5.83-19.95,5.83s-20-2.61-20-5.83,8.93-5.84,20-5.84S531.17,240,531.17,243.18Z"/><path class="cls-1" d="M521.18,241.59c-.38,2.77-.46,4.85-5.52,5.09-5.94.27-17-1.78-17.33-5.09,0,0,.57-24,7.43-40.57s6.26-49.7,6.84-56,3.44-9.43,3.44-9.43l5.14,4.52s1.15,29.48,0,40.33-3.71,21.84-4.57,33.92C515.9,224.43,521.18,241.59,521.18,241.59Z"/><g class="cls-16"><path class="cls-5" d="M514.67,248S508,226.8,511,217.37s7.72-42.43,7.72-48,.85-19.72-1.72-21.86-5.14,3.86-5.14,3.86-3.86-22.29-2.57-22.29,27.85,2.57,27.85,2.57L525.56,231.94l.43,12.43Z"/><path class="cls-5" d="M500.34,213.72s6-2.19,7-.79.19,1.79,2.18,5,8.76,3,9.35,2.59,7.56-.2,6.17-2.39.6-20.69-3-21.09-19.1-1.59-19.1-1S500.34,213.72,500.34,213.72Z"/><path class="cls-6" d="M503.15,247.47s-.55-11.6,0-17.23,2.84-6.21,2.61-10.15a24.76,24.76,0,0,0-2-7.76s-1.3,4.58-2,8-.89,9.11-1.12,12.77,0,12.66,0,12.66Z"/></g><path class="cls-11" d="M563.49,190.37A21.4,21.4,0,0,0,562,155c-.22-14.62-11.62-26.59-26-27a26,26,0,0,0-9.75,1.61c-.86-14-12-25.3-26-25.69-14.82-.41-27.16,11.55-27.59,26.72a27.69,27.69,0,0,0,5,16.68l-.05.1a27.26,27.26,0,0,0-23.14,26.43,27.91,27.91,0,0,0,.5,6,11.38,11.38,0,0,0,8.32,17.29,21.21,21.21,0,0,0,41.47,3.37A17.11,17.11,0,0,0,519,198.86,26.23,26.23,0,0,0,549,203.12a9.64,9.64,0,1,0,14.45-12.75Z"/><path class="cls-8" d="M496.15,112c12.36-2.81,17.33-.35,25.32,3.59a26.61,26.61,0,0,0-21.23-11.71c-14.82-.41-27.16,11.55-27.59,26.72a27.69,27.69,0,0,0,5,16.68l-.05.1a27.26,27.26,0,0,0-23.14,26.43,26,26,0,0,0,.19,4c2.32-5.16,13.18-24.34,28.76-20.79,9.5,2.17,11.5,1.83,16.65-1.6,1.88-1.26.07-2-7.79-4.43C475.19,145.66,472.77,117.33,496.15,112Z"/><path class="cls-8" d="M514.91,134.68c-2.83,3.89.41,4.15,8,2.12,4.38-1.17,12.76-3.06,20.28-2.46,2.76.21,9.25,1.69,11.12,1.74A26.35,26.35,0,0,0,536,128a26,26,0,0,0-9.75,1.61S517.75,130.78,514.91,134.68Z"/><g class="cls-12"><path class="cls-9" d="M572.17,173.16A21.35,21.35,0,0,0,562,155a28.37,28.37,0,0,0-1.09-7.3,11.86,11.86,0,0,1-6.71,5.44c-7.45,2.25-2.84,6.14-2.84,6.14s-4.53-11-20.81-1.15c-6.87,4.15-9.4,10.26-18,8.22-10.29-2.42-11.88,2.4-12.14,7.2s1.65,18.66-17,23.74c-8.82,2.4-17.84-6.39-17.84-6.39s-1.28.49-6.24.62c-1.76.05-3.28.06-4.53.06a11.24,11.24,0,0,0,8.48,5.6,21.21,21.21,0,0,0,41.47,3.37A17.11,17.11,0,0,0,519,198.86,26.23,26.23,0,0,0,549,203.12a9.64,9.64,0,1,0,14.45-12.75A21.35,21.35,0,0,0,572.17,173.16Z"/><path class="cls-9" d="M549,176.34a5.82,5.82,0,1,1-5.81-5.82A5.81,5.81,0,0,1,549,176.34Z"/><path class="cls-9" d="M537.14,182.14a3.69,3.69,0,1,1-3.69-3.68A3.69,3.69,0,0,1,537.14,182.14Z"/><path class="cls-9" d="M478.87,188.31a3.69,3.69,0,1,1-3.68-3.68A3.68,3.68,0,0,1,478.87,188.31Z"/><path class="cls-9" d="M546.84,167a2.71,2.71,0,1,1-2.7-2.71A2.7,2.7,0,0,1,546.84,167Z"/><path class="cls-9" d="M484.29,181.8a2.71,2.71,0,1,1-2.71-2.71A2.71,2.71,0,0,1,484.29,181.8Z"/></g><path class="cls-13" d="M557.91,194.55a3.69,3.69,0,1,1-3.68-3.69A3.68,3.68,0,0,1,557.91,194.55Z"/><path class="cls-13" d="M561.3,188.61a2.37,2.37,0,1,1-2.37-2.37A2.37,2.37,0,0,1,561.3,188.61Z"/><path class="cls-8" d="M493.36,124.27a3.69,3.69,0,1,1-3.68-3.68A3.69,3.69,0,0,1,493.36,124.27Z"/><path class="cls-8" d="M483.53,164.26a6,6,0,1,1-6-6A6,6,0,0,1,483.53,164.26Z"/><path class="cls-8" d="M495.35,117.58a1.73,1.73,0,1,1-1.73-1.74A1.73,1.73,0,0,1,495.35,117.58Z"/><path class="cls-8" d="M514.41,140.84a1.73,1.73,0,1,1-1.73-1.74A1.72,1.72,0,0,1,514.41,140.84Z"/><path class="cls-11" d="M571.84,177.29a7.57,7.57,0,0,0-8.15,1.8,14.76,14.76,0,0,0-15.2-5.6,15.19,15.19,0,0,0-.79-9.5,14.6,14.6,0,0,0-27.37,10.15,14.24,14.24,0,0,0-5.27,1.12,14.8,14.8,0,0,0-7.59,19.49,15.42,15.42,0,0,0,2.62,4.14,15.17,15.17,0,0,0,1.08,7.94,14.79,14.79,0,0,0,19.31,8,14.15,14.15,0,0,0,5.71-4.43c.17.07.31.17.48.23a9.27,9.27,0,0,0,12.53-8.13,14.2,14.2,0,0,0,13.13-3.74,5.45,5.45,0,0,0,2.48,2,5.61,5.61,0,0,0,7.22-3.25,5.71,5.71,0,0,0-.85-5.66,7.82,7.82,0,0,0,4.88-4.6A7.69,7.69,0,0,0,571.84,177.29Z"/><path class="cls-8" d="M536.28,162.64a2.72,2.72,0,1,1-3.53-1.54A2.72,2.72,0,0,1,536.28,162.64Z"/><path class="cls-8" d="M529.87,163.78a1.29,1.29,0,0,1-.73,1.66,1.28,1.28,0,1,1,.73-1.66Z"/><path class="cls-8" d="M568.2,179.64a1.28,1.28,0,1,1-2.38.93,1.28,1.28,0,0,1,.72-1.66A1.29,1.29,0,0,1,568.2,179.64Z"/><g class="cls-12"><path class="cls-9" d="M530.48,214.88a14.15,14.15,0,0,0,5.71-4.43c.17.07.31.17.48.23a9.27,9.27,0,0,0,12.53-8.13,14.2,14.2,0,0,0,13.13-3.74,5.45,5.45,0,0,0,2.48,2,5.61,5.61,0,0,0,7.22-3.25,5.71,5.71,0,0,0-.85-5.66,7.82,7.82,0,0,0,4.88-4.6,7.73,7.73,0,0,0-2.69-9.18c0,2.49-.29,5.64-1.2,7.28-1.64,3-6.09-.5-9.51-2s-3.51,1.66-6.24,4.72-7.29,1.28-13.1,1.67-11.88,11.2-14.41,13.33-5.87,6.5-12.17,6.17a11.55,11.55,0,0,1-5.05-1.44A14.74,14.74,0,0,0,530.48,214.88Z"/><path class="cls-9" d="M553.51,184.82a3.13,3.13,0,1,1-4.06-1.77A3.13,3.13,0,0,1,553.51,184.82Z"/><path class="cls-9" d="M519.18,194.46a2.63,2.63,0,1,1-3.41-1.49A2.63,2.63,0,0,1,519.18,194.46Z"/><path class="cls-9" d="M556.71,182.55a1.43,1.43,0,1,1-1.86-.81A1.43,1.43,0,0,1,556.71,182.55Z"/><path class="cls-9" d="M513.07,196.6a1.43,1.43,0,1,1-1.86-.81A1.43,1.43,0,0,1,513.07,196.6Z"/><path class="cls-9" d="M519,190a1.48,1.48,0,0,1-.83,1.9A1.47,1.47,0,1,1,519,190Z"/></g><path class="cls-8" d="M528.4,155.94a14.75,14.75,0,0,0-8.07,18.2,14.24,14.24,0,0,0-5.27,1.12,14.57,14.57,0,0,0-8.76,12.41c4.16-6.68,13.81-9,18.65-9.81a.92.92,0,0,0,.28-1.72l-2-1.06a1.65,1.65,0,0,1-.85-1.72c.67-4.08,4.06-17.2,19.81-16.05A14.49,14.49,0,0,0,528.4,155.94Z"/><path class="cls-8" d="M548.5,173.44a29.87,29.87,0,0,0-10.91,10s7.66-5.87,15.76-8.12a23.86,23.86,0,0,1,5.11-.64,14.53,14.53,0,0,0-10-1.21A.09.09,0,0,1,548.5,173.44Z"/><path class="cls-11" d="M541.17,198.35a2.72,2.72,0,1,1-3.53-1.54A2.72,2.72,0,0,1,541.17,198.35Z"/><path class="cls-11" d="M540.27,193.77a1.28,1.28,0,1,1-1.66-.72A1.28,1.28,0,0,1,540.27,193.77Z"/><path class="cls-3" d="M206.79,348.71c0,6.21-15.29,11.24-34.15,11.24s-34.16-5-34.16-11.24,15.29-11.25,34.16-11.25S206.79,342.5,206.79,348.71Z"/><path class="cls-3" d="M187.49,347.57c0,3.23-8.93,5.84-20,5.84s-19.95-2.61-19.95-5.84,8.93-5.83,19.95-5.83S187.49,344.35,187.49,347.57Z"/><path class="cls-1" d="M177.51,346c-.39,2.78-.47,4.86-5.52,5.1-5.94.27-17-1.78-17.34-5.1,0,0,.57-24,7.43-40.57s6.26-49.69,6.85-56,3.43-9.43,3.43-9.43l5.15,4.52s1.14,29.48,0,40.33-3.72,21.84-4.57,33.91C172.22,328.83,177.51,346,177.51,346Z"/><g class="cls-17"><path class="cls-5" d="M171,352.4s-6.68-21.21-3.68-30.64,7.72-42.42,7.72-48,.86-19.72-1.72-21.86-5.14,3.86-5.14,3.86-3.86-22.29-2.57-22.29,27.86,2.57,27.86,2.57L181.89,336.34l.42,12.42Z"/><path class="cls-5" d="M156.66,318.12s6-2.19,7-.8.2,1.79,2.19,5,8.75,3,9.34,2.58,7.56-.2,6.17-2.38.6-20.69-3-21.09-19.1-1.59-19.1-1S156.66,318.12,156.66,318.12Z"/><path class="cls-6" d="M159.48,351.87s-.56-11.6-.06-17.23,2.84-6.22,2.62-10.15a24.76,24.76,0,0,0-2-7.76s-1.31,4.58-2,7.95-.89,9.12-1.12,12.78,0,12.65,0,12.65Z"/></g><path class="cls-11" d="M219.82,294.77a21.42,21.42,0,0,0-1.46-35.42c-.23-14.61-11.63-26.58-26-27a26,26,0,0,0-9.75,1.61c-.86-14-12-25.3-26-25.69C141.75,207.87,129.4,219.83,129,235a27.78,27.78,0,0,0,5,16.68,1,1,0,0,0,0,.1,27.27,27.27,0,0,0-23.15,26.43,27.91,27.91,0,0,0,.5,6A11.23,11.23,0,0,0,112.58,298a11.35,11.35,0,0,0,7,3.56,21.2,21.2,0,0,0,41.47,3.37,17.06,17.06,0,0,0,14.22-1.64,26.25,26.25,0,0,0,30.09,4.25,9.55,9.55,0,0,0,7.4,3.5,9.66,9.66,0,0,0,7.06-16.24Z"/><path class="cls-8" d="M152.47,216.41c12.36-2.81,17.33-.35,25.32,3.59a26.61,26.61,0,0,0-21.23-11.71C141.75,207.87,129.4,219.83,129,235a27.78,27.78,0,0,0,5,16.68,1,1,0,0,0,0,.1,27.27,27.27,0,0,0-23.15,26.43,28.94,28.94,0,0,0,.19,4c2.33-5.16,13.18-24.34,28.77-20.79,9.49,2.17,11.49,1.83,16.64-1.61,1.89-1.25.07-2-7.79-4.42C131.51,250.06,129.09,221.72,152.47,216.41Z"/><path class="cls-8" d="M171.23,239.08c-2.83,3.89.41,4.14,8,2.12,4.38-1.17,12.76-3.06,20.27-2.47,2.76.22,9.25,1.7,11.12,1.74a26.36,26.36,0,0,0-18.28-8.1,26,26,0,0,0-9.75,1.61S174.07,235.18,171.23,239.08Z"/><g class="cls-12"><path class="cls-9" d="M228.49,277.56a21.4,21.4,0,0,0-10.13-18.21,28.3,28.3,0,0,0-1.1-7.29,11.9,11.9,0,0,1-6.71,5.44c-7.45,2.24-2.84,6.14-2.84,6.14s-4.53-11-20.81-1.15c-6.87,4.14-9.4,10.25-18,8.22-10.29-2.42-11.89,2.4-12.15,7.2s1.65,18.66-17,23.74c-8.83,2.4-17.85-6.39-17.85-6.39s-1.28.49-6.24.62c-1.76.05-3.28.06-4.53.05a11.15,11.15,0,0,0,1.48,2,11.35,11.35,0,0,0,7,3.56,21.2,21.2,0,0,0,41.47,3.37,17.06,17.06,0,0,0,14.22-1.64,26.25,26.25,0,0,0,30.09,4.25,9.55,9.55,0,0,0,7.4,3.5,9.66,9.66,0,0,0,7.06-16.24A21.37,21.37,0,0,0,228.49,277.56Z"/><path class="cls-9" d="M205.29,280.73a5.81,5.81,0,1,1-5.81-5.81A5.81,5.81,0,0,1,205.29,280.73Z"/><path class="cls-9" d="M193.46,286.54a3.69,3.69,0,1,1-3.68-3.68A3.69,3.69,0,0,1,193.46,286.54Z"/><path class="cls-9" d="M135.19,292.71a3.69,3.69,0,1,1-3.68-3.68A3.68,3.68,0,0,1,135.19,292.71Z"/><path class="cls-9" d="M203.17,271.37a2.71,2.71,0,1,1-2.71-2.71A2.72,2.72,0,0,1,203.17,271.37Z"/><path class="cls-9" d="M140.62,286.2a2.72,2.72,0,1,1-2.72-2.71A2.72,2.72,0,0,1,140.62,286.2Z"/></g><path class="cls-13" d="M214.24,299a3.69,3.69,0,1,1-3.69-3.69A3.69,3.69,0,0,1,214.24,299Z"/><path class="cls-13" d="M217.62,293a2.37,2.37,0,1,1-2.37-2.37A2.36,2.36,0,0,1,217.62,293Z"/><path class="cls-8" d="M149.69,228.67A3.69,3.69,0,1,1,146,225,3.69,3.69,0,0,1,149.69,228.67Z"/><path class="cls-8" d="M139.85,268.66a6,6,0,1,1-6-6A6,6,0,0,1,139.85,268.66Z"/><path class="cls-8" d="M151.67,222a1.73,1.73,0,1,1-1.73-1.74A1.73,1.73,0,0,1,151.67,222Z"/><path class="cls-8" d="M170.73,245.24A1.73,1.73,0,1,1,169,243.5,1.72,1.72,0,0,1,170.73,245.24Z"/><path class="cls-11" d="M228.17,281.69a7.58,7.58,0,0,0-8.16,1.79,14.76,14.76,0,0,0-15.2-5.59,15.11,15.11,0,0,0-.79-9.5,14.6,14.6,0,0,0-27.37,10.15,14.24,14.24,0,0,0-5.27,1.12,14.8,14.8,0,0,0-7.59,19.49,15.42,15.42,0,0,0,2.62,4.14,15.17,15.17,0,0,0,1.08,7.94,14.8,14.8,0,0,0,19.31,8,14.36,14.36,0,0,0,5.72-4.43c.16.07.3.16.47.23a9.23,9.23,0,0,0,11.92-5.3,9.51,9.51,0,0,0,.61-2.83,14.24,14.24,0,0,0,13.14-3.74,5.35,5.35,0,0,0,2.47,2,5.59,5.59,0,0,0,7.22-3.24,5.69,5.69,0,0,0-.85-5.66,7.82,7.82,0,0,0,4.88-4.6A7.69,7.69,0,0,0,228.17,281.69Z"/><path class="cls-8" d="M192.6,267a2.72,2.72,0,1,1-3.53-1.54A2.72,2.72,0,0,1,192.6,267Z"/><path class="cls-8" d="M186.19,268.18a1.28,1.28,0,1,1-2.38.93,1.28,1.28,0,0,1,2.38-.93Z"/><path class="cls-8" d="M224.52,284a1.28,1.28,0,1,1-1.66-.72A1.28,1.28,0,0,1,224.52,284Z"/><g class="cls-12"><path class="cls-9" d="M186.8,319.28a14.36,14.36,0,0,0,5.72-4.43c.16.07.3.16.47.23a9.23,9.23,0,0,0,11.92-5.3,9.51,9.51,0,0,0,.61-2.83,14.24,14.24,0,0,0,13.14-3.74,5.35,5.35,0,0,0,2.47,2,5.59,5.59,0,0,0,7.22-3.24,5.69,5.69,0,0,0-.85-5.66,7.82,7.82,0,0,0,4.88-4.6,7.73,7.73,0,0,0-2.69-9.18c0,2.49-.29,5.64-1.19,7.28-1.64,3-6.1-.5-9.52-2s-3.51,1.66-6.24,4.72-7.29,1.28-13.1,1.67-11.88,11.2-14.41,13.33-5.86,6.5-12.17,6.17a11.68,11.68,0,0,1-5.05-1.44A14.75,14.75,0,0,0,186.8,319.28Z"/><path class="cls-9" d="M209.83,289.21a3.13,3.13,0,1,1-4.06-1.76A3.13,3.13,0,0,1,209.83,289.21Z"/><path class="cls-9" d="M175.5,298.86a2.63,2.63,0,1,1-3.41-1.49A2.63,2.63,0,0,1,175.5,298.86Z"/><path class="cls-9" d="M213,287a1.43,1.43,0,1,1-1.86-.81A1.43,1.43,0,0,1,213,287Z"/><path class="cls-9" d="M169.4,301a1.44,1.44,0,1,1-1.86-.81A1.44,1.44,0,0,1,169.4,301Z"/><path class="cls-9" d="M175.34,294.35a1.47,1.47,0,0,1-2.73,1.07,1.47,1.47,0,1,1,2.73-1.07Z"/></g><path class="cls-8" d="M184.72,260.34a14.75,14.75,0,0,0-8.07,18.2,14.15,14.15,0,0,0-5.26,1.12,14.56,14.56,0,0,0-8.77,12.41c4.16-6.68,13.81-9,18.65-9.81a.92.92,0,0,0,.28-1.72l-2-1.06a1.65,1.65,0,0,1-.86-1.72c.67-4.08,4.06-17.21,19.81-16.06A14.52,14.52,0,0,0,184.72,260.34Z"/><path class="cls-8" d="M204.82,277.84a29.87,29.87,0,0,0-10.91,10s7.66-5.88,15.76-8.12a23.32,23.32,0,0,1,5.11-.64,14.47,14.47,0,0,0-10-1.21A.11.11,0,0,0,204.82,277.84Z"/><path class="cls-11" d="M197.49,302.75a2.72,2.72,0,1,1-3.52-1.54A2.72,2.72,0,0,1,197.49,302.75Z"/><path class="cls-11" d="M196.59,298.17a1.28,1.28,0,1,1-1.66-.72A1.28,1.28,0,0,1,196.59,298.17Z"/><path class="cls-3" d="M112.69,348.84c0,5.62-13.82,10.17-30.87,10.17s-30.88-4.55-30.88-10.17,13.83-10.16,30.88-10.16S112.69,343.23,112.69,348.84Z"/><path class="cls-3" d="M99.06,349.37c0,3.75-10.37,6.78-23.16,6.78s-23.15-3-23.15-6.78,10.36-6.77,23.15-6.77S99.06,345.63,99.06,349.37Z"/><path class="cls-1" d="M72.75,307.86a85.33,85.33,0,0,1,.15-9.17c-8.47-2.91-13.37-26.35-13.37-26.35C65.9,286,71,293.06,73.66,293.8c.3-2.95.67-9.95.83-12.88a66.84,66.84,0,0,1,.65-7.09c.54-3.21-1.08-17.6.35-19,0,0,2.66,21.06,3.78,18.72,3.49-7.31,5.39-8.43,9.55-14.63.52-.77-9.56,20.56-9.46,21.76.43,4.81,1,11.78,1.64,21.87a79.57,79.57,0,0,0,10.61-7.44c-1.83-6.23,4-18.47,4-18.47-.18,6.6-2.71,15.37-1.52,16.19,2.59-3.07,15.54-12.75,18.59-16.73,0,0-18.1,23.76-31.25,32.94.61,7.72.85,20.42,1.16,22.89.67,5.15,1.69,11.1,2.74,15.6.79.93-4.18,3.95-8.78,3.14-4.22-.74-7.29-1.19-6.56-3.14.25-2.23.81-4.36.86-6.75.11-4.74.24-21.46.79-24.79-19.12-9.51-35.16-32.4-35.16-32.4C50.26,297.07,67,307.41,72.75,307.86Z"/><g class="cls-18"><path class="cls-5" d="M81.48,309.08s-2,4.53-2,7.15-.65,20.23,0,21.86,2,17.63,2,17.63,1-19.49,1.16-23.75C82.76,329,81.48,309.08,81.48,309.08Z"/><path class="cls-6" d="M74.63,354.74s1.54-10.12.89-16-2-6.86-1-15,2.28-16,2-20.23-.33-14.69-.33-14.69l-3.27,9.88s.66-2.38-2.28-4-4.24,0-4.24,0l6.37,13.18s.81,5.1-.5,4.45-6.85-1.63-9.46-3.27-8.49-1-4.9.33,12.4,19.58,12.4,21.22,1,15,.66,19.91S74.63,354.74,74.63,354.74Z"/><path class="cls-5" d="M90.86,309.37s-5.55-2.94-6.53-3.26-4.57.32-4.9,2-3.26,7.5-4.89,6.85-1.64-6.2-3.92-7.83-9.14-2.29-11.75-.66-29-11.75-29-11.75,2-43.73,3.26-43.73,58.43,1,58.43,1l8.49,39.5Z"/></g><path class="cls-7" d="M9.26,270.35a23.78,23.78,0,0,0,26.08,29.5c10.44,12.44,28.65,14.77,41.36,5A28.78,28.78,0,0,0,84,296.64c10.57,11.48,28.09,13.38,40.42,3.91,13.07-10,15.33-29,5.06-42.37a30.81,30.81,0,0,0-16-10.89l0-.11a30.3,30.3,0,0,0,1.42-39,31.51,31.51,0,0,0-4.65-4.85,12.5,12.5,0,0,0-10.76-10.9,12.68,12.68,0,0,0-8.54,1.84A23.56,23.56,0,0,0,52.8,220.42,19,19,0,0,0,41.71,231.8a29.14,29.14,0,0,0-28.92,17.43,10.71,10.71,0,1,0-3.53,21.12Z"/><path class="cls-8" d="M9.26,270.35a10.71,10.71,0,1,1,3.53-21.12A29.14,29.14,0,0,1,41.71,231.8,19,19,0,0,1,52.8,220.42a23.56,23.56,0,0,1,38.11-26.16,12.68,12.68,0,0,1,8.54-1.84,13.59,13.59,0,0,1,2.7.72c-1.08.88-2.38,2-3.87,3.22-4.18,3.59-4.94,4.91-4.94,4.91s-13.94-1.26-19.86,7c-12.52,17.45,2,32.38,2,32.38s-16.64-5.32-27.2-.2c-8.87,4.3-17.11,12.19-20.12,20.58C21,280.9,41.51,288.7,41.51,288.7s6.7.12,1.86,7.28a13.17,13.17,0,0,0-2,9.39,31.52,31.52,0,0,1-6.06-5.52,23.78,23.78,0,0,1-26.08-29.5ZM40.7,273.2a6.45,6.45,0,1,0-9.09-.94A6.46,6.46,0,0,0,40.7,273.2Zm2.8-13.64a4.1,4.1,0,1,0-5.76-.6A4.09,4.09,0,0,0,43.5,259.56ZM89.4,213.4a4.09,4.09,0,1,0-5.76-.59A4.1,4.1,0,0,0,89.4,213.4ZM44.24,279.28a3,3,0,1,0-4.23-.43A3,3,0,0,0,44.24,279.28Zm43.53-56.63a3,3,0,1,0-4.24-.43A3,3,0,0,0,87.77,222.65Z"/><path class="cls-9" d="M98.28,254.37c-8.49,3.4-10.56,4.05-9.81,1.65,2-6.57,3.51-8.27,13.22-13,15.92-7.87,11.84-32,10.23-38.09a32,32,0,0,1,2.94,3.29,30.3,30.3,0,0,1-1.42,39l0,.11a30.81,30.81,0,0,1,16,10.89c10.27,13.38,8,32.35-5.06,42.37a29.51,29.51,0,0,1-26.5,4.79c-24.58-27.72,15.66-3.57,24.34-14.66C138.66,269.72,116.72,247,98.28,254.37ZM90.17,284.3c-.29-5.35-.9-.72-8.36,3.76-8.18,4.91-25.77-.18-32.66,4.58-2.53,1.74,7.75,16.78,6.11,18.05a29.29,29.29,0,0,0,21.44-5.83A28.78,28.78,0,0,0,84,296.64S90.46,289.64,90.17,284.3ZM16.9,263.43a4.09,4.09,0,1,0-5.76-.6A4.1,4.1,0,0,0,16.9,263.43Zm-.81,7.28a2.63,2.63,0,1,0-3.7-.38A2.63,2.63,0,0,0,16.09,270.71Zm105.71,8a4.09,4.09,0,1,0-5.76-.59A4.08,4.08,0,0,0,121.8,278.75Zm-15.92-41a6.68,6.68,0,1,0-9.4-1A6.68,6.68,0,0,0,105.88,237.77Zm15.85,47.84a1.93,1.93,0,1,0-2.71-.28A1.93,1.93,0,0,0,121.73,285.61ZM89,278.92a1.93,1.93,0,1,0-2.71-.28A1.92,1.92,0,0,0,89,278.92Z"/><polygon class="cls-19" points="964.19 342.82 970.43 332.11 887.59 354.3 887.59 443.49 966.5 443.49 1153.2 393.47 964.19 342.82"/><polygon class="cls-20" points="578.37 308.63 887.59 391.47 887.59 443.49 578.37 360.65 578.37 308.63"/><polygon class="cls-21" points="1077.09 340.69 1077.09 392.71 887.59 443.49 887.59 391.47 1077.09 340.69"/><polygon class="cls-22" points="578.37 162.79 887.59 245.64 887.59 434.8 578.37 351.95 578.37 162.79"/><polygon class="cls-23" points="578.37 162.79 887.59 245.64 887.59 259.86 578.37 177.02 578.37 162.79"/><polygon class="cls-24" points="578.37 162.79 887.59 245.64 982.34 82.84 673.12 0 578.37 162.79"/><polygon class="cls-20" points="1077.09 194.86 1077.09 384.02 887.59 434.8 887.59 245.64 982.34 82.84 1077.09 194.86"/><polygon class="cls-23" points="982.34 82.84 887.59 245.64 887.59 260.11 982.34 97.32 1077.09 209.33 1077.09 194.86 982.34 82.84"/><polygon class="cls-25" points="959.47 235.78 1005.21 223.52 1005.21 160.29 959.47 172.55 959.47 235.78"/><polygon class="cls-21" points="1005.21 160.29 1005.21 223.52 999.88 222.09 999.88 161.72 1005.21 160.29"/><polygon class="cls-22" points="959.47 235.78 1005.21 223.52 999.88 222.09 959.47 232.92 959.47 235.78"/><polygon class="cls-26" points="963.27 228.01 995.96 219.26 995.96 164.99 963.27 173.75 963.27 228.01"/><polygon class="cls-25" points="959.47 415.64 1005.21 403.38 1005.21 294.44 959.47 306.7 959.47 415.64"/><polygon class="cls-21" points="1005.21 294.44 1005.21 403.38 999.88 401.95 999.88 295.87 1005.21 294.44"/><polygon class="cls-22" points="959.47 415.64 1005.21 403.38 999.88 401.95 959.47 412.78 959.47 415.64"/><polygon class="cls-27" points="963.27 407.88 995.96 399.12 995.96 299.14 963.27 307.9 963.27 407.88"/><polygon class="cls-23" points="882.83 141.41 673.71 85.53 632.95 155.53 842.07 211.41 882.83 141.41"/><polygon class="cls-28" points="881.29 137.6 672.17 81.72 631.41 151.71 840.53 207.59 881.29 137.6"/><path class="cls-19" d="M672.89,160.81,635,150.66,673.92,85l37.87,10.14Zm80.24-54.61L715.26,96.05,676.35,161.7l37.87,10.14Zm41.33,11-37.87-10.15-38.9,65.65,37.87,10.14Zm41.33,11-37.86-10.15L759,183.77l37.87,10.15Zm41.34,11-37.87-10.15-38.9,65.64L838.22,205Z"/><polygon class="cls-29" points="673.11 83.38 634.2 149.03 672.07 159.17 710.98 93.53 673.11 83.38"/><path class="cls-30" d="M641,141.23l-3.46,5.84.39,1,6.45,1.73,1.32-.55,3.46-5.83-.4-1-6.44-1.73Zm4.64-7.84-3.46,5.84.4,1L649,142l1.32-.55,3.46-5.83-.4-1-6.45-1.73Zm4.65-7.84-3.46,5.83.4,1,6.45,1.73,1.32-.55,3.46-5.84-.4-1L651.59,125Zm4.65-7.85-3.46,5.84.4,1,6.45,1.73,1.32-.55,3.45-5.84-.39-1-6.45-1.73Zm4.65-7.84-3.46,5.84.39,1,6.45,1.73,1.32-.55,3.46-5.84-.4-1-6.44-1.72Zm4.64-7.84-3.46,5.84.4,1,6.45,1.72,1.32-.54,3.46-5.84-.4-1-6.45-1.73Zm4.65-7.84L665.4,100l.4,1,6.45,1.72,1.32-.54L677,96.37l-.4-1-6.45-1.73Zm4.65-7.84-3.46,5.84.4,1,6.44,1.73,1.32-.55,3.46-5.83-.39-1-6.45-1.73Zm-23.87,57.21-3.46,5.84.4,1,6.45,1.72,1.32-.54,3.46-5.84-.4-1L651,143Zm4.65-7.84-3.46,5.84.4,1,6.44,1.73,1.32-.55,3.46-5.83-.4-1-6.44-1.73Zm4.64-7.84-3.46,5.83.4,1,6.45,1.73,1.32-.55,3.46-5.83-.4-1-6.45-1.73Zm4.65-7.84-3.46,5.83.4,1L667,128.6l1.32-.55,3.46-5.84-.4-1-6.45-1.73Zm4.65-7.85L664.77,118l.4,1,6.45,1.73,1.32-.55,3.46-5.84-.4-1-6.45-1.73Zm4.65-7.84-3.46,5.84.39,1,6.45,1.73,1.32-.55,3.46-5.84-.4-1-6.44-1.72Zm4.64-7.84-3.46,5.84.4,1,6.45,1.72,1.32-.54,3.46-5.84-.4-1L678.84,96Zm4.65-7.84-3.46,5.84.4,1,6.45,1.72,1.32-.54,3.46-5.84-.4-1-6.45-1.73ZM658.3,145.87l-3.46,5.84.4,1,6.45,1.72,1.32-.54,3.46-5.84-.4-1-6.45-1.73ZM663,138l-3.46,5.84.4,1,6.45,1.72,1.32-.54,3.46-5.84-.4-1-6.45-1.73Zm4.65-7.84L664.14,136l.4,1,6.44,1.73,1.32-.55,3.46-5.83-.39-1-6.45-1.73Zm4.64-7.84-3.46,5.83.4,1,6.45,1.73,1.32-.55,3.46-5.83-.4-1-6.45-1.73Zm4.65-7.84-3.46,5.83.4,1,6.45,1.73,1.32-.55,3.46-5.84-.4-1L678.21,114Zm4.65-7.85-3.46,5.84.4,1,6.45,1.73,1.32-.55,3.46-5.84-.4-1-6.45-1.73Zm4.65-7.84-3.46,5.84.4,1,6.44,1.73,1.32-.55,3.46-5.84-.4-1-6.44-1.72ZM690.83,91l-3.46,5.84.4,1,6.45,1.72,1.32-.54L699,93.17l-.4-1-6.45-1.73ZM667,148.19,663.51,154l.39,1,6.45,1.73,1.32-.55,3.46-5.84-.4-1-6.44-1.72Zm4.64-7.84-3.46,5.84.4,1,6.45,1.72,1.32-.54,3.46-5.84-.4-1-6.45-1.73Zm4.65-7.84-3.46,5.84.4,1,6.45,1.72,1.32-.54,3.46-5.84-.4-1L677.58,132Zm4.65-7.84-3.46,5.84.4,1,6.44,1.73,1.32-.55,3.46-5.83-.39-1-6.45-1.73Zm4.65-7.84-3.46,5.83.39,1,6.45,1.73,1.32-.55,3.46-5.83-.4-1-6.45-1.73ZM690.2,109l-3.46,5.83.4,1,6.45,1.73,1.32-.55,3.46-5.84-.4-1-6.45-1.73Zm4.65-7.85L691.39,107l.4,1,6.45,1.73,1.32-.55,3.46-5.84-.4-1-6.45-1.72Zm4.65-7.84L696,99.14l.4,1,6.44,1.73,1.32-.55,3.46-5.84-.39-1-6.45-1.72Z"/><polygon class="cls-29" points="714.44 94.42 675.54 160.06 713.41 170.21 752.31 104.57 714.44 94.42"/><path class="cls-30" d="M682.31,152.27l-3.46,5.83.4,1,6.45,1.73,1.32-.55,3.46-5.83-.4-1-6.45-1.73Zm4.65-7.84-3.46,5.83.4,1,6.44,1.73,1.32-.55,3.46-5.84-.39-1-6.45-1.73Zm4.64-7.85-3.45,5.84.39,1,6.45,1.73,1.32-.55,3.46-5.84-.4-1L692.92,136Zm4.65-7.84-3.46,5.84.4,1,6.45,1.73,1.32-.55,3.46-5.84-.4-1-6.45-1.72Zm4.65-7.84-3.46,5.84.4,1,6.45,1.72,1.32-.54,3.46-5.84-.4-1-6.45-1.73Zm4.65-7.84-3.46,5.84.4,1,6.44,1.72,1.32-.54,3.46-5.84-.39-1-6.45-1.73Zm4.64-7.84-3.46,5.84.4,1,6.45,1.73,1.32-.55,3.46-5.83-.4-1-6.45-1.73Zm4.65-7.84-3.46,5.83.4,1,6.45,1.73,1.32-.55L723,99.57l-.4-1-6.45-1.73ZM691,154.59l-3.46,5.84.4,1,6.45,1.73,1.32-.55,3.46-5.83-.4-1L692.29,154Zm4.65-7.84-3.46,5.83.4,1,6.45,1.73,1.32-.55,3.46-5.83-.4-1-6.45-1.73Zm4.65-7.84-3.46,5.83.4,1,6.45,1.73,1.32-.55,3.45-5.84-.39-1-6.45-1.73Zm4.65-7.85-3.46,5.84.39,1,6.45,1.73,1.32-.55,3.46-5.84-.4-1-6.44-1.73Zm4.64-7.84-3.46,5.84.4,1L713,131.8l1.32-.55,3.46-5.84-.4-1-6.45-1.72Zm4.65-7.84-3.46,5.84.4,1L717.6,124l1.32-.54,3.46-5.84-.4-1-6.45-1.73Zm4.65-7.84-3.46,5.84.4,1,6.44,1.73,1.32-.54,3.46-5.84-.39-1L720.18,107Zm4.64-7.84-3.45,5.84.39,1,6.45,1.73,1.32-.55,3.46-5.83-.4-1-6.45-1.73Zm-23.86,57.21-3.46,5.84.4,1,6.44,1.72,1.32-.54,3.46-5.84-.4-1L701,156.36Zm4.64-7.84-3.46,5.84.4,1,6.45,1.73,1.32-.55,3.46-5.83-.4-1-6.45-1.73Zm4.65-7.84-3.46,5.83.4,1,6.45,1.73,1.32-.55,3.46-5.83-.4-1-6.45-1.73Zm4.65-7.84-3.46,5.83.4,1L717,142l1.32-.55,3.46-5.84-.4-1-6.45-1.73Zm4.65-7.85-3.46,5.84.39,1,6.45,1.73,1.32-.55,3.46-5.84-.4-1L719.55,125Zm4.64-7.84-3.46,5.84.4,1,6.45,1.73,1.32-.55,3.46-5.84-.4-1-6.45-1.72Zm4.65-7.84-3.46,5.84.4,1,6.45,1.72,1.32-.54,3.46-5.84-.4-1-6.45-1.73Zm4.65-7.84-3.46,5.84.4,1,6.45,1.73,1.32-.54,3.45-5.84-.39-1-6.45-1.73ZM708.3,159.23l-3.46,5.84.4,1,6.45,1.72,1.32-.54,3.46-5.84-.4-1-6.45-1.73Zm4.65-7.84-3.46,5.84.4,1,6.44,1.73,1.32-.54,3.46-5.84-.39-1-6.45-1.73Zm4.64-7.84-3.46,5.84.4,1,6.45,1.73,1.32-.55,3.46-5.83-.4-1L718.91,143Zm4.65-7.84-3.46,5.83.4,1,6.45,1.73,1.32-.55,3.46-5.83-.4-1-6.45-1.73Zm4.65-7.84-3.46,5.83.4,1,6.45,1.73,1.32-.55,3.46-5.84-.4-1-6.45-1.73Zm4.65-7.85-3.46,5.84.4,1,6.44,1.73,1.32-.55,3.46-5.84-.4-1-6.44-1.72Zm4.64-7.84L732.72,118l.4,1,6.45,1.73,1.32-.55,3.46-5.84-.4-1-6.45-1.72Zm4.65-7.84-3.46,5.84.4,1,6.45,1.72,1.32-.54,3.46-5.84-.4-1-6.45-1.73Z"/><polygon class="cls-29" points="755.78 105.46 716.87 171.1 754.74 181.25 793.64 115.61 755.78 105.46"/><path class="cls-30" d="M723.64,163.31l-3.46,5.83.4,1,6.45,1.73,1.32-.55,3.46-5.84-.4-1L725,162.76Zm4.65-7.85-3.46,5.84.4,1,6.45,1.73,1.32-.55,3.46-5.84-.4-1-6.45-1.73Zm4.65-7.84-3.46,5.84.4,1,6.45,1.73,1.32-.55,3.46-5.84-.4-1-6.45-1.72Zm4.65-7.84-3.46,5.84.4,1,6.44,1.72,1.32-.54,3.46-5.84-.4-1-6.44-1.73Zm4.64-7.84-3.46,5.84.4,1,6.45,1.73,1.32-.54,3.46-5.84-.4-1-6.45-1.73Zm4.65-7.84-3.46,5.84.4,1,6.45,1.73,1.32-.55,3.46-5.83-.4-1-6.45-1.73Zm4.65-7.84-3.46,5.83.4,1,6.45,1.73,1.32-.55,3.46-5.83-.4-1-6.45-1.73Zm4.65-7.84-3.46,5.83.39,1,6.45,1.73,1.32-.55,3.46-5.84-.4-1-6.44-1.73Zm-23.87,57.21-3.46,5.83.4,1,6.44,1.73,1.32-.55,3.46-5.83-.39-1-6.45-1.73Zm4.64-7.84-3.45,5.83.39,1,6.45,1.73,1.32-.55,3.46-5.84-.4-1-6.45-1.73Zm4.65-7.85-3.46,5.84.4,1,6.45,1.73,1.32-.55,3.46-5.84-.4-1-6.45-1.72Zm4.65-7.84-3.46,5.84.4,1,6.45,1.73,1.32-.55,3.46-5.84-.4-1-6.45-1.72Zm4.65-7.84-3.46,5.84.4,1,6.44,1.72,1.32-.54,3.46-5.84-.39-1-6.45-1.73Zm4.64-7.84-3.46,5.84.4,1,6.45,1.73,1.32-.54,3.46-5.84-.4-1-6.45-1.73Zm4.65-7.84-3.46,5.84.4,1,6.45,1.73,1.32-.55,3.46-5.83-.4-1L761.51,118Zm4.65-7.84-3.46,5.83.4,1,6.45,1.73,1.32-.55,3.46-5.83-.4-1-6.45-1.73ZM741,168l-3.46,5.84.4,1,6.45,1.73,1.32-.55,3.46-5.83-.4-1-6.45-1.73Zm4.65-7.84-3.46,5.83.4,1,6.45,1.73,1.32-.55,3.45-5.83-.39-1-6.45-1.73Zm4.65-7.84-3.46,5.83.39,1,6.45,1.73,1.32-.55,3.46-5.84-.4-1-6.44-1.73Zm4.64-7.85-3.46,5.84.4,1L758.3,153l1.32-.55,3.46-5.84-.4-1-6.45-1.72Zm4.65-7.84-3.46,5.84.4,1,6.45,1.73,1.32-.55,3.46-5.84-.4-1L760.88,136Zm4.65-7.84-3.46,5.84.4,1,6.44,1.72,1.32-.54,3.46-5.84-.39-1-6.45-1.73Zm4.64-7.84-3.45,5.84.39,1,6.45,1.73,1.32-.54,3.46-5.84-.4-1-6.45-1.73Zm4.65-7.84L770,118.9l.4,1,6.45,1.73,1.32-.55,3.46-5.83-.4-1-6.45-1.73Zm-23.87,57.21-3.46,5.84.4,1,6.45,1.73,1.32-.54,3.46-5.84-.4-1L751,169.72Zm4.65-7.84-3.46,5.84.4,1,6.45,1.73,1.32-.55,3.46-5.83-.4-1-6.45-1.73Zm4.65-7.84-3.46,5.83.4,1,6.45,1.73,1.32-.55,3.46-5.84-.4-1L760.25,154Zm4.65-7.84-3.46,5.83.39,1,6.45,1.73,1.32-.55,3.46-5.84-.4-1-6.44-1.73Zm4.64-7.85-3.46,5.84.4,1,6.45,1.73,1.32-.55,3.46-5.84-.4-1-6.45-1.72Zm4.65-7.84-3.46,5.84.4,1,6.45,1.73,1.32-.55,3.46-5.84-.4-1-6.45-1.72Zm4.65-7.84-3.46,5.84.4,1,6.45,1.72,1.32-.54,3.45-5.84-.39-1-6.45-1.73Zm4.65-7.84-3.46,5.84.39,1,6.45,1.73,1.32-.55,3.46-5.83-.4-1-6.44-1.73Z"/><polygon class="cls-29" points="797.11 116.5 758.21 182.14 796.08 192.29 834.98 126.65 797.11 116.5"/><path class="cls-30" d="M765,174.34l-3.46,5.84.4,1,6.45,1.73,1.32-.55,3.46-5.84-.4-1-6.45-1.72Zm4.65-7.84-3.46,5.84.39,1,6.45,1.73,1.32-.55,3.46-5.84-.4-1L771,166Zm4.64-7.84-3.46,5.84.4,1,6.45,1.72,1.32-.54,3.46-5.84-.4-1-6.45-1.73Zm4.65-7.84-3.46,5.84.4,1,6.45,1.73,1.32-.54,3.46-5.84-.4-1-6.45-1.73Zm4.65-7.84-3.46,5.84.4,1,6.45,1.73,1.31-.55,3.46-5.83-.39-1-6.45-1.73Zm4.65-7.84L784.76,141l.39,1,6.45,1.73,1.32-.55,3.46-5.84-.4-1-6.45-1.73Zm4.64-7.84-3.46,5.83.4,1,6.45,1.73,1.32-.55,3.46-5.84-.4-1-6.45-1.73Zm4.65-7.85-3.46,5.84.4,1L800.9,128l1.32-.55,3.46-5.84-.4-1-6.45-1.72Zm-23.87,57.22-3.46,5.83.4,1,6.45,1.73,1.32-.55,3.46-5.84-.4-1L775,176.12Zm4.65-7.85-3.46,5.84.4,1,6.45,1.73,1.32-.55,3.46-5.84-.4-1-6.45-1.72Zm4.65-7.84-3.46,5.84.4,1,6.44,1.73,1.32-.55,3.46-5.84-.4-1-6.44-1.72Zm4.64-7.84L784.12,159l.4,1,6.45,1.72,1.32-.54,3.46-5.84-.4-1-6.45-1.73Zm4.65-7.84-3.46,5.84.4,1,6.45,1.73,1.32-.54,3.46-5.84-.4-1-6.45-1.73Zm4.65-7.84-3.46,5.84.4,1,6.45,1.73,1.32-.55,3.46-5.83-.4-1-6.45-1.73Zm4.65-7.84-3.46,5.83.39,1,6.45,1.73,1.32-.55,3.46-5.84-.4-1-6.44-1.73Zm4.64-7.84-3.46,5.83.4,1,6.45,1.73,1.32-.55,3.46-5.84-.4-1-6.45-1.73ZM782.3,179l-3.45,5.83.39,1,6.45,1.73L787,187l3.46-5.84-.4-1-6.45-1.73Zm4.65-7.84L783.49,177l.4,1,6.45,1.73,1.32-.55,3.46-5.84-.4-1-6.45-1.73Zm4.65-7.85-3.46,5.84.4,1,6.45,1.73,1.32-.55,3.46-5.84-.4-1-6.45-1.72Zm4.65-7.84-3.46,5.84.4,1,6.44,1.73,1.32-.55,3.46-5.84-.39-1-6.45-1.72Zm4.64-7.84-3.46,5.84.4,1,6.45,1.72,1.32-.54,3.46-5.84-.4-1-6.45-1.73Zm4.65-7.84-3.46,5.84.4,1,6.45,1.73,1.32-.55,3.46-5.83-.4-1-6.45-1.73Zm4.65-7.84-3.46,5.84.4,1,6.45,1.73,1.32-.55,3.46-5.83-.4-1-6.45-1.73Zm4.65-7.84-3.46,5.83.39,1,6.45,1.73,1.32-.55,3.46-5.84-.4-1-6.44-1.73ZM791,181.31l-3.46,5.84.4,1,6.45,1.73,1.32-.55,3.45-5.83-.39-1-6.45-1.73Zm4.65-7.84-3.46,5.83.39,1L799,182l1.32-.55,3.46-5.84-.4-1-6.44-1.73Zm4.64-7.85-3.46,5.84.4,1,6.45,1.73,1.32-.55,3.46-5.84-.4-1-6.45-1.73Zm4.65-7.84-3.46,5.84.4,1,6.45,1.73,1.32-.55,3.46-5.84-.4-1-6.45-1.72Zm4.65-7.84-3.46,5.84.4,1,6.44,1.72,1.32-.54,3.46-5.84-.39-1-6.45-1.73Zm4.64-7.84-3.45,5.84.39,1,6.45,1.72,1.32-.54,3.46-5.84-.4-1-6.45-1.73Zm4.65-7.84-3.46,5.84.4,1,6.45,1.73,1.32-.55,3.46-5.83-.4-1-6.45-1.73Zm4.65-7.84L820,132.26l.4,1,6.45,1.73,1.32-.55,3.46-5.83-.4-1-6.45-1.73Z"/><polygon class="cls-29" points="838.44 127.54 799.54 193.18 837.41 203.33 876.31 137.68 838.44 127.54"/><path class="cls-30" d="M806.31,185.38l-3.46,5.84.4,1L809.7,194l1.32-.55,3.46-5.84-.4-1-6.45-1.72Zm4.65-7.84-3.46,5.84.4,1,6.45,1.72,1.32-.54,3.46-5.84-.4-1L812.28,177Zm4.65-7.84-3.46,5.84.4,1,6.44,1.73,1.32-.54,3.46-5.84-.39-1-6.45-1.73Zm4.64-7.84-3.46,5.84.4,1,6.45,1.73,1.32-.55,3.46-5.83-.4-1-6.45-1.73ZM824.9,154l-3.46,5.83.4,1,6.45,1.73,1.32-.55,3.46-5.84-.4-1-6.45-1.73Zm4.65-7.84L826.09,152l.4,1,6.45,1.73,1.32-.55,3.46-5.84-.4-1-6.45-1.73Zm4.65-7.85-3.46,5.84.4,1,6.44,1.73,1.32-.55,3.46-5.84-.4-1-6.44-1.72Zm4.64-7.84-3.46,5.84.4,1,6.45,1.72,1.32-.54,3.46-5.84-.4-1-6.45-1.73ZM815,187.7l-3.46,5.84.39,1,6.45,1.73,1.32-.55,3.46-5.84-.4-1-6.44-1.72Zm4.64-7.84-3.46,5.84.4,1,6.45,1.73,1.32-.55,3.46-5.84-.4-1-6.45-1.72Zm4.65-7.84-3.46,5.84.4,1,6.45,1.72,1.32-.54,3.46-5.84-.4-1-6.45-1.73Zm4.65-7.84L825.46,170l.4,1,6.44,1.73,1.32-.55,3.46-5.83-.39-1-6.45-1.73Zm4.65-7.84-3.46,5.84.39,1,6.45,1.73,1.32-.55,3.46-5.83-.4-1-6.45-1.73Zm4.64-7.84-3.46,5.83.4,1,6.45,1.73,1.32-.55,3.46-5.84-.4-1L839.53,148Zm4.65-7.85-3.46,5.84.4,1,6.45,1.73,1.32-.55,3.46-5.84-.4-1-6.45-1.73Zm4.65-7.84-3.46,5.84.4,1,6.44,1.73,1.32-.55,3.46-5.84-.39-1-6.45-1.72ZM823.64,190l-3.46,5.84.4,1L827,198.6l1.32-.55,3.46-5.84-.4-1L825,189.48Zm4.65-7.84L824.83,188l.39,1,6.45,1.73,1.32-.55,3.46-5.84-.4-1-6.44-1.72Zm4.64-7.84-3.46,5.84.4,1,6.45,1.72,1.32-.54,3.46-5.84-.4-1-6.45-1.73Zm4.65-7.84-3.46,5.84.4,1,6.45,1.72,1.32-.54,3.46-5.84-.4-1L838.9,166Zm4.65-7.84-3.46,5.84.4,1,6.45,1.73,1.32-.55,3.46-5.83-.4-1-6.45-1.73Zm4.65-7.84-3.46,5.83.39,1,6.45,1.73,1.32-.55L855,153l-.4-1-6.44-1.73Zm4.64-7.84-3.46,5.83.4,1,6.45,1.73,1.32-.55,3.46-5.84-.4-1-6.45-1.73Zm4.65-7.85L852.71,141l.4,1,6.45,1.73,1.32-.55,3.46-5.84-.4-1-6.45-1.73ZM832.3,192.35l-3.46,5.83.4,1,6.45,1.73,1.32-.55,3.46-5.84-.4-1-6.45-1.73ZM837,184.5l-3.46,5.84.4,1,6.45,1.73,1.32-.55,3.46-5.84-.4-1L838.27,184Zm4.65-7.84-3.46,5.84.4,1,6.44,1.73,1.32-.55,3.46-5.84-.4-1-6.44-1.72Zm4.64-7.84-3.46,5.84.4,1,6.45,1.72,1.32-.54,3.46-5.84-.4-1-6.45-1.73Zm4.65-7.84-3.46,5.84.4,1,6.45,1.72,1.32-.54,3.46-5.84-.4-1-6.45-1.73Zm4.65-7.84L852.08,159l.4,1,6.45,1.73,1.32-.55,3.46-5.83-.4-1-6.45-1.73Zm4.65-7.84-3.46,5.83.39,1,6.45,1.73,1.32-.55,3.46-5.83-.4-1-6.44-1.73Zm4.64-7.84-3.46,5.83.4,1,6.45,1.73,1.32-.55,3.46-5.84-.4-1-6.45-1.73Z"/><polygon class="cls-31" points="881.29 137.6 631.41 151.71 672.17 81.72 881.29 137.6"/><polygon class="cls-25" points="722.52 390.48 672.18 376.99 672.18 257.09 722.52 270.58 722.52 390.48"/><polygon class="cls-20" points="672.18 257.09 672.18 376.99 678.05 375.42 678.05 258.67 672.18 257.09"/><polygon class="cls-22" points="722.52 390.48 672.18 376.99 678.05 375.42 722.52 387.33 722.52 390.48"/><polygon class="cls-26" points="718.34 381.94 682.37 372.3 682.37 262.26 718.34 271.9 718.34 381.94"/><polygon class="cls-25" points="772.87 404.21 722.52 390.73 722.52 270.83 772.87 284.32 772.87 404.21"/><polygon class="cls-20" points="722.52 270.83 722.52 390.73 728.39 389.15 728.39 272.4 722.52 270.83"/><polygon class="cls-22" points="772.87 404.21 722.52 390.73 728.39 389.15 772.87 401.07 772.87 404.21"/><polygon class="cls-23" points="768.68 395.67 732.71 386.03 732.71 276 768.68 285.64 768.68 395.67"/><polygon class="cls-25" points="823.21 417.75 772.87 404.26 772.87 284.37 823.21 297.86 823.21 417.75"/><polygon class="cls-20" points="772.87 284.37 772.87 404.26 778.74 402.69 778.74 285.94 772.87 284.37"/><polygon class="cls-22" points="823.21 417.75 772.87 404.26 778.74 402.69 823.21 414.61 823.21 417.75"/><polygon class="cls-24" points="819.03 409.21 783.05 399.57 783.05 289.54 819.03 299.18 819.03 409.21"/><polygon class="cls-25" points="672.18 377.12 621.84 363.63 621.84 243.73 672.18 257.22 672.18 377.12"/><polygon class="cls-20" points="621.84 243.73 621.84 363.63 627.71 362.06 627.71 245.31 621.84 243.73"/><polygon class="cls-22" points="672.18 377.12 621.84 363.63 627.71 362.06 672.18 373.97 672.18 377.12"/><polygon class="cls-26" points="668 368.57 632.02 358.94 632.02 248.9 668 258.54 668 368.57"/><polygon class="cls-31" points="627.71 245.31 823.21 297.86 627.71 362.06 627.71 245.31"/><polygon class="cls-31" points="959.47 306.7 999.88 295.87 959.47 412.78 959.47 306.7"/><polyline class="cls-31" points="959.47 172.55 999.88 161.72 959.47 232.92 959.47 172.55"/><polygon class="cls-19" points="576.18 446.56 582.42 435.84 499.59 458.04 499.59 547.23 578.5 547.23 765.2 497.2 576.18 446.56"/><polygon class="cls-20" points="190.37 412.36 499.59 495.21 499.59 547.23 190.37 464.38 190.37 412.36"/><polygon class="cls-21" points="689.09 444.42 689.09 496.44 499.59 547.23 499.59 495.21 689.09 444.42"/><polygon class="cls-22" points="190.37 266.53 499.59 349.38 499.59 538.53 190.37 455.69 190.37 266.53"/><polygon class="cls-23" points="190.37 266.53 499.59 349.38 499.59 363.6 190.37 280.75 190.37 266.53"/><polygon class="cls-24" points="190.37 266.53 499.59 349.38 594.34 186.58 285.12 103.73 190.37 266.53"/><polygon class="cls-20" points="689.09 298.59 689.09 487.75 499.59 538.53 499.59 349.37 594.34 186.58 689.09 298.59"/><polygon class="cls-23" points="594.34 186.58 499.59 349.37 499.59 363.85 594.34 201.05 689.09 313.06 689.09 298.59 594.34 186.58"/><polygon class="cls-25" points="571.46 339.51 617.21 327.26 617.21 264.03 571.46 276.29 571.46 339.51"/><polygon class="cls-21" points="617.21 264.03 617.21 327.26 611.87 325.83 611.87 265.46 617.21 264.03"/><polygon class="cls-22" points="571.46 339.51 617.21 327.26 611.87 325.83 571.46 336.66 571.46 339.51"/><polygon class="cls-27" points="575.26 331.75 607.95 322.99 607.95 268.73 575.26 277.49 575.26 331.75"/><polygon class="cls-25" points="571.46 519.38 617.21 507.12 617.21 398.18 571.46 410.43 571.46 519.38"/><polygon class="cls-21" points="617.21 398.18 617.21 507.12 611.87 505.69 611.87 399.61 617.21 398.18"/><polygon class="cls-22" points="571.46 519.38 617.21 507.12 611.87 505.69 571.46 516.52 571.46 519.38"/><polygon class="cls-26" points="575.26 511.61 607.95 502.85 607.95 402.88 575.26 411.63 575.26 511.61"/><polygon class="cls-23" points="494.83 245.15 285.7 189.26 244.94 259.26 454.06 315.14 494.83 245.15"/><polygon class="cls-28" points="493.29 241.33 284.17 185.45 243.4 255.45 452.52 311.33 493.29 241.33"/><path class="cls-19" d="M284.88,264.54,247,254.39l38.91-65.64,37.87,10.15Zm80.24-54.6-37.87-10.15-38.9,65.64,37.87,10.15Zm41.33,11-37.86-10.14-38.91,65.64,37.87,10.15Zm41.34,11-37.87-10.14L371,287.51l37.87,10.15Zm41.33,11L451.25,232.9l-38.9,65.65,37.87,10.14Z"/><polygon class="cls-29" points="285.1 187.12 246.2 252.76 284.07 262.91 322.97 197.27 285.1 187.12"/><path class="cls-30" d="M253,245l-3.46,5.84.4,1,6.45,1.73,1.32-.55,3.46-5.84-.4-1-6.45-1.72Zm4.65-7.84L254.16,243l.4,1L261,245.7l1.32-.55,3.46-5.84-.39-1-6.45-1.72Zm4.65-7.84-3.46,5.84.39,1,6.45,1.72,1.32-.54,3.46-5.84-.4-1-6.45-1.73Zm4.64-7.84-3.46,5.84.4,1L270.3,230l1.32-.54,3.46-5.84-.4-1-6.45-1.73Zm4.65-7.84-3.46,5.84.4,1,6.45,1.73,1.32-.55,3.46-5.83-.4-1-6.45-1.73Zm4.65-7.84-3.46,5.83.4,1,6.44,1.73,1.32-.55,3.46-5.84-.39-1-6.45-1.73Zm4.64-7.84-3.46,5.83.4,1,6.45,1.73,1.32-.55L289,200.1l-.4-1-6.45-1.73Zm4.65-7.85L282,195.91l.4,1,6.45,1.73,1.32-.55,3.46-5.84-.4-1-6.45-1.72Zm-23.87,57.22-3.46,5.83.4,1,6.45,1.73,1.32-.55,3.46-5.84-.4-1L263,246.74Zm4.65-7.85-3.46,5.84.4,1,6.45,1.73,1.32-.55,3.46-5.84-.4-1-6.45-1.72Zm4.65-7.84-3.46,5.84.4,1,6.45,1.73,1.32-.55,3.45-5.84-.39-1-6.45-1.72Zm4.65-7.84-3.46,5.84.39,1,6.45,1.72,1.32-.54,3.46-5.84-.4-1-6.44-1.73Zm4.64-7.84-3.46,5.84.4,1,6.45,1.73,1.32-.55,3.46-5.83-.4-1-6.45-1.73Zm4.65-7.84-3.46,5.84.4,1,6.45,1.73,1.32-.55,3.46-5.83-.4-1-6.45-1.73Zm4.65-7.84-3.46,5.83.4,1,6.44,1.73,1.32-.55,3.46-5.84-.39-1-6.45-1.73Zm4.64-7.85-3.45,5.84.39,1,6.45,1.73,1.32-.55,3.46-5.84-.4-1-6.45-1.73ZM270.3,249.61l-3.46,5.83.4,1,6.44,1.73,1.32-.55,3.46-5.84-.4-1-6.44-1.73Zm4.64-7.84-3.46,5.83.4,1,6.45,1.73,1.32-.55,3.46-5.84-.4-1-6.45-1.73Zm4.65-7.85-3.46,5.84.4,1L283,242.5l1.32-.55,3.46-5.84-.4-1-6.45-1.72Zm4.65-7.84-3.46,5.84.4,1,6.45,1.72,1.32-.54,3.46-5.84-.4-1-6.45-1.73Zm4.65-7.84-3.46,5.84.39,1,6.45,1.72,1.32-.54,3.46-5.84-.4-1-6.44-1.73Zm4.64-7.84-3.46,5.84.4,1,6.45,1.73,1.32-.55,3.46-5.83-.4-1-6.45-1.73Zm4.65-7.84-3.46,5.84.4,1,6.45,1.73,1.32-.55,3.46-5.83-.4-1L299.5,202Zm4.65-7.84-3.46,5.83.4,1,6.45,1.73,1.32-.55L311,196.9l-.39-1-6.45-1.73ZM279,251.93l-3.46,5.84.4,1,6.45,1.73,1.32-.55,3.46-5.83-.4-1-6.45-1.73Zm4.65-7.84-3.46,5.83.4,1,6.44,1.73,1.32-.55,3.46-5.84-.39-1-6.45-1.73Zm4.64-7.85-3.46,5.84.4,1,6.45,1.73,1.32-.55,3.46-5.84-.4-1-6.45-1.73Zm4.65-7.84-3.46,5.84.4,1,6.45,1.73,1.32-.55,3.46-5.84-.4-1-6.45-1.72Zm4.65-7.84-3.46,5.84.4,1,6.45,1.72,1.32-.54,3.46-5.84-.4-1L298.87,220Zm4.65-7.84-3.46,5.84.4,1,6.44,1.72,1.32-.54,3.46-5.84-.4-1-6.44-1.73Zm4.64-7.84-3.46,5.84.4,1,6.45,1.73,1.32-.55,3.46-5.83-.4-1-6.45-1.73Zm4.65-7.84L308,202.87l.4,1,6.45,1.73,1.32-.55,3.46-5.83-.4-1-6.45-1.73Z"/><polygon class="cls-29" points="326.44 198.16 287.53 263.8 325.4 273.95 364.31 208.3 326.44 198.16"/><path class="cls-30" d="M294.3,256l-3.46,5.84.4,1,6.45,1.73L299,264l3.46-5.84-.4-1-6.45-1.72Zm4.65-7.84L295.49,254l.4,1,6.45,1.72,1.32-.54,3.46-5.84-.4-1-6.45-1.73Zm4.65-7.84-3.46,5.84.4,1,6.45,1.73,1.32-.55,3.46-5.83-.4-1-6.45-1.73Zm4.65-7.84-3.46,5.84.4,1,6.44,1.73,1.32-.55,3.46-5.83-.4-1-6.44-1.73Zm4.64-7.84-3.46,5.83.4,1,6.45,1.73,1.32-.55,3.46-5.84-.4-1-6.45-1.73Zm4.65-7.85-3.46,5.84.4,1,6.45,1.73,1.32-.55,3.46-5.84-.4-1-6.45-1.73Zm4.65-7.84-3.46,5.84.4,1,6.45,1.73,1.32-.55,3.46-5.84-.4-1-6.45-1.72Zm4.65-7.84L323.38,207l.39,1,6.45,1.72,1.32-.54L335,203.3l-.4-1-6.44-1.73ZM303,258.32l-3.46,5.84.4,1,6.44,1.73,1.32-.55,3.46-5.84-.39-1-6.45-1.72Zm4.64-7.84-3.45,5.84.39,1,6.45,1.72,1.32-.54,3.46-5.84-.4-1-6.45-1.73Zm4.65-7.84-3.46,5.84.4,1,6.45,1.72,1.32-.54,3.46-5.84-.4-1-6.45-1.73Zm4.65-7.84-3.46,5.84.4,1,6.45,1.73,1.32-.55,3.46-5.83-.4-1-6.45-1.73Zm4.65-7.84-3.46,5.84.4,1,6.44,1.73,1.32-.55,3.46-5.83-.39-1-6.45-1.73Zm4.64-7.84L322.74,225l.4,1,6.45,1.73,1.32-.55,3.46-5.84-.4-1-6.45-1.73Zm4.65-7.85-3.46,5.84.4,1,6.45,1.73,1.32-.55,3.46-5.84-.4-1-6.45-1.73Zm4.65-7.84L332,209.27l.4,1,6.45,1.73,1.32-.55,3.46-5.84-.4-1-6.45-1.72Zm-23.87,57.21-3.46,5.84.4,1,6.45,1.73,1.32-.55,3.46-5.84-.4-1L313,260.1Zm4.65-7.84-3.46,5.84.4,1,6.45,1.73,1.32-.55,3.45-5.84-.39-1-6.45-1.72Zm4.65-7.84-3.46,5.84.39,1,6.45,1.72,1.32-.54,3.46-5.84-.4-1-6.44-1.73Zm4.64-7.84L322.11,243l.4,1,6.45,1.72,1.32-.54,3.46-5.84-.4-1-6.45-1.73Zm4.65-7.84-3.46,5.84.4,1,6.45,1.73,1.32-.55,3.46-5.83-.4-1-6.45-1.73Zm4.65-7.84-3.46,5.83.4,1,6.44,1.73,1.32-.55,3.46-5.83-.39-1-6.45-1.73Zm4.64-7.84-3.45,5.83.39,1,6.45,1.73,1.32-.55,3.46-5.84-.4-1-6.45-1.73Zm4.65-7.85-3.46,5.84.4,1,6.45,1.73,1.32-.55,3.46-5.84-.4-1-6.45-1.73ZM320.29,263l-3.46,5.83.4,1,6.45,1.73L325,271l3.46-5.84-.4-1-6.45-1.73Zm4.65-7.85L321.48,261l.4,1,6.45,1.73,1.32-.55,3.46-5.84-.4-1-6.45-1.73Zm4.65-7.84-3.46,5.84.4,1,6.45,1.73,1.32-.55,3.46-5.84-.4-1-6.45-1.72Zm4.65-7.84-3.46,5.84.39,1,6.45,1.72,1.32-.54,3.46-5.84-.4-1-6.44-1.73Zm4.64-7.84-3.46,5.84.4,1,6.45,1.72,1.32-.54,3.46-5.84-.4-1-6.45-1.73Zm4.65-7.84-3.46,5.84.4,1,6.45,1.73,1.32-.55L351.7,226l-.4-1-6.45-1.73Zm4.65-7.84-3.46,5.83.4,1,6.45,1.73,1.32-.55,3.45-5.83-.39-1-6.45-1.73Zm4.65-7.84-3.46,5.83.39,1,6.45,1.73,1.32-.55,3.46-5.84-.4-1-6.44-1.73Z"/><polygon class="cls-29" points="367.77 209.2 328.87 274.84 366.74 284.99 405.64 219.34 367.77 209.2"/><path class="cls-30" d="M335.64,267l-3.46,5.84.4,1,6.45,1.72,1.32-.54,3.46-5.84-.4-1L337,266.49Zm4.65-7.84L336.83,265l.39,1,6.45,1.73,1.32-.55,3.46-5.83-.4-1-6.44-1.73Zm4.64-7.84-3.46,5.83.4,1,6.45,1.73,1.32-.55,3.46-5.83-.4-1-6.45-1.73Zm4.65-7.84-3.46,5.83.4,1,6.45,1.73,1.32-.55,3.46-5.84-.4-1L350.9,243Zm4.65-7.85-3.46,5.84.4,1,6.45,1.73,1.32-.55,3.45-5.84-.39-1-6.45-1.73Zm4.65-7.84-3.46,5.84.39,1,6.45,1.73,1.32-.55L367,230l-.4-1-6.44-1.72Zm4.64-7.84-3.46,5.84.4,1,6.45,1.72,1.32-.54,3.46-5.84-.4-1-6.45-1.73Zm4.65-7.84L364.71,218l.4,1,6.45,1.72,1.32-.54,3.46-5.84-.4-1-6.45-1.73ZM344.3,269.36l-3.46,5.84.4,1,6.45,1.72,1.32-.54,3.46-5.84-.4-1-6.45-1.73Zm4.65-7.84-3.46,5.84.4,1,6.45,1.72,1.32-.54,3.46-5.84-.4-1L350.27,261Zm4.65-7.84-3.46,5.84.4,1,6.44,1.73,1.32-.55,3.46-5.83-.4-1-6.44-1.73Zm4.64-7.84-3.46,5.83.4,1,6.45,1.73,1.32-.55,3.46-5.83-.4-1-6.45-1.73Zm4.65-7.84-3.46,5.83.4,1,6.45,1.73,1.32-.55,3.46-5.84-.4-1-6.45-1.73Zm4.65-7.85L364.08,236l.4,1,6.45,1.73,1.32-.55,3.46-5.84-.4-1-6.45-1.73Zm4.65-7.84-3.46,5.84.39,1,6.45,1.73,1.32-.55,3.46-5.84-.4-1-6.44-1.72Zm4.64-7.84-3.46,5.84.4,1,6.45,1.72,1.32-.54,3.46-5.84-.4-1-6.45-1.73ZM353,271.68l-3.45,5.84.39,1,6.45,1.73,1.32-.55,3.46-5.84-.4-1-6.45-1.72Zm4.65-7.84-3.46,5.84.4,1,6.45,1.72,1.32-.54,3.46-5.84-.4-1-6.45-1.73Zm4.65-7.84-3.46,5.84.4,1,6.45,1.72L367,264l3.46-5.84-.4-1-6.45-1.73Zm4.65-7.84L363.45,254l.4,1,6.44,1.73,1.32-.55,3.46-5.83-.39-1-6.45-1.73Zm4.64-7.84-3.46,5.83.4,1,6.45,1.73,1.32-.55,3.46-5.83-.4-1-6.45-1.73Zm4.65-7.84-3.46,5.83.4,1,6.45,1.73,1.32-.55,3.46-5.84-.4-1-6.45-1.73Zm4.65-7.85-3.46,5.84.4,1,6.45,1.73,1.32-.55,3.46-5.84-.4-1-6.45-1.73Zm4.65-7.84L382,222.63l.4,1,6.44,1.73,1.32-.55,3.46-5.84-.4-1-6.44-1.72ZM361.63,274l-3.46,5.84.4,1,6.45,1.73,1.32-.55,3.45-5.84-.39-1L363,273.46Zm4.65-7.84L362.82,272l.39,1,6.45,1.73,1.32-.55,3.46-5.84-.4-1-6.44-1.72Zm4.64-7.84-3.46,5.84.4,1,6.45,1.72,1.32-.54,3.46-5.84-.4-1-6.45-1.73Zm4.65-7.84-3.46,5.84.4,1,6.45,1.72,1.32-.54,3.46-5.84-.4-1-6.45-1.73Zm4.65-7.84-3.46,5.84.4,1,6.44,1.73,1.32-.55,3.46-5.83-.39-1-6.45-1.73Zm4.64-7.84-3.45,5.83.39,1,6.45,1.73,1.32-.55L393,237l-.4-1-6.45-1.73Zm4.65-7.84-3.46,5.83.4,1,6.45,1.73,1.32-.55,3.46-5.84-.4-1-6.45-1.73Zm4.65-7.85L390.7,225l.4,1,6.45,1.73,1.32-.55,3.46-5.84-.4-1-6.45-1.72Z"/><polygon class="cls-29" points="409.11 220.23 370.2 285.88 408.07 296.02 446.97 230.38 409.11 220.23"/><path class="cls-30" d="M377,278.08l-3.46,5.84.4,1,6.45,1.73,1.32-.55,3.46-5.83-.4-1-6.45-1.73Zm4.65-7.84-3.46,5.83.4,1,6.45,1.73,1.32-.55,3.46-5.83-.4-1-6.45-1.73Zm4.65-7.84-3.46,5.83.4,1,6.44,1.73,1.32-.55,3.46-5.84-.39-1-6.45-1.73Zm4.64-7.85-3.45,5.84.39,1,6.45,1.73,1.32-.55,3.46-5.84-.4-1L392.23,254Zm4.65-7.84-3.46,5.84.4,1,6.45,1.73,1.32-.55,3.46-5.84-.4-1-6.45-1.72Zm4.65-7.84-3.46,5.84.4,1,6.45,1.72,1.32-.54,3.46-5.84-.4-1-6.45-1.73Zm4.65-7.84-3.46,5.84.4,1,6.44,1.73,1.32-.54,3.46-5.84-.39-1-6.45-1.73Zm4.64-7.84L406,229l.4,1,6.45,1.73,1.32-.55,3.46-5.83-.4-1-6.45-1.73ZM385.64,280.4l-3.46,5.84.39,1L389,289l1.32-.54,3.46-5.84-.4-1L387,279.85Zm4.64-7.84-3.46,5.84.4,1,6.45,1.73,1.32-.55,3.46-5.83-.4-1L391.6,272Zm4.65-7.84-3.46,5.83.4,1,6.45,1.73,1.32-.55,3.46-5.83-.4-1-6.45-1.73Zm4.65-7.84-3.46,5.83.4,1,6.45,1.73,1.32-.55,3.45-5.84-.39-1-6.45-1.73Zm4.65-7.85-3.46,5.84.39,1,6.45,1.73,1.32-.55,3.46-5.84-.4-1-6.44-1.73Zm4.64-7.84L405.41,247l.4,1,6.45,1.73,1.32-.55,3.46-5.84-.4-1-6.45-1.72Zm4.65-7.84-3.46,5.84.4,1,6.45,1.72,1.32-.54,3.46-5.84-.4-1-6.45-1.73Zm4.65-7.84-3.46,5.84.4,1,6.44,1.73,1.32-.54,3.46-5.84-.39-1L419.49,225ZM394.3,282.72l-3.46,5.84.4,1,6.45,1.72,1.32-.54,3.46-5.84-.4-1-6.45-1.73Zm4.65-7.84-3.46,5.84.4,1,6.44,1.73,1.32-.54,3.46-5.84-.4-1-6.44-1.73Zm4.64-7.84-3.46,5.84.4,1,6.45,1.73,1.32-.55,3.46-5.83-.4-1-6.45-1.73Zm4.65-7.84L404.78,265l.4,1,6.45,1.73,1.32-.55,3.46-5.83-.4-1-6.45-1.73Zm4.65-7.84-3.46,5.83.4,1,6.45,1.73,1.32-.55,3.46-5.84-.4-1-6.45-1.73Zm4.65-7.85-3.46,5.84.39,1,6.45,1.73,1.32-.55,3.46-5.84-.4-1L418.86,243Zm4.64-7.84-3.46,5.84.4,1,6.45,1.73,1.32-.55,3.46-5.84-.4-1-6.45-1.72Zm4.65-7.84-3.46,5.84.4,1,6.45,1.72,1.32-.54L435,230l-.4-1-6.45-1.73ZM403,285l-3.46,5.84.4,1,6.45,1.73,1.32-.55,3.46-5.84-.4-1-6.45-1.72Zm4.65-7.84L404.15,283l.4,1,6.45,1.72,1.32-.54,3.46-5.84-.4-1-6.45-1.73Zm4.65-7.84-3.46,5.84.4,1,6.44,1.73,1.32-.54,3.46-5.84-.39-1-6.45-1.73Zm4.64-7.84-3.46,5.84.4,1,6.45,1.73,1.32-.55,3.46-5.83-.4-1L418.22,261Zm4.65-7.84-3.46,5.83.4,1,6.45,1.73,1.32-.55,3.46-5.83-.4-1-6.45-1.73Zm4.65-7.84-3.46,5.83.4,1,6.45,1.73,1.32-.55,3.46-5.84-.4-1-6.45-1.73Zm4.65-7.85-3.46,5.84.4,1,6.44,1.73,1.32-.55,3.46-5.84-.4-1-6.44-1.72Zm4.64-7.84L432,236l.4,1,6.45,1.73,1.32-.55,3.46-5.84-.4-1-6.45-1.72Z"/><polygon class="cls-29" points="450.44 231.27 411.54 296.92 449.4 307.06 488.31 241.42 450.44 231.27"/><path class="cls-30" d="M418.31,289.12,414.85,295l.4,1,6.44,1.73,1.32-.55,3.46-5.83-.39-1-6.45-1.73Zm4.64-7.84-3.46,5.83.4,1,6.45,1.73,1.32-.55,3.46-5.84-.4-1-6.45-1.73Zm4.65-7.85-3.46,5.84.4,1L431,282l1.32-.55,3.46-5.84-.4-1-6.45-1.72Zm4.65-7.84-3.46,5.84.4,1,6.45,1.73,1.32-.55,3.46-5.84-.4-1-6.45-1.72Zm4.65-7.84-3.46,5.84.39,1,6.45,1.72,1.32-.54,3.46-5.84-.4-1-6.44-1.73Zm4.64-7.84-3.46,5.84.4,1,6.45,1.73,1.32-.54,3.46-5.84-.4-1-6.45-1.73Zm4.65-7.84-3.46,5.84.4,1,6.45,1.73,1.32-.55,3.46-5.83-.4-1-6.45-1.73Zm4.65-7.84-3.46,5.83.4,1,6.45,1.73,1.32-.55,3.45-5.83-.39-1-6.45-1.73ZM427,291.44l-3.46,5.84.4,1,6.45,1.73,1.32-.55,3.46-5.83-.4-1-6.45-1.73Zm4.65-7.84-3.46,5.83.4,1,6.44,1.73,1.32-.55,3.46-5.83-.39-1-6.45-1.73Zm4.64-7.84-3.45,5.83.39,1,6.45,1.73,1.32-.55,3.46-5.84-.4-1-6.45-1.73Zm4.65-7.85-3.46,5.84.4,1,6.45,1.73,1.32-.55,3.46-5.84-.4-1-6.45-1.72Zm4.65-7.84-3.46,5.84.4,1,6.45,1.73,1.32-.55,3.46-5.84-.4-1-6.45-1.72Zm4.65-7.84-3.46,5.84.4,1,6.44,1.72,1.32-.54,3.46-5.84-.4-1-6.44-1.73Zm4.64-7.84-3.46,5.84.4,1,6.45,1.73,1.32-.54,3.46-5.84-.4-1-6.45-1.73Zm4.65-7.84L456,242.39l.4,1,6.45,1.73,1.32-.55,3.46-5.83-.4-1L460.82,236Zm-23.87,57.21-3.46,5.84.4,1,6.45,1.73,1.32-.54L443.8,296l-.4-1L437,293.21Zm4.65-7.84-3.46,5.84.4,1,6.45,1.73,1.32-.55,3.46-5.83-.4-1-6.45-1.73Zm4.65-7.84-3.46,5.83.4,1,6.45,1.73,1.31-.55,3.46-5.83-.39-1-6.45-1.73Zm4.65-7.84-3.46,5.83.39,1,6.45,1.73,1.32-.55,3.46-5.84-.4-1-6.45-1.73Zm4.64-7.85-3.46,5.84.4,1,6.45,1.73,1.32-.55,3.46-5.84-.4-1-6.45-1.72Zm4.65-7.84-3.46,5.84.4,1,6.45,1.73,1.32-.55,3.46-5.84-.4-1L460.19,254Zm4.65-7.84-3.46,5.84.4,1,6.44,1.72,1.32-.54,3.46-5.84-.39-1-6.45-1.73Zm4.64-7.84-3.45,5.84.39,1,6.45,1.73,1.32-.54,3.46-5.84-.4-1-6.45-1.73ZM444.3,296.08l-3.46,5.84.4,1,6.44,1.72,1.32-.54,3.46-5.84-.4-1-6.44-1.73Zm4.64-7.84-3.46,5.84.4,1,6.45,1.73,1.32-.54,3.46-5.84-.4-1-6.45-1.73Zm4.65-7.84-3.46,5.84.4,1L457,289l1.32-.55,3.46-5.83-.4-1-6.45-1.73Zm4.65-7.84-3.46,5.83.4,1,6.45,1.73,1.32-.55,3.46-5.84-.4-1L459.56,272Zm4.65-7.84-3.46,5.83.39,1,6.45,1.73,1.32-.55,3.46-5.84-.4-1-6.44-1.73Zm4.64-7.85-3.46,5.84.4,1,6.45,1.73,1.32-.55,3.46-5.84-.4-1-6.45-1.72Zm4.65-7.84-3.46,5.84.4,1,6.45,1.73,1.32-.55,3.46-5.84-.4-1-6.45-1.72Zm4.65-7.84L473.37,247l.4,1,6.44,1.72,1.32-.54,3.46-5.84-.39-1-6.45-1.73Z"/><polygon class="cls-31" points="493.29 241.33 243.4 255.45 284.17 185.45 493.29 241.33"/><polygon class="cls-25" points="334.52 494.22 284.17 480.73 284.17 360.83 334.52 374.32 334.52 494.22"/><polygon class="cls-20" points="284.17 360.83 284.17 480.73 290.05 479.15 290.05 362.4 284.17 360.83"/><polygon class="cls-22" points="334.52 494.22 284.17 480.73 290.05 479.15 334.52 491.07 334.52 494.22"/><polygon class="cls-23" points="330.33 485.67 294.36 476.03 294.36 366 330.33 375.64 330.33 485.67"/><polygon class="cls-25" points="384.86 507.95 334.52 494.46 334.52 374.56 384.86 388.05 384.86 507.95"/><polygon class="cls-20" points="334.52 374.56 334.52 494.46 340.39 492.89 340.39 376.13 334.52 374.56"/><polygon class="cls-22" points="384.86 507.95 334.52 494.46 340.39 492.89 384.86 504.8 384.86 507.95"/><polygon class="cls-26" points="380.68 499.4 344.7 489.76 344.7 379.73 380.68 389.37 380.68 499.4"/><polygon class="cls-25" points="435.21 521.49 384.86 508 384.86 388.1 435.21 401.59 435.21 521.49"/><polygon class="cls-20" points="384.86 388.1 384.86 508 390.73 506.43 390.73 389.67 384.86 388.1"/><polygon class="cls-22" points="435.21 521.49 384.86 508 390.73 506.43 435.21 518.34 435.21 521.49"/><polygon class="cls-27" points="431.02 512.94 395.05 503.3 395.05 393.27 431.02 402.91 431.02 512.94"/><polygon class="cls-25" points="284.17 480.86 233.83 467.37 233.83 347.47 284.17 360.96 284.17 480.86"/><polygon class="cls-20" points="233.83 347.47 233.83 467.37 239.7 465.79 239.7 349.04 233.83 347.47"/><polygon class="cls-22" points="284.17 480.86 233.83 467.37 239.7 465.79 284.17 477.71 284.17 480.86"/><polygon class="cls-26" points="279.99 472.31 244.02 462.67 244.02 352.64 279.99 362.28 279.99 472.31"/><polygon class="cls-31" points="239.7 349.04 435.21 401.59 239.7 465.79 239.7 349.04"/><polygon class="cls-31" points="571.46 410.43 611.87 399.61 571.46 516.52 571.46 410.43"/><polyline class="cls-31" points="571.46 276.29 611.87 265.46 571.46 336.66 571.46 276.29"/><polygon class="cls-23" points="952.71 355.3 952.71 382.67 946.04 384.46 939.36 386.25 939.36 358.88 946.04 357.09 952.71 355.3"/><polygon class="cls-1" points="939.36 358.88 939.36 386.25 930.53 383.88 930.53 356.51 939.36 358.88"/><polygon class="cls-25" points="952.71 355.3 946.04 357.09 939.36 358.88 930.53 356.51 937.21 354.72 943.88 352.93 952.71 355.3"/><path class="cls-3" d="M532.57,559.67c0,4.14-10.19,7.5-22.76,7.5s-22.75-3.36-22.75-7.5,10.18-7.49,22.75-7.49S532.57,555.54,532.57,559.67Z"/><path class="cls-3" d="M522.52,560.07c0,2.75-7.64,5-17.07,5s-17.06-2.24-17.06-5,7.64-5,17.06-5S522.52,557.31,522.52,560.07Z"/><path class="cls-1" d="M503.13,529.47a60.55,60.55,0,0,1,.11-6.76c-6.24-2.15-9.86-19.42-9.86-19.42,4.7,10.1,8.47,15.27,10.42,15.81.22-2.17.49-7.33.61-9.49a51.85,51.85,0,0,1,.48-5.23c.4-2.36-.79-13,.26-14,0,0,2,15.52,2.78,13.79,2.58-5.39,4-6.21,7-10.78.38-.57-7,15.15-7,16,.31,3.54.71,8.68,1.21,16.12A59.8,59.8,0,0,0,517,520.1c-1.35-4.59,3-13.61,3-13.61-.13,4.86-2,11.33-1.11,11.93,1.9-2.26,11.45-9.4,13.7-12.33,0,0-13.35,17.52-23,24.28.45,5.69.63,15,.86,16.87.49,3.79,1.25,8.18,2,11.5.59.68-3.08,2.91-6.46,2.31-3.12-.54-5.37-.88-4.84-2.31.19-1.65.6-3.22.64-5,.07-3.5.17-15.82.58-18.27-14.09-7-25.92-23.88-25.92-23.88C486.55,521.51,498.92,529.14,503.13,529.47Z"/><g class="cls-32"><path class="cls-5" d="M509.56,530.37s-1.51,3.34-1.51,5.26-.48,14.92,0,16.12,1.51,13,1.51,13,.74-14.36.86-17.5C510.5,545,509.56,530.37,509.56,530.37Z"/><path class="cls-6" d="M504.51,564s1.14-7.46.66-11.79-1.45-5.05-.72-11.06,1.68-11.79,1.44-14.92-.24-10.82-.24-10.82l-2.41,7.28s.48-1.75-1.68-3-3.13,0-3.13,0l4.7,9.71s.59,3.76-.37,3.28-5.05-1.21-7-2.41-6.26-.72-3.61.24,9.14,14.44,9.14,15.64.72,11.06.48,14.67S504.51,564,504.51,564Z"/><path class="cls-5" d="M516.47,530.58s-4.09-2.16-4.81-2.4-3.37.24-3.61,1.44-2.4,5.53-3.6,5-1.21-4.57-2.89-5.77-6.74-1.69-8.66-.48-21.41-8.66-21.41-8.66,1.44-32.24,2.4-32.24,43.06.72,43.06.72l6.26,29.11Z"/></g><path class="cls-7" d="M456.33,501.82a17.54,17.54,0,0,0,19.23,21.75A22.2,22.2,0,0,0,506,527.26a21.54,21.54,0,0,0,5.36-6.06,22.18,22.18,0,0,0,29.79,2.88c9.63-7.39,11.3-21.36,3.73-31.23a22.74,22.74,0,0,0-11.78-8s0-.06,0-.08a22.34,22.34,0,0,0,1-28.75,23.83,23.83,0,0,0-3.43-3.58,9.22,9.22,0,0,0-7.93-8,9.37,9.37,0,0,0-6.3,1.35A17.36,17.36,0,0,0,488.43,465a14,14,0,0,0-8.18,8.38,21.5,21.5,0,0,0-21.32,12.84,7.9,7.9,0,1,0-2.6,15.57Z"/><path class="cls-8" d="M456.33,501.82a7.9,7.9,0,1,1,2.6-15.57,21.5,21.5,0,0,1,21.32-12.84,14,14,0,0,1,8.18-8.38,17.36,17.36,0,0,1,28.08-19.29,9.37,9.37,0,0,1,6.3-1.35,9.57,9.57,0,0,1,2,.53c-.8.65-1.76,1.43-2.85,2.38-3.09,2.64-3.65,3.61-3.65,3.61S508,450,503.67,456.07c-9.23,12.86,1.46,23.87,1.46,23.87s-12.26-3.93-20.05-.15c-6.54,3.17-12.61,9-14.83,15.17-5.27,14.64,9.86,20.39,9.86,20.39s4.94.09,1.37,5.36a9.7,9.7,0,0,0-1.46,6.92,23.06,23.06,0,0,1-4.46-4.06,17.54,17.54,0,0,1-19.23-21.75Zm23.18,2.1a4.76,4.76,0,1,0-6.7-.69A4.75,4.75,0,0,0,479.51,503.92Zm2.06-10.05a3,3,0,1,0-4.24-.44A3,3,0,0,0,481.57,493.87Zm33.83-34a3,3,0,1,0-4.25-.44A3,3,0,0,0,515.4,459.85Zm-33.28,48.56a2.22,2.22,0,1,0-3.12-.32A2.22,2.22,0,0,0,482.12,508.41Zm32.08-41.74a2.22,2.22,0,1,0-3.12-.32A2.22,2.22,0,0,0,514.2,466.67Z"/><path class="cls-9" d="M522,490c-6.26,2.51-7.79,3-7.23,1.22,1.49-4.84,2.58-6.09,9.74-9.62,11.73-5.8,8.72-23.59,7.53-28.07a23.12,23.12,0,0,1,2.18,2.43,22.34,22.34,0,0,1-1,28.75s0,.05,0,.08a22.74,22.74,0,0,1,11.78,8c7.57,9.87,5.9,23.84-3.73,31.23a21.74,21.74,0,0,1-19.53,3.53c-18.12-20.43,11.54-2.63,17.94-10.8C551.7,501.36,535.53,484.61,522,490Zm-6,22.06c-.21-3.93-.66-.53-6.16,2.77-6,3.62-19-.13-24.07,3.38-1.87,1.29,5.71,12.37,4.5,13.3A21.44,21.44,0,0,0,511.4,521.2S516.18,516,516,512.1Zm-54-15.38a3,3,0,1,0-4.25-.44A3,3,0,0,0,462,496.72Zm-.6,5.37a1.94,1.94,0,1,0-2.73-.28A1.95,1.95,0,0,0,461.37,502.09ZM539.28,508a3,3,0,1,0-4.25-.44A3,3,0,0,0,539.28,508Zm-11.73-30.21a4.92,4.92,0,1,0-6.93-.71A4.92,4.92,0,0,0,527.55,477.81Zm11.67,35.26a1.42,1.42,0,1,0-2-.21A1.43,1.43,0,0,0,539.22,513.07Zm-24.12-4.93a1.42,1.42,0,1,0-2-.21A1.43,1.43,0,0,0,515.1,508.14Z"/><path class="cls-3" d="M728.23,499.55c0,4.68-11.51,8.47-25.71,8.47s-25.72-3.79-25.72-8.47,11.52-8.46,25.72-8.46S728.23,494.88,728.23,499.55Z"/><path class="cls-3" d="M713.7,498.7c0,2.42-6.72,4.39-15,4.39s-15-2-15-4.39,6.73-4.4,15-4.4S713.7,496.27,713.7,498.7Z"/><path class="cls-1" d="M706.19,497.5c-.29,2.09-.35,3.66-4.16,3.83-4.47.21-12.79-1.33-13-3.83,0,0,.43-18.07,5.59-30.54s4.72-37.42,5.16-42.15a12.74,12.74,0,0,1,2.58-7.1l3.88,3.4s.86,22.19,0,30.36-2.8,16.44-3.45,25.53C702.2,484.59,706.19,497.5,706.19,497.5Z"/><g class="cls-33"><path class="cls-5" d="M701.28,502.33s-5-16-2.77-23.06,5.81-31.94,5.81-36.14.64-14.84-1.29-16.45-3.87,2.9-3.87,2.9-2.91-16.78-1.94-16.78,21,1.94,21,1.94l-8.71,75.5.32,9.35Z"/><path class="cls-5" d="M690.49,476.52s4.5-1.64,5.25-.6.15,1.35,1.64,3.75,6.59,2.25,7,1.95,5.69-.15,4.64-1.8.45-15.58-2.24-15.88-14.38-1.19-14.38-.75S690.49,476.52,690.49,476.52Z"/><path class="cls-6" d="M692.61,501.93s-.42-8.73,0-13,2.14-4.68,2-7.64a18.46,18.46,0,0,0-1.5-5.84s-1,3.44-1.5,6a86.94,86.94,0,0,0-.84,9.61c-.17,2.75,0,9.53,0,9.53Z"/></g><path class="cls-11" d="M738,459a16.13,16.13,0,0,0-1.1-26.67A20.4,20.4,0,0,0,717.34,412a19.49,19.49,0,0,0-7.34,1.21,20.18,20.18,0,0,0-40.35.78,20.81,20.81,0,0,0,3.74,12.55l0,.07A20.76,20.76,0,0,0,656.31,451a8.46,8.46,0,0,0,1,10.33,8.55,8.55,0,0,0,5.27,2.69,16,16,0,0,0,31.22,2.53,12.83,12.83,0,0,0,10.7-1.23,19.75,19.75,0,0,0,22.65,3.2A7.26,7.26,0,1,0,738,459Z"/><path class="cls-8" d="M687.33,400c9.31-2.11,13-.26,19.07,2.71a20,20,0,0,0-16-8.82A20.44,20.44,0,0,0,669.65,414a20.81,20.81,0,0,0,3.74,12.55l0,.07a20.53,20.53,0,0,0-17.42,19.9,19.65,19.65,0,0,0,.14,3c1.75-3.88,9.92-18.32,21.66-15.65,7.15,1.64,8.65,1.38,12.53-1.21,1.42-.94.05-1.48-5.87-3.33C671.56,425.28,669.74,404,687.33,400Z"/><path class="cls-8" d="M701.46,417c-2.13,2.93.31,3.12,6,1.6,3.3-.88,9.61-2.31,15.27-1.86,2.07.16,7,1.28,8.37,1.31a19.84,19.84,0,0,0-13.76-6.1,19.49,19.49,0,0,0-7.34,1.21S703.6,414.08,701.46,417Z"/><g class="cls-12"><path class="cls-9" d="M744.57,446a16.11,16.11,0,0,0-7.63-13.71,21.18,21.18,0,0,0-.83-5.49,8.86,8.86,0,0,1-5.05,4.09c-5.6,1.7-2.13,4.63-2.13,4.63s-3.41-8.26-15.67-.87c-5.17,3.12-7.08,7.72-13.58,6.19-7.75-1.82-8.95,1.81-9.14,5.42s1.24,14.05-12.8,17.87c-6.65,1.81-13.44-4.81-13.44-4.81a17.81,17.81,0,0,1-4.7.47c-1.32,0-2.46,0-3.41,0a8.7,8.7,0,0,0,1.12,1.53,8.55,8.55,0,0,0,5.27,2.69,16,16,0,0,0,31.22,2.53,12.83,12.83,0,0,0,10.7-1.23,19.75,19.75,0,0,0,22.65,3.2A7.26,7.26,0,1,0,738,459,16.12,16.12,0,0,0,744.57,446Z"/><path class="cls-9" d="M727.1,448.38a4.38,4.38,0,1,1-4.37-4.38A4.37,4.37,0,0,1,727.1,448.38Z"/><path class="cls-9" d="M718.19,452.75a2.78,2.78,0,1,1-2.77-2.77A2.78,2.78,0,0,1,718.19,452.75Z"/><path class="cls-9" d="M674.33,457.4a2.78,2.78,0,1,1-2.77-2.78A2.77,2.77,0,0,1,674.33,457.4Z"/><path class="cls-9" d="M725.5,441.33a2,2,0,1,1-2-2A2,2,0,0,1,725.5,441.33Z"/><path class="cls-9" d="M678.41,452.49a2,2,0,1,1-2-2A2,2,0,0,1,678.41,452.49Z"/></g><path class="cls-13" d="M733.84,462.09a2.78,2.78,0,1,1-2.78-2.78A2.78,2.78,0,0,1,733.84,462.09Z"/><path class="cls-13" d="M736.38,457.62a1.78,1.78,0,1,1-1.78-1.79A1.77,1.77,0,0,1,736.38,457.62Z"/><path class="cls-8" d="M685.24,409.18a2.78,2.78,0,1,1-2.77-2.77A2.77,2.77,0,0,1,685.24,409.18Z"/><path class="cls-8" d="M677.84,439.29a4.53,4.53,0,1,1-4.53-4.53A4.53,4.53,0,0,1,677.84,439.29Z"/><path class="cls-8" d="M686.74,404.14a1.31,1.31,0,1,1-2.61,0,1.31,1.31,0,0,1,2.61,0Z"/><path class="cls-8" d="M701.09,421.66a1.31,1.31,0,1,1-1.31-1.31A1.31,1.31,0,0,1,701.09,421.66Z"/><path class="cls-11" d="M744.32,449.1a5.7,5.7,0,0,0-6.14,1.35,11.11,11.11,0,0,0-11.44-4.22,11.33,11.33,0,0,0-.59-7.14,11,11,0,0,0-20.61,7.63,10.68,10.68,0,0,0-4,.85,11.13,11.13,0,0,0-5.72,14.67,11.57,11.57,0,0,0,2,3.12,11.57,11.57,0,0,0,.81,6,11.16,11.16,0,0,0,14.54,6.06,10.79,10.79,0,0,0,4.31-3.34,2.81,2.81,0,0,0,.35.17,6.93,6.93,0,0,0,9-4,7,7,0,0,0,.47-2.13,10.66,10.66,0,0,0,9.88-2.81,4,4,0,0,0,1.87,1.5,4.21,4.21,0,0,0,5.43-2.44,4.26,4.26,0,0,0-.64-4.26,5.9,5.9,0,0,0,3.68-3.47A5.78,5.78,0,0,0,744.32,449.1Z"/><path class="cls-8" d="M717.55,438.07a2.05,2.05,0,1,1-2.66-1.16A2,2,0,0,1,717.55,438.07Z"/><path class="cls-8" d="M712.72,438.93a1,1,0,1,1-1.25-.55A1,1,0,0,1,712.72,438.93Z"/><path class="cls-8" d="M741.58,450.86a1,1,0,0,1-.55,1.25,1,1,0,0,1-.7-1.79A1,1,0,0,1,741.58,450.86Z"/><g class="cls-12"><path class="cls-9" d="M713.18,477.4a10.79,10.79,0,0,0,4.31-3.34,2.81,2.81,0,0,0,.35.17,6.93,6.93,0,0,0,9-4,7,7,0,0,0,.47-2.13,10.66,10.66,0,0,0,9.88-2.81,4,4,0,0,0,1.87,1.5,4.21,4.21,0,0,0,5.43-2.44,4.26,4.26,0,0,0-.64-4.26,5.9,5.9,0,0,0,3.68-3.47,5.82,5.82,0,0,0-2-6.91c0,1.88-.22,4.25-.9,5.48-1.23,2.24-4.58-.37-7.16-1.47s-2.64,1.25-4.7,3.55-5.49,1-9.86,1.26-8.94,8.43-10.85,10-4.41,4.9-9.16,4.65a8.81,8.81,0,0,1-3.8-1.08A11.11,11.11,0,0,0,713.18,477.4Z"/><path class="cls-9" d="M730.52,454.76a2.36,2.36,0,1,1-3-1.33A2.36,2.36,0,0,1,730.52,454.76Z"/><path class="cls-9" d="M704.67,462a2,2,0,1,1-2.56-1.12A2,2,0,0,1,704.67,462Z"/><path class="cls-9" d="M732.93,453.06a1.08,1.08,0,0,1-.61,1.4,1.09,1.09,0,0,1-1.4-.61,1.08,1.08,0,0,1,2-.79Z"/><path class="cls-9" d="M700.08,463.64a1.08,1.08,0,1,1-2,.79,1.08,1.08,0,1,1,2-.79Z"/><path class="cls-9" d="M704.55,458.63a1.1,1.1,0,1,1-1.43-.63A1.1,1.1,0,0,1,704.55,458.63Z"/></g><path class="cls-8" d="M711.61,433a11.1,11.1,0,0,0-6.07,13.69,10.68,10.68,0,0,0-4,.85,11,11,0,0,0-6.6,9.34c3.13-5,10.39-6.8,14-7.38a.7.7,0,0,0,.57-.57.68.68,0,0,0-.36-.73l-1.51-.8a1.23,1.23,0,0,1-.64-1.29c.5-3.07,3.06-12.95,14.91-12.09A10.92,10.92,0,0,0,711.61,433Z"/><path class="cls-8" d="M726.75,446.2a22.47,22.47,0,0,0-8.21,7.54,40.68,40.68,0,0,1,11.86-6.11,17.7,17.7,0,0,1,3.85-.48,10.93,10.93,0,0,0-7.51-.92A0,0,0,0,0,726.75,446.2Z"/><path class="cls-11" d="M721.23,465a2,2,0,1,1-2.65-1.16A2,2,0,0,1,721.23,465Z"/><path class="cls-11" d="M720.55,461.5a1,1,0,1,1-1.25-.54A1,1,0,0,1,720.55,461.5Z"/><path class="cls-15" d="M1232.78,327.1c0,4.93,15.94,8.93,35.59,8.93s35.59-4,35.59-8.93-15.93-8.93-35.59-8.93S1232.78,322.17,1232.78,327.1Z"/><path class="cls-3" d="M1248.5,327.57c0,3.28,12,5.95,26.69,5.95s26.69-2.67,26.69-5.95-12-5.95-26.69-5.95S1248.5,324.28,1248.5,327.57Z"/><path class="cls-1" d="M1285.67,319.7c-.77-.44.87-5.24,1-8.84,0,0-3.8,6.68-2.62,10.09a51.46,51.46,0,0,1-6.86,4.07c-.44-5.51-.79-9.32-1.06-11.95-.07-.66,6.45-12.31,6.11-11.89-2.68,3.38-3.91,4-6.17,8-.73,1.28-2.45-10.23-2.45-10.23-.92.74.13,8.61-.22,10.36a32.85,32.85,0,0,0-.43,3.87c-.1,1.61-.34,5.43-.53,7-1.72-.4-5-4.23-9.14-11.72,0,0,3.17,12.81,8.65,14.39,0,.62-.08,1.17-.11,1.67-6.66-2.39-18.57-5.88-23.42-9.89,0,0,2.28,5.79,22.29,11.17l.84.89a1.51,1.51,0,0,0,1.61,1.42c1.18.06,2.6-.18,3.25.78s1.32-.24,3.33-1.48a13.13,13.13,0,0,0,1.76-1.61c7.76-5.9,16.21-15.27,16.21-15.27C1295.71,312.74,1287.34,318,1285.67,319.7Z"/><path class="cls-11" d="M1308.58,304.25a7.91,7.91,0,0,0-8.62-1.37,15.42,15.42,0,0,0-12.66-11.25,15.83,15.83,0,0,0,2.86-9.55,15.27,15.27,0,0,0-30.52-.59,14.85,14.85,0,0,0-5.55-.91,15.46,15.46,0,0,0-14.84,16.07,15.77,15.77,0,0,0,1,5,15.85,15.85,0,0,0-2,8.14A15.46,15.46,0,0,0,1254,325a14.87,14.87,0,0,0,7.26-2.13c.13.14.23.28.37.41a9.65,9.65,0,0,0,13.63-.6,9.86,9.86,0,0,0,1.68-2.53,14.84,14.84,0,0,0,14.21,1.39,5.67,5.67,0,0,0,1.64,2.88,5.86,5.86,0,0,0,8.27-.39,6,6,0,0,0,1.34-5.84,8.15,8.15,0,0,0,6.51-2.62A8,8,0,0,0,1308.58,304.25Z"/><path class="cls-8" d="M1279.56,276.4a2.85,2.85,0,1,1-2.84-2.85A2.84,2.84,0,0,1,1279.56,276.4Z"/><path class="cls-8" d="M1272.88,275.06a1.34,1.34,0,1,1-1.33-1.34A1.33,1.33,0,0,1,1272.88,275.06Z"/><path class="cls-8" d="M1304.13,305.14a1.34,1.34,0,1,1-1.33-1.34A1.34,1.34,0,0,1,1304.13,305.14Z"/><g class="cls-12"><path class="cls-9" d="M1254,325a14.87,14.87,0,0,0,7.26-2.13c.13.14.23.28.37.41a9.65,9.65,0,0,0,13.63-.6,9.86,9.86,0,0,0,1.68-2.53,14.84,14.84,0,0,0,14.21,1.39,5.67,5.67,0,0,0,1.64,2.88,5.86,5.86,0,0,0,8.27-.39,6,6,0,0,0,1.34-5.84,8.19,8.19,0,0,0,7.4-12.58c-1,2.41-2.44,5.38-4,6.64-2.73,2.26-5.74-2.82-8.51-5.55s-4,.28-7.88,2.21-7.59-1.54-13.38-3.38-15.85,6.36-19.13,7.46-8.19,4.09-14.2,1.36a12.15,12.15,0,0,1-4.37-3.33A15.42,15.42,0,0,0,1254,325Z"/><path class="cls-9" d="M1287.86,304.57a3.28,3.28,0,1,1-3.27-3.27A3.27,3.27,0,0,1,1287.86,304.57Z"/><path class="cls-9" d="M1250.75,300.84a2.75,2.75,0,1,1-2.75-2.75A2.75,2.75,0,0,1,1250.75,300.84Z"/><path class="cls-9" d="M1291.84,303.59a1.5,1.5,0,1,1-1.5-1.5A1.5,1.5,0,0,1,1291.84,303.59Z"/><path class="cls-9" d="M1244,300.59a1.5,1.5,0,1,1-1.49-1.5A1.5,1.5,0,0,1,1244,300.59Z"/><path class="cls-9" d="M1252.32,296.38a1.53,1.53,0,1,1-1.53-1.53A1.53,1.53,0,0,1,1252.32,296.38Z"/></g><path class="cls-8" d="M1274.45,266.87a15.42,15.42,0,0,0-14.81,14.62,15.05,15.05,0,0,0-5.55-.91,15.23,15.23,0,0,0-13.28,8.73c6.6-4.92,16.9-3.52,21.9-2.42a1,1,0,0,0,1-.45,1,1,0,0,0-.1-1.12l-1.55-1.8a1.72,1.72,0,0,1-.17-2c2.21-3.71,10.53-15.2,25.41-8.06A15.15,15.15,0,0,0,1274.45,266.87Z"/><path class="cls-8" d="M1287.33,291.58a31.32,31.32,0,0,0-14.45,5.59s9.7-2.79,18.44-1.88a24.93,24.93,0,0,1,5.22,1.32,15.11,15.11,0,0,0-9.24-5Z"/><path class="cls-11" d="M1270.67,313a2.84,2.84,0,1,1-2.84-2.84A2.85,2.85,0,0,1,1270.67,313Z"/><path class="cls-11" d="M1271.55,308.23a1.34,1.34,0,1,1-1.34-1.34A1.34,1.34,0,0,1,1271.55,308.23Z"/><path class="cls-15" d="M1253.78,337.72c0,4.4-10.82,8-24.17,8s-24.16-3.56-24.16-8,10.82-8,24.16-8S1253.78,333.33,1253.78,337.72Z"/><path class="cls-3" d="M1243.1,338.14c0,2.93-8.11,5.3-18.12,5.3s-18.12-2.37-18.12-5.3,8.11-5.31,18.12-5.31S1243.1,335.21,1243.1,338.14Z"/><path class="cls-1" d="M1222.51,305.65a65.91,65.91,0,0,1,.12-7.18c-6.62-2.28-10.47-20.62-10.47-20.62,5,10.72,9,16.22,11.06,16.79.24-2.31.53-7.78.66-10.08a51.75,51.75,0,0,1,.51-5.55c.42-2.51-.85-13.77.27-14.83,0,0,2.08,16.48,3,14.65,2.73-5.73,4.22-6.6,7.47-11.45.4-.6-7.48,16.08-7.4,17,.33,3.76.75,9.22,1.28,17.12a63,63,0,0,0,8.31-5.83c-1.44-4.87,3.16-14.45,3.16-14.45-.13,5.16-2.11,12-1.18,12.66,2-2.4,12.16-10,14.55-13.09,0,0-14.18,18.6-24.46,25.78.47,6,.66,16,.91,17.92.52,4,1.32,8.69,2.14,12.21.62.72-3.27,3.09-6.87,2.46-3.31-.58-5.7-.94-5.14-2.46.2-1.75.64-3.42.68-5.28.08-3.72.18-16.8.61-19.41-15-7.44-27.51-25.36-27.51-25.36C1204.91,297.2,1218,305.3,1222.51,305.65Z"/><g class="cls-34"><path class="cls-5" d="M1229.35,306.6s-1.61,3.55-1.61,5.59-.51,15.84,0,17.12,1.61,13.79,1.61,13.79.78-15.25.91-18.58C1230.35,322.17,1229.35,306.6,1229.35,306.6Z"/><path class="cls-6" d="M1224,342.34s1.2-7.92.69-12.52-1.53-5.36-.77-11.75,1.79-12.52,1.54-15.84-.26-11.49-.26-11.49l-2.56,7.73s.52-1.86-1.78-3.13-3.32,0-3.32,0l5,10.31s.64,4-.39,3.48-5.36-1.28-7.4-2.56-6.64-.76-3.83.26,9.7,15.33,9.7,16.6.77,11.75.51,15.59S1224,342.34,1224,342.34Z"/><path class="cls-5" d="M1236.69,306.83s-4.35-2.3-5.11-2.55-3.58.25-3.84,1.53-2.55,5.87-3.83,5.36-1.27-4.85-3.06-6.13-7.15-1.79-9.2-.51-22.73-9.19-22.73-9.19,1.53-34.23,2.55-34.23,45.73.76,45.73.76l6.64,30.91Z"/></g><path class="cls-7" d="M1172.82,276.29a18.62,18.62,0,0,0,20.42,23.09c8.17,9.73,22.42,11.56,32.36,3.92a22.72,22.72,0,0,0,5.7-6.43,23.55,23.55,0,0,0,31.63,3.06c10.23-7.85,12-22.69,4-33.16a24.16,24.16,0,0,0-12.51-8.53s0-.05,0-.08a23.71,23.71,0,0,0,1.11-30.53,24.27,24.27,0,0,0-3.64-3.79,9.88,9.88,0,0,0-15.1-7.1,18.44,18.44,0,0,0-29.83,20.48,14.84,14.84,0,0,0-8.68,8.9,22.79,22.79,0,0,0-22.63,13.64,8.38,8.38,0,1,0-2.77,16.53Z"/><path class="cls-8" d="M1172.82,276.29a8.38,8.38,0,1,1,2.77-16.53,22.79,22.79,0,0,1,22.63-13.64,14.84,14.84,0,0,1,8.68-8.9,18.44,18.44,0,0,1,29.83-20.48,9.64,9.64,0,0,1,8.79-.87c-.84.68-1.86,1.52-3,2.52-3.28,2.81-3.87,3.84-3.87,3.84s-10.91-1-15.55,5.48c-9.79,13.66,1.55,25.34,1.55,25.34s-13-4.17-21.28-.16c-6.95,3.37-13.39,9.54-15.75,16.11-5.6,15.55,10.47,21.65,10.47,21.65s5.24.1,1.45,5.7a10.32,10.32,0,0,0-1.54,7.35,24.46,24.46,0,0,1-4.74-4.32,18.62,18.62,0,0,1-20.42-23.09Zm24.61,2.23a5.05,5.05,0,1,0-7.11-.73A5,5,0,0,0,1197.43,278.52Zm2.19-10.67a3.21,3.21,0,1,0-4.5-.47A3.2,3.2,0,0,0,1199.62,267.85Zm35.93-36.13a3.21,3.21,0,1,0-4.51-.46A3.21,3.21,0,0,0,1235.55,231.72Zm-35.35,51.56a2.35,2.35,0,1,0-3.31-.34A2.36,2.36,0,0,0,1200.2,283.28ZM1234.27,239a2.35,2.35,0,1,0-3.32-.34A2.35,2.35,0,0,0,1234.27,239Z"/><path class="cls-9" d="M1242.5,263.78c-6.65,2.67-8.27,3.17-7.68,1.29,1.59-5.14,2.75-6.46,10.34-10.21,12.46-6.15,9.27-25.05,8-29.81a24.86,24.86,0,0,1,2.3,2.58,23.71,23.71,0,0,1-1.11,30.53s0,.06,0,.08a24.16,24.16,0,0,1,12.51,8.53c8,10.47,6.27,25.31-4,33.16a23.09,23.09,0,0,1-20.74,3.74c-19.24-21.68,12.25-2.79,19-11.47C1274.1,275.8,1256.92,258,1242.5,263.78Zm-6.35,23.43c-.23-4.18-.7-.57-6.54,2.94-6.41,3.84-20.17-.14-25.56,3.59-2,1.36,6.06,13.13,4.78,14.12a22.82,22.82,0,0,0,22.47-11S1236.37,291.39,1236.15,287.21Zm-57.34-16.34a3.2,3.2,0,1,0-4.51-.46A3.19,3.19,0,0,0,1178.81,270.87Zm-.64,5.7a2.06,2.06,0,1,0-2.9-.3A2.06,2.06,0,0,0,1178.17,276.57Zm82.73,6.3a3.2,3.2,0,1,0-4.51-.46A3.21,3.21,0,0,0,1260.9,282.87Zm-12.46-32.08a5.22,5.22,0,1,0-7.35-.75A5.21,5.21,0,0,0,1248.44,250.79Zm12.4,37.44a1.5,1.5,0,1,0-1.9-2.33,1.5,1.5,0,1,0,1.9,2.33ZM1235.23,283a1.51,1.51,0,1,0-2.12-.22A1.51,1.51,0,0,0,1235.23,283Z"/></g></g></g></svg>
